<svg width="497" height="384" viewBox="0 0 497 384" fill="none" xmlns="http://www.w3.org/2000/svg">
<g filter="url(#filter0_n_29_1394)">
<mask id="path-1-outside-1_29_1394" maskUnits="userSpaceOnUse" x="0" y="0" width="497" height="384" fill="black">
<rect fill="white" width="497" height="384"/>
<path d="M165.568 380.144C134.165 380.144 106.176 372.123 81.6 356.08C57.3653 339.696 38.2507 317.339 24.256 289.008C10.2613 260.336 3.264 227.739 3.264 191.216C3.264 154.693 10.0907 122.267 23.744 93.936C37.7387 65.6053 56.8533 43.4186 81.088 27.376C105.323 11.3333 133.141 3.31198 164.544 3.31198C196.288 3.31198 224.277 11.3333 248.512 27.376C273.088 43.4186 292.203 65.6053 305.856 93.936C319.851 122.267 326.848 154.864 326.848 191.728C326.848 228.592 319.851 261.189 305.856 289.52C292.203 317.851 273.259 340.037 249.024 356.08C224.789 372.123 196.971 380.144 165.568 380.144ZM165.056 293.104C177.685 293.104 188.437 289.179 197.312 281.328C206.187 273.477 212.843 262.043 217.28 247.024C222.059 231.664 224.448 213.232 224.448 191.728C224.448 170.224 222.059 151.963 217.28 136.944C212.843 121.925 206.187 110.491 197.312 102.64C188.437 94.448 177.515 90.352 164.544 90.352C152.256 90.352 141.675 94.2773 132.8 102.128C123.925 109.979 117.099 121.413 112.32 136.432C107.883 151.451 105.664 169.712 105.664 191.216C105.664 212.72 107.883 231.152 112.32 246.512C117.099 261.531 123.925 273.136 132.8 281.328C141.675 289.179 152.427 293.104 165.056 293.104ZM392.272 374V9.45599H493.648V374H392.272ZM324.176 93.424V9.45599H488.528V93.424H324.176Z"/>
</mask>
<path d="M81.6 356.08L79.9198 358.565L79.9399 358.579L79.9601 358.592L81.6 356.08ZM24.256 289.008L21.56 290.324L21.5631 290.33L21.5663 290.337L24.256 289.008ZM23.744 93.936L21.0543 92.6073L21.0478 92.6204L21.0415 92.6335L23.744 93.936ZM81.088 27.376L82.744 29.8775L82.744 29.8775L81.088 27.376ZM248.512 27.376L246.856 29.8775L246.864 29.8829L246.872 29.8881L248.512 27.376ZM305.856 93.936L303.153 95.2384L303.16 95.2515L303.166 95.2646L305.856 93.936ZM305.856 289.52L303.166 288.191L303.16 288.204L303.153 288.218L305.856 289.52ZM249.024 356.08L250.68 358.582L250.68 358.582L249.024 356.08ZM217.28 247.024L214.415 246.133L214.409 246.153L214.403 246.174L217.28 247.024ZM217.28 136.944L214.403 137.794L214.412 137.824L214.421 137.854L217.28 136.944ZM197.312 102.64L195.277 104.844L195.301 104.866L195.324 104.887L197.312 102.64ZM132.8 102.128L130.812 99.881L130.812 99.881L132.8 102.128ZM112.32 136.432L109.461 135.522L109.452 135.552L109.443 135.582L112.32 136.432ZM112.32 246.512L109.438 247.345L109.449 247.383L109.461 247.422L112.32 246.512ZM132.8 281.328L130.765 283.532L130.788 283.554L130.812 283.575L132.8 281.328ZM165.568 380.144V377.144C134.705 377.144 107.294 369.27 83.2399 353.568L81.6 356.08L79.9601 358.592C105.058 374.976 133.626 383.144 165.568 383.144V380.144ZM81.6 356.08L83.2802 353.595C59.511 337.525 40.729 315.582 26.9457 287.679L24.256 289.008L21.5663 290.337C35.7724 319.095 55.2197 341.867 79.9198 358.565L81.6 356.08ZM24.256 289.008L26.952 287.692C13.1845 259.485 6.264 227.349 6.264 191.216H3.264H0.264001C0.264001 228.129 7.33818 261.187 21.56 290.324L24.256 289.008ZM3.264 191.216H6.264C6.264 155.072 13.0182 123.102 26.4465 95.2384L23.744 93.936L21.0415 92.6335C7.16311 121.431 0.264001 154.315 0.264001 191.216H3.264ZM23.744 93.936L26.4337 95.2646C40.2147 67.3667 58.9896 45.6022 82.744 29.8775L81.088 27.376L79.432 24.8744C54.717 41.2351 35.2627 63.844 21.0543 92.6073L23.744 93.936ZM81.088 27.376L82.744 29.8775C106.448 14.1863 133.681 6.31198 164.544 6.31198V3.31198V0.311981C132.602 0.311981 104.198 8.48034 79.432 24.8744L81.088 27.376ZM164.544 3.31198V6.31198C195.756 6.31198 223.158 14.1899 246.856 29.8775L248.512 27.376L250.168 24.8744C225.397 8.47675 196.82 0.311981 164.544 0.311981V3.31198ZM248.512 27.376L246.872 29.8881C270.957 45.6104 289.72 67.3637 303.153 95.2384L305.856 93.936L308.559 92.6335C294.685 63.847 275.219 41.2268 250.152 24.8638L248.512 27.376ZM305.856 93.936L303.166 95.2646C316.925 123.119 323.848 155.248 323.848 191.728H326.848H329.848C329.848 154.48 322.776 121.415 308.546 92.6073L305.856 93.936ZM326.848 191.728H323.848C323.848 228.208 316.925 260.337 303.166 288.191L305.856 289.52L308.546 290.849C322.776 262.041 329.848 228.976 329.848 191.728H326.848ZM305.856 289.52L303.153 288.218C289.715 316.103 271.115 337.858 247.368 353.578L249.024 356.08L250.68 358.582C275.402 342.216 294.691 319.598 308.559 290.822L305.856 289.52ZM249.024 356.08L247.368 353.578C223.664 369.27 196.431 377.144 165.568 377.144V380.144V383.144C197.51 383.144 225.914 374.976 250.68 358.582L249.024 356.08ZM165.056 293.104V296.104C178.365 296.104 189.839 291.945 199.3 283.575L197.312 281.328L195.324 279.081C187.036 286.413 177.006 290.104 165.056 290.104V293.104ZM197.312 281.328L199.3 283.575C208.711 275.249 215.61 263.263 220.157 247.874L217.28 247.024L214.403 246.174C210.075 260.822 203.662 271.705 195.324 279.081L197.312 281.328ZM217.28 247.024L220.145 247.915C225.037 232.188 227.448 213.439 227.448 191.728H224.448H221.448C221.448 213.025 219.08 231.14 214.415 246.133L217.28 247.024ZM224.448 191.728H227.448C227.448 170.02 225.038 151.432 220.139 136.034L217.28 136.944L214.421 137.854C219.079 152.493 221.448 170.428 221.448 191.728H224.448ZM217.28 136.944L220.157 136.094C215.61 120.705 208.711 108.719 199.3 100.393L197.312 102.64L195.324 104.887C203.662 112.263 210.075 123.146 214.403 137.794L217.28 136.944ZM197.312 102.64L199.347 100.436C189.875 91.6922 178.208 87.352 164.544 87.352V90.352V93.352C176.821 93.352 187 97.2038 195.277 104.844L197.312 102.64ZM164.544 90.352V87.352C151.553 87.352 140.257 91.5258 130.812 99.881L132.8 102.128L134.788 104.375C143.092 97.0289 152.959 93.352 164.544 93.352V90.352ZM132.8 102.128L130.812 99.881C121.419 108.19 114.352 120.153 109.461 135.522L112.32 136.432L115.179 137.342C119.846 122.674 126.432 111.767 134.788 104.375L132.8 102.128ZM112.32 136.432L109.443 135.582C104.9 150.958 102.664 169.523 102.664 191.216H105.664H108.664C108.664 169.901 110.865 151.944 115.197 137.282L112.32 136.432ZM105.664 191.216H102.664C102.664 212.911 104.901 231.639 109.438 247.345L112.32 246.512L115.202 245.679C110.865 230.665 108.664 212.529 108.664 191.216H105.664ZM112.32 246.512L109.461 247.422C114.351 262.789 121.409 274.896 130.765 283.532L132.8 281.328L134.835 279.124C126.442 271.376 119.847 260.272 115.179 245.602L112.32 246.512ZM132.8 281.328L130.812 283.575C140.274 291.945 151.747 296.104 165.056 296.104V293.104V290.104C153.106 290.104 143.076 286.413 134.788 279.081L132.8 281.328ZM392.272 374H389.272V377H392.272V374ZM392.272 9.45599V6.45599H389.272V9.45599H392.272ZM493.648 9.45599H496.648V6.45599H493.648V9.45599ZM493.648 374V377H496.648V374H493.648ZM324.176 93.424H321.176V96.424H324.176V93.424ZM324.176 9.45599V6.45599H321.176V9.45599H324.176ZM488.528 9.45599H491.528V6.45599H488.528V9.45599ZM488.528 93.424V96.424H491.528V93.424H488.528ZM392.272 374H395.272V9.45599H392.272H389.272V374H392.272ZM392.272 9.45599V12.456H493.648V9.45599V6.45599H392.272V9.45599ZM493.648 9.45599H490.648V374H493.648H496.648V9.45599H493.648ZM493.648 374V371H392.272V374V377H493.648V374ZM324.176 93.424H327.176V9.45599H324.176H321.176V93.424H324.176ZM324.176 9.45599V12.456H488.528V9.45599V6.45599H324.176V9.45599ZM488.528 9.45599H485.528V93.424H488.528H491.528V9.45599H488.528ZM488.528 93.424V90.424H324.176V93.424V96.424H488.528V93.424Z" fill="url(#paint0_linear_29_1394)" mask="url(#path-1-outside-1_29_1394)"/>
</g>
<defs>
<filter id="filter0_n_29_1394" x="0.26416" y="0.311523" width="496.384" height="382.832" filterUnits="userSpaceOnUse" color-interpolation-filters="sRGB">
<feFlood flood-opacity="0" result="BackgroundImageFix"/>
<feBlend mode="normal" in="SourceGraphic" in2="BackgroundImageFix" result="shape"/>
<feTurbulence type="fractalNoise" baseFrequency="1 1" stitchTiles="stitch" numOctaves="3" result="noise" seed="595" />
<feColorMatrix in="noise" type="luminanceToAlpha" result="alphaNoise" />
<feComponentTransfer in="alphaNoise" result="coloredNoise1">
<feFuncA type="discrete" tableValues="1 1 1 1 1 1 1 1 1 1 1 1 1 1 1 1 1 1 1 1 1 1 1 1 1 1 1 1 1 1 1 1 1 1 1 1 1 1 1 1 1 1 1 1 1 1 1 1 1 1 1 0 0 0 0 0 0 0 0 0 0 0 0 0 0 0 0 0 0 0 0 0 0 0 0 0 0 0 0 0 0 0 0 0 0 0 0 0 0 0 0 0 0 0 0 0 0 0 0 0 "/>
</feComponentTransfer>
<feComposite operator="in" in2="shape" in="coloredNoise1" result="noise1Clipped" />
<feFlood flood-color="rgba(0, 0, 0, 0.25)" result="color1Flood" />
<feComposite operator="in" in2="noise1Clipped" in="color1Flood" result="color1" />
<feMerge result="effect1_noise_29_1394">
<feMergeNode in="shape" />
<feMergeNode in="color1" />
</feMerge>
</filter>
<linearGradient id="paint0_linear_29_1394" x1="90.3204" y1="-13.2558" x2="351.452" y2="286.422" gradientUnits="userSpaceOnUse">
<stop stop-color="white" stop-opacity="0"/>
<stop offset="1" stop-color="white"/>
</linearGradient>
</defs>
</svg>
