<svg width="610" height="384" viewBox="0 0 610 384" fill="none" xmlns="http://www.w3.org/2000/svg">
<mask id="path-1-outside-1_179_916" maskUnits="userSpaceOnUse" x="0" y="0" width="610" height="384" fill="black">
<rect fill="white" width="610" height="384"/>
<path d="M165.568 380.144C134.165 380.144 106.176 372.123 81.6 356.08C57.3653 339.696 38.2507 317.339 24.256 289.008C10.2613 260.336 3.264 227.739 3.264 191.216C3.264 154.693 10.0907 122.267 23.744 93.936C37.7387 65.6053 56.8533 43.4186 81.088 27.376C105.323 11.3333 133.141 3.31198 164.544 3.31198C196.288 3.31198 224.277 11.3333 248.512 27.376C273.088 43.4186 292.203 65.6053 305.856 93.936C319.851 122.267 326.848 154.864 326.848 191.728C326.848 228.592 319.851 261.189 305.856 289.52C292.203 317.851 273.259 340.037 249.024 356.08C224.789 372.123 196.971 380.144 165.568 380.144ZM165.056 293.104C177.685 293.104 188.437 289.179 197.312 281.328C206.187 273.477 212.843 262.043 217.28 247.024C222.059 231.664 224.448 213.232 224.448 191.728C224.448 170.224 222.059 151.963 217.28 136.944C212.843 121.925 206.187 110.491 197.312 102.64C188.437 94.448 177.515 90.352 164.544 90.352C152.256 90.352 141.675 94.2773 132.8 102.128C123.925 109.979 117.099 121.413 112.32 136.432C107.883 151.451 105.664 169.712 105.664 191.216C105.664 212.72 107.883 231.152 112.32 246.512C117.099 261.531 123.925 273.136 132.8 281.328C141.675 289.179 152.427 293.104 165.056 293.104ZM455.248 380.144C429.307 380.144 405.072 375.877 382.544 367.344C360.357 358.469 341.584 346.011 326.224 329.968L390.224 266.992C396.027 275.184 404.901 282.011 416.848 287.472C428.795 292.592 441.083 295.152 453.712 295.152C463.952 295.152 472.997 293.445 480.848 290.032C489.04 286.619 495.355 281.669 499.792 275.184C504.571 268.699 506.96 260.848 506.96 251.632C506.96 242.416 504.571 234.565 499.792 228.08C495.013 221.595 488.187 216.645 479.312 213.232C470.437 209.819 459.856 208.112 447.568 208.112C440.741 208.112 433.403 208.624 425.552 209.648C418.043 210.331 412.24 211.525 408.144 213.232L452.688 157.936C464.635 155.205 475.216 152.987 484.432 151.28C493.989 149.232 502.352 148.208 509.52 148.208C527.952 148.208 544.507 152.475 559.184 161.008C573.861 169.541 585.467 181.829 594 197.872C602.533 213.573 606.8 232.347 606.8 254.192C606.8 279.109 600.485 301.125 587.856 320.24C575.568 339.013 557.989 353.691 535.12 364.272C512.592 374.853 485.968 380.144 455.248 380.144ZM408.144 213.232V158.448L488.528 63.728L597.584 64.24L514.64 157.936L408.144 213.232ZM353.36 93.424V9.45599H597.584V64.24L522.32 93.424H353.36Z"/>
</mask>
<path d="M81.6 356.08L79.9198 358.565L79.9399 358.579L79.9601 358.592L81.6 356.08ZM24.256 289.008L21.56 290.324L21.5631 290.33L21.5663 290.337L24.256 289.008ZM23.744 93.936L21.0543 92.6073L21.0478 92.6204L21.0415 92.6335L23.744 93.936ZM81.088 27.376L82.744 29.8775L82.744 29.8775L81.088 27.376ZM248.512 27.376L246.856 29.8775L246.864 29.8829L246.872 29.8881L248.512 27.376ZM305.856 93.936L303.153 95.2384L303.16 95.2515L303.166 95.2646L305.856 93.936ZM305.856 289.52L303.166 288.191L303.16 288.204L303.153 288.218L305.856 289.52ZM249.024 356.08L250.68 358.582L250.68 358.582L249.024 356.08ZM217.28 247.024L214.415 246.133L214.409 246.153L214.403 246.174L217.28 247.024ZM217.28 136.944L214.403 137.794L214.412 137.824L214.421 137.854L217.28 136.944ZM197.312 102.64L195.277 104.844L195.301 104.866L195.324 104.887L197.312 102.64ZM132.8 102.128L130.812 99.881L130.812 99.881L132.8 102.128ZM112.32 136.432L109.461 135.522L109.452 135.552L109.443 135.582L112.32 136.432ZM112.32 246.512L109.438 247.345L109.449 247.383L109.461 247.422L112.32 246.512ZM132.8 281.328L130.765 283.532L130.788 283.554L130.812 283.575L132.8 281.328ZM165.568 380.144V377.144C134.705 377.144 107.294 369.27 83.2399 353.568L81.6 356.08L79.9601 358.592C105.058 374.976 133.626 383.144 165.568 383.144V380.144ZM81.6 356.08L83.2802 353.595C59.511 337.525 40.729 315.582 26.9457 287.679L24.256 289.008L21.5663 290.337C35.7724 319.095 55.2197 341.867 79.9198 358.565L81.6 356.08ZM24.256 289.008L26.952 287.692C13.1845 259.485 6.264 227.349 6.264 191.216H3.264H0.264001C0.264001 228.129 7.33818 261.187 21.56 290.324L24.256 289.008ZM3.264 191.216H6.264C6.264 155.072 13.0182 123.102 26.4465 95.2384L23.744 93.936L21.0415 92.6335C7.16311 121.431 0.264001 154.315 0.264001 191.216H3.264ZM23.744 93.936L26.4337 95.2646C40.2147 67.3667 58.9896 45.6022 82.744 29.8775L81.088 27.376L79.432 24.8744C54.717 41.2351 35.2627 63.844 21.0543 92.6073L23.744 93.936ZM81.088 27.376L82.744 29.8775C106.448 14.1863 133.681 6.31198 164.544 6.31198V3.31198V0.311981C132.602 0.311981 104.198 8.48034 79.432 24.8744L81.088 27.376ZM164.544 3.31198V6.31198C195.756 6.31198 223.158 14.1899 246.856 29.8775L248.512 27.376L250.168 24.8744C225.397 8.47675 196.82 0.311981 164.544 0.311981V3.31198ZM248.512 27.376L246.872 29.8881C270.957 45.6104 289.72 67.3637 303.153 95.2384L305.856 93.936L308.559 92.6335C294.685 63.847 275.219 41.2268 250.152 24.8638L248.512 27.376ZM305.856 93.936L303.166 95.2646C316.925 123.119 323.848 155.248 323.848 191.728H326.848H329.848C329.848 154.48 322.776 121.415 308.546 92.6073L305.856 93.936ZM326.848 191.728H323.848C323.848 228.208 316.925 260.337 303.166 288.191L305.856 289.52L308.546 290.849C322.776 262.041 329.848 228.976 329.848 191.728H326.848ZM305.856 289.52L303.153 288.218C289.715 316.103 271.115 337.858 247.368 353.578L249.024 356.08L250.68 358.582C275.402 342.216 294.691 319.598 308.559 290.822L305.856 289.52ZM249.024 356.08L247.368 353.578C223.664 369.27 196.431 377.144 165.568 377.144V380.144V383.144C197.51 383.144 225.914 374.976 250.68 358.582L249.024 356.08ZM165.056 293.104V296.104C178.365 296.104 189.839 291.945 199.3 283.575L197.312 281.328L195.324 279.081C187.036 286.413 177.006 290.104 165.056 290.104V293.104ZM197.312 281.328L199.3 283.575C208.711 275.249 215.61 263.263 220.157 247.874L217.28 247.024L214.403 246.174C210.075 260.822 203.662 271.705 195.324 279.081L197.312 281.328ZM217.28 247.024L220.145 247.915C225.037 232.188 227.448 213.439 227.448 191.728H224.448H221.448C221.448 213.025 219.08 231.14 214.415 246.133L217.28 247.024ZM224.448 191.728H227.448C227.448 170.02 225.038 151.432 220.139 136.034L217.28 136.944L214.421 137.854C219.079 152.493 221.448 170.428 221.448 191.728H224.448ZM217.28 136.944L220.157 136.094C215.61 120.705 208.711 108.719 199.3 100.393L197.312 102.64L195.324 104.887C203.662 112.263 210.075 123.146 214.403 137.794L217.28 136.944ZM197.312 102.64L199.347 100.436C189.875 91.6922 178.208 87.352 164.544 87.352V90.352V93.352C176.821 93.352 187 97.2038 195.277 104.844L197.312 102.64ZM164.544 90.352V87.352C151.553 87.352 140.257 91.5258 130.812 99.881L132.8 102.128L134.788 104.375C143.092 97.0289 152.959 93.352 164.544 93.352V90.352ZM132.8 102.128L130.812 99.881C121.419 108.19 114.352 120.153 109.461 135.522L112.32 136.432L115.179 137.342C119.846 122.674 126.432 111.767 134.788 104.375L132.8 102.128ZM112.32 136.432L109.443 135.582C104.9 150.958 102.664 169.523 102.664 191.216H105.664H108.664C108.664 169.901 110.865 151.944 115.197 137.282L112.32 136.432ZM105.664 191.216H102.664C102.664 212.911 104.901 231.639 109.438 247.345L112.32 246.512L115.202 245.679C110.865 230.665 108.664 212.529 108.664 191.216H105.664ZM112.32 246.512L109.461 247.422C114.351 262.789 121.409 274.896 130.765 283.532L132.8 281.328L134.835 279.124C126.442 271.376 119.847 260.272 115.179 245.602L112.32 246.512ZM132.8 281.328L130.812 283.575C140.274 291.945 151.747 296.104 165.056 296.104V293.104V290.104C153.106 290.104 143.076 286.413 134.788 279.081L132.8 281.328ZM382.544 367.344L381.43 370.129L381.455 370.14L381.481 370.149L382.544 367.344ZM326.224 329.968L324.12 327.83L322.011 329.905L324.057 332.043L326.224 329.968ZM390.224 266.992L392.672 265.258L390.634 262.38L388.12 264.854L390.224 266.992ZM416.848 287.472L415.601 290.2L415.633 290.215L415.666 290.229L416.848 287.472ZM480.848 290.032L479.694 287.263L479.673 287.272L479.652 287.281L480.848 290.032ZM499.792 275.184L497.377 273.404L497.346 273.447L497.316 273.49L499.792 275.184ZM499.792 228.08L502.207 226.3L502.207 226.3L499.792 228.08ZM479.312 213.232L480.389 210.432L480.389 210.432L479.312 213.232ZM425.552 209.648L425.824 212.636L425.882 212.63L425.94 212.623L425.552 209.648ZM408.144 213.232L405.808 211.35L409.298 216.001L408.144 213.232ZM452.688 157.936L452.02 155.011L451.005 155.243L450.352 156.054L452.688 157.936ZM484.432 151.28L484.978 154.23L485.02 154.222L485.061 154.213L484.432 151.28ZM559.184 161.008L557.676 163.602L557.676 163.602L559.184 161.008ZM594 197.872L591.351 199.281L591.358 199.293L591.364 199.305L594 197.872ZM587.856 320.24L585.353 318.586L585.346 318.597L587.856 320.24ZM535.12 364.272L533.86 361.549L533.852 361.553L533.845 361.557L535.12 364.272ZM408.144 213.232H405.144V218.17L409.526 215.894L408.144 213.232ZM408.144 158.448L405.857 156.507L405.144 157.347V158.448H408.144ZM488.528 63.728L488.542 60.728L487.145 60.7215L486.241 61.7868L488.528 63.728ZM597.584 64.24L599.83 66.2285L604.219 61.2711L597.598 61.24L597.584 64.24ZM514.64 157.936L516.022 160.598L516.517 160.342L516.886 159.925L514.64 157.936ZM353.36 93.424H350.36V96.424H353.36V93.424ZM353.36 9.45599V6.45599H350.36V9.45599H353.36ZM597.584 9.45599H600.584V6.45599H597.584V9.45599ZM597.584 64.24L598.669 67.0371L600.584 66.2944V64.24H597.584ZM522.32 93.424V96.424H522.881L523.405 96.2211L522.32 93.424ZM455.248 380.144V377.144C429.642 377.144 405.77 372.934 383.607 364.539L382.544 367.344L381.481 370.149C404.374 378.821 428.972 383.144 455.248 383.144V380.144ZM382.544 367.344L383.658 364.559C361.839 355.831 343.433 343.604 328.391 327.893L326.224 329.968L324.057 332.043C339.735 348.418 358.876 361.108 381.43 370.129L382.544 367.344ZM326.224 329.968L328.328 332.106L392.328 269.13L390.224 266.992L388.12 264.854L324.12 327.83L326.224 329.968ZM390.224 266.992L387.776 268.726C393.965 277.463 403.318 284.585 415.601 290.2L416.848 287.472L418.095 284.744C406.485 279.436 398.089 272.905 392.672 265.258L390.224 266.992ZM416.848 287.472L415.666 290.229C427.975 295.505 440.664 298.152 453.712 298.152V295.152V292.152C441.501 292.152 429.614 289.679 418.03 284.715L416.848 287.472ZM453.712 295.152V298.152C464.284 298.152 473.75 296.39 482.044 292.783L480.848 290.032L479.652 287.281C472.245 290.501 463.62 292.152 453.712 292.152V295.152ZM480.848 290.032L482.002 292.801C490.658 289.195 497.462 283.902 502.268 276.878L499.792 275.184L497.316 273.49C493.247 279.437 487.422 284.043 479.694 287.263L480.848 290.032ZM499.792 275.184L502.207 276.964C507.419 269.89 509.96 261.392 509.96 251.632H506.96H503.96C503.96 260.304 501.722 267.507 497.377 273.404L499.792 275.184ZM506.96 251.632H509.96C509.96 241.872 507.419 233.374 502.207 226.3L499.792 228.08L497.377 229.86C501.722 235.757 503.96 242.96 503.96 251.632H506.96ZM499.792 228.08L502.207 226.3C497.032 219.276 489.7 214.013 480.389 210.432L479.312 213.232L478.235 216.032C486.673 219.278 492.995 223.913 497.377 229.86L499.792 228.08ZM479.312 213.232L480.389 210.432C471.086 206.854 460.122 205.112 447.568 205.112V208.112V211.112C459.59 211.112 469.788 212.783 478.235 216.032L479.312 213.232ZM447.568 208.112V205.112C440.593 205.112 433.124 205.635 425.164 206.673L425.552 209.648L425.94 212.623C433.682 211.613 440.89 211.112 447.568 211.112V208.112ZM425.552 209.648L425.28 206.66C417.648 207.354 411.496 208.585 406.99 210.463L408.144 213.232L409.298 216.001C412.984 214.466 418.437 213.307 425.824 212.636L425.552 209.648ZM408.144 213.232L410.48 215.114L455.024 159.818L452.688 157.936L450.352 156.054L405.808 211.35L408.144 213.232ZM452.688 157.936L453.356 160.861C465.274 158.137 475.813 155.927 484.978 154.23L484.432 151.28L483.886 148.33C474.619 150.046 463.995 152.274 452.02 155.011L452.688 157.936ZM484.432 151.28L485.061 154.213C494.48 152.195 502.624 151.208 509.52 151.208V148.208V145.208C502.08 145.208 493.498 146.269 483.803 148.347L484.432 151.28ZM509.52 148.208V151.208C527.469 151.208 543.496 155.357 557.676 163.602L559.184 161.008L560.692 158.414C545.518 149.592 528.435 145.208 509.52 145.208V148.208ZM559.184 161.008L557.676 163.602C571.836 171.834 583.061 183.695 591.351 199.281L594 197.872L596.649 196.463C587.872 179.963 575.887 167.249 560.692 158.414L559.184 161.008ZM594 197.872L591.364 199.305C599.611 214.479 603.8 232.737 603.8 254.192H606.8H609.8C609.8 231.956 605.456 212.668 596.636 196.439L594 197.872ZM606.8 254.192H603.8C603.8 278.575 597.63 300.005 585.353 318.586L587.856 320.24L590.359 321.894C603.341 302.245 609.8 279.644 609.8 254.192H606.8ZM587.856 320.24L585.346 318.597C573.402 336.844 556.284 351.174 533.86 361.549L535.12 364.272L536.38 366.995C559.694 356.207 577.734 341.182 590.366 321.883L587.856 320.24ZM535.12 364.272L533.845 361.557C511.798 371.912 485.628 377.144 455.248 377.144V380.144V383.144C486.308 383.144 513.386 377.795 536.395 366.987L535.12 364.272ZM408.144 213.232H411.144V158.448H408.144H405.144V213.232H408.144ZM408.144 158.448L410.431 160.389L490.815 65.6691L488.528 63.728L486.241 61.7868L405.857 156.507L408.144 158.448ZM488.528 63.728L488.514 66.728L597.57 67.24L597.584 64.24L597.598 61.24L488.542 60.728L488.528 63.728ZM597.584 64.24L595.338 62.2515L512.394 155.947L514.64 157.936L516.886 159.925L599.83 66.2285L597.584 64.24ZM514.64 157.936L513.258 155.274L406.762 210.57L408.144 213.232L409.526 215.894L516.022 160.598L514.64 157.936ZM353.36 93.424H356.36V9.45599H353.36H350.36V93.424H353.36ZM353.36 9.45599V12.456H597.584V9.45599V6.45599H353.36V9.45599ZM597.584 9.45599H594.584V64.24H597.584H600.584V9.45599H597.584ZM597.584 64.24L596.499 61.4429L521.235 90.6269L522.32 93.424L523.405 96.2211L598.669 67.0371L597.584 64.24ZM522.32 93.424V90.424H353.36V93.424V96.424H522.32V93.424Z" fill="url(#paint0_linear_179_916)" mask="url(#path-1-outside-1_179_916)"/>
<defs>
<linearGradient id="paint0_linear_179_916" x1="333.017" y1="-25" x2="282.891" y2="302.889" gradientUnits="userSpaceOnUse">
<stop stop-color="white" stop-opacity="0"/>
<stop offset="1" stop-color="white"/>
</linearGradient>
</defs>
</svg>
