<svg width="257" height="280" viewBox="0 0 257 280" fill="none" xmlns="http://www.w3.org/2000/svg">
<rect x="104.334" y="1.48912" width="167" height="41" rx="20.5" transform="rotate(23.4294 104.334 1.48912)" fill="url(#paint0_radial_165_212)"/>
<rect x="104.334" y="1.48912" width="167" height="41" rx="20.5" transform="rotate(23.4294 104.334 1.48912)" stroke="url(#paint1_linear_165_212)" stroke-width="2"/>
<path d="M131.064 42.4985L137.891 31.7247L139.427 32.3903L132.6 43.1641L131.064 42.4985ZM127.926 37.019L128.556 35.5656L137.194 39.3088L136.564 40.7622L127.926 37.019ZM127.497 40.9526L134.323 30.1787L135.859 30.8443L129.033 41.6182L127.497 40.9526ZM129.92 33.8221L130.549 32.3687L139.204 36.119L138.574 37.5724L129.92 33.8221Z" fill="#2AA4E7"/>
<path d="M146.037 49.1831C145.167 48.8061 144.471 48.2692 143.949 47.5722C143.427 46.8752 143.11 46.0971 142.999 45.2379C142.903 44.3725 143.044 43.5048 143.421 42.635L146.527 35.4671L148.426 36.2902L145.327 43.4416C145.084 44.0031 144.987 44.5432 145.037 45.0618C145.103 45.5741 145.289 46.0342 145.596 46.442C145.908 46.8387 146.317 47.1468 146.824 47.3663C147.341 47.5906 147.846 47.6785 148.338 47.6301C148.834 47.5706 149.287 47.3873 149.694 47.0801C150.107 46.7619 150.432 46.3275 150.671 45.777L153.777 38.6091L155.677 39.4321L152.563 46.6166C152.186 47.4864 151.652 48.1768 150.959 48.6877C150.267 49.1985 149.494 49.5043 148.639 49.6048C147.785 49.7054 146.917 49.5648 146.037 49.1831ZM160.425 55.2221L159.256 48.5948L158.909 48.4445L157.111 40.0538L159.357 41.0271L160.672 47.3643L161.019 47.5146L162.638 56.1812L160.425 55.2221ZM151.903 51.529L158.973 47.2559L159.798 48.9278L154.033 52.4523L151.903 51.529ZM160.643 48.7445L159.817 47.0725L165.319 43.6109L167.45 44.5341L160.643 48.7445ZM170.601 59.8278C169.885 59.5177 169.314 59.0545 168.888 58.4382C168.473 57.8268 168.228 57.1388 168.154 56.3743C168.096 55.6035 168.233 54.8328 168.567 54.0621C168.906 53.2803 169.374 52.6527 169.972 52.1792C170.585 51.6996 171.257 51.4021 171.987 51.2869C172.733 51.1654 173.463 51.2597 174.179 51.5699C174.785 51.8323 175.261 52.1958 175.609 52.6605C175.973 53.1189 176.195 53.6335 176.274 54.2042C176.354 54.7749 176.27 55.3465 176.022 55.9191L175.034 58.1983C174.786 58.7708 174.426 59.2232 173.955 59.5553C173.496 59.8923 172.972 60.0903 172.384 60.1493C171.8 60.1974 171.206 60.0902 170.601 59.8278ZM171.642 58.239C172.094 58.4346 172.527 58.5049 172.944 58.4499C173.376 58.3886 173.764 58.2168 174.109 57.9346C174.453 57.6523 174.728 57.2745 174.933 56.801C175.138 56.3276 175.226 55.8686 175.196 55.4242C175.167 54.9797 175.024 54.5844 174.769 54.2383C174.529 53.886 174.183 53.612 173.732 53.4163C173.292 53.2255 172.855 53.1607 172.423 53.222C172.007 53.277 171.621 53.4433 171.266 53.7208C170.921 54.003 170.646 54.3808 170.441 54.8543C170.236 55.3278 170.148 55.7867 170.178 56.2312C170.218 56.6804 170.359 57.0812 170.598 57.4335C170.854 57.7797 171.202 58.0481 171.642 58.239ZM174.917 61.502L173.1 60.7148L174.023 58.5842L175.174 56.7878L175.691 54.736L178.253 48.8233L180.07 49.6106L174.917 61.502ZM180.544 64.137C179.752 63.7934 179.112 63.3071 178.626 62.678C178.156 62.0427 177.87 61.3301 177.768 60.5403C177.676 59.7552 177.8 58.9718 178.139 58.1901C178.477 57.4083 178.962 56.7879 179.593 56.3287C180.228 55.8586 180.933 55.5754 181.707 55.4793C182.492 55.3879 183.264 55.5068 184.024 55.8361C184.762 56.1558 185.337 56.6079 185.751 57.1926C186.175 57.7821 186.419 58.4432 186.48 59.1762C186.553 59.9139 186.425 60.6626 186.095 61.4224C186.038 61.5545 185.968 61.6874 185.883 61.8209C185.815 61.9483 185.729 62.0874 185.624 62.2382L179.117 59.4183L179.761 57.9319L185.327 60.3439L184.392 60.645C184.58 60.151 184.663 59.703 184.641 59.3011C184.619 58.8992 184.492 58.5434 184.26 58.2337C184.039 57.9287 183.708 57.6807 183.268 57.4899C182.806 57.2895 182.361 57.2144 181.933 57.2647C181.506 57.315 181.12 57.4812 180.776 57.7635C180.436 58.0347 180.159 58.418 179.944 58.9135C179.729 59.409 179.64 59.8868 179.676 60.3471C179.712 60.8073 179.866 61.2208 180.139 61.5874C180.416 61.9431 180.792 62.2235 181.265 62.4287C181.672 62.6052 182.078 62.6959 182.481 62.7007C182.896 62.7102 183.283 62.6298 183.645 62.4595L184.293 64.1332C183.712 64.4176 183.096 64.5561 182.445 64.5488C181.795 64.5414 181.161 64.4042 180.544 64.137ZM188.277 67.4878C187.836 67.2969 187.436 67.0582 187.077 66.7715C186.722 66.4739 186.419 66.1465 186.168 65.7894C185.922 65.4213 185.74 65.0282 185.62 64.6101L187.277 63.955C187.414 64.3936 187.623 64.7718 187.904 65.0897C188.2 65.4013 188.574 65.6549 189.026 65.8505C189.433 66.0271 189.767 66.1001 190.029 66.0696C190.291 66.0392 190.472 65.9083 190.572 65.6771C190.677 65.4349 190.659 65.2048 190.518 64.9868C190.377 64.7687 190.166 64.5465 189.885 64.3201C189.62 64.0874 189.332 63.8451 189.023 63.5933C188.724 63.3463 188.451 63.0711 188.204 62.7675C187.972 62.4578 187.821 62.1113 187.752 61.7281C187.682 61.3449 187.75 60.9166 187.955 60.4432C188.175 59.9367 188.479 59.5519 188.868 59.2887C189.267 59.0303 189.725 58.8951 190.24 58.883C190.766 58.8757 191.332 59.0032 191.938 59.2656C192.577 59.5424 193.088 59.9013 193.472 60.3425C193.872 60.7774 194.14 61.2922 194.274 61.8867L192.617 62.5419C192.51 62.1554 192.339 61.8262 192.104 61.5542C191.868 61.2822 191.558 61.0628 191.173 60.8958C190.809 60.7383 190.505 60.6717 190.259 60.6959C190.013 60.7201 189.845 60.8368 189.754 61.046C189.659 61.2662 189.684 61.4798 189.829 61.6869C189.975 61.8939 190.183 62.1082 190.453 62.3299C190.734 62.5563 191.022 62.7986 191.315 63.0566C191.625 63.3084 191.893 63.5947 192.12 63.9154C192.363 64.23 192.517 64.5843 192.581 64.9785C192.651 65.3617 192.581 65.7955 192.371 66.28C192.037 67.0507 191.502 67.5449 190.767 67.7625C190.032 67.9802 189.202 67.8886 188.277 67.4878ZM192.869 69.2815L196.304 61.3538L198.121 62.1411L194.685 70.0687L192.869 69.2815ZM197.842 60.2941C197.534 60.1605 197.32 59.9437 197.202 59.6439C197.094 59.3488 197.107 59.0471 197.241 58.7388C197.375 58.4305 197.586 58.2147 197.875 58.0914C198.175 57.9728 198.479 57.9804 198.787 58.114C199.106 58.2523 199.32 58.4691 199.427 58.7642C199.535 59.0592 199.522 59.3609 199.388 59.6692C199.254 59.9775 199.043 60.1933 198.754 60.3167C198.466 60.44 198.161 60.4324 197.842 60.2941ZM198.523 75.8515C197.686 75.4889 197.021 75.0175 196.527 74.4372C196.028 73.8679 195.705 73.2245 195.559 72.507L197.263 71.8332C197.411 72.3679 197.645 72.8227 197.967 73.1974C198.288 73.5721 198.735 73.8836 199.308 74.1317C200.023 74.4418 200.672 74.5004 201.252 74.3073C201.828 74.1253 202.254 73.715 202.531 73.0763L203.376 71.1275L204.448 69.5128L204.9 67.6096L205.823 65.479L207.64 66.2663L204.348 73.8636C204.019 74.6234 203.556 75.2077 202.96 75.6165C202.36 76.0364 201.677 76.27 200.911 76.3173C200.145 76.3646 199.349 76.2094 198.523 75.8515ZM200.015 72.1822C199.31 71.8769 198.746 71.4295 198.321 70.84C197.912 70.2443 197.674 69.5721 197.606 68.8234C197.549 68.0795 197.683 67.3331 198.007 66.5844C198.332 65.8357 198.783 65.2332 199.36 64.777C199.948 64.3256 200.596 64.0509 201.306 63.9529C202.031 63.8487 202.746 63.9492 203.451 64.2546C204.078 64.5266 204.574 64.8918 204.938 65.3502C205.301 65.8086 205.517 66.3208 205.586 66.8867C205.659 67.4417 205.567 68.0164 205.31 68.611L204.465 70.5599C204.212 71.1434 203.85 71.6013 203.379 71.9334C202.92 72.2704 202.398 72.4629 201.815 72.5109C201.232 72.559 200.632 72.4494 200.015 72.1822ZM201.123 70.622C201.563 70.8129 201.989 70.8863 202.401 70.8423C202.812 70.7982 203.177 70.6492 203.497 70.3953C203.832 70.135 204.097 69.7792 204.293 69.3278C204.488 68.8763 204.564 68.4449 204.52 68.0335C204.492 67.6158 204.353 67.2418 204.104 66.9115C203.855 66.5812 203.51 66.3206 203.07 66.1297C202.629 65.9389 202.198 65.8631 201.775 65.9023C201.364 65.9464 200.991 66.0985 200.655 66.3587C200.325 66.6079 200.062 66.9582 199.867 67.4097C199.676 67.8501 199.6 68.2815 199.639 68.704C199.678 69.1264 199.823 69.5028 200.072 69.8331C200.332 70.1682 200.682 70.4312 201.123 70.622ZM211.657 77.4232L213.639 72.8483C213.868 72.3198 213.886 71.8109 213.693 71.3217C213.51 70.8372 213.155 70.4805 212.626 70.2514C212.274 70.0987 211.927 70.0398 211.585 70.0747C211.242 70.1096 210.935 70.2312 210.661 70.4397C210.388 70.6482 210.175 70.9286 210.022 71.2809L209.484 70.5768C209.746 69.9712 210.11 69.4944 210.574 69.1465C211.044 68.7875 211.567 68.5761 212.144 68.5123C212.737 68.4422 213.325 68.5336 213.908 68.7865C214.503 69.0441 214.965 69.4273 215.293 69.936C215.627 70.4337 215.821 70.982 215.875 71.581C215.934 72.169 215.852 72.7217 215.628 73.2392L213.473 78.2105L211.657 77.4232ZM206.223 75.0685L209.658 67.1409L211.475 67.9282L208.04 75.8558L206.223 75.0685Z" fill="#2AA4E7"/>
<rect x="68.699" y="232.888" width="218.047" height="46.9302" rx="23.4651" transform="rotate(-13.388 68.699 232.888)" fill="white"/>
<rect x="68.699" y="232.888" width="218.047" height="46.9302" rx="23.4651" transform="rotate(-13.388 68.699 232.888)" stroke="url(#paint2_linear_165_212)" stroke-width="2.32558"/>
<path d="M122.173 252.504L121.021 237.718L122.914 237.267L124.067 252.054L122.173 252.504ZM115.434 249.59L115.008 247.798L125.657 245.264L126.083 247.056L115.434 249.59ZM117.775 253.551L116.623 238.765L118.516 238.314L119.669 253.1L117.775 253.551ZM115.062 245.225L114.636 243.433L125.305 240.894L125.732 242.686L115.062 245.225Z" fill="#2AA4E7"/>
<path d="M139.287 248.646C138.16 248.914 137.155 248.939 136.271 248.719C135.386 248.499 134.538 248.07 133.727 247.431L134.937 245.465C135.466 245.941 136.041 246.278 136.662 246.474C137.279 246.657 138.008 246.648 138.85 246.448C139.637 246.261 140.223 245.949 140.607 245.514C141.004 245.075 141.135 244.57 141 244C140.887 243.525 140.672 243.167 140.357 242.927C140.041 242.686 139.658 242.52 139.205 242.426C138.763 242.316 138.28 242.245 137.756 242.212C137.242 242.162 136.718 242.1 136.184 242.027C135.66 241.936 135.159 241.79 134.681 241.588C134.216 241.383 133.805 241.072 133.448 240.656C133.09 240.239 132.825 239.664 132.65 238.931C132.45 238.089 132.484 237.328 132.752 236.647C133.031 235.95 133.486 235.361 134.117 234.881C134.749 234.401 135.499 234.057 136.368 233.85C137.304 233.627 138.183 233.612 139.003 233.804C139.837 233.993 140.552 234.317 141.15 234.778L139.939 236.744C139.422 236.379 138.914 236.142 138.414 236.031C137.925 235.904 137.395 235.908 136.825 236.044C136.119 236.212 135.597 236.487 135.257 236.869C134.932 237.247 134.83 237.695 134.953 238.21C135.056 238.645 135.262 238.969 135.571 239.182C135.877 239.382 136.249 239.53 136.688 239.626C137.138 239.706 137.619 239.77 138.133 239.82C138.66 239.867 139.186 239.935 139.709 240.026C140.247 240.113 140.751 240.273 141.222 240.505C141.703 240.72 142.126 241.05 142.49 241.494C142.854 241.938 143.126 242.54 143.307 243.3C143.611 244.576 143.397 245.696 142.665 246.659C141.947 247.619 140.821 248.281 139.287 248.646ZM150.685 245.933C149.735 246.159 148.82 246.141 147.94 245.877C147.056 245.599 146.291 245.129 145.646 244.465C145.014 243.798 144.584 242.989 144.358 242.039C144.132 241.089 144.153 240.18 144.42 239.313C144.7 238.443 145.174 237.692 145.841 237.06C146.505 236.415 147.312 235.979 148.262 235.753C149.226 235.523 150.148 235.54 151.028 235.804C151.909 236.068 152.665 236.533 153.297 237.201C153.94 237.851 154.374 238.651 154.6 239.601C154.826 240.551 154.801 241.468 154.523 242.352C154.259 243.232 153.796 243.995 153.132 244.641C152.465 245.273 151.649 245.704 150.685 245.933ZM150.172 243.775C150.728 243.642 151.188 243.404 151.551 243.06C151.924 242.698 152.172 242.266 152.296 241.763C152.434 241.257 152.435 240.719 152.299 240.149C152.164 239.579 151.922 239.106 151.574 238.729C151.226 238.353 150.813 238.093 150.334 237.949C149.852 237.791 149.333 237.778 148.776 237.911C148.233 238.04 147.775 238.285 147.402 238.647C147.039 238.991 146.788 239.41 146.647 239.902C146.519 240.392 146.523 240.921 146.659 241.491C146.795 242.061 147.031 242.543 147.369 242.936C147.72 243.326 148.136 243.6 148.618 243.757C149.111 243.898 149.629 243.904 150.172 243.775ZM162.179 243.198C161.215 243.427 160.286 243.411 159.392 243.151C158.512 242.887 157.756 242.422 157.124 241.755C156.492 241.087 156.062 240.279 155.836 239.329C155.607 238.365 155.626 237.45 155.893 236.583C156.157 235.702 156.622 234.946 157.289 234.314C157.97 233.679 158.792 233.246 159.756 233.017C160.516 232.836 161.257 232.817 161.98 232.961C162.713 233.088 163.375 233.368 163.966 233.801L162.853 235.636C162.488 235.364 162.082 235.196 161.636 235.13C161.2 235.047 160.745 235.062 160.27 235.175C159.713 235.308 159.248 235.555 158.875 235.916C158.513 236.26 158.261 236.679 158.12 237.171C157.992 237.661 157.998 238.197 158.137 238.781C158.273 239.351 158.509 239.833 158.847 240.226C159.195 240.602 159.609 240.869 160.092 241.027C160.584 241.168 161.109 241.172 161.665 241.039C162.14 240.926 162.555 240.741 162.91 240.485C163.275 240.211 163.56 239.871 163.765 239.464L165.584 240.601C165.252 241.254 164.789 241.809 164.195 242.266C163.611 242.706 162.939 243.017 162.179 243.198ZM167.573 241.699L165.247 231.925L167.487 231.392L169.813 241.166L167.573 241.699ZM165.94 229.867C165.56 229.957 165.211 229.904 164.891 229.708C164.586 229.508 164.388 229.218 164.297 228.838C164.207 228.458 164.253 228.11 164.436 227.794C164.632 227.474 164.921 227.27 165.301 227.179C165.694 227.085 166.044 227.138 166.35 227.338C166.656 227.538 166.854 227.828 166.944 228.208C167.035 228.588 166.988 228.936 166.805 229.252C166.622 229.568 166.334 229.773 165.94 229.867ZM176.466 239.797C175.584 240.007 174.73 239.974 173.904 239.697C173.091 239.417 172.384 238.947 171.782 238.287C171.191 237.61 170.782 236.797 170.556 235.847C170.327 234.883 170.325 233.972 170.551 233.115C170.788 232.241 171.206 231.496 171.805 230.881C172.415 230.248 173.161 229.826 174.043 229.616C174.79 229.439 175.487 229.445 176.134 229.635C176.792 229.808 177.357 230.133 177.829 230.609C178.301 231.084 178.621 231.675 178.789 232.381L179.458 235.191C179.626 235.897 179.606 236.568 179.399 237.206C179.206 237.84 178.856 238.389 178.35 238.854C177.841 239.305 177.213 239.619 176.466 239.797ZM176.329 237.592C177.157 237.395 177.756 236.959 178.125 236.283C178.509 235.603 178.597 234.829 178.39 233.96C178.251 233.377 178.013 232.888 177.676 232.495C177.338 232.102 176.93 231.834 176.451 231.69C175.983 231.529 175.47 231.514 174.914 231.647C174.371 231.776 173.919 232.02 173.56 232.378C173.211 232.719 172.968 233.143 172.83 233.649C172.706 234.152 172.713 234.695 172.852 235.279C172.991 235.862 173.229 236.351 173.566 236.744C173.917 237.133 174.327 237.409 174.796 237.57C175.275 237.714 175.786 237.722 176.329 237.592ZM179.411 238.881L178.786 236.254L178.606 233.78L177.657 231.51L177.085 229.108L179.324 228.575L181.651 238.348L179.411 238.881ZM184.136 237.756L180.647 223.096L182.887 222.563L186.376 237.223L184.136 237.756ZM192.945 235.66L190.619 225.886L192.859 225.353L195.185 235.127L192.945 235.66ZM199.44 234.114L198.054 228.29C197.899 227.639 197.576 227.185 197.085 226.929C196.59 226.66 196.044 226.596 195.447 226.738C195.04 226.835 194.693 227.004 194.406 227.244C194.132 227.481 193.938 227.779 193.822 228.136C193.703 228.48 193.695 228.869 193.799 229.303L192.807 229.023C192.629 228.276 192.639 227.593 192.835 226.972C193.032 226.352 193.373 225.826 193.858 225.395C194.34 224.95 194.928 224.646 195.62 224.481C196.312 224.316 196.972 224.317 197.6 224.483C198.227 224.649 198.769 224.965 199.224 225.43C199.679 225.896 199.997 226.509 200.178 227.269L201.68 233.581L199.44 234.114ZM205.936 232.568L204.55 226.744C204.394 226.093 204.071 225.639 203.58 225.383C203.086 225.114 202.54 225.05 201.943 225.192C201.549 225.286 201.209 225.453 200.922 225.693C200.635 225.934 200.433 226.233 200.317 226.59C200.198 226.934 200.191 227.323 200.294 227.757L198.915 227.569C198.805 226.806 198.869 226.11 199.106 225.48C199.344 224.85 199.712 224.317 200.211 223.883C200.72 223.432 201.321 223.124 202.013 222.959C202.719 222.791 203.393 222.789 204.034 222.951C204.675 223.114 205.23 223.427 205.699 223.889C206.167 224.351 206.492 224.963 206.673 225.723L208.175 232.035L205.936 232.568ZM215.072 230.608C214.095 230.841 213.161 230.834 212.27 230.587C211.39 230.323 210.627 229.859 209.981 229.195C209.349 228.528 208.918 227.713 208.689 226.749C208.459 225.785 208.478 224.87 208.745 224.003C209.009 223.123 209.467 222.368 210.121 221.739C210.788 221.107 211.59 220.68 212.527 220.457C213.436 220.24 214.287 220.26 215.08 220.516C215.886 220.769 216.573 221.215 217.141 221.854C217.722 222.49 218.125 223.277 218.348 224.213C218.386 224.376 218.413 224.549 218.428 224.732C218.453 224.898 218.47 225.088 218.478 225.301L210.455 227.211L210.019 225.378L216.881 223.745L216.22 224.677C216.051 224.086 215.816 223.611 215.516 223.252C215.215 222.894 214.849 222.651 214.417 222.524C213.999 222.394 213.518 222.394 212.975 222.523C212.405 222.659 211.939 222.899 211.576 223.243C211.214 223.588 210.97 224.011 210.846 224.514C210.719 225.004 210.728 225.554 210.873 226.165C211.018 226.775 211.268 227.283 211.622 227.686C211.977 228.089 212.408 228.367 212.918 228.518C213.424 228.656 213.969 228.655 214.552 228.516C215.055 228.397 215.495 228.198 215.874 227.922C216.266 227.642 216.572 227.297 216.789 226.886L218.559 227.993C218.216 228.662 217.739 229.221 217.129 229.667C216.518 230.114 215.832 230.428 215.072 230.608ZM225.501 228.126C224.618 228.336 223.764 228.303 222.938 228.026C222.126 227.746 221.419 227.276 220.817 226.616C220.225 225.939 219.817 225.126 219.59 224.176C219.361 223.212 219.36 222.302 219.586 221.444C219.822 220.571 220.24 219.826 220.84 219.21C221.449 218.577 222.195 218.156 223.078 217.946C223.824 217.768 224.521 217.774 225.169 217.964C225.827 218.137 226.392 218.462 226.864 218.938C227.335 219.413 227.655 220.004 227.823 220.71L228.492 223.52C228.66 224.226 228.641 224.898 228.434 225.535C228.241 226.169 227.891 226.718 227.385 227.183C226.875 227.634 226.247 227.949 225.501 228.126ZM225.363 225.921C225.92 225.789 226.373 225.552 226.722 225.211C227.081 224.853 227.323 224.422 227.447 223.919C227.571 223.417 227.564 222.873 227.425 222.29C227.286 221.706 227.048 221.218 226.71 220.825C226.373 220.431 225.965 220.163 225.486 220.019C225.017 219.858 224.505 219.843 223.948 219.976C223.405 220.105 222.954 220.349 222.594 220.707C222.245 221.048 222.002 221.472 221.864 221.978C221.74 222.481 221.748 223.024 221.886 223.608C222.025 224.191 222.264 224.68 222.601 225.073C222.952 225.463 223.362 225.738 223.83 225.899C224.309 226.043 224.82 226.051 225.363 225.921ZM230.685 226.677L228.445 227.21L227.82 224.584L227.64 222.109L226.691 219.839L224.956 212.55L227.196 212.017L230.685 226.677ZM233.191 226.081L230.865 216.307L233.105 215.774L235.431 225.548L233.191 226.081ZM231.558 214.249C231.178 214.339 230.829 214.286 230.509 214.09C230.204 213.89 230.005 213.6 229.915 213.22C229.825 212.84 229.871 212.492 230.054 212.176C230.25 211.856 230.539 211.652 230.919 211.561C231.312 211.467 231.662 211.52 231.968 211.72C232.273 211.92 232.472 212.21 232.562 212.59C232.652 212.97 232.606 213.318 232.423 213.634C232.24 213.95 231.952 214.155 231.558 214.249ZM242.084 224.179C241.202 224.389 240.348 224.356 239.522 224.079C238.709 223.799 238.002 223.329 237.4 222.669C236.809 221.992 236.4 221.179 236.174 220.229C235.945 219.265 235.943 218.354 236.169 217.497C236.406 216.624 236.824 215.879 237.423 215.263C238.033 214.63 238.779 214.208 239.661 213.998C240.408 213.821 241.105 213.827 241.752 214.017C242.41 214.19 242.975 214.515 243.447 214.991C243.919 215.466 244.239 216.057 244.407 216.763L245.076 219.573C245.244 220.279 245.224 220.95 245.017 221.588C244.824 222.222 244.474 222.771 243.968 223.236C243.459 223.687 242.831 224.002 242.084 224.179ZM241.947 221.974C242.775 221.777 243.374 221.341 243.743 220.665C244.127 219.985 244.215 219.211 244.008 218.343C243.869 217.759 243.631 217.27 243.294 216.877C242.956 216.484 242.548 216.216 242.069 216.072C241.601 215.911 241.088 215.896 240.531 216.029C239.989 216.158 239.537 216.402 239.178 216.76C238.829 217.101 238.585 217.525 238.448 218.031C238.324 218.534 238.331 219.077 238.47 219.661C238.609 220.244 238.847 220.733 239.184 221.126C239.535 221.516 239.945 221.791 240.414 221.952C240.893 222.096 241.404 222.104 241.947 221.974ZM245.029 223.263L244.404 220.637L244.223 218.162L243.274 215.892L242.703 213.49L244.942 212.957L247.269 222.73L245.029 223.263Z" fill="#2AA4E7"/>
<rect x="8.19366" y="122.162" width="75.9281" height="23.6852" rx="11.8426" transform="rotate(16.0828 8.19366 122.162)" fill="url(#paint3_linear_165_212)"/>
<rect x="8.19366" y="122.162" width="75.9281" height="23.6852" rx="11.8426" transform="rotate(16.0828 8.19366 122.162)" stroke="#2AA4E7" stroke-width="1.18725"/>
<path d="M27.2335 143.619L30.4349 136.758L31.3898 137.033L28.1883 143.895L27.2335 143.619ZM24.9701 140.631L25.2306 139.728L30.6002 141.276L30.3397 142.18L24.9701 140.631ZM25.0158 142.98L28.2173 136.119L29.1721 136.394L25.9707 143.255L25.0158 142.98ZM25.9011 138.598L26.1616 137.694L31.5415 139.246L31.281 140.149L25.9011 138.598Z" fill="#2AA4E7"/>
<path d="M35.6673 146.162C35.0992 145.998 34.6463 145.757 34.3085 145.437C33.9707 145.117 33.7016 144.713 33.5012 144.225L34.5329 143.655C34.6485 144 34.8195 144.294 35.046 144.537C35.2744 144.774 35.6007 144.953 36.0251 145.075C36.4221 145.19 36.7606 145.199 37.0407 145.101C37.3276 145.006 37.5125 144.815 37.5954 144.527C37.6645 144.288 37.6591 144.075 37.5793 143.889C37.4996 143.703 37.3708 143.532 37.1931 143.377C37.0242 143.217 36.8274 143.064 36.6027 142.918C36.3868 142.767 36.1695 142.608 35.9507 142.441C35.7407 142.269 35.5548 142.078 35.3929 141.868C35.2378 141.661 35.1332 141.419 35.079 141.144C35.0249 140.869 35.0511 140.547 35.1577 140.177C35.28 139.753 35.4863 139.423 35.7765 139.188C36.0755 138.948 36.4257 138.8 36.827 138.746C37.2283 138.691 37.648 138.726 38.086 138.853C38.5583 138.989 38.9526 139.203 39.269 139.494C39.5921 139.787 39.8287 140.111 39.9785 140.466L38.9468 141.036C38.8085 140.744 38.6423 140.511 38.448 140.336C38.2625 140.157 38.026 140.025 37.7385 139.942C37.3826 139.84 37.0812 139.831 36.8345 139.915C36.5945 140.002 36.4371 140.175 36.3621 140.435C36.2989 140.654 36.3092 140.85 36.393 141.022C36.4787 141.188 36.607 141.347 36.7778 141.5C36.9575 141.649 37.1553 141.798 37.3712 141.949C37.5939 142.103 37.8102 142.265 38.0202 142.437C38.237 142.611 38.421 142.808 38.5721 143.03C38.7321 143.246 38.8371 143.499 38.8873 143.788C38.9375 144.077 38.9074 144.413 38.7969 144.796C38.6114 145.439 38.235 145.883 37.6679 146.127C37.1076 146.374 36.4408 146.385 35.6673 146.162ZM41.2198 147.763C40.7749 147.635 40.4036 147.405 40.1059 147.075C39.8151 146.746 39.6189 146.36 39.5172 145.915C39.4244 145.466 39.447 145.002 39.5851 144.523C39.7253 144.037 39.9532 143.632 40.2691 143.308C40.5938 142.979 40.9666 142.753 41.3877 142.629C41.8175 142.501 42.2549 142.501 42.6998 142.629C43.0763 142.738 43.3845 142.916 43.6247 143.163C43.8736 143.405 44.0432 143.691 44.1334 144.021C44.2236 144.351 44.2174 144.694 44.1148 145.05L43.7063 146.467C43.6037 146.823 43.4263 147.117 43.1743 147.348C42.9291 147.581 42.6357 147.738 42.294 147.817C41.9543 147.89 41.5962 147.872 41.2198 147.763ZM41.7124 146.748C42.1299 146.869 42.5058 146.825 42.8399 146.618C43.181 146.412 43.4146 146.09 43.5409 145.652C43.6258 145.358 43.6426 145.081 43.5913 144.821C43.5401 144.562 43.4261 144.34 43.2495 144.156C43.0816 143.967 42.8574 143.831 42.5768 143.751C42.303 143.672 42.0412 143.667 41.7916 143.735C41.5507 143.799 41.3361 143.927 41.1478 144.117C40.9663 144.309 40.8331 144.553 40.7483 144.847C40.6634 145.141 40.6466 145.418 40.6978 145.678C40.7559 145.939 40.8689 146.164 41.0367 146.354C41.2134 146.538 41.4386 146.67 41.7124 146.748ZM42.7586 148.095L43.1405 146.771L43.6819 145.626L43.8302 144.379L44.1795 143.167L45.3088 143.493L43.888 148.421L42.7586 148.095ZM47.1754 149.48C46.7305 149.352 46.3593 149.122 46.0616 148.792C45.7708 148.463 45.5746 148.077 45.4729 147.633C45.38 147.183 45.4027 146.719 45.5408 146.24C45.6809 145.754 45.9089 145.349 46.2248 145.025C46.5494 144.696 46.9223 144.47 47.3433 144.346C47.7732 144.218 48.2106 144.218 48.6555 144.347C49.0319 144.455 49.3402 144.633 49.5803 144.88C49.8293 145.122 49.9988 145.409 50.089 145.738C50.1793 146.068 50.173 146.411 50.0704 146.767L49.6619 148.184C49.5593 148.54 49.382 148.834 49.13 149.065C48.8848 149.298 48.5914 149.455 48.2497 149.534C47.91 149.607 47.5519 149.589 47.1754 149.48ZM47.6681 148.466C48.0856 148.586 48.4615 148.542 48.7956 148.335C49.1366 148.129 49.3703 147.807 49.4966 147.369C49.5814 147.075 49.5982 146.798 49.547 146.539C49.4958 146.279 49.3818 146.057 49.2051 145.873C49.0373 145.684 48.8131 145.549 48.5324 145.468C48.2586 145.389 47.9969 145.384 47.7472 145.453C47.5064 145.517 47.2918 145.644 47.1034 145.834C46.922 146.026 46.7888 146.27 46.7039 146.564C46.6191 146.858 46.6023 147.135 46.6535 147.395C46.7116 147.656 46.8246 147.881 46.9924 148.071C47.1691 148.255 47.3943 148.387 47.6681 148.466ZM48.7143 149.813L49.0961 148.488L49.6375 147.343L49.7858 146.096L50.1351 144.884L51.2645 145.21L49.8437 150.138L48.7143 149.813ZM53.2235 151.224C52.6554 151.06 52.2024 150.818 51.8647 150.498C51.5269 150.179 51.2578 149.775 51.0574 149.287L52.0891 148.717C52.2047 149.062 52.3757 149.356 52.6021 149.599C52.8305 149.835 53.1569 150.015 53.5813 150.137C53.9783 150.252 54.3168 150.26 54.5969 150.163C54.8838 150.068 55.0687 149.876 55.1516 149.589C55.2207 149.349 55.2153 149.137 55.1355 148.95C55.0557 148.764 54.927 148.594 54.7493 148.439C54.5804 148.279 54.3836 148.126 54.1589 147.979C53.943 147.828 53.7257 147.669 53.5069 147.502C53.2969 147.331 53.111 147.14 52.9491 146.93C52.794 146.722 52.6894 146.481 52.6352 146.206C52.5811 145.931 52.6073 145.608 52.7139 145.239C52.8362 144.814 53.0425 144.485 53.3327 144.249C53.6317 144.009 53.9819 143.862 54.3832 143.807C54.7845 143.752 55.2042 143.788 55.6422 143.914C56.1145 144.051 56.5088 144.264 56.8252 144.556C57.1483 144.849 57.3848 145.173 57.5347 145.528L56.503 146.098C56.3647 145.806 56.1984 145.572 56.0041 145.398C55.8187 145.218 55.5822 145.087 55.2947 145.004C54.9388 144.901 54.6374 144.892 54.3907 144.977C54.1507 145.064 53.9933 145.237 53.9183 145.497C53.8551 145.716 53.8654 145.912 53.9491 146.084C54.0349 146.25 54.1631 146.409 54.334 146.562C54.5137 146.71 54.7115 146.86 54.9274 147.011C55.1501 147.164 55.3664 147.327 55.5764 147.498C55.7932 147.672 55.9772 147.87 56.1283 148.091C56.2883 148.308 56.3933 148.561 56.4435 148.849C56.4937 149.138 56.4636 149.474 56.353 149.857C56.1675 150.501 55.7912 150.945 55.2241 151.189C54.6638 151.435 53.997 151.447 53.2235 151.224Z" fill="#2AA4E7"/>
<rect x="56.1189" y="82.7477" width="128.708" height="28.5776" rx="14.2888" transform="rotate(4.15921 56.1189 82.7477)" fill="white"/>
<rect x="56.1189" y="82.7477" width="128.708" height="28.5776" rx="14.2888" transform="rotate(4.15921 56.1189 82.7477)" stroke="url(#paint4_linear_165_212)" stroke-width="1.39752"/>
<path d="M83.1765 104.055L85.1949 95.3743L86.3616 95.4592L84.3431 104.14L83.1765 104.055ZM79.843 101.164L79.9233 100.061L86.4841 100.538L86.4038 101.642L79.843 101.164ZM80.4669 103.858L82.4853 95.1773L83.652 95.2621L81.6335 103.943L80.4669 103.858ZM80.4208 98.596L80.501 97.4921L87.0744 97.9701L86.9941 99.074L80.4208 98.596Z" fill="#2AA4E7"/>
<path d="M91.8294 104.684L92.4679 95.9032L93.4715 95.9762L96.685 102.25L96.0327 102.203L100.12 96.4597L101.124 96.5327L100.485 105.314L99.0425 105.209L99.4968 98.9617L99.8165 99.0733L96.7831 103.33L95.7795 103.257L93.3937 98.6062L93.7263 98.5421L93.272 104.789L91.8294 104.684ZM104.952 105.765C104.366 105.722 103.845 105.546 103.389 105.235C102.933 104.916 102.58 104.508 102.33 104.01C102.089 103.514 101.99 102.973 102.032 102.387C102.075 101.802 102.251 101.285 102.561 100.837C102.879 100.389 103.287 100.044 103.784 99.8032C104.281 99.5535 104.823 99.4499 105.408 99.4925C106.002 99.5357 106.527 99.7126 106.984 100.023C107.44 100.334 107.789 100.738 108.03 101.234C108.281 101.723 108.385 102.261 108.342 102.846C108.299 103.431 108.119 103.952 107.8 104.408C107.489 104.865 107.085 105.218 106.588 105.468C106.091 105.709 105.546 105.808 104.952 105.765ZM105.048 104.435C105.391 104.46 105.698 104.407 105.968 104.275C106.247 104.135 106.468 103.933 106.63 103.667C106.801 103.402 106.899 103.094 106.924 102.743C106.95 102.392 106.897 102.077 106.766 101.798C106.635 101.52 106.445 101.296 106.197 101.126C105.949 100.948 105.654 100.847 105.311 100.822C104.977 100.798 104.67 100.855 104.391 100.995C104.12 101.127 103.9 101.321 103.73 101.577C103.569 101.835 103.475 102.139 103.45 102.49C103.424 102.841 103.472 103.16 103.594 103.447C103.725 103.733 103.914 103.966 104.162 104.144C104.418 104.314 104.714 104.411 105.048 104.435ZM112.484 106.313C112.025 106.279 111.622 106.153 111.276 105.935C110.931 105.708 110.667 105.415 110.482 105.057C110.307 104.7 110.235 104.304 110.266 103.869L110.392 102.138C110.424 101.703 110.556 101.321 110.79 100.994C111.024 100.666 111.328 100.419 111.702 100.253C112.076 100.078 112.489 100.007 112.941 100.04C113.484 100.08 113.963 100.258 114.377 100.574C114.8 100.882 115.12 101.283 115.336 101.778C115.562 102.265 115.653 102.806 115.609 103.4C115.567 103.985 115.399 104.507 115.105 104.965C114.82 105.415 114.446 105.762 113.982 106.005C113.527 106.25 113.028 106.352 112.484 106.313ZM109.27 105.953L109.926 96.9206L111.306 97.0209L110.98 101.512L110.636 102.95L110.767 104.435L110.65 106.053L109.27 105.953ZM112.354 104.991C112.688 105.016 112.986 104.962 113.248 104.83C113.519 104.689 113.735 104.487 113.898 104.221C114.068 103.956 114.167 103.644 114.193 103.284C114.219 102.924 114.167 102.601 114.036 102.314C113.914 102.028 113.729 101.8 113.481 101.631C113.241 101.454 112.954 101.353 112.62 101.328C112.285 101.304 111.983 101.362 111.712 101.502C111.442 101.634 111.226 101.832 111.063 102.098C110.901 102.364 110.807 102.676 110.781 103.036C110.755 103.396 110.803 103.718 110.925 104.005C111.047 104.291 111.232 104.523 111.479 104.701C111.728 104.87 112.019 104.967 112.354 104.991ZM116.559 106.483L116.997 100.461L118.377 100.562L117.939 106.583L116.559 106.483ZM117.767 99.4076C117.533 99.3906 117.342 99.2968 117.195 99.1264C117.056 98.9565 116.995 98.7545 117.012 98.5204C117.029 98.2862 117.119 98.0951 117.281 97.9472C117.451 97.7999 117.653 97.7347 117.888 97.7517C118.13 97.7694 118.321 97.8631 118.46 98.0329C118.599 98.2028 118.66 98.4048 118.643 98.639C118.626 98.8731 118.536 99.0642 118.374 99.2121C118.212 99.3601 118.01 99.4252 117.767 99.4076ZM119.487 106.696L120.143 97.6636L121.523 97.7639L120.866 106.796L119.487 106.696ZM125.191 107.237C124.588 107.193 124.055 107.019 123.589 106.716C123.132 106.406 122.779 106.002 122.529 105.504C122.288 105.008 122.189 104.462 122.232 103.869C122.275 103.275 122.452 102.754 122.762 102.306C123.073 101.849 123.472 101.5 123.961 101.258C124.457 101.016 124.994 100.917 125.571 100.959C126.132 101 126.616 101.165 127.023 101.455C127.439 101.746 127.752 102.126 127.962 102.595C128.18 103.065 128.268 103.589 128.226 104.166C128.219 104.266 128.203 104.37 128.178 104.478C128.162 104.577 128.138 104.689 128.103 104.813L123.161 104.453L123.243 103.324L127.47 103.632L126.923 104.046C126.933 103.677 126.885 103.362 126.777 103.102C126.67 102.842 126.504 102.637 126.28 102.486C126.064 102.336 125.789 102.248 125.454 102.224C125.103 102.198 124.792 102.251 124.522 102.383C124.252 102.515 124.036 102.713 123.873 102.979C123.712 103.236 123.617 103.553 123.59 103.93C123.562 104.306 123.614 104.642 123.744 104.937C123.873 105.232 124.071 105.469 124.335 105.648C124.6 105.819 124.912 105.917 125.272 105.944C125.581 105.966 125.87 105.932 126.137 105.842C126.412 105.753 126.65 105.611 126.849 105.415L127.662 106.37C127.345 106.691 126.97 106.925 126.539 107.07C126.108 107.215 125.659 107.271 125.191 107.237ZM134.127 107.886C133.583 107.847 133.1 107.673 132.677 107.365C132.262 107.057 131.942 106.66 131.717 106.173C131.501 105.678 131.414 105.137 131.456 104.552C131.499 103.958 131.664 103.436 131.948 102.986C132.242 102.528 132.617 102.177 133.072 101.933C133.536 101.681 134.039 101.575 134.583 101.614C135.043 101.648 135.441 101.777 135.778 102.004C136.124 102.222 136.388 102.51 136.573 102.869C136.757 103.227 136.833 103.623 136.801 104.058L136.675 105.789C136.644 106.224 136.511 106.605 136.277 106.933C136.051 107.261 135.751 107.513 135.377 107.687C135.004 107.853 134.587 107.92 134.127 107.886ZM134.448 106.598C134.958 106.635 135.38 106.494 135.714 106.173C136.057 105.853 136.248 105.426 136.287 104.891C136.313 104.531 136.265 104.208 136.143 103.922C136.021 103.636 135.836 103.408 135.587 103.238C135.348 103.061 135.057 102.96 134.714 102.935C134.379 102.911 134.077 102.969 133.806 103.109C133.544 103.241 133.328 103.44 133.157 103.705C132.995 103.97 132.901 104.283 132.875 104.643C132.849 105.002 132.897 105.325 133.019 105.611C133.149 105.898 133.334 106.13 133.573 106.308C133.822 106.477 134.113 106.574 134.448 106.598ZM135.98 107.895L136.098 106.277L136.443 104.826L136.31 103.354L136.418 101.874L137.798 101.974L137.36 107.995L135.98 107.895ZM142.106 108.467C141.646 108.433 141.243 108.307 140.898 108.089C140.553 107.862 140.288 107.569 140.104 107.211C139.928 106.854 139.856 106.458 139.888 106.023L140.014 104.292C140.045 103.857 140.178 103.475 140.412 103.148C140.646 102.82 140.95 102.573 141.324 102.407C141.698 102.232 142.111 102.162 142.562 102.194C143.106 102.234 143.585 102.412 143.999 102.728C144.422 103.036 144.742 103.437 144.958 103.932C145.183 104.419 145.274 104.96 145.231 105.554C145.189 106.139 145.02 106.661 144.726 107.119C144.441 107.569 144.067 107.916 143.604 108.159C143.149 108.404 142.65 108.506 142.106 108.467ZM138.709 110.616L139.329 102.085L140.709 102.186L140.591 103.804L140.246 105.254L140.379 106.727L140.089 110.716L138.709 110.616ZM141.975 107.146C142.31 107.17 142.608 107.116 142.87 106.984C143.141 106.844 143.357 106.641 143.519 106.375C143.69 106.11 143.788 105.798 143.815 105.438C143.841 105.079 143.789 104.755 143.658 104.468C143.536 104.182 143.351 103.954 143.102 103.785C142.863 103.608 142.576 103.507 142.242 103.483C141.907 103.458 141.604 103.516 141.334 103.656C141.063 103.788 140.847 103.986 140.685 104.252C140.523 104.518 140.429 104.83 140.402 105.19C140.376 105.55 140.424 105.873 140.546 106.159C140.668 106.445 140.853 106.677 141.101 106.855C141.349 107.024 141.641 107.121 141.975 107.146ZM149.383 108.996C148.923 108.962 148.52 108.836 148.175 108.618C147.83 108.391 147.565 108.099 147.381 107.74C147.205 107.383 147.133 106.987 147.165 106.552L147.291 104.821C147.322 104.386 147.455 104.005 147.689 103.677C147.923 103.349 148.227 103.102 148.6 102.936C148.975 102.762 149.388 102.691 149.839 102.724C150.383 102.763 150.862 102.941 151.276 103.257C151.699 103.565 152.019 103.967 152.235 104.461C152.46 104.949 152.551 105.489 152.508 106.083C152.465 106.668 152.297 107.19 152.003 107.648C151.718 108.098 151.344 108.445 150.881 108.689C150.426 108.933 149.927 109.035 149.383 108.996ZM145.986 111.145L146.606 102.615L147.986 102.715L147.868 104.333L147.523 105.783L147.656 107.256L147.366 111.245L145.986 111.145ZM149.252 107.675C149.587 107.699 149.885 107.645 150.147 107.513C150.417 107.373 150.634 107.17 150.796 106.904C150.967 106.639 151.065 106.327 151.091 105.967C151.117 105.608 151.065 105.284 150.935 104.997C150.813 104.711 150.628 104.483 150.379 104.314C150.14 104.137 149.853 104.036 149.518 104.012C149.184 103.987 148.881 104.045 148.61 104.185C148.34 104.317 148.124 104.516 147.962 104.781C147.8 105.047 147.705 105.36 147.679 105.719C147.653 106.079 147.701 106.402 147.823 106.688C147.945 106.974 148.13 107.206 148.378 107.384C148.626 107.554 148.918 107.65 149.252 107.675ZM155.405 109.434C155.071 109.409 154.752 109.344 154.449 109.238C154.146 109.124 153.871 108.977 153.623 108.8C153.376 108.614 153.165 108.396 152.989 108.148L153.931 107.334C154.123 107.592 154.348 107.793 154.606 107.938C154.874 108.075 155.179 108.156 155.522 108.181C155.831 108.204 156.069 108.175 156.234 108.094C156.4 108.014 156.489 107.886 156.502 107.71C156.515 107.526 156.45 107.378 156.307 107.267C156.164 107.156 155.973 107.058 155.736 106.973C155.507 106.881 155.261 106.788 154.999 106.693C154.746 106.599 154.502 106.48 154.269 106.337C154.044 106.186 153.865 105.992 153.731 105.756C153.597 105.519 153.543 105.221 153.569 104.861C153.597 104.476 153.709 104.152 153.904 103.889C154.108 103.627 154.379 103.432 154.716 103.305C155.062 103.179 155.464 103.133 155.924 103.166C156.409 103.201 156.829 103.32 157.185 103.523C157.549 103.717 157.844 103.995 158.07 104.356L157.128 105.17C156.968 104.94 156.779 104.763 156.561 104.637C156.343 104.512 156.088 104.439 155.795 104.418C155.519 104.398 155.303 104.424 155.146 104.497C154.99 104.569 154.906 104.685 154.894 104.844C154.882 105.011 154.948 105.146 155.092 105.249C155.236 105.352 155.422 105.446 155.651 105.53C155.889 105.614 156.134 105.708 156.388 105.81C156.65 105.905 156.893 106.032 157.117 106.191C157.349 106.343 157.533 106.541 157.666 106.786C157.8 107.023 157.854 107.325 157.827 107.693C157.785 108.278 157.546 108.728 157.111 109.041C156.676 109.354 156.108 109.485 155.405 109.434Z" fill="#2AA4E7"/>
<rect x="139.286" y="142.015" width="150.877" height="37.9972" rx="18.9986" transform="rotate(-2.66953 139.286 142.015)" fill="url(#paint5_radial_165_212)"/>
<rect x="139.286" y="142.015" width="150.877" height="37.9972" rx="18.9986" transform="rotate(-2.66953 139.286 142.015)" stroke="url(#paint6_linear_165_212)" stroke-width="1.88857"/>
<path d="M178.989 165.69L180.302 153.718L181.881 153.644L180.568 165.617L178.989 165.69ZM174.051 162.347L173.982 160.853L182.862 160.439L182.931 161.933L174.051 162.347ZM175.321 165.861L176.635 153.889L178.214 153.815L176.9 165.788L175.321 165.861ZM174.414 158.808L174.344 157.314L183.241 156.899L183.311 158.393L174.414 158.808Z" fill="#2AA4E7"/>
<path d="M190.88 165.136L190.801 163.438L194.214 163.279C194.814 163.251 195.269 163.042 195.58 162.653C195.891 162.265 196.035 161.827 196.012 161.34C195.997 161.012 195.909 160.71 195.749 160.434C195.588 160.157 195.363 159.941 195.072 159.785C194.781 159.628 194.438 159.559 194.041 159.577L190.629 159.736L190.549 158.039L193.674 157.893C194.183 157.869 194.584 157.72 194.878 157.445C195.171 157.171 195.306 156.779 195.282 156.269C195.259 155.76 195.088 155.382 194.77 155.136C194.452 154.89 194.039 154.779 193.529 154.803L190.405 154.948L190.326 153.251L193.501 153.103C194.305 153.065 194.98 153.181 195.525 153.451C196.071 153.72 196.485 154.081 196.767 154.533C197.049 154.985 197.202 155.477 197.227 156.009C197.256 156.631 197.106 157.188 196.778 157.68C196.46 158.171 195.974 158.58 195.32 158.905L195.445 158.287C196.206 158.558 196.809 158.961 197.254 159.496C197.698 160.031 197.938 160.672 197.973 161.419C198.001 162.03 197.875 162.598 197.593 163.121C197.322 163.644 196.9 164.078 196.326 164.422C195.763 164.755 195.057 164.941 194.208 164.981L190.88 165.136ZM189.539 165.198L188.985 153.313L190.937 153.222L191.492 165.107L189.539 165.198ZM199.846 164.718L199.466 156.568L201.334 156.481L201.714 164.631L199.846 164.718ZM201.503 160.097L200.842 159.805C200.794 158.775 200.982 157.932 201.405 157.277C201.839 156.61 202.52 156.255 203.448 156.212C203.856 156.193 204.227 156.249 204.562 156.381C204.897 156.513 205.214 156.737 205.512 157.052L204.349 158.365C204.194 158.213 204.025 158.108 203.84 158.048C203.656 157.989 203.445 157.965 203.207 157.976C202.687 158 202.264 158.184 201.94 158.528C201.616 158.873 201.47 159.395 201.503 160.097ZM209.932 164.418C209.197 164.452 208.52 164.296 207.903 163.951C207.297 163.605 206.804 163.123 206.423 162.505C206.054 161.876 205.85 161.165 205.813 160.373C205.776 159.569 205.912 158.842 206.222 158.193C206.543 157.531 206.989 157 207.56 156.599C208.142 156.186 208.801 155.962 209.537 155.928C210.159 155.899 210.715 156.009 211.203 156.259C211.701 156.497 212.103 156.841 212.408 157.292C212.712 157.743 212.878 158.262 212.906 158.851L213.015 161.194C213.043 161.783 212.926 162.316 212.664 162.793C212.414 163.27 212.052 163.655 211.578 163.949C211.104 164.232 210.555 164.389 209.932 164.418ZM210.156 162.638C210.846 162.605 211.39 162.347 211.787 161.864C212.196 161.38 212.383 160.775 212.349 160.051C212.327 159.564 212.21 159.139 212 158.774C211.791 158.409 211.506 158.133 211.145 157.946C210.796 157.747 210.389 157.658 209.925 157.68C209.472 157.701 209.075 157.827 208.734 158.059C208.404 158.278 208.146 158.579 207.96 158.962C207.785 159.345 207.708 159.78 207.731 160.266C207.754 160.753 207.87 161.179 208.08 161.543C208.301 161.907 208.586 162.189 208.936 162.388C209.296 162.575 209.703 162.659 210.156 162.638ZM212.42 164.131L212.318 161.941L212.548 159.94L212.134 157.985L212.04 155.982L213.908 155.895L214.288 164.044L212.42 164.131ZM221.947 163.687L221.728 158.984C221.702 158.441 221.506 158.002 221.139 157.667C220.783 157.332 220.333 157.177 219.79 157.203C219.428 157.22 219.109 157.314 218.833 157.486C218.557 157.657 218.347 157.888 218.202 158.179C218.056 158.469 217.992 158.795 218.009 159.157L217.26 158.784C217.231 158.161 217.341 157.606 217.591 157.118C217.84 156.619 218.196 156.222 218.658 155.928C219.132 155.623 219.669 155.456 220.269 155.428C220.88 155.399 221.43 155.532 221.921 155.827C222.41 156.111 222.803 156.495 223.097 156.98C223.392 157.454 223.551 157.958 223.576 158.49L223.814 163.6L221.947 163.687ZM216.361 163.948L215.981 155.798L217.848 155.711L218.228 163.861L216.361 163.948ZM229.133 163.522C228.397 163.557 227.721 163.401 227.103 163.055C226.497 162.709 226.004 162.228 225.624 161.61C225.254 160.981 225.051 160.27 225.014 159.477C224.976 158.674 225.113 157.947 225.423 157.297C225.743 156.636 226.189 156.105 226.761 155.704C227.343 155.291 228.001 155.067 228.737 155.033C229.36 155.004 229.915 155.114 230.403 155.364C230.902 155.601 231.304 155.946 231.608 156.396C231.913 156.847 232.079 157.367 232.106 157.956L232.216 160.299C232.243 160.887 232.126 161.42 231.865 161.898C231.615 162.374 231.253 162.76 230.779 163.054C230.304 163.337 229.756 163.493 229.133 163.522ZM229.356 161.742C229.82 161.721 230.217 161.6 230.548 161.38C230.888 161.149 231.146 160.842 231.321 160.46C231.496 160.077 231.573 159.642 231.55 159.156C231.527 158.669 231.411 158.243 231.201 157.879C230.991 157.514 230.706 157.238 230.346 157.051C229.996 156.852 229.589 156.763 229.125 156.784C228.672 156.806 228.276 156.932 227.935 157.163C227.605 157.383 227.346 157.684 227.16 158.067C226.985 158.45 226.909 158.884 226.932 159.371C226.954 159.858 227.071 160.283 227.28 160.648C227.502 161.012 227.787 161.294 228.137 161.493C228.497 161.68 228.904 161.763 229.356 161.742ZM233.489 163.149L231.621 163.236L231.519 161.046L231.749 159.044L231.334 157.09L231.051 151.011L232.919 150.924L233.489 163.149ZM235.578 163.052L235.198 154.902L237.066 154.815L237.446 162.965L235.578 163.052ZM236.063 153.364C235.746 153.379 235.475 153.284 235.249 153.079C235.036 152.873 234.921 152.612 234.907 152.295C234.892 151.978 234.981 151.707 235.175 151.483C235.38 151.258 235.641 151.138 235.958 151.123C236.286 151.108 236.557 151.203 236.771 151.408C236.985 151.614 237.099 151.875 237.114 152.192C237.129 152.509 237.039 152.78 236.845 153.004C236.652 153.229 236.391 153.349 236.063 153.364ZM245.127 162.606L244.907 157.903C244.882 157.36 244.686 156.921 244.319 156.587C243.963 156.251 243.513 156.097 242.97 156.122C242.607 156.139 242.289 156.233 242.013 156.405C241.737 156.576 241.527 156.807 241.382 157.098C241.236 157.388 241.172 157.714 241.189 158.077L240.44 157.703C240.411 157.081 240.521 156.525 240.771 156.037C241.02 155.538 241.376 155.141 241.838 154.847C242.312 154.542 242.849 154.375 243.448 154.347C244.06 154.319 244.61 154.452 245.101 154.746C245.59 155.03 245.982 155.414 246.277 155.9C246.572 156.374 246.731 156.877 246.756 157.409L246.994 162.519L245.127 162.606ZM239.541 162.867L239.161 154.717L241.028 154.63L241.408 162.78L239.541 162.867ZM252.454 165.838C251.594 165.878 250.834 165.755 250.174 165.468C249.515 165.192 248.974 164.781 248.551 164.233L249.716 162.954C250.064 163.346 250.451 163.634 250.88 163.819C251.308 164.003 251.817 164.081 252.405 164.054C253.141 164.019 253.715 163.8 254.127 163.395C254.54 163.001 254.731 162.476 254.7 161.82L254.607 159.816L254.845 158.001L254.438 156.2L254.336 154.01L256.204 153.922L256.568 161.733C256.604 162.514 256.455 163.201 256.12 163.795C255.785 164.401 255.302 164.883 254.673 165.241C254.043 165.6 253.303 165.798 252.454 165.838ZM252.195 162.107C251.471 162.14 250.806 161.996 250.201 161.672C249.607 161.337 249.126 160.866 248.757 160.259C248.4 159.652 248.203 158.963 248.167 158.194C248.131 157.424 248.263 156.726 248.563 156.099C248.874 155.472 249.31 154.97 249.871 154.592C250.443 154.202 251.091 153.991 251.815 153.957C252.46 153.927 253.032 154.031 253.531 154.268C254.03 154.506 254.426 154.85 254.72 155.302C255.012 155.742 255.173 156.268 255.201 156.879L255.295 158.882C255.323 159.482 255.206 160.021 254.945 160.498C254.695 160.975 254.333 161.355 253.858 161.638C253.383 161.921 252.829 162.077 252.195 162.107ZM252.486 160.323C252.939 160.302 253.331 160.188 253.661 159.979C253.992 159.771 254.24 159.493 254.405 159.145C254.581 158.785 254.659 158.373 254.637 157.909C254.615 157.445 254.5 157.048 254.292 156.717C254.095 156.375 253.822 156.115 253.473 155.938C253.125 155.762 252.724 155.684 252.271 155.705C251.818 155.726 251.421 155.841 251.079 156.05C250.748 156.258 250.495 156.542 250.319 156.902C250.142 157.251 250.065 157.657 250.087 158.121C250.108 158.574 250.223 158.971 250.431 159.313C250.64 159.655 250.919 159.914 251.267 160.091C251.627 160.267 252.034 160.345 252.486 160.323Z" fill="#2AA4E7"/>
<defs>
<radialGradient id="paint0_radial_165_212" cx="0" cy="0" r="1" gradientUnits="userSpaceOnUse" gradientTransform="translate(114.836 13.6115) rotate(10.5992) scale(160.72 230.378)">
<stop stop-color="#A9EFFB"/>
<stop offset="1" stop-color="#E9FCFF"/>
</radialGradient>
<linearGradient id="paint1_linear_165_212" x1="272.814" y1="33.499" x2="120.336" y2="-30.2234" gradientUnits="userSpaceOnUse">
<stop stop-color="#A9EFFB"/>
<stop offset="1" stop-color="#0A60AD"/>
</linearGradient>
<linearGradient id="paint2_linear_165_212" x1="287.671" y1="256.654" x2="67.2986" y2="256.654" gradientUnits="userSpaceOnUse">
<stop stop-color="#0A60AD"/>
<stop offset="1" stop-color="#2AA4E7"/>
</linearGradient>
<linearGradient id="paint3_linear_165_212" x1="14.0743" y1="128.268" x2="78.0332" y2="155.605" gradientUnits="userSpaceOnUse">
<stop stop-color="#E9FCFF"/>
<stop offset="1" stop-color="#A9EFFB"/>
</linearGradient>
<linearGradient id="paint4_linear_165_212" x1="185.578" y1="96.9877" x2="55.4727" y2="96.9877" gradientUnits="userSpaceOnUse">
<stop stop-color="#0A60AD"/>
<stop offset="1" stop-color="#2AA4E7"/>
</linearGradient>
<radialGradient id="paint5_radial_165_212" cx="0" cy="0" r="1" gradientUnits="userSpaceOnUse" gradientTransform="translate(148.262 153.58) rotate(10.8698) scale(145.412 213.502)">
<stop stop-color="#A9EFFB"/>
<stop offset="1" stop-color="#E9FCFF"/>
</radialGradient>
<linearGradient id="paint6_linear_165_212" x1="291.064" y1="172.027" x2="152.195" y2="115.471" gradientUnits="userSpaceOnUse">
<stop stop-color="#A9EFFB"/>
<stop offset="1" stop-color="#0A60AD"/>
</linearGradient>
</defs>
</svg>
