<svg width="291" height="276" viewBox="0 0 291 276" fill="none" xmlns="http://www.w3.org/2000/svg">
<rect x="-30.5349" y="64.9192" width="211.837" height="37.7442" rx="18.8721" transform="rotate(-17.4654 -30.5349 64.9192)" fill="white"/>
<rect x="-30.5349" y="64.9192" width="211.837" height="37.7442" rx="18.8721" transform="rotate(-17.4654 -30.5349 64.9192)" stroke="url(#paint0_linear_165_211)" stroke-width="1.86047"/>
<path d="M13.3121 77.7216L11.5513 65.9882L13.0367 65.5208L14.7976 77.2542L13.3121 77.7216ZM7.7686 75.7795L7.32636 74.374L15.6798 71.7457L16.1221 73.1512L7.7686 75.7795ZM9.86214 78.8071L8.10128 67.0737L9.5867 66.6063L11.3476 78.3397L9.86214 78.8071ZM7.22347 72.3175L6.78124 70.9119L15.1507 68.2786L15.5929 69.6842L7.22347 72.3175Z" fill="#2AA4E7"/>
<path d="M24.6551 74.1528L24.1526 72.5556L27.363 71.5454C27.9273 71.3679 28.3086 71.0548 28.5069 70.6063C28.7051 70.1577 28.7322 69.7045 28.5881 69.2466C28.491 68.9378 28.3313 68.6721 28.1091 68.4495C27.8869 68.2268 27.6176 68.0775 27.3012 68.0016C26.9847 67.9256 26.6401 67.9462 26.2674 68.0635L23.057 69.0736L22.5545 67.4764L25.4934 66.5517C25.9725 66.4009 26.3173 66.1579 26.5278 65.8225C26.7382 65.4871 26.7681 65.0799 26.6173 64.6007C26.4665 64.1215 26.2089 63.8047 25.8443 63.6503C25.4798 63.4958 25.0579 63.494 24.5787 63.6448L21.6398 64.5694L21.1373 62.9722L24.1241 62.0324C24.8801 61.7946 25.5519 61.7353 26.1395 61.8547C26.7271 61.9741 27.212 62.2136 27.5943 62.5731C27.9765 62.9326 28.2464 63.3626 28.4039 63.8631C28.5881 64.4487 28.5856 65.0171 28.3962 65.5682C28.2175 66.1159 27.8575 66.627 27.3164 67.1015L27.2792 66.4813C28.0725 66.5477 28.7481 66.7798 29.3063 67.1776C29.8644 67.5754 30.2541 68.1257 30.4752 68.8284C30.6561 69.4034 30.6782 69.9758 30.5415 70.5454C30.4154 71.1117 30.1224 71.631 29.6625 72.1033C29.2099 72.5617 28.5843 72.9165 27.7857 73.1678L24.6551 74.1528ZM23.3933 74.5498L19.8755 63.3692L21.7123 62.7913L25.2301 73.9719L23.3933 74.5498ZM36.2864 70.6687C35.6368 70.8731 35.0113 70.9119 34.4097 70.7852C33.8188 70.6552 33.3008 70.3852 32.8559 69.9752C32.4182 69.5512 32.0955 69.0091 31.8878 68.3489L30.4857 63.8926L32.2426 63.3398L33.6196 67.7162C33.7369 68.0889 33.8959 68.3899 34.0968 68.6193C34.305 68.8346 34.548 68.9747 34.8258 69.0394C35.1143 69.1008 35.4236 69.0795 35.7537 68.9757C36.2648 68.8148 36.6065 68.5435 36.7789 68.1616C36.9586 67.7657 36.9597 67.2855 36.7821 66.7212L35.4052 62.3448L37.1621 61.792L38.5642 66.2482C38.7753 66.9191 38.8175 67.5553 38.6908 68.1569C38.5714 68.7444 38.3067 69.2607 37.8967 69.7057C37.4833 70.14 36.9465 70.461 36.2864 70.6687ZM43.8988 68.2736C43.4728 68.4076 43.0461 68.4833 42.6186 68.5008C42.1878 68.5076 41.7755 68.4618 41.3818 68.3634C40.9847 68.2543 40.6168 68.0892 40.278 67.8681L41.0443 66.3982C41.4077 66.6233 41.7849 66.7621 42.1759 66.8146C42.5742 66.8531 42.9916 66.8037 43.4282 66.6663C43.8221 66.5423 44.1019 66.39 44.2673 66.2092C44.4328 66.0284 44.4803 65.8262 44.41 65.6026C44.3363 65.3683 44.1835 65.2175 43.9516 65.15C43.7198 65.0825 43.436 65.0548 43.1004 65.0667C42.7721 65.0647 42.4225 65.0694 42.0516 65.0808C41.6914 65.0888 41.3317 65.0615 40.9727 64.999C40.6209 64.9224 40.304 64.7705 40.0219 64.5433C39.7397 64.3161 39.5266 63.9736 39.3826 63.5157C39.2285 63.0259 39.2079 62.5701 39.321 62.1484C39.4447 61.7233 39.684 61.3496 40.039 61.0272C40.4046 60.7016 40.8803 60.4466 41.4659 60.2623C42.0835 60.068 42.6617 60.009 43.2006 60.0851C43.7468 60.1473 44.2483 60.3465 44.7051 60.6825L43.9388 62.1524C43.6281 61.9459 43.3072 61.8187 42.9761 61.7707C42.6451 61.7227 42.2932 61.7574 41.9205 61.8746C41.5691 61.9852 41.3144 62.1239 41.1562 62.2906C40.998 62.4574 40.9508 62.642 41.0144 62.8443C41.0814 63.0573 41.2292 63.1922 41.4577 63.249C41.6862 63.3058 41.963 63.3299 42.2879 63.3213C42.6235 63.3093 42.9731 63.3046 43.3367 63.3073C43.7076 63.2959 44.0706 63.3338 44.4257 63.421C44.7881 63.4942 45.1121 63.6498 45.3975 63.8876C45.6797 64.1148 45.8944 64.4626 46.0418 64.9312C46.2764 65.6765 46.2014 66.3496 45.817 66.9503C45.4326 67.5511 44.7932 67.9922 43.8988 68.2736ZM48.2199 66.7385L45.8077 59.0718L47.5647 58.519L49.9769 66.1857L48.2199 66.7385ZM46.2439 57.3898C45.9458 57.4836 45.6637 57.4612 45.3978 57.3225C45.1424 57.1805 44.9679 56.9605 44.8741 56.6623C44.7803 56.3642 44.7974 56.0838 44.9254 55.8212C45.064 55.5552 45.2824 55.3753 45.5806 55.2815C45.8894 55.1843 46.1714 55.2067 46.4268 55.3488C46.6821 55.4908 46.8566 55.7108 46.9505 56.009C47.0443 56.3071 47.0272 56.5875 46.8992 56.8502C46.7711 57.1128 46.5527 57.2927 46.2439 57.3898ZM57.2023 63.9123L55.8103 59.488C55.6494 58.9769 55.3521 58.6082 54.9181 58.3819C54.4948 58.1524 54.0276 58.118 53.5165 58.2788C53.1757 58.386 52.8957 58.556 52.6764 58.7889C52.4571 59.0217 52.3148 59.2947 52.2495 59.6078C52.1842 59.9209 52.2051 60.2478 52.3123 60.5885L51.5049 60.4213C51.3207 59.8356 51.2859 59.279 51.4008 58.7514C51.5123 58.2131 51.7514 57.7458 52.1183 57.3496C52.4924 56.9393 52.9616 56.6454 53.526 56.4678C54.101 56.2869 54.659 56.2752 55.2 56.4326C55.7377 56.5794 56.208 56.8468 56.611 57.2349C57.0106 57.6124 57.2891 58.0514 57.4466 58.5518L58.9593 63.3595L57.2023 63.9123ZM51.9474 65.5656L49.5352 57.899L51.2922 57.3462L53.7044 65.0128L51.9474 65.5656ZM64.3567 61.8368C63.59 62.078 62.8443 62.1254 62.1195 61.979C61.402 61.8186 60.7667 61.4918 60.2137 60.9988C59.6714 60.5024 59.2813 59.8762 59.0434 59.1202C58.8055 58.3642 58.7685 57.6327 58.9323 56.9259C59.0927 56.2084 59.4158 55.5801 59.9015 55.0411C60.3979 54.4987 61.0134 54.112 61.7482 53.8808C62.4616 53.6563 63.1418 53.6237 63.7887 53.7829C64.4462 53.9388 65.0199 54.2557 65.5096 54.7335C66.01 55.208 66.3757 55.8126 66.6069 56.5474C66.6471 56.6751 66.6783 56.8116 66.7006 56.9567C66.7301 57.0878 66.7541 57.2383 66.7724 57.4081L60.4793 59.3881L60.027 57.9506L65.4097 56.257L64.9357 57.0381C64.767 56.5762 64.5525 56.2107 64.2923 55.9415C64.0321 55.6723 63.7261 55.4995 63.3743 55.4229C63.0332 55.343 62.6497 55.37 62.2238 55.5041C61.7766 55.6448 61.4181 55.8629 61.1483 56.1584C60.8785 56.4539 60.7084 56.8059 60.6379 57.2142C60.5641 57.6119 60.6026 58.0503 60.7533 58.5295C60.9041 59.0087 61.1323 59.3991 61.4378 59.7009C61.7434 60.0026 62.1037 60.1993 62.5188 60.2911C62.9305 60.3722 63.3653 60.3407 63.8231 60.1967C64.2171 60.0727 64.5574 59.8896 64.8439 59.6473C65.1411 59.4017 65.3649 59.1089 65.5154 58.769L66.9903 59.5512C66.755 60.1051 66.4063 60.5775 65.9442 60.9687C65.4822 61.3598 64.953 61.6492 64.3567 61.8368ZM71.8346 59.484C71.4087 59.618 70.982 59.6937 70.5545 59.7112C70.1236 59.718 69.7114 59.6722 69.3176 59.5738C68.9205 59.4647 68.5526 59.2996 68.2139 59.0785L68.9802 57.6086C69.3435 57.8337 69.7207 57.9725 70.1117 58.025C70.51 58.0635 70.9274 58.0141 71.364 57.8767C71.758 57.7527 72.0377 57.6004 72.2032 57.4196C72.3686 57.2388 72.4162 57.0366 72.3458 56.813C72.2721 56.5787 72.1193 56.4279 71.8875 56.3604C71.6556 56.2929 71.3719 56.2652 71.0363 56.2771C70.708 56.2751 70.3584 56.2798 69.9875 56.2912C69.6272 56.2992 69.2676 56.2719 68.9085 56.2094C68.5568 56.1328 68.2398 55.9809 67.9577 55.7537C67.6756 55.5265 67.4625 55.184 67.3184 54.7261C67.1643 54.2363 67.1438 53.7805 67.2568 53.3588C67.3805 52.9337 67.6199 52.56 67.9748 52.2376C68.3405 51.912 68.8161 51.657 69.4017 51.4727C70.0193 51.2784 70.5976 51.2193 71.1364 51.2955C71.6826 51.3577 72.1841 51.5569 72.6409 51.8929L71.8746 53.3628C71.5639 53.1563 71.243 53.0291 70.912 52.9811C70.5809 52.9331 70.2291 52.9678 69.8564 53.085C69.505 53.1956 69.2502 53.3343 69.092 53.501C68.9339 53.6678 68.8866 53.8524 68.9503 54.0547C69.0173 54.2677 69.165 54.4026 69.3936 54.4594C69.6221 54.5162 69.8988 54.5403 70.2238 54.5317C70.5594 54.5197 70.909 54.515 71.2726 54.5177C71.6435 54.5063 72.0065 54.5442 72.3616 54.6314C72.724 54.7046 73.0479 54.8601 73.3334 55.098C73.6155 55.3252 73.8303 55.673 73.9777 56.1416C74.2122 56.8869 74.1373 57.56 73.7529 58.1607C73.3685 58.7615 72.729 59.2025 71.8346 59.484ZM78.6977 57.3246C78.2717 57.4586 77.845 57.5344 77.4176 57.5518C76.9867 57.5587 76.5744 57.5129 76.1807 57.4144C75.7836 57.3053 75.4157 57.1402 75.077 56.9191L75.8432 55.4493C76.2066 55.6743 76.5838 55.8131 76.9748 55.8656C77.3731 55.9041 77.7905 55.8547 78.2271 55.7173C78.6211 55.5934 78.9008 55.441 79.0662 55.2602C79.2317 55.0794 79.2793 54.8772 79.2089 54.6536C79.1352 54.4194 78.9824 54.2685 78.7505 54.201C78.5187 54.1335 78.2349 54.1058 77.8993 54.1178C77.571 54.1157 77.2214 54.1204 76.8505 54.1318C76.4903 54.1398 76.1306 54.1126 75.7716 54.05C75.4198 53.9734 75.1029 53.8215 74.8208 53.5943C74.5386 53.3672 74.3256 53.0246 74.1815 52.5667C74.0274 52.0769 74.0068 51.6212 74.1199 51.1994C74.2436 50.7743 74.4829 50.4006 74.8379 50.0783C75.2035 49.7526 75.6792 49.4976 76.2648 49.3134C76.8824 49.119 77.4606 49.06 77.9995 49.1362C78.5457 49.1984 79.0472 49.3975 79.504 49.7336L78.7377 51.2034C78.427 50.9969 78.1061 50.8697 77.7751 50.8217C77.444 50.7737 77.0921 50.8084 76.7194 50.9257C76.3681 51.0362 76.1133 51.1749 75.9551 51.3417C75.7969 51.5085 75.7497 51.693 75.8134 51.8953C75.8804 52.1083 76.0281 52.2432 76.2566 52.3C76.4852 52.3568 76.7619 52.3809 77.0868 52.3723C77.4224 52.3603 77.772 52.3557 78.1356 52.3583C78.5065 52.3469 78.8695 52.3848 79.2246 52.472C79.587 52.5453 79.911 52.7008 80.1965 52.9386C80.4786 53.1658 80.6933 53.5137 80.8408 53.9822C81.0753 54.7276 81.0003 55.4006 80.6159 56.0014C80.2315 56.6021 79.5921 57.0432 78.6977 57.3246ZM88.7583 54.1592C88.3324 54.2932 87.9057 54.3689 87.4782 54.3864C87.0474 54.3932 86.6351 54.3474 86.2413 54.249C85.8442 54.1399 85.4763 53.9748 85.1376 53.7537L85.9039 52.2838C86.2672 52.5089 86.6444 52.6477 87.0354 52.7002C87.4337 52.7387 87.8511 52.6893 88.2877 52.5519C88.6817 52.4279 88.9614 52.2756 89.1269 52.0948C89.2923 51.914 89.3399 51.7118 89.2695 51.4882C89.1958 51.2539 89.0431 51.1031 88.8112 51.0356C88.5793 50.9681 88.2956 50.9404 87.96 50.9523C87.6317 50.9503 87.2821 50.955 86.9112 50.9664C86.5509 50.9744 86.1913 50.9471 85.8322 50.8846C85.4805 50.808 85.1635 50.6561 84.8814 50.4289C84.5993 50.2017 84.3862 49.8592 84.2421 49.4013C84.088 48.9115 84.0675 48.4557 84.1805 48.034C84.3042 47.6089 84.5436 47.2352 84.8986 46.9128C85.2642 46.5872 85.7398 46.3322 86.3255 46.1479C86.9431 45.9536 87.5213 45.8945 88.0602 45.9707C88.6063 46.0329 89.1078 46.2321 89.5646 46.5681L88.7984 48.038C88.4876 47.8315 88.1668 47.7043 87.8357 47.6563C87.5046 47.6083 87.1528 47.643 86.7801 47.7602C86.4287 47.8708 86.1739 48.0095 86.0158 48.1762C85.8576 48.343 85.8103 48.5276 85.874 48.7299C85.941 48.9429 86.0888 49.0778 86.3173 49.1346C86.5458 49.1914 86.8225 49.2155 87.1475 49.2069C87.4831 49.1949 87.8327 49.1902 88.1963 49.1929C88.5672 49.1815 88.9302 49.2194 89.2853 49.3066C89.6477 49.3798 89.9716 49.5353 90.2571 49.7732C90.5392 50.0004 90.754 50.3482 90.9014 50.8168C91.1359 51.5621 91.061 52.2352 90.6766 52.8359C90.2922 53.4367 89.6528 53.8777 88.7583 54.1592ZM96.6276 51.6832C95.8823 51.9177 95.1508 51.9548 94.4333 51.7943C93.7125 51.6233 93.0755 51.2912 92.5225 50.7982C91.9802 50.3018 91.5918 49.6809 91.3572 48.9356C91.1227 48.1902 91.0873 47.4641 91.2511 46.7572C91.4255 46.047 91.7609 45.4207 92.2573 44.8784C92.7504 44.3254 93.3696 43.9316 94.1149 43.6971C94.871 43.4592 95.6077 43.4205 96.3252 43.5809C97.0427 43.7413 97.6727 44.0697 98.215 44.5661C98.7647 45.0485 99.1568 45.6624 99.3913 46.4078C99.6258 47.1531 99.6575 47.8862 99.4864 48.6071C99.326 49.3246 98.9993 49.9599 98.5063 50.5129C98.0099 51.0552 97.3837 51.4453 96.6276 51.6832ZM96.095 49.9901C96.5315 49.8528 96.8847 49.6363 97.1545 49.3408C97.4316 49.0313 97.6054 48.6724 97.6758 48.264C97.7569 47.8523 97.7271 47.4229 97.5864 46.9756C97.4457 46.5284 97.2259 46.1646 96.927 45.8841C96.6281 45.6037 96.2835 45.4196 95.8931 45.3318C95.4994 45.2333 95.0842 45.2528 94.6476 45.3901C94.2217 45.5241 93.8702 45.7459 93.5931 46.0554C93.3233 46.351 93.1462 46.6993 93.0617 47.1003C92.9879 47.498 93.0214 47.9205 93.1621 48.3677C93.3028 48.8149 93.519 49.1857 93.8105 49.4802C94.1128 49.7712 94.4607 49.966 94.8545 50.0645C95.2555 50.1489 95.669 50.1242 96.095 49.9901ZM102.063 49.7974L98.4452 38.2973L100.202 37.7445L103.82 49.2446L102.063 49.7974ZM108.973 47.7991C108.323 48.0034 107.697 48.0423 107.096 47.9156C106.505 47.7855 105.987 47.5155 105.542 47.1055C105.104 46.6815 104.782 46.1394 104.574 45.4792L103.172 41.023L104.929 40.4702L106.306 44.8466C106.423 45.2192 106.582 45.5203 106.783 45.7496C106.991 45.965 107.234 46.105 107.512 46.1697C107.801 46.2311 108.11 46.2099 108.44 46.106C108.951 45.9452 109.293 45.6738 109.465 45.2919C109.645 44.896 109.646 44.4159 109.468 43.8515L108.091 39.4751L109.848 38.9223L111.25 43.3786C111.461 44.0494 111.504 44.6856 111.377 45.2872C111.258 45.8748 110.993 46.391 110.583 46.836C110.17 47.2703 109.633 47.5913 108.973 47.7991ZM115.193 45.6663L111.776 34.8052L113.533 34.2524L116.95 45.1135L115.193 45.6663ZM111.447 40.1748L110.944 38.5776L116.375 36.8689L116.877 38.4662L111.447 40.1748ZM120.079 44.1289L117.667 36.4622L119.424 35.9094L121.836 43.5761L120.079 44.1289ZM118.103 34.7803C117.805 34.8741 117.523 34.8516 117.257 34.713C117.002 34.571 116.827 34.3509 116.734 34.0528C116.64 33.7546 116.657 33.4742 116.785 33.2116C116.924 32.9456 117.142 32.7657 117.44 32.6719C117.749 32.5748 118.031 32.5972 118.286 32.7392C118.542 32.8812 118.716 33.1013 118.81 33.3994C118.904 33.6976 118.887 33.978 118.759 34.2406C118.631 34.5032 118.412 34.6831 118.103 34.7803ZM127.371 42.0102C126.626 42.2447 125.894 42.2818 125.177 42.1214C124.456 41.9503 123.819 41.6182 123.266 41.1252C122.724 40.6288 122.335 40.0079 122.101 39.2626C121.866 38.5172 121.831 37.7911 121.995 37.0842C122.169 36.374 122.504 35.7477 123.001 35.2054C123.494 34.6524 124.113 34.2586 124.858 34.0241C125.614 33.7862 126.351 33.7475 127.069 33.9079C127.786 34.0683 128.416 34.3967 128.958 34.8931C129.508 35.3755 129.9 35.9894 130.135 36.7348C130.369 37.4801 130.401 38.2133 130.23 38.9341C130.069 39.6516 129.743 40.2869 129.25 40.8399C128.753 41.3822 128.127 41.7723 127.371 42.0102ZM126.838 40.3172C127.275 40.1798 127.628 39.9634 127.898 39.6678C128.175 39.3583 128.349 38.9994 128.419 38.591C128.5 38.1793 128.471 37.7499 128.33 37.3026C128.189 36.8554 127.969 36.4916 127.67 36.2112C127.372 35.9307 127.027 35.7466 126.637 35.6588C126.243 35.5603 125.828 35.5798 125.391 35.7172C124.965 35.8512 124.614 36.0729 124.337 36.3825C124.067 36.678 123.89 37.0263 123.805 37.4273C123.731 37.825 123.765 38.2475 123.906 38.6947C124.046 39.1419 124.262 39.5127 124.554 39.8072C124.856 40.0983 125.204 40.293 125.598 40.3915C125.999 40.4759 126.412 40.4512 126.838 40.3172ZM138.062 38.471L136.67 34.0467C136.509 33.5356 136.212 33.1669 135.778 32.9407C135.354 32.7111 134.887 32.6767 134.376 32.8375C134.035 32.9447 133.755 33.1147 133.536 33.3476C133.317 33.5804 133.174 33.8534 133.109 34.1665C133.044 34.4796 133.065 34.8065 133.172 35.1473L132.364 34.98C132.18 34.3944 132.145 33.8377 132.26 33.3101C132.372 32.7718 132.611 32.3046 132.978 31.9083C133.352 31.498 133.821 31.2041 134.385 31.0265C134.96 30.8456 135.518 30.8339 136.06 30.9913C136.597 31.1381 137.068 31.4056 137.47 31.7937C137.87 32.1711 138.149 32.6101 138.306 33.1106L139.819 37.9182L138.062 38.471ZM132.807 40.1244L130.395 32.4577L132.152 31.9049L134.564 39.5716L132.807 40.1244ZM144.162 36.7272C143.736 36.8612 143.309 36.9369 142.882 36.9544C142.451 36.9613 142.039 36.9154 141.645 36.817C141.248 36.7079 140.88 36.5428 140.541 36.3217L141.308 34.8519C141.671 35.0769 142.048 35.2157 142.439 35.2682C142.837 35.3067 143.255 35.2573 143.691 35.1199C144.085 34.996 144.365 34.8436 144.531 34.6628C144.696 34.482 144.744 34.2798 144.673 34.0562C144.6 33.8219 144.447 33.6711 144.215 33.6036C143.983 33.5361 143.699 33.5084 143.364 33.5204C143.035 33.5183 142.686 33.523 142.315 33.5344C141.955 33.5424 141.595 33.5151 141.236 33.4526C140.884 33.376 140.567 33.2241 140.285 32.9969C140.003 32.7697 139.79 32.4272 139.646 31.9693C139.492 31.4795 139.471 31.0237 139.584 30.602C139.708 30.1769 139.947 29.8032 140.302 29.4809C140.668 29.1552 141.144 28.9002 141.729 28.7159C142.347 28.5216 142.925 28.4626 143.464 28.5388C144.01 28.601 144.512 28.8001 144.968 29.1362L144.202 30.606C143.891 30.3995 143.57 30.2723 143.239 30.2243C142.908 30.1763 142.557 30.211 142.184 30.3282C141.832 30.4388 141.578 30.5775 141.419 30.7443C141.261 30.911 141.214 31.0956 141.278 31.2979C141.345 31.5109 141.493 31.6458 141.721 31.7026C141.95 31.7594 142.226 31.7835 142.551 31.7749C142.887 31.7629 143.236 31.7582 143.6 31.7609C143.971 31.7495 144.334 31.7874 144.689 31.8746C145.051 31.9478 145.375 32.1034 145.661 32.3412C145.943 32.5684 146.158 32.9163 146.305 33.3848C146.54 34.1302 146.465 34.8032 146.08 35.4039C145.696 36.0047 145.057 36.4458 144.162 36.7272Z" fill="#2AA4E7"/>
<rect x="20.8699" y="227.046" width="169.047" height="46.9302" rx="23.4651" transform="rotate(-1.32856 20.8699 227.046)" fill="url(#paint1_linear_165_211)"/>
<rect x="20.8699" y="227.046" width="169.047" height="46.9302" rx="23.4651" transform="rotate(-1.32856 20.8699 227.046)" stroke="url(#paint2_linear_165_211)" stroke-width="2.32558"/>
<path d="M69.0658 257.402L71.0278 242.701L72.9738 242.656L71.0118 257.356L69.0658 257.402ZM63.0841 253.144L63.0414 251.302L73.9849 251.049L74.0276 252.89L63.0841 253.144ZM64.5461 257.506L66.5081 242.806L68.4541 242.761L66.4921 257.461L64.5461 257.506ZM63.6323 248.797L63.5896 246.956L74.5541 246.702L74.5968 248.543L63.6323 248.797Z" fill="url(#paint3_linear_165_211)"/>
<path d="M82.5226 257.09L82.1829 242.442L84.5893 242.387L84.929 257.034L82.5226 257.09ZM84.0301 250.774L83.9791 248.577L91.4283 248.404L91.4792 250.601L84.0301 250.774ZM83.8869 244.601L83.836 242.404L91.6409 242.223L91.6918 244.42L83.8869 244.601ZM94.0815 256.821L93.8486 246.778L96.1503 246.724L96.3832 256.768L94.0815 256.821ZM94.9567 244.91C94.5661 244.919 94.2352 244.794 93.964 244.535C93.7068 244.276 93.5737 243.951 93.5646 243.56C93.5555 243.17 93.6735 242.839 93.9184 242.568C94.1773 242.297 94.5021 242.157 94.8927 242.148C95.2972 242.138 95.6281 242.263 95.8853 242.522C96.1426 242.782 96.2757 243.106 96.2848 243.497C96.2939 243.888 96.1759 244.218 95.931 244.489C95.686 244.76 95.3613 244.9 94.9567 244.91ZM98.9648 256.708L98.6154 241.643L100.917 241.589L101.266 256.655L98.9648 256.708ZM103.828 256.595L103.595 246.552L105.897 246.498L106.13 256.542L103.828 256.595ZM110.503 256.441L110.364 250.456C110.349 249.787 110.128 249.275 109.701 248.922C109.273 248.555 108.753 248.379 108.139 248.393C107.721 248.403 107.346 248.495 107.015 248.671C106.698 248.845 106.446 249.096 106.258 249.421C106.07 249.732 105.981 250.111 105.991 250.558L105.08 250.076C105.062 249.309 105.214 248.643 105.536 248.077C105.858 247.511 106.301 247.068 106.866 246.748C107.43 246.414 108.068 246.239 108.78 246.222C109.491 246.206 110.136 246.344 110.715 246.638C111.294 246.931 111.758 247.353 112.106 247.904C112.453 248.454 112.636 249.119 112.654 249.901L112.805 256.387L110.503 256.441ZM117.178 256.286L117.039 250.301C117.024 249.632 116.802 249.121 116.376 248.768C115.948 248.401 115.428 248.224 114.814 248.238C114.41 248.248 114.042 248.34 113.711 248.515C113.38 248.69 113.121 248.941 112.933 249.266C112.745 249.578 112.656 249.956 112.666 250.403L111.357 249.931C111.409 249.162 111.617 248.494 111.981 247.927C112.344 247.361 112.815 246.917 113.394 246.597C113.987 246.262 114.639 246.086 115.35 246.07C116.075 246.053 116.735 246.191 117.328 246.484C117.921 246.778 118.398 247.199 118.76 247.749C119.121 248.299 119.311 248.965 119.329 249.746L119.48 256.232L117.178 256.286ZM121.872 256.177L121.639 246.133L123.941 246.08L124.174 256.124L121.872 256.177ZM122.747 244.265C122.357 244.274 122.026 244.149 121.755 243.89C121.497 243.631 121.364 243.306 121.355 242.916C121.346 242.525 121.464 242.194 121.709 241.923C121.968 241.652 122.293 241.512 122.683 241.503C123.088 241.494 123.419 241.619 123.676 241.878C123.933 242.137 124.066 242.462 124.075 242.853C124.084 243.243 123.966 243.574 123.721 243.845C123.477 244.116 123.152 244.256 122.747 244.265ZM133.639 255.904L133.505 250.108C133.49 249.438 133.261 248.892 132.818 248.47C132.39 248.047 131.84 247.844 131.171 247.859C130.724 247.869 130.329 247.976 129.985 248.18C129.641 248.383 129.375 248.661 129.188 249.015C129.001 249.368 128.912 249.768 128.923 250.214L128.011 249.733C127.993 248.966 128.145 248.285 128.466 247.692C128.787 247.084 129.237 246.606 129.815 246.258C130.407 245.895 131.072 245.705 131.811 245.688C132.565 245.67 133.239 245.85 133.834 246.227C134.428 246.59 134.9 247.075 135.249 247.681C135.598 248.273 135.78 248.897 135.795 249.552L135.941 255.851L133.639 255.904ZM126.755 256.064L126.522 246.02L128.824 245.967L129.057 256.01L126.755 256.064ZM142.567 260.094C141.507 260.118 140.575 259.944 139.77 259.572C138.967 259.214 138.312 258.692 137.808 258.006L139.28 256.464C139.696 256.957 140.165 257.323 140.687 257.562C141.209 257.801 141.832 257.912 142.558 257.895C143.465 257.874 144.178 257.621 144.697 257.134C145.216 256.661 145.466 256.021 145.448 255.211L145.39 252.742L145.736 250.515L145.287 248.285L145.224 245.586L147.526 245.533L147.749 255.158C147.772 256.121 147.568 256.963 147.138 257.685C146.708 258.42 146.101 259 145.315 259.423C144.529 259.846 143.613 260.069 142.567 260.094ZM142.356 255.493C141.463 255.513 140.649 255.316 139.913 254.9C139.192 254.47 138.612 253.877 138.176 253.119C137.754 252.361 137.532 251.508 137.51 250.559C137.488 249.611 137.67 248.755 138.057 247.993C138.458 247.23 139.01 246.624 139.711 246.175C140.426 245.711 141.23 245.469 142.123 245.449C142.918 245.43 143.619 245.575 144.226 245.881C144.834 246.188 145.311 246.624 145.659 247.188C146.007 247.738 146.19 248.39 146.207 249.143L146.264 251.613C146.282 252.352 146.122 253.012 145.787 253.592C145.465 254.171 145.008 254.628 144.416 254.963C143.824 255.298 143.137 255.474 142.356 255.493ZM142.765 253.306C143.323 253.293 143.809 253.163 144.222 252.916C144.635 252.669 144.948 252.334 145.162 251.91C145.389 251.472 145.496 250.967 145.482 250.395C145.469 249.823 145.339 249.331 145.092 248.918C144.859 248.491 144.53 248.163 144.106 247.936C143.682 247.709 143.191 247.601 142.633 247.614C142.075 247.627 141.583 247.757 141.156 248.004C140.743 248.251 140.423 248.594 140.196 249.032C139.968 249.456 139.861 249.954 139.875 250.525C139.888 251.083 140.018 251.576 140.265 252.003C140.512 252.43 140.848 252.757 141.272 252.984C141.71 253.212 142.207 253.319 142.765 253.306Z" fill="url(#paint4_linear_165_211)"/>
<rect x="-34.8838" y="136.12" width="150.877" height="37.9972" rx="18.9986" transform="rotate(11.9874 -34.8838 136.12)" fill="white"/>
<rect x="-34.8838" y="136.12" width="150.877" height="37.9972" rx="18.9986" transform="rotate(11.9874 -34.8838 136.12)" stroke="url(#paint5_linear_165_211)" stroke-width="1.88857"/>
<path d="M-2.46343 169.071L1.83667 157.821L3.38293 158.149L-0.917166 169.399L-2.46343 169.071ZM-6.39413 164.588L-6.08347 163.124L2.6122 164.971L2.30154 166.434L-6.39413 164.588ZM-6.05476 168.309L-1.75466 157.058L-0.208396 157.387L-4.50849 168.637L-6.05476 168.309ZM-5.14794 161.255L-4.83728 159.792L3.87501 161.642L3.56435 163.105L-5.14794 161.255Z" fill="#2AA4E7"/>
<path d="M12.322 172.384C11.4463 172.198 10.7017 171.832 10.0881 171.284C9.47449 170.737 9.0356 170.076 8.77139 169.302C8.52063 168.519 8.48821 167.69 8.67414 166.814L10.2063 159.598L12.1183 160.004L10.5897 167.203C10.4697 167.769 10.4813 168.286 10.6247 168.757C10.7815 169.219 11.0402 169.61 11.4009 169.93C11.7639 170.239 12.2004 170.447 12.7103 170.555C13.2312 170.666 13.7148 170.653 14.1609 170.516C14.6093 170.368 14.9935 170.113 15.3134 169.753C15.6356 169.381 15.8555 168.918 15.9732 168.364L17.5053 161.148L19.4174 161.554L17.8817 168.786C17.6958 169.662 17.3303 170.401 16.7854 171.004C16.2404 171.606 15.582 172.034 14.81 172.287C14.0381 172.54 13.2087 172.572 12.322 172.384ZM19.3475 173.702L21.8187 162.064L23.7308 162.47L21.2596 174.108L19.3475 173.702ZM30.166 176.173C29.4455 176.02 28.8303 175.698 28.3205 175.208C27.8218 174.72 27.4666 174.129 27.2547 173.435C27.0564 172.733 27.0395 171.993 27.2043 171.217C27.3714 170.43 27.6871 169.762 28.1514 169.212C28.6292 168.653 29.1951 168.252 29.8491 168.008C30.5166 167.756 31.2106 167.707 31.9311 167.86C32.5407 167.989 33.0501 168.236 33.4591 168.601C33.8816 168.957 34.1832 169.392 34.3638 169.905C34.5444 170.419 34.5735 170.963 34.4512 171.54L33.964 173.834C33.8416 174.411 33.5936 174.897 33.22 175.292C32.8575 175.69 32.4097 175.972 31.8766 176.137C31.3458 176.29 30.7756 176.302 30.166 176.173ZM30.8324 174.507C31.2869 174.604 31.7015 174.588 32.0764 174.459C32.4648 174.321 32.792 174.089 33.0581 173.764C33.3242 173.438 33.5078 173.037 33.609 172.56C33.7102 172.083 33.7054 171.642 33.5947 171.236C33.4839 170.831 33.2779 170.491 32.9766 170.219C32.6888 169.938 32.3177 169.749 31.8632 169.652C31.4199 169.558 31.004 169.58 30.6157 169.718C30.2408 169.847 29.9147 170.073 29.6376 170.396C29.3715 170.722 29.1878 171.123 29.0866 171.6C28.9854 172.076 28.9902 172.518 29.101 172.923C29.2228 173.332 29.4276 173.676 29.7155 173.957C30.0167 174.23 30.389 174.413 30.8324 174.507ZM34.4743 176.914L32.6454 176.526L33.1008 174.381L33.8297 172.503L33.9233 170.507L35.1872 164.555L37.0161 164.943L34.4743 176.914ZM40.1764 178.298C39.3784 178.129 38.6955 177.799 38.128 177.307C37.5738 176.808 37.1754 176.202 36.9327 175.49C36.701 174.78 36.6688 174.032 36.8359 173.245C37.003 172.458 37.3353 171.793 37.8329 171.25C38.3328 170.696 38.932 170.302 39.6304 170.068C40.3398 169.836 41.077 169.802 41.8418 169.964C42.5845 170.122 43.202 170.432 43.6943 170.896C44.1977 171.362 44.5466 171.928 44.741 172.595C44.9464 173.264 44.9679 173.981 44.8055 174.746C44.7773 174.879 44.7368 175.015 44.684 175.155C44.6447 175.285 44.5908 175.43 44.5222 175.59L37.9714 174.199L38.2891 172.702L43.8922 173.892L43.0834 174.346C43.1648 173.853 43.1577 173.423 43.062 173.055C42.9664 172.688 42.7822 172.382 42.5095 172.139C42.2479 171.898 41.8954 171.73 41.452 171.636C40.9865 171.537 40.5607 171.551 40.1747 171.678C39.7887 171.804 39.4627 172.031 39.1966 172.356C38.9329 172.671 38.748 173.078 38.6421 173.577C38.5362 174.075 38.543 174.534 38.6625 174.954C38.782 175.373 39.0023 175.727 39.3234 176.015C39.6468 176.292 40.0468 176.481 40.5234 176.582C40.9335 176.669 41.3257 176.677 41.6999 176.606C42.0852 176.538 42.4292 176.39 42.7319 176.165L43.6451 177.593C43.1607 177.965 42.6166 178.208 42.013 178.324C41.4093 178.439 40.7972 178.43 40.1764 178.298ZM47.9606 179.951C47.5173 179.857 47.1023 179.711 46.7157 179.513C46.3315 179.304 45.9899 179.058 45.691 178.774C45.3944 178.48 45.1517 178.15 44.9626 177.786L46.3736 176.869C46.5824 177.249 46.8466 177.56 47.166 177.802C47.4988 178.035 47.8924 178.199 48.3469 178.296C48.757 178.383 49.0803 178.388 49.3168 178.31C49.5533 178.233 49.6963 178.078 49.7457 177.845C49.7975 177.602 49.7377 177.392 49.5664 177.217C49.3952 177.041 49.1582 176.875 48.8556 176.718C48.5664 176.553 48.2551 176.382 47.9216 176.207C47.5991 176.034 47.2948 175.831 47.0087 175.596C46.736 175.353 46.5317 175.061 46.3957 174.719C46.2597 174.377 46.2423 173.968 46.3435 173.492C46.4518 172.982 46.6611 172.569 46.9716 172.252C47.2931 171.938 47.6912 171.727 48.1658 171.62C48.6516 171.514 49.1992 171.526 49.8089 171.656C50.4518 171.792 50.9924 172.029 51.4307 172.365C51.8824 172.692 52.2263 173.119 52.4623 173.644L51.0513 174.561C50.8797 174.223 50.6596 173.95 50.3909 173.743C50.1223 173.535 49.7939 173.39 49.406 173.308C49.0402 173.23 48.7458 173.225 48.5227 173.294C48.2997 173.362 48.1658 173.502 48.1211 173.713C48.074 173.934 48.1373 174.127 48.3109 174.292C48.4845 174.456 48.7171 174.615 49.0087 174.77C49.3113 174.927 49.6226 175.097 49.9427 175.281C50.2762 175.456 50.5782 175.671 50.8485 175.925C51.1323 176.171 51.341 176.47 51.4746 176.823C51.6106 177.164 51.6268 177.579 51.5233 178.067C51.3585 178.842 50.9563 179.4 50.3167 179.739C49.6771 180.078 48.8917 180.149 47.9606 179.951ZM52.5464 180.751L54.2409 172.77L56.0698 173.159L54.3753 181.14L52.5464 180.751ZM55.466 171.501C55.1557 171.436 54.9176 171.275 54.7517 171.02C54.5969 170.767 54.5524 170.485 54.6183 170.175C54.6842 169.864 54.8393 169.625 55.0835 169.457C55.3388 169.291 55.6217 169.241 55.932 169.307C56.2535 169.375 56.4916 169.536 56.6464 169.789C56.8012 170.042 56.8457 170.323 56.7798 170.634C56.7139 170.944 56.5588 171.183 56.3146 171.352C56.0703 171.52 55.7875 171.57 55.466 171.501ZM59.0106 185.773C58.1682 185.594 57.464 185.282 56.8981 184.838C56.3298 184.404 55.9105 183.869 55.6403 183.233L57.0916 182.29C57.3283 182.757 57.6305 183.134 57.9983 183.42C58.366 183.707 58.8381 183.912 59.4145 184.034C60.135 184.187 60.7458 184.12 61.2471 183.832C61.7459 183.556 62.0636 183.096 62.2001 182.453L62.6167 180.491L63.3068 178.796L63.3686 176.95L63.824 174.805L65.6529 175.194L64.029 182.842C63.8666 183.607 63.5481 184.234 63.0733 184.724C62.5963 185.225 62.0077 185.569 61.3076 185.757C60.6076 185.944 59.8419 185.949 59.0106 185.773ZM59.7041 182.097C58.9947 181.947 58.3883 181.638 57.8848 181.172C57.3949 180.698 57.0483 180.12 56.8452 179.44C56.6532 178.762 56.6372 178.046 56.7973 177.292C56.9573 176.539 57.2616 175.897 57.7101 175.366C58.1698 174.838 58.7187 174.463 59.357 174.239C60.0087 174.007 60.6892 173.966 61.3986 174.116C62.0304 174.251 62.5576 174.496 62.9801 174.852C63.4026 175.208 63.6986 175.642 63.8681 176.153C64.04 176.652 64.0624 177.202 63.9353 177.8L63.5187 179.762C63.394 180.35 63.1448 180.841 62.7712 181.237C62.4087 181.635 61.9621 181.911 61.4313 182.064C60.9005 182.218 60.3248 182.229 59.7041 182.097ZM60.437 180.446C60.8804 180.54 61.2883 180.528 61.6609 180.41C62.0334 180.292 62.3437 180.086 62.5916 179.791C62.853 179.488 63.032 179.108 63.1285 178.654C63.225 178.2 63.2143 177.786 63.0965 177.414C62.9921 177.032 62.7936 176.712 62.5011 176.453C62.2086 176.194 61.8406 176.017 61.3972 175.923C60.9539 175.829 60.5404 175.84 60.1567 175.955C59.7842 176.073 59.4672 176.284 59.2058 176.587C58.9468 176.88 58.769 177.253 58.6726 177.708C58.5784 178.151 58.5891 178.565 58.7046 178.948C58.82 179.332 59.024 179.653 59.3165 179.912C59.6202 180.174 59.9936 180.352 60.437 180.446ZM71.4602 184.767L72.4381 180.162C72.5511 179.63 72.4722 179.155 72.2016 178.739C71.942 178.324 71.5462 178.061 71.0141 177.948C70.6594 177.873 70.3271 177.883 70.017 177.979C69.707 178.076 69.4449 178.246 69.2309 178.49C69.0169 178.734 68.8722 179.034 68.7969 179.388L68.1667 178.838C68.2961 178.228 68.5433 177.719 68.9082 177.31C69.2754 176.889 69.72 176.596 70.242 176.429C70.7775 176.253 71.339 176.227 71.9264 176.352C72.525 176.479 73.0241 176.747 73.4237 177.156C73.8257 177.554 74.108 178.026 74.2704 178.57C74.4353 179.103 74.4624 179.63 74.3518 180.151L73.2891 185.155L71.4602 184.767ZM65.9901 183.606L67.6846 175.625L69.5135 176.013L67.819 183.994L65.9901 183.606Z" fill="#2AA4E7"/>
<rect x="50.117" y="87.0529" width="129.246" height="32.6544" rx="16.3272" transform="rotate(21.1191 50.117 87.0529)" fill="url(#paint6_linear_165_211)"/>
<rect x="50.117" y="87.0529" width="129.246" height="32.6544" rx="16.3272" transform="rotate(21.1191 50.117 87.0529)" stroke="#2AA4E7" stroke-width="1.62827"/>
<path d="M73.4425 118.925L78.6423 109.937L79.9136 110.428L74.7138 119.416L73.4425 118.925ZM70.71 114.571L71.1746 113.368L78.3241 116.129L77.8595 117.332L70.71 114.571ZM70.4897 117.785L75.6895 108.796L76.9608 109.287L71.761 118.276L70.4897 117.785ZM72.2267 111.905L72.6914 110.702L79.8545 113.469L79.3899 114.672L72.2267 111.905Z" fill="#2AA4E7"/>
<path d="M84.879 123.343L85.431 112.559L86.9757 113.156L86.4947 121.437L86.0846 121.279L91.2408 114.803L92.3344 115.226L91.7987 123.486L91.3886 123.328L96.5995 116.873L98.1442 117.47L91.304 125.824L90.2104 125.402L90.7272 117.15L91.1373 117.308L85.9726 123.765L84.879 123.343ZM97.6776 128.443C97.0215 128.19 96.4854 127.815 96.0695 127.319C95.6662 126.818 95.4099 126.248 95.3007 125.609C95.2006 124.973 95.2755 124.332 95.5254 123.685C95.7754 123.037 96.1493 122.517 96.6471 122.123C97.1485 121.719 97.7125 121.466 98.339 121.362C98.9746 121.262 99.6068 121.334 100.236 121.576C100.846 121.812 101.329 122.161 101.685 122.623C102.05 123.089 102.269 123.619 102.344 124.213C102.427 124.811 102.347 125.424 102.104 126.053C102.062 126.162 102.009 126.273 101.945 126.384C101.893 126.49 101.828 126.606 101.748 126.732L96.3616 124.652L96.8368 123.421L101.444 125.201L100.693 125.476C100.83 125.068 100.882 124.701 100.851 124.375C100.82 124.049 100.705 123.763 100.506 123.519C100.317 123.278 100.04 123.087 99.675 122.947C99.2923 122.799 98.9279 122.752 98.5821 122.807C98.2362 122.862 97.9277 123.01 97.6566 123.251C97.3891 123.483 97.1761 123.804 97.0177 124.214C96.8593 124.624 96.8022 125.016 96.8466 125.389C96.891 125.762 97.0301 126.093 97.2639 126.383C97.5013 126.663 97.8159 126.879 98.2078 127.03C98.545 127.16 98.8777 127.221 99.206 127.211C99.5434 127.205 99.8564 127.127 100.145 126.977L100.727 128.317C100.264 128.568 99.7671 128.7 99.2375 128.716C98.708 128.731 98.188 128.64 97.6776 128.443ZM105.445 131.443C104.943 131.25 104.537 130.972 104.226 130.611C103.919 130.241 103.724 129.825 103.64 129.364C103.566 128.906 103.62 128.44 103.803 127.966L104.532 126.079C104.715 125.605 104.992 125.226 105.365 124.94C105.737 124.654 106.159 124.482 106.632 124.424C107.108 124.357 107.593 124.418 108.085 124.608C108.677 124.837 109.15 125.198 109.505 125.691C109.871 126.178 110.091 126.734 110.164 127.359C110.249 127.979 110.167 128.612 109.917 129.259C109.671 129.897 109.306 130.421 108.823 130.832C108.352 131.236 107.818 131.496 107.218 131.61C106.628 131.728 106.037 131.672 105.445 131.443ZM101.984 129.95L105.786 120.107L107.29 120.688L105.399 125.582L104.527 127.067L104.169 128.767L103.488 130.53L101.984 129.95ZM105.748 129.927C106.112 130.067 106.463 130.109 106.8 130.05C107.149 129.986 107.459 129.834 107.73 129.593C108.011 129.355 108.226 129.041 108.378 128.649C108.529 128.257 108.581 127.879 108.533 127.515C108.494 127.154 108.365 126.837 108.146 126.564C107.94 126.285 107.654 126.076 107.29 125.935C106.925 125.794 106.568 125.756 106.219 125.82C105.873 125.875 105.564 126.023 105.293 126.263C105.022 126.504 104.811 126.821 104.66 127.213C104.508 127.604 104.452 127.981 104.491 128.341C104.529 128.702 104.657 129.023 104.872 129.306C105.091 129.579 105.383 129.786 105.748 129.927ZM112.007 133.978C111.643 133.837 111.31 133.656 111.008 133.435C110.709 133.204 110.452 132.948 110.236 132.666C110.024 132.374 109.863 132.061 109.752 131.724L111.078 131.137C111.204 131.489 111.386 131.79 111.625 132.04C111.877 132.283 112.189 132.477 112.563 132.622C112.9 132.752 113.175 132.8 113.386 132.767C113.598 132.734 113.741 132.621 113.815 132.43C113.893 132.229 113.87 132.043 113.749 131.87C113.627 131.697 113.448 131.523 113.212 131.348C112.988 131.168 112.746 130.98 112.486 130.786C112.236 130.594 112.004 130.38 111.793 130.141C111.594 129.896 111.46 129.619 111.391 129.31C111.322 129.001 111.363 128.65 111.515 128.258C111.677 127.839 111.911 127.516 112.219 127.289C112.536 127.066 112.903 126.941 113.322 126.914C113.75 126.891 114.215 126.976 114.716 127.169C115.244 127.374 115.672 127.649 115.999 127.995C116.339 128.336 116.573 128.746 116.702 129.225L115.376 129.812C115.276 129.501 115.126 129.239 114.926 129.026C114.725 128.812 114.466 128.644 114.147 128.521C113.846 128.404 113.596 128.36 113.397 128.388C113.198 128.416 113.065 128.516 112.998 128.689C112.927 128.872 112.955 129.045 113.08 129.208C113.205 129.372 113.382 129.539 113.609 129.711C113.845 129.886 114.086 130.073 114.334 130.274C114.594 130.468 114.821 130.692 115.017 130.946C115.225 131.194 115.361 131.477 115.427 131.796C115.496 132.105 115.453 132.46 115.298 132.861C115.052 133.499 114.633 133.919 114.042 134.12C113.451 134.321 112.773 134.274 112.007 133.978ZM115.802 135.287L118.336 128.725L119.84 129.306L117.305 135.867L115.802 135.287ZM119.553 127.812C119.297 127.714 119.117 127.544 119.01 127.304C118.913 127.068 118.914 126.822 119.012 126.567C119.111 126.312 119.276 126.129 119.507 126.019C119.747 125.913 119.994 125.909 120.249 126.008C120.514 126.11 120.695 126.279 120.792 126.516C120.889 126.752 120.888 126.998 120.79 127.253C120.691 127.508 120.526 127.691 120.295 127.801C120.064 127.911 119.817 127.914 119.553 127.812ZM119.99 136.904L123.58 127.609L125.084 128.189L121.493 137.485L119.99 136.904ZM120.424 131.102L120.952 129.735L125.6 131.531L125.072 132.898L120.424 131.102ZM126.967 139.756C126.311 139.503 125.775 139.128 125.359 138.632C124.955 138.131 124.699 137.561 124.59 136.922C124.49 136.286 124.565 135.645 124.815 134.998C125.065 134.351 125.439 133.83 125.936 133.436C126.438 133.032 127.002 132.779 127.628 132.675C128.264 132.575 128.896 132.647 129.525 132.89C130.136 133.125 130.619 133.474 130.974 133.936C131.339 134.402 131.559 134.932 131.633 135.526C131.716 136.124 131.636 136.737 131.393 137.366C131.351 137.475 131.298 137.586 131.234 137.697C131.183 137.803 131.117 137.919 131.037 138.045L125.651 135.965L126.126 134.734L130.733 136.514L129.982 136.789C130.119 136.381 130.172 136.014 130.141 135.688C130.11 135.362 129.995 135.077 129.796 134.832C129.606 134.591 129.329 134.4 128.964 134.26C128.582 134.112 128.217 134.065 127.871 134.12C127.525 134.175 127.217 134.323 126.946 134.564C126.678 134.796 126.465 135.117 126.307 135.527C126.149 135.937 126.092 136.329 126.136 136.702C126.18 137.075 126.319 137.406 126.553 137.696C126.791 137.976 127.105 138.192 127.497 138.343C127.834 138.473 128.167 138.534 128.495 138.524C128.833 138.518 129.146 138.44 129.434 138.29L130.016 139.63C129.553 139.881 129.056 140.013 128.527 140.029C127.997 140.044 127.477 139.953 126.967 139.756ZM133.367 142.228C133.002 142.087 132.669 141.906 132.367 141.685C132.069 141.455 131.812 141.198 131.596 140.916C131.384 140.624 131.222 140.311 131.111 139.975L132.438 139.387C132.564 139.74 132.746 140.04 132.985 140.29C133.236 140.533 133.549 140.728 133.922 140.872C134.26 141.002 134.534 141.051 134.746 141.017C134.958 140.984 135.101 140.871 135.175 140.68C135.252 140.48 135.23 140.293 135.108 140.12C134.986 139.947 134.807 139.774 134.571 139.599C134.348 139.418 134.106 139.23 133.846 139.036C133.595 138.845 133.364 138.63 133.153 138.391C132.954 138.147 132.82 137.87 132.751 137.56C132.682 137.251 132.723 136.9 132.874 136.508C133.036 136.089 133.271 135.766 133.579 135.539C133.895 135.316 134.263 135.191 134.682 135.164C135.11 135.141 135.574 135.226 136.075 135.42C136.604 135.624 137.032 135.899 137.359 136.245C137.699 136.586 137.933 136.996 138.062 137.475L136.736 138.062C136.636 137.752 136.486 137.489 136.285 137.276C136.085 137.062 135.825 136.894 135.506 136.771C135.206 136.655 134.956 136.61 134.756 136.638C134.557 136.666 134.424 136.766 134.357 136.94C134.287 137.122 134.314 137.295 134.44 137.458C134.565 137.622 134.741 137.79 134.968 137.961C135.204 138.136 135.446 138.324 135.693 138.524C135.953 138.719 136.181 138.943 136.376 139.196C136.584 139.444 136.721 139.727 136.786 140.046C136.855 140.355 136.812 140.71 136.658 141.111C136.411 141.749 135.992 142.169 135.402 142.37C134.811 142.571 134.132 142.524 133.367 142.228Z" fill="#2AA4E7"/>
<rect x="154.282" y="66.8011" width="132.837" height="37.7442" rx="18.8721" transform="rotate(-3.37391 154.282 66.8011)" fill="url(#paint7_linear_165_211)"/>
<rect x="154.282" y="66.8011" width="132.837" height="37.7442" rx="18.8721" transform="rotate(-3.37391 154.282 66.8011)" stroke="#2AA4E7" stroke-width="1.86047"/>
<path d="M193.693 89.8938L194.842 78.0848L196.396 77.9932L195.247 89.8022L193.693 89.8938ZM188.789 86.6605L188.702 85.1896L197.444 84.6742L197.531 86.1452L188.789 86.6605ZM190.083 90.1067L191.231 78.2976L192.786 78.206L191.637 90.015L190.083 90.1067ZM189.103 83.1699L189.017 81.699L197.775 81.1826L197.862 82.6536L189.103 83.1699Z" fill="#2AA4E7"/>
<path d="M204.243 89.2719L203.553 77.5712L205.475 77.4579L206.165 89.1585L204.243 89.2719ZM205.564 89.194L205.46 87.4389L212.012 87.0526L212.116 88.8077L205.564 89.194ZM205.261 84.0625L205.161 82.3742L211.146 82.0214L211.245 83.7097L205.261 84.0625ZM204.977 79.2485L204.874 77.4934L211.343 77.112L211.446 78.8671L204.977 79.2485ZM217.091 88.6822C216.366 88.7249 215.698 88.5798 215.086 88.2469C214.485 87.9133 213.993 87.4447 213.611 86.841C213.239 86.2255 213.03 85.5278 212.984 84.7477C212.937 83.9565 213.063 83.2391 213.36 82.5953C213.668 81.9398 214.101 81.4111 214.659 81.0092C215.227 80.5955 215.874 80.3673 216.598 80.3246C217.211 80.2885 217.759 80.3903 218.243 80.6302C218.737 80.8582 219.137 81.1925 219.443 81.6329C219.748 82.0734 219.918 82.5833 219.952 83.1628L220.088 85.4695C220.122 86.049 220.014 86.5753 219.762 87.0486C219.521 87.5213 219.169 87.9055 218.706 88.2012C218.242 88.4857 217.704 88.646 217.091 88.6822ZM217.289 86.9261C217.746 86.8991 218.136 86.7755 218.458 86.5552C218.791 86.3231 219.041 86.0176 219.209 85.6387C219.377 85.2598 219.447 84.8308 219.418 84.3516C219.39 83.8725 219.271 83.4546 219.059 83.098C218.848 82.7415 218.564 82.4731 218.207 82.2929C217.86 82.1008 217.458 82.0183 217.001 82.0452C216.556 82.0715 216.166 82.2007 215.833 82.4328C215.511 82.6531 215.26 82.953 215.081 83.3326C214.913 83.7115 214.844 84.1405 214.872 84.6197C214.9 85.0988 215.02 85.5167 215.231 85.8733C215.453 86.2292 215.738 86.5031 216.085 86.6952C216.442 86.8754 216.843 86.9523 217.289 86.9261ZM221.377 88.2618L219.538 88.3702L219.411 86.2139L219.613 84.2395L219.181 82.3193L218.828 76.3352L220.667 76.2269L221.377 88.2618ZM223.434 88.1405L222.961 80.1172L224.8 80.0088L225.273 88.0321L223.434 88.1405ZM223.793 78.5921C223.481 78.6105 223.213 78.52 222.989 78.3208C222.776 78.1209 222.66 77.8649 222.642 77.5529C222.624 77.2409 222.708 76.9731 222.897 76.7496C223.096 76.5254 223.351 76.4041 223.663 76.3857C223.987 76.3666 224.255 76.457 224.468 76.6569C224.681 76.8568 224.797 77.1128 224.815 77.4248C224.833 77.7368 224.748 78.0046 224.56 78.2282C224.372 78.4517 224.117 78.573 223.793 78.5921ZM228.555 87.8386L227.885 76.4723L229.724 76.3639L230.394 87.7302L228.555 87.8386ZM226.258 81.6001L226.16 79.9286L231.843 79.5936L231.941 81.2651L226.258 81.6001ZM233.669 87.5371L233.196 79.5138L235.034 79.4054L235.507 87.4287L233.669 87.5371ZM234.028 77.9887C233.716 78.0071 233.448 77.9167 233.224 77.7174C233.011 77.5175 232.895 77.2616 232.877 76.9495C232.858 76.6375 232.943 76.3697 233.131 76.1462C233.331 75.922 233.586 75.8007 233.898 75.7823C234.221 75.7632 234.489 75.8537 234.703 76.0536C234.916 76.2535 235.031 76.5094 235.05 76.8214C235.068 77.1335 234.983 77.4012 234.795 77.6248C234.607 77.8483 234.351 77.9696 234.028 77.9887ZM243.069 86.9829L242.796 82.3528C242.764 81.8179 242.566 81.388 242.2 81.0629C241.845 80.7371 241.4 80.59 240.866 80.6216C240.509 80.6426 240.196 80.7393 239.927 80.9118C239.657 81.0842 239.453 81.3143 239.313 81.6021C239.174 81.8899 239.114 82.212 239.135 82.5686L238.393 82.2098C238.357 81.597 238.459 81.0486 238.698 80.5648C238.938 80.0699 239.283 79.6749 239.736 79.3799C240.198 79.073 240.725 78.9022 241.316 78.8674C241.917 78.8319 242.461 78.9564 242.948 79.2408C243.434 79.5141 243.825 79.888 244.121 80.3626C244.417 80.826 244.58 81.3195 244.611 81.8433L244.908 86.8745L243.069 86.9829ZM237.57 87.3071L237.097 79.2839L238.935 79.1755L239.408 87.1987L237.57 87.3071ZM250.326 90.0775C249.479 90.1274 248.729 90.0151 248.075 89.7405C247.422 89.4771 246.884 89.0783 246.462 88.5441L247.594 87.2697C247.941 87.6518 248.326 87.931 248.751 88.1072C249.175 88.2835 249.676 88.3546 250.256 88.3204C250.98 88.2777 251.543 88.0544 251.944 87.6506C252.346 87.2579 252.528 86.7384 252.49 86.0921L252.373 84.1197L252.586 82.3292L252.163 80.5594L252.036 78.4031L253.875 78.2947L254.328 85.9837C254.374 86.7526 254.235 87.4317 253.912 88.021C253.589 88.6215 253.12 89.1021 252.504 89.4627C251.888 89.8233 251.162 90.0282 250.326 90.0775ZM250.026 86.4051C249.312 86.4471 248.656 86.3125 248.056 86.0012C247.467 85.6781 246.987 85.22 246.616 84.6268C246.257 84.033 246.055 83.3572 246.01 82.5994C245.966 81.8417 246.087 81.1524 246.375 80.5316C246.674 79.9101 247.097 79.4099 247.645 79.031C248.204 78.6402 248.839 78.4238 249.553 78.3818C250.188 78.3443 250.752 78.4396 251.247 78.6677C251.741 78.8957 252.135 79.2303 252.43 79.6714C252.723 80.1014 252.888 80.6173 252.924 81.219L253.04 83.1914C253.075 83.782 252.966 84.314 252.715 84.7873C252.474 85.2599 252.122 85.6385 251.658 85.9231C251.194 86.2076 250.65 86.3683 250.026 86.4051ZM250.291 84.645C250.737 84.6187 251.121 84.501 251.444 84.2919C251.767 84.0827 252.008 83.8057 252.167 83.4609C252.336 83.1043 252.407 82.6976 252.38 82.2407C252.353 81.7838 252.235 81.3938 252.026 81.0707C251.827 80.7357 251.555 80.4834 251.21 80.3137C250.864 80.1439 250.469 80.0722 250.023 80.0985C249.577 80.1248 249.187 80.2428 248.853 80.4526C248.53 80.6618 248.284 80.9446 248.114 81.3013C247.945 81.6467 247.873 82.0479 247.9 82.5048C247.927 82.9505 248.045 83.3405 248.254 83.6748C248.464 84.0091 248.742 84.2611 249.087 84.4308C249.444 84.5999 249.845 84.6713 250.291 84.645Z" fill="#2AA4E7"/>
<defs>
<linearGradient id="paint0_linear_165_211" x1="181.996" y1="84.1134" x2="-31.7015" y2="84.1134" gradientUnits="userSpaceOnUse">
<stop stop-color="#0A60AD"/>
<stop offset="1" stop-color="#2AA4E7"/>
</linearGradient>
<linearGradient id="paint1_linear_165_211" x1="138.275" y1="225.91" x2="21.88" y2="334.05" gradientUnits="userSpaceOnUse">
<stop stop-color="#E9FCFF"/>
<stop offset="1" stop-color="#2AA4E7"/>
</linearGradient>
<linearGradient id="paint2_linear_165_211" x1="191.053" y1="250.538" x2="19.6805" y2="250.538" gradientUnits="userSpaceOnUse">
<stop stop-color="#0A60AD"/>
<stop offset="1" stop-color="#2AA4E7"/>
</linearGradient>
<linearGradient id="paint3_linear_165_211" x1="68.7974" y1="236.402" x2="69.4003" y2="262.395" gradientUnits="userSpaceOnUse">
<stop stop-color="#0A60AD"/>
<stop offset="1" stop-color="#2AA4E7"/>
</linearGradient>
<linearGradient id="paint4_linear_165_211" x1="114.936" y1="235.332" x2="115.539" y2="261.325" gradientUnits="userSpaceOnUse">
<stop stop-color="#0A60AD"/>
<stop offset="1" stop-color="#2AA4E7"/>
</linearGradient>
<linearGradient id="paint5_linear_165_211" x1="117.154" y1="154.943" x2="-35.6114" y2="154.943" gradientUnits="userSpaceOnUse">
<stop stop-color="#0A60AD"/>
<stop offset="1" stop-color="#2AA4E7"/>
</linearGradient>
<linearGradient id="paint6_linear_165_211" x1="60.3199" y1="95.4279" x2="160.852" y2="148.335" gradientUnits="userSpaceOnUse">
<stop stop-color="#E9FCFF"/>
<stop offset="1" stop-color="#A9EFFB"/>
</linearGradient>
<linearGradient id="paint7_linear_165_211" x1="164.28" y1="76.8185" x2="272.595" y2="127.604" gradientUnits="userSpaceOnUse">
<stop stop-color="#E9FCFF"/>
<stop offset="1" stop-color="#A9EFFB"/>
</linearGradient>
</defs>
</svg>
