<svg width="385" height="612" viewBox="0 0 385 612" fill="none" xmlns="http://www.w3.org/2000/svg">
<g filter="url(#filter0_f_42_228418)">
<path fill-rule="evenodd" clip-rule="evenodd" d="M486.613 115.408C486.613 115.408 387.217 52.7818 317.186 44.4188C235.069 34.6127 171.868 41.1337 111.842 98.0215C71.8461 135.927 51.8702 163.858 43.9039 216.645C34.1256 281.44 45.0564 334.206 95.1802 376.414C95.7151 376.864 96.2509 377.311 96.7877 377.754C108.209 410.115 133.528 442.924 158.953 472.572C196.453 516.301 227.062 536.943 281.904 554.573C344.064 574.556 392.436 580.508 452.266 554.363C489.061 538.285 532.172 489.654 532.172 489.654L527.144 470.135C527.144 470.135 489.084 528.434 451.438 547.916C395.399 576.917 349.069 569.524 293.31 553.108C237.551 536.692 198.193 515.212 162.106 469.646C142.251 444.576 119.131 414.66 107.32 385.91C158.341 422.873 217.017 429.611 275.789 416.729C309.13 409.421 333.975 397.188 346.187 364.331C360.492 325.841 330.987 285.743 294.38 267.14C258.324 248.818 220.07 246.547 180.157 253.08C145.086 258.822 115.333 279.306 99.1682 309.359C88.9524 328.353 88.4473 348.593 94.0833 369.146C48.2686 330.713 39.7564 279.407 48.1898 218.615C55.2204 167.936 73.6597 138.588 111.055 103.668C171.124 47.5753 237.618 33.3868 316.299 57.1355C394.98 80.8841 480.439 141.911 480.439 141.911L486.613 115.408ZM183.725 280.852C156.554 283.982 139.817 292.658 118.955 310.346C97.6124 328.441 95.8699 351.943 103.966 376.824C156.173 414.497 212.836 412.791 256.939 399.49C274.41 394.221 301.058 370.129 301.994 353.877C303.23 332.43 294.29 318.591 277.579 305.091C249.283 282.232 219.862 276.69 183.725 280.852Z" fill="url(#paint0_linear_42_228418)"/>
</g>
<defs>
<filter id="filter0_f_42_228418" x="0.652344" y="0.650269" width="571.52" height="611.182" filterUnits="userSpaceOnUse" color-interpolation-filters="sRGB">
<feFlood flood-opacity="0" result="BackgroundImageFix"/>
<feBlend mode="normal" in="SourceGraphic" in2="BackgroundImageFix" result="shape"/>
<feGaussianBlur stdDeviation="20" result="effect1_foregroundBlur_42_228418"/>
</filter>
<linearGradient id="paint0_linear_42_228418" x1="244.1" y1="40.4327" x2="313.545" y2="580.987" gradientUnits="userSpaceOnUse">
<stop stop-color="#2AA4E7"/>
<stop offset="1" stop-color="#A9EFFB"/>
</linearGradient>
</defs>
</svg>
