<svg width="422" height="540" viewBox="0 0 422 540" fill="none" xmlns="http://www.w3.org/2000/svg">
<g filter="url(#filter0_f_38_207036)">
<path fill-rule="evenodd" clip-rule="evenodd" d="M154.733 393.334L159.771 397.872C173.32 409.789 188.241 420.687 204.5 431.666C241.155 456.419 271.851 471.841 316 469.166C349 467.166 376.695 448.017 398 426.666C400.53 424.13 408.888 413.401 416.777 403.273L416.779 403.27L416.78 403.269C423.473 394.676 429.829 386.518 432 384.166C450 364.666 438 348.166 438 348.166L437.822 348.478C437.663 348.757 437.485 349.071 437.288 349.417C432.093 358.563 413.959 390.487 394.5 410.166C370.445 434.492 352.539 451.615 322.5 460.166C278.567 472.671 246.78 452.088 208.5 427.166C195.973 419.01 183.793 406.662 173.104 393.792L169.139 388.912C149.637 364.396 136 339.666 136 339.666C136 339.666 107.526 286.021 102.5 252.166C97.2816 217.013 94.5 184.665 114 149.666C129.22 122.348 152.747 104.74 184 103.666C217.747 102.505 244.646 114.276 269 137.666C290.796 158.599 295 192.166 295 222.666L312 215.666C314.029 182.803 306.367 141.035 286 115.166C260.85 83.2216 229.095 72.4022 188.5 70.1655C144.535 67.7432 111.5 92.1656 89.5 126.666C68.7129 159.264 67.3896 205.413 73 243.666C78.5 281.166 92.5 306.665 111.5 339.666C123.693 360.843 138.126 378.004 154.733 393.334Z" fill="url(#paint0_linear_38_207036)"/>
</g>
<defs>
<filter id="filter0_f_38_207036" x="0.153809" y="0" width="511.765" height="539.466" filterUnits="userSpaceOnUse" color-interpolation-filters="sRGB">
<feFlood flood-opacity="0" result="BackgroundImageFix"/>
<feBlend mode="normal" in="SourceGraphic" in2="BackgroundImageFix" result="shape"/>
<feGaussianBlur stdDeviation="35" result="effect1_foregroundBlur_38_207036"/>
</filter>
<linearGradient id="paint0_linear_38_207036" x1="-1050.07" y1="274.059" x2="441.918" y2="274.059" gradientUnits="userSpaceOnUse">
<stop stop-color="#E9FCFF"/>
<stop offset="0.394231" stop-color="#A9EFFB"/>
<stop offset="1" stop-color="#2AA4E7"/>
</linearGradient>
</defs>
</svg>
