<svg width="24" height="24" viewBox="0 0 24 24" fill="none" xmlns="http://www.w3.org/2000/svg">
<path d="M6.91748 14.8539L9.91048 10.9649L13.3245 13.6449L16.2535 9.86487" stroke="#C2C4C7" stroke-width="1.5" stroke-linecap="round" stroke-linejoin="round"/>
<path fill-rule="evenodd" clip-rule="evenodd" d="M19.6671 2.34998C20.7291 2.34998 21.5891 3.20998 21.5891 4.27198C21.5891 5.33298 20.7291 6.19398 19.6671 6.19398C18.6051 6.19398 17.7451 5.33298 17.7451 4.27198C17.7451 3.20998 18.6051 2.34998 19.6671 2.34998Z" stroke="#C2C4C7" stroke-width="1.5" stroke-linecap="round" stroke-linejoin="round"/>
<path d="M20.7557 9.26898C20.8887 10.164 20.9497 11.172 20.9497 12.303C20.9497 19.241 18.6377 21.553 11.6997 21.553C4.76271 21.553 2.44971 19.241 2.44971 12.303C2.44971 5.36598 4.76271 3.05298 11.6997 3.05298C12.8097 3.05298 13.8007 3.11198 14.6827 3.23998" stroke="#C2C4C7" stroke-width="1.5" stroke-linecap="round" stroke-linejoin="round"/>
</svg>
