<svg width="24" height="24" viewBox="0 0 24 24" fill="none" xmlns="http://www.w3.org/2000/svg">
<rect width="24" height="24" rx="12" fill="#0A66C2"/>
<g clip-path="url(#clip0_265_552)">
<path d="M5 6.86753C5 6.41707 5.15766 6.04545 5.47297 5.75267C5.78828 5.45987 6.1982 5.31348 6.7027 5.31348C7.1982 5.31348 7.59909 5.45761 7.90541 5.74591C8.22072 6.04321 8.37838 6.43058 8.37838 6.90807C8.37838 7.3405 8.22523 7.70085 7.91892 7.98915C7.60361 8.28645 7.18919 8.4351 6.67568 8.4351H6.66216C6.16666 8.4351 5.76577 8.28645 5.45946 7.98915C5.15315 7.69185 5 7.31798 5 6.86753ZM5.17568 18.6919V9.66483H8.17568V18.6919H5.17568ZM9.83784 18.6919H12.8378V13.6513C12.8378 13.336 12.8739 13.0927 12.9459 12.9216C13.0721 12.6153 13.2635 12.3563 13.5203 12.1446C13.777 11.9328 14.0991 11.827 14.4865 11.827C15.4955 11.827 16 12.5072 16 13.8675V18.6919H19V13.5162C19 12.1828 18.6847 11.1716 18.0541 10.4824C17.4234 9.79321 16.5901 9.44861 15.5541 9.44861C14.3919 9.44861 13.4865 9.94861 12.8378 10.9486V10.9756H12.8243L12.8378 10.9486V9.66483H9.83784C9.85585 9.95311 9.86486 10.8495 9.86486 12.354C9.86486 13.8585 9.85585 15.9711 9.83784 18.6919Z" fill="white"/>
</g>
<defs>
<clipPath id="clip0_265_552">
<rect x="5" y="5" width="14" height="14" fill="white"/>
</clipPath>
</defs>
</svg>
