<svg width="128" height="50" viewBox="0 0 128 50" fill="none" xmlns="http://www.w3.org/2000/svg">
<path d="M6.55479 39.2302L6.53467 30.3822H22.091C26.5318 30.3822 30.9722 34.8062 30.9722 39.2302H6.55479Z" fill="#2AA4E7"/>
<path d="M6.55479 39.2302L6.53467 30.3821H22.091C26.5317 30.3821 30.9722 34.8062 30.9722 39.2302H6.55479Z" fill="url(#paint0_linear_174_869)" fill-opacity="0.7"/>
<path d="M0 0.889132H24.4376V9.73722H8.84809C4.42407 9.73722 0 5.31317 0 0.889132Z" fill="#2AA4E7"/>
<path d="M0 0.889132H24.4376V9.73722H8.84809C4.42407 9.73722 0 5.31317 0 0.889132Z" fill="url(#paint1_linear_174_869)" fill-opacity="0.7"/>
<path d="M1.15868 30.4043L21.0669 4.04883H27.6465L29.2356 10.6377L24.245 17.2266L14.264 30.4043C14.264 30.4043 14.0095 30.6984 13.3775 32.0678C12.8609 34.2203 12.9777 34.6837 13.3827 35.7017C13.5912 36.2255 13.8454 36.7339 14.1801 37.1876C14.7232 37.9237 15.128 38.2858 16.2068 39.1361C16.2461 39.167 16.2246 39.2305 16.1745 39.2305H4.31871H3.16003C3.16003 39.2305 0 37.2292 0 33.8585C0 32.6273 0.396743 31.4289 1.13141 30.441L1.15868 30.4043Z" fill="#2AA4E7"/>
<path d="M1.15868 30.4043L21.0669 4.04883H27.6465L29.2356 10.6377L24.245 17.2266L14.264 30.4043C14.264 30.4043 14.0095 30.6984 13.3775 32.0678C12.8609 34.2203 12.9777 34.6837 13.3827 35.7017C13.5912 36.2255 13.8454 36.7339 14.1801 37.1876C14.7232 37.9237 15.128 38.2858 16.2068 39.1361C16.2461 39.167 16.2246 39.2305 16.1745 39.2305H4.31871H3.16003C3.16003 39.2305 0 37.2292 0 33.8585C0 32.6273 0.396743 31.4289 1.13141 30.441L1.15868 30.4043Z" fill="url(#paint2_linear_174_869)" fill-opacity="0.5"/>
<path d="M30.9688 15.0037L16.8539 0.888884L30.9688 0.888885L30.9688 15.0037Z" fill="#2AA4E7"/>
<path d="M33.404 38.9411V13.2425H41.4943V38.9411H33.404ZM37.4756 9.69967C36.2065 9.69967 35.149 9.27665 34.3029 8.4306C33.4921 7.5493 33.0867 6.49175 33.0867 5.25793C33.0867 3.98886 33.4921 2.9313 34.3029 2.08526C35.149 1.23921 36.2065 0.81619 37.4756 0.81619C38.7447 0.81619 39.7846 1.23921 40.5954 2.08526C41.4062 2.9313 41.8116 3.98886 41.8116 5.25793C41.8116 6.49175 41.4062 7.5493 40.5954 8.4306C39.7846 9.27665 38.7447 9.69967 37.4756 9.69967ZM56.0221 39.4699C53.5897 39.4699 51.4217 38.8883 49.5181 37.7249C47.6498 36.5616 46.1692 34.9753 45.0764 32.9659C44.0188 30.9566 43.49 28.6652 43.49 26.0918C43.49 23.5184 44.0188 21.227 45.0764 19.2177C46.1692 17.2083 47.6498 15.622 49.5181 14.4587C51.4217 13.2954 53.5897 12.7137 56.0221 12.7137C57.7847 12.7137 59.371 13.0486 60.7811 13.7184C62.2264 14.3882 63.4074 15.3224 64.3239 16.5209C65.2757 17.6842 65.8045 19.0238 65.9102 20.5396V31.3796C65.8045 32.8954 65.2933 34.2703 64.3768 35.5041C63.4602 36.7026 62.2793 37.6721 60.834 38.4124C59.3886 39.1174 57.7847 39.4699 56.0221 39.4699ZM57.4498 32.1728C58.6131 32.1728 59.6178 31.926 60.4638 31.4325C61.3099 30.9037 61.9797 30.181 62.4732 29.2645C62.9667 28.3479 63.2135 27.2904 63.2135 26.0918C63.2135 24.8932 62.9667 23.8533 62.4732 22.972C62.0149 22.0555 61.3451 21.3328 60.4638 20.804C59.6178 20.2752 58.6307 20.0109 57.5027 20.0109C56.3746 20.0109 55.3699 20.2752 54.4886 20.804C53.6426 21.3328 52.9552 22.0555 52.4264 22.972C51.9329 23.8886 51.6861 24.9285 51.6861 26.0918C51.6861 27.2551 51.9329 28.2951 52.4264 29.2116C52.9199 30.1282 53.6073 30.8508 54.4886 31.3796C55.3699 31.9084 56.357 32.1728 57.4498 32.1728ZM70.8279 38.9411H62.8962V32.0141L64.1124 25.7745L62.7376 19.535V0.551801H70.8279V38.9411ZM91.3829 38.9411V24.294C91.3829 22.9544 90.9599 21.8792 90.1138 21.0684C89.3031 20.2224 88.2631 19.7993 86.9941 19.7993C86.1128 19.7993 85.3372 19.9932 84.6674 20.381C83.9976 20.7335 83.4689 21.2623 83.0811 21.9673C82.6933 22.6371 82.4994 23.4127 82.4994 24.294L79.3796 22.7605C79.3796 20.7511 79.8203 18.9886 80.7016 17.4727C81.5829 15.9569 82.7991 14.7936 84.3502 13.9828C85.9365 13.1367 87.7167 12.7137 89.6908 12.7137C91.5944 12.7137 93.2689 13.172 94.7142 14.0885C96.1948 14.9698 97.3581 16.1508 98.2042 17.6314C99.0502 19.1119 99.4732 20.7335 99.4732 22.4961V38.9411H91.3829ZM74.4091 38.9411V13.2425H82.4994V38.9411H74.4091ZM110.486 39.0469L99.9103 13.2425H108.635L115.351 33.7062H112.125L118.999 13.2425H127.724L116.725 39.0469H110.486ZM103.876 49.7811L111.596 33.1246L116.725 39.0469L112.178 49.7811H103.876Z" fill="#2AA4E7"/>
<defs>
<linearGradient id="paint0_linear_174_869" x1="30.9722" y1="34.8062" x2="1.05728" y2="34.8062" gradientUnits="userSpaceOnUse">
<stop stop-color="#2AA4E7"/>
<stop offset="1" stop-color="#0A60AD"/>
</linearGradient>
<linearGradient id="paint1_linear_174_869" x1="31.3897" y1="5.31318" x2="0" y2="5.31318" gradientUnits="userSpaceOnUse">
<stop stop-color="#0A60AD"/>
<stop offset="1" stop-color="#2AA4E7"/>
</linearGradient>
<linearGradient id="paint2_linear_174_869" x1="24.4376" y1="8.57821" x2="4.8661e-06" y2="39.2305" gradientUnits="userSpaceOnUse">
<stop offset="0.373376" stop-color="#2AA4E7"/>
<stop offset="1" stop-color="#C3E6F8"/>
</linearGradient>
</defs>
</svg>
