<svg width="128" height="50" viewBox="0 0 128 50" fill="none" xmlns="http://www.w3.org/2000/svg">
<path d="M6.55485 39.2302L6.53473 30.3822H22.0911C26.5318 30.3822 30.9723 34.8062 30.9723 39.2302H6.55485Z" fill="#2AA4E7"/>
<path d="M6.55485 39.2302L6.53473 30.3821H22.0911C26.5318 30.3821 30.9723 34.8062 30.9723 39.2302H6.55485Z" fill="url(#paint0_linear_160_21498)" fill-opacity="0.7"/>
<path d="M0 0.889132H24.4376V9.73722H8.84809C4.42407 9.73722 0 5.31317 0 0.889132Z" fill="#2AA4E7"/>
<path d="M0 0.889132H24.4376V9.73722H8.84809C4.42407 9.73722 0 5.31317 0 0.889132Z" fill="url(#paint1_linear_160_21498)" fill-opacity="0.7"/>
<path d="M1.15868 30.4043L21.0669 4.04882H27.6465L29.2356 10.6377L24.245 17.2266L14.264 30.4043C14.264 30.4043 14.0095 30.6984 13.3775 32.0678C12.8609 34.2203 12.9777 34.6837 13.3827 35.7017C13.5912 36.2255 13.8454 36.7339 14.1801 37.1876C14.7232 37.9237 15.128 38.2858 16.2068 39.1361C16.2461 39.167 16.2246 39.2305 16.1745 39.2305H4.31871H3.16003C3.16003 39.2305 0 37.2292 0 33.8585C0 32.6273 0.396743 31.4289 1.13141 30.441L1.15868 30.4043Z" fill="#2AA4E7"/>
<path d="M1.15868 30.4043L21.0669 4.04882H27.6465L29.2356 10.6377L24.245 17.2266L14.264 30.4043C14.264 30.4043 14.0095 30.6984 13.3775 32.0678C12.8609 34.2203 12.9777 34.6837 13.3827 35.7017C13.5912 36.2255 13.8454 36.7339 14.1801 37.1876C14.7232 37.9237 15.128 38.2858 16.2068 39.1361C16.2461 39.167 16.2246 39.2305 16.1745 39.2305H4.31871H3.16003C3.16003 39.2305 0 37.2292 0 33.8585C0 32.6273 0.396743 31.4289 1.13141 30.441L1.15868 30.4043Z" fill="url(#paint2_linear_160_21498)" fill-opacity="0.5"/>
<path d="M30.9688 15.0037L16.8539 0.888884L30.9688 0.888885L30.9688 15.0037Z" fill="#2AA4E7"/>
<path d="M33.404 38.9411V13.2425H41.4943V38.9411H33.404ZM37.4756 9.69966C36.2065 9.69966 35.149 9.27664 34.3029 8.43059C33.4921 7.5493 33.0868 6.49174 33.0868 5.25792C33.0868 3.98885 33.4921 2.9313 34.3029 2.08525C35.149 1.23921 36.2065 0.816183 37.4756 0.816183C38.7447 0.816183 39.7846 1.23921 40.5954 2.08525C41.4062 2.9313 41.8116 3.98885 41.8116 5.25792C41.8116 6.49174 41.4062 7.5493 40.5954 8.43059C39.7846 9.27664 38.7447 9.69966 37.4756 9.69966ZM56.0221 39.4699C53.5897 39.4699 51.4217 38.8882 49.5181 37.7249C47.6498 36.5616 46.1692 34.9753 45.0764 32.9659C44.0188 30.9566 43.4901 28.6652 43.4901 26.0918C43.4901 23.5184 44.0188 21.227 45.0764 19.2177C46.1692 17.2083 47.6498 15.622 49.5181 14.4587C51.4217 13.2954 53.5897 12.7137 56.0221 12.7137C57.7847 12.7137 59.371 13.0486 60.7811 13.7184C62.2264 14.3882 63.4074 15.3223 64.3239 16.5209C65.2757 17.6842 65.8045 19.0238 65.9103 20.5396V31.3796C65.8045 32.8954 65.2934 34.2702 64.3768 35.5041C63.4603 36.7026 62.2793 37.6721 60.834 38.4123C59.3887 39.1174 57.7847 39.4699 56.0221 39.4699ZM57.4498 32.1728C58.6131 32.1728 59.6178 31.926 60.4639 31.4325C61.3099 30.9037 61.9797 30.181 62.4732 29.2645C62.9667 28.3479 63.2135 27.2904 63.2135 26.0918C63.2135 24.8932 62.9667 23.8533 62.4732 22.972C62.0149 22.0555 61.3452 21.3328 60.4639 20.804C59.6178 20.2752 58.6308 20.0108 57.5027 20.0108C56.3746 20.0108 55.37 20.2752 54.4887 20.804C53.6426 21.3328 52.9552 22.0555 52.4264 22.972C51.9329 23.8886 51.6861 24.9285 51.6861 26.0918C51.6861 27.2551 51.9329 28.295 52.4264 29.2116C52.9199 30.1281 53.6074 30.8508 54.4887 31.3796C55.37 31.9084 56.357 32.1728 57.4498 32.1728ZM70.8279 38.9411H62.8962V32.0141L64.1124 25.7745L62.7376 19.5349V0.551794H70.8279V38.9411ZM91.3829 38.9411V24.294C91.3829 22.9544 90.9599 21.8792 90.1139 21.0684C89.3031 20.2224 88.2632 19.7993 86.9941 19.7993C86.1128 19.7993 85.3372 19.9932 84.6675 20.381C83.9977 20.7335 83.4689 21.2623 83.0811 21.9673C82.6933 22.6371 82.4995 23.4127 82.4995 24.294L79.3797 22.7605C79.3797 20.7511 79.8203 18.9885 80.7016 17.4727C81.5829 15.9569 82.7991 14.7936 84.3502 13.9828C85.9365 13.1367 87.7167 12.7137 89.6909 12.7137C91.5945 12.7137 93.2689 13.172 94.7143 14.0885C96.1948 14.9698 97.3581 16.1508 98.2042 17.6313C99.0502 19.1119 99.4733 20.7335 99.4733 22.4961V38.9411H91.3829ZM74.4092 38.9411V13.2425H82.4995V38.9411H74.4092ZM110.486 39.0469L99.9103 13.2425H108.635L115.351 33.7062H112.125L118.999 13.2425H127.724L116.725 39.0469H110.486ZM103.876 49.7811L111.596 33.1246L116.725 39.0469L112.178 49.7811H103.876Z" fill="#2AA4E7"/>
<defs>
<linearGradient id="paint0_linear_160_21498" x1="30.9723" y1="34.8062" x2="1.05734" y2="34.8062" gradientUnits="userSpaceOnUse">
<stop stop-color="#2AA4E7"/>
<stop offset="1" stop-color="#0A60AD"/>
</linearGradient>
<linearGradient id="paint1_linear_160_21498" x1="31.3897" y1="5.31318" x2="0" y2="5.31318" gradientUnits="userSpaceOnUse">
<stop stop-color="#0A60AD"/>
<stop offset="1" stop-color="#2AA4E7"/>
</linearGradient>
<linearGradient id="paint2_linear_160_21498" x1="24.4376" y1="8.5782" x2="4.8661e-06" y2="39.2305" gradientUnits="userSpaceOnUse">
<stop offset="0.373376" stop-color="#2AA4E7"/>
<stop offset="1" stop-color="#C3E6F8"/>
</linearGradient>
</defs>
</svg>
