<svg width="200" height="71" viewBox="0 0 200 71" fill="none" xmlns="http://www.w3.org/2000/svg">
<path d="M7.3742 43.1338L7.35156 33.1797H24.8524C29.8483 33.1797 34.8438 38.1567 34.8438 43.1338H7.3742Z" fill="#2AA4E7"/>
<path d="M7.3742 43.1338L7.35156 33.1797H24.8524C29.8483 33.1797 34.8438 38.1567 34.8438 43.1338H7.3742Z" fill="url(#paint0_linear_38_207007)" fill-opacity="0.7"/>
<path d="M0 2.29162e-06H27.4923V9.9541H9.9541C4.97708 9.9541 0 4.97705 0 2.29162e-06Z" fill="#2AA4E7"/>
<path d="M0 2.29162e-06H27.4923V9.9541H9.9541C4.97708 9.9541 0 4.97705 0 2.29162e-06Z" fill="url(#paint1_linear_38_207007)" fill-opacity="0.7"/>
<path d="M1.30351 33.2046L23.7002 3.55469H31.1023L32.89 10.9672L27.2757 18.3797L16.047 33.2046C16.047 33.2046 15.7607 33.5355 15.0496 35.076C14.4685 37.4976 14.5999 38.0189 15.0556 39.1641C15.2901 39.7535 15.5761 40.3254 15.9527 40.8358C16.5636 41.6639 17.0191 42.0713 18.2327 43.0279C18.2769 43.0627 18.2526 43.1341 18.1964 43.1341H4.85855H3.55504C3.55504 43.1341 0 40.8826 0 37.0905C0 35.7055 0.446336 34.3573 1.27283 33.2459L1.30351 33.2046Z" fill="#2AA4E7"/>
<path d="M1.30351 33.2046L23.7002 3.55469H31.1023L32.89 10.9672L27.2757 18.3797L16.047 33.2046C16.047 33.2046 15.7607 33.5355 15.0496 35.076C14.4685 37.4976 14.5999 38.0189 15.0556 39.1641C15.2901 39.7535 15.5761 40.3254 15.9527 40.8358C16.5636 41.6639 17.0191 42.0713 18.2327 43.0279C18.2769 43.0627 18.2526 43.1341 18.1964 43.1341H4.85855H3.55504C3.55504 43.1341 0 40.8826 0 37.0905C0 35.7055 0.446336 34.3573 1.27283 33.2459L1.30351 33.2046Z" fill="url(#paint2_linear_38_207007)" fill-opacity="0.5"/>
<path d="M34.8398 15.8789L18.9607 -0.000253158L34.8398 -0.00025177L34.8398 15.8789Z" fill="#2AA4E7"/>
<path d="M37.5795 43.1836V14.2726H46.6811V43.1836H37.5795ZM42.1601 10.2869C40.7324 10.2869 39.5426 9.81105 38.5908 8.85925C37.6787 7.86779 37.2226 6.67803 37.2226 5.28999C37.2226 3.86229 37.6787 2.67254 38.5908 1.72074C39.5426 0.768935 40.7324 0.293034 42.1601 0.293034C43.5878 0.293034 44.7577 0.768935 45.6698 1.72074C46.582 2.67254 47.038 3.86229 47.038 5.28999C47.038 6.67803 46.582 7.86779 45.6698 8.85925C44.7577 9.81105 43.5878 10.2869 42.1601 10.2869ZM63.0249 43.7785C60.2884 43.7785 57.8495 43.1241 55.7079 41.8154C53.606 40.5067 51.9404 38.722 50.7109 36.4615C49.5212 34.201 48.9263 31.6232 48.9263 28.7281C48.9263 25.833 49.5212 23.2552 50.7109 20.9947C51.9404 18.7342 53.606 16.9496 55.7079 15.6408C57.8495 14.3321 60.2884 13.6777 63.0249 13.6777C65.0078 13.6777 66.7924 14.0545 68.3788 14.808C70.0048 15.5615 71.3333 16.6125 72.3644 17.9609C73.4352 19.2696 74.0301 20.7766 74.1491 22.4819V34.6769C74.0301 36.3822 73.455 37.9289 72.4239 39.3169C71.3928 40.6653 70.0642 41.7559 68.4382 42.5887C66.8123 43.3819 65.0078 43.7785 63.0249 43.7785ZM64.631 35.5692C65.9398 35.5692 67.07 35.2916 68.0218 34.7364C68.9736 34.1415 69.7271 33.3285 70.2824 32.2974C70.8376 31.2662 71.1152 30.0765 71.1152 28.7281C71.1152 27.3797 70.8376 26.2098 70.2824 25.2183C69.7668 24.1872 69.0133 23.3742 68.0218 22.7793C67.07 22.1845 65.9596 21.887 64.6905 21.887C63.4215 21.887 62.2912 22.1845 61.2997 22.7793C60.3479 23.3742 59.5746 24.1872 58.9797 25.2183C58.4245 26.2495 58.1469 27.4194 58.1469 28.7281C58.1469 30.0368 58.4245 31.2068 58.9797 32.2379C59.5349 33.269 60.3083 34.082 61.2997 34.6769C62.2912 35.2717 63.4016 35.5692 64.631 35.5692ZM79.6814 43.1836H70.7583V35.3907L72.1265 28.3712L70.5798 21.3516V-0.00440335H79.6814V43.1836ZM102.806 43.1836V26.7055C102.806 25.1985 102.33 23.9889 101.378 23.0768C100.466 22.125 99.296 21.6491 97.8683 21.6491C96.8769 21.6491 96.0044 21.8672 95.2509 22.3034C94.4974 22.7 93.9025 23.2949 93.4663 24.0881C93.03 24.8416 92.8119 25.7141 92.8119 26.7055L89.3021 24.9804C89.3021 22.7199 89.7979 20.7369 90.7893 19.0316C91.7808 17.3263 93.149 16.0176 94.894 15.1054C96.6786 14.1536 98.6813 13.6777 100.902 13.6777C103.044 13.6777 104.928 14.1933 106.554 15.2244C108.219 16.2159 109.528 17.5444 110.48 19.2101C111.432 20.8757 111.907 22.7 111.907 24.6829V43.1836H102.806ZM83.7103 43.1836V14.2726H92.8119V43.1836H83.7103ZM124.297 43.3026L112.399 14.2726H122.215L129.77 37.2943H126.141L133.874 14.2726H143.69L131.316 43.3026H124.297ZM116.861 55.3786L125.546 36.64L131.316 43.3026L126.2 55.3786H116.861Z" fill="#2AA4E7"/>
<defs>
<linearGradient id="paint0_linear_38_207007" x1="34.8438" y1="38.1567" x2="1.1895" y2="38.1567" gradientUnits="userSpaceOnUse">
<stop stop-color="#2AA4E7"/>
<stop offset="1" stop-color="#0A60AD"/>
</linearGradient>
<linearGradient id="paint1_linear_38_207007" x1="35.3134" y1="4.97705" x2="0" y2="4.97705" gradientUnits="userSpaceOnUse">
<stop stop-color="#0A60AD"/>
<stop offset="1" stop-color="#2AA4E7"/>
</linearGradient>
<linearGradient id="paint2_linear_38_207007" x1="27.4923" y1="8.65024" x2="3.36696e-06" y2="43.1341" gradientUnits="userSpaceOnUse">
<stop offset="0.373376" stop-color="#2AA4E7"/>
<stop offset="1" stop-color="#C3E6F8"/>
</linearGradient>
</defs>
</svg>
