<svg width="349" height="281" viewBox="0 0 349 281" fill="none" xmlns="http://www.w3.org/2000/svg">
<path d="M116.499 280.224C94.7385 280.224 75.0265 274.336 57.3625 262.56C39.6985 250.784 25.7465 234.4 15.5065 213.408C5.52249 192.16 0.530493 167.712 0.530493 140.064C0.530493 112.16 5.52249 87.84 15.5065 67.104C25.4905 46.112 39.1865 29.856 56.5945 18.336C74.0025 6.56 93.7145 0.671997 115.73 0.671997C138.003 0.671997 157.843 6.56 175.25 18.336C192.658 29.856 206.354 46.112 216.339 67.104C226.578 88.096 231.698 112.544 231.698 140.448C231.698 168.352 226.578 192.8 216.339 213.792C206.354 234.784 192.658 251.168 175.25 262.944C158.098 274.464 138.514 280.224 116.499 280.224ZM116.114 226.848C127.378 226.848 137.106 223.648 145.298 217.248C153.49 210.592 159.763 200.864 164.115 188.064C168.722 175.008 171.026 159.136 171.026 140.448C171.026 121.504 168.722 105.632 164.115 92.832C159.763 80.032 153.49 70.432 145.298 64.032C137.106 57.376 127.25 54.048 115.73 54.048C104.722 54.048 94.9945 57.248 86.5465 63.648C78.3545 70.048 72.0825 79.648 67.7305 92.448C63.3785 105.248 61.2025 121.12 61.2025 140.064C61.2025 159.008 63.3785 174.88 67.7305 187.68C72.0825 200.48 78.3545 210.208 86.5465 216.864C94.9945 223.52 104.85 226.848 116.114 226.848ZM288.536 276V4.89599H348.44V276H288.536ZM236.312 55.968V4.89599H344.6V55.968H236.312Z" fill="#E8EBEF" fill-opacity="0.4"/>
</svg>
