<svg width="756" height="335" viewBox="0 0 756 335" fill="none" xmlns="http://www.w3.org/2000/svg">
<g filter="url(#filter0_f_42_228421)">
<path fill-rule="evenodd" clip-rule="evenodd" d="M40 86.4999C40 86.4999 58.9627 137.444 78 166C94 190 105.744 203.422 129.5 221C164.463 246.871 193.364 260.424 235 273C270.8 283.814 289.112 287.541 326.392 290.5C361.819 293.312 384.614 290.473 419 281.5C436.461 276.944 459.062 264.923 470 258.76C432.699 248.484 401.246 227.159 387.5 189.5C373.902 152.249 377.731 117.312 400 84.4998C413.563 64.515 439.004 44.7423 463 41.9999C498 38 517.453 40.5264 544.5 62.5C564.149 78.4636 574 99 574 125C574 162.277 562.782 183.888 539.5 213C527.536 227.96 504.687 242.392 490.603 250.441C506.544 253.432 523.257 254.76 539.5 255C582.052 255.628 607.125 242.389 642 218C680.035 191.401 716 125 716 125C716 125 683.026 194.408 646 223.5C611 251 584.016 265.505 539.5 266.5C517.303 266.996 494.759 265.057 473.885 259.785C463.82 265.732 439.295 279.535 420.5 284.5C385.384 293.776 362.601 296.35 326.392 293.5C289.393 290.587 269.06 286.627 233.5 276C190 263 166 251 127.5 223.5C103.003 206.002 89.1804 189.698 73.5 164C55.5 134.5 40 86.4999 40 86.4999ZM553.5 122C564.103 153.362 551.488 180.208 533.5 208C522.709 224.672 498.87 241.159 485.697 249.462C445.229 240.89 410.68 220.975 403 180C396.919 147.556 403.186 117.357 427 94.5C446.289 75.9856 468.118 66.1586 494.5 70.5C524.406 75.4214 543.793 93.2881 553.5 122Z" fill="url(#paint0_linear_42_228421)"/>
</g>
<defs>
<filter id="filter0_f_42_228421" x="0" y="0.425171" width="756" height="334.176" filterUnits="userSpaceOnUse" color-interpolation-filters="sRGB">
<feFlood flood-opacity="0" result="BackgroundImageFix"/>
<feBlend mode="normal" in="SourceGraphic" in2="BackgroundImageFix" result="shape"/>
<feGaussianBlur stdDeviation="20" result="effect1_foregroundBlur_42_228421"/>
</filter>
<linearGradient id="paint0_linear_42_228421" x1="716" y1="96" x2="73" y2="141" gradientUnits="userSpaceOnUse">
<stop stop-color="#E9FCFF"/>
<stop offset="1" stop-color="#2AA4E7"/>
</linearGradient>
</defs>
</svg>
