<svg width="584" height="584" viewBox="0 0 584 584" fill="none" xmlns="http://www.w3.org/2000/svg">
<g opacity="0.6" filter="url(#filter0_f_198_1196)">
<ellipse cx="245.604" cy="251.169" rx="313.915" ry="209.457" fill="#5981CD"/>
</g>
<g opacity="0.6" filter="url(#filter1_f_198_1196)">
<circle cx="2.77501" cy="332.564" r="209.457" fill="#0C224B"/>
</g>
<g filter="url(#filter2_f_198_1196)">
<path d="M135.906 219.743C33.5455 218.914 -101.554 262.014 -84.1483 513.157C201.246 530.011 776.344 563.386 793.583 562.06C815.133 560.402 980.484 338.683 986.701 332.467C992.917 326.25 1020.68 269.888 842.484 124.839C664.286 -20.211 513.853 91.3735 409.42 164.624C304.988 237.874 238.267 220.571 135.906 219.743Z" fill="#2BA6E9"/>
</g>
<mask id="mask0_198_1196" style="mask-type:alpha" maskUnits="userSpaceOnUse" x="374" y="45" width="464" height="403">
<ellipse cx="605.541" cy="246.357" rx="262.931" ry="157.245" transform="rotate(-36.2854 605.541 246.357)" fill="url(#paint0_radial_198_1196)"/>
</mask>
<g mask="url(#mask0_198_1196)">
<path d="M375.287 386.957C342.485 399.547 335.278 412.444 315.875 442.67L631.601 559.967C712.05 437.569 851.486 203.179 796.118 181.02C738.183 157.834 649.861 167.491 595.695 194.033C541.529 220.574 497.877 309.188 477.37 340.725C458.37 369.943 408.088 374.368 375.287 386.957Z" fill="#5981CD"/>
<g filter="url(#filter3_f_198_1196)">
<path d="M375.287 386.415C342.485 399.004 335.278 411.901 315.875 442.127L631.601 559.424C712.05 437.026 831.669 166.97 776.302 144.811C732.52 127.29 652.945 169.406 612.155 193.606C598.968 201.43 608.299 210.297 600.036 210.854C539.853 214.917 497.877 308.645 477.37 340.182C458.37 369.401 408.088 373.825 375.287 386.415Z" fill="#5981CD"/>
</g>
<g filter="url(#filter4_f_198_1196)">
<path d="M366.604 382.616C333.803 395.206 326.596 408.103 307.193 438.329L631.601 559.967C712.051 437.569 782.028 190.156 726.661 167.997C674.726 147.212 644.652 171.89 602.659 196.007C597.807 198.793 605.646 199.966 600.036 202.715C545.87 229.257 489.195 304.847 468.688 336.384C449.688 365.602 399.406 370.027 366.604 382.616Z" fill="#5981CD"/>
</g>
<g filter="url(#filter5_f_198_1196)">
<path d="M357.922 378.275C325.121 390.865 317.914 403.762 298.511 433.988L631.601 559.967C712.051 437.569 864.509 159.768 809.142 137.609C762.41 118.907 679.741 164.344 628.434 184.373C616.132 189.175 608.883 198.667 598.408 203.8C544.242 230.342 480.513 300.506 460.006 332.043C441.006 361.261 390.724 365.686 357.922 378.275Z" fill="#5981CD"/>
</g>
<g filter="url(#filter6_f_198_1196)">
<path d="M330.248 366.419C297.447 379.009 290.24 391.905 270.837 422.131L612.609 556.793C693.058 434.395 763.036 186.982 707.669 164.823C664.727 147.638 632.076 182.998 611.612 195.711C604.467 200.15 624.96 207.757 609.442 207.757C549.48 207.757 560.815 270.871 462.116 312.486C430.001 326.027 363.049 353.829 330.248 366.419Z" fill="#5981CD"/>
</g>
</g>
<g opacity="0.6" filter="url(#filter7_f_198_1196)">
<circle cx="667.775" cy="324.696" r="89.2636" fill="#0662B4"/>
</g>
<g opacity="0.3" filter="url(#filter8_f_198_1196)">
<ellipse cx="273.279" cy="326.866" rx="199.961" ry="89.2636" fill="#A9EFFB"/>
</g>
<g opacity="0.6" filter="url(#filter9_f_198_1196)">
<ellipse cx="460.112" cy="301.135" rx="89.2636" ry="26.4358" transform="rotate(-41.2443 460.112 301.135)" fill="#0662B4"/>
</g>
<mask id="mask1_198_1196" style="mask-type:alpha" maskUnits="userSpaceOnUse" x="-408" y="84" width="799" height="529">
<path d="M-292.049 612.937C-321.873 440.817 -405.823 181.868 -408 173.417L390.585 84.496L352.586 500.146L-292.049 612.937Z" fill="url(#paint1_linear_198_1196)"/>
</mask>
<g mask="url(#mask1_198_1196)">
<path d="M-53.6244 207.596C19.082 194.874 87.4761 225.699 93.9891 262.923C100.502 300.146 79.6175 354.145 1.6098 367.794C-37.0468 374.558 -79.6294 407.653 -128.8 397.153C-178.854 386.463 -177.106 333.835 -180.391 315.057C-186.904 277.833 -126.331 220.317 -53.6244 207.596Z" fill="#1477AE"/>
<g filter="url(#filter10_f_198_1196)">
<path d="M-53.9373 210.936C24.0385 197.293 86.0884 223.218 91.6867 255.215C97.2851 287.211 75.2122 334.348 -2.76364 347.991C-41.4045 354.752 -84.4337 385.182 -133.13 377.281C-182.701 369.238 -179.71 323.74 -182.534 307.599C-188.133 275.603 -131.913 224.58 -53.9373 210.936Z" fill="#1477AE"/>
</g>
<g filter="url(#filter11_f_198_1196)">
<path d="M-51.5751 210.523C35.8206 195.232 106.066 228.289 112.968 267.736C119.87 307.184 95.9544 364.721 8.55862 380.012C-34.7502 387.59 -81.8989 427.861 -136.791 417.22C-192.668 406.388 -190.755 347.166 -194.237 327.266C-201.139 287.819 -138.971 225.815 -51.5751 210.523Z" fill="#1477AE"/>
</g>
<g filter="url(#filter12_f_198_1196)">
<path d="M-40.6714 213.43C68.9238 204.227 167.254 239.752 175.332 285.92C183.41 332.088 137.377 391.581 32.5627 409.92C-19.3776 419.008 -77.3435 481.009 -143.076 468.815C-209.989 456.403 -206.722 390.936 -210.797 367.646C-218.875 321.478 -167.631 224.092 -40.6714 213.43Z" fill="#1477AE"/>
</g>
<g filter="url(#filter13_f_198_1196)">
<path d="M-1.04796 225.754C111.809 206.008 219.374 248.491 227.272 293.63C235.17 338.769 184.739 397.884 71.8823 417.631C15.9562 427.416 -48.9345 456.524 -119.312 445.672C-190.955 434.624 -186.346 370.369 -190.33 347.599C-198.228 302.46 -113.905 245.5 -1.04796 225.754Z" fill="#1477AE"/>
</g>
<g filter="url(#filter14_f_198_1196)">
<path d="M46.0299 236.086C162.657 215.68 273.706 258.952 281.784 305.12C289.862 351.289 237.655 411.861 121.028 432.267C63.2337 442.38 -3.85679 472.277 -76.5442 461.301C-150.537 450.127 -145.661 384.378 -149.736 361.089C-157.814 314.92 -70.5974 256.492 46.0299 236.086Z" fill="#1477AE"/>
</g>
<g filter="url(#filter15_f_198_1196)">
<path d="M-42.9737 244.093C59.0752 226.237 157.573 271.705 165.651 317.874C173.729 364.042 129.14 423.282 27.0915 441.137C-23.4788 449.985 -82.7316 473.009 -146.836 460.531C-212.092 447.828 -209.202 382.427 -213.277 359.138C-221.355 312.97 -145.023 261.948 -42.9737 244.093Z" fill="#1477AE"/>
</g>
</g>
<defs>
<filter id="filter0_f_198_1196" x="-291.876" y="-181.855" width="1074.96" height="866.047" filterUnits="userSpaceOnUse" color-interpolation-filters="sRGB">
<feFlood flood-opacity="0" result="BackgroundImageFix"/>
<feBlend mode="normal" in="SourceGraphic" in2="BackgroundImageFix" result="shape"/>
<feGaussianBlur stdDeviation="111.783" result="effect1_foregroundBlur_198_1196"/>
</filter>
<filter id="filter1_f_198_1196" x="-430.248" y="-100.459" width="866.047" height="866.047" filterUnits="userSpaceOnUse" color-interpolation-filters="sRGB">
<feFlood flood-opacity="0" result="BackgroundImageFix"/>
<feBlend mode="normal" in="SourceGraphic" in2="BackgroundImageFix" result="shape"/>
<feGaussianBlur stdDeviation="111.783" result="effect1_foregroundBlur_198_1196"/>
</filter>
<filter id="filter2_f_198_1196" x="-170.326" y="-30.46" width="1246.98" height="677.209" filterUnits="userSpaceOnUse" color-interpolation-filters="sRGB">
<feFlood flood-opacity="0" result="BackgroundImageFix"/>
<feBlend mode="normal" in="SourceGraphic" in2="BackgroundImageFix" result="shape"/>
<feGaussianBlur stdDeviation="42.3256" result="effect1_foregroundBlur_198_1196"/>
</filter>
<filter id="filter3_f_198_1196" x="305.023" y="129.808" width="496.273" height="440.469" filterUnits="userSpaceOnUse" color-interpolation-filters="sRGB">
<feFlood flood-opacity="0" result="BackgroundImageFix"/>
<feBlend mode="normal" in="SourceGraphic" in2="BackgroundImageFix" result="shape"/>
<feGaussianBlur stdDeviation="5.42636" result="effect1_foregroundBlur_198_1196"/>
</filter>
<filter id="filter4_f_198_1196" x="292" y="145" width="469.674" height="430.161" filterUnits="userSpaceOnUse" color-interpolation-filters="sRGB">
<feFlood flood-opacity="0" result="BackgroundImageFix"/>
<feBlend mode="normal" in="SourceGraphic" in2="BackgroundImageFix" result="shape"/>
<feGaussianBlur stdDeviation="7.5969" result="effect1_foregroundBlur_198_1196"/>
</filter>
<filter id="filter5_f_198_1196" x="278.976" y="113.653" width="561.534" height="465.849" filterUnits="userSpaceOnUse" color-interpolation-filters="sRGB">
<feFlood flood-opacity="0" result="BackgroundImageFix"/>
<feBlend mode="normal" in="SourceGraphic" in2="BackgroundImageFix" result="shape"/>
<feGaussianBlur stdDeviation="9.76744" result="effect1_foregroundBlur_198_1196"/>
</filter>
<filter id="filter6_f_198_1196" x="242.62" y="131.985" width="513.084" height="453.025" filterUnits="userSpaceOnUse" color-interpolation-filters="sRGB">
<feFlood flood-opacity="0" result="BackgroundImageFix"/>
<feBlend mode="normal" in="SourceGraphic" in2="BackgroundImageFix" result="shape"/>
<feGaussianBlur stdDeviation="14.1085" result="effect1_foregroundBlur_198_1196"/>
</filter>
<filter id="filter7_f_198_1196" x="463.473" y="120.393" width="408.605" height="408.605" filterUnits="userSpaceOnUse" color-interpolation-filters="sRGB">
<feFlood flood-opacity="0" result="BackgroundImageFix"/>
<feBlend mode="normal" in="SourceGraphic" in2="BackgroundImageFix" result="shape"/>
<feGaussianBlur stdDeviation="57.5194" result="effect1_foregroundBlur_198_1196"/>
</filter>
<filter id="filter8_f_198_1196" x="-41.7209" y="122.564" width="630" height="408.605" filterUnits="userSpaceOnUse" color-interpolation-filters="sRGB">
<feFlood flood-opacity="0" result="BackgroundImageFix"/>
<feBlend mode="normal" in="SourceGraphic" in2="BackgroundImageFix" result="shape"/>
<feGaussianBlur stdDeviation="57.5194" result="effect1_foregroundBlur_198_1196"/>
</filter>
<filter id="filter9_f_198_1196" x="275.712" y="123.964" width="368.799" height="354.342" filterUnits="userSpaceOnUse" color-interpolation-filters="sRGB">
<feFlood flood-opacity="0" result="BackgroundImageFix"/>
<feBlend mode="normal" in="SourceGraphic" in2="BackgroundImageFix" result="shape"/>
<feGaussianBlur stdDeviation="57.5194" result="effect1_foregroundBlur_198_1196"/>
</filter>
<filter id="filter10_f_198_1196" x="-187.01" y="203.123" width="283.61" height="179.549" filterUnits="userSpaceOnUse" color-interpolation-filters="sRGB">
<feFlood flood-opacity="0" result="BackgroundImageFix"/>
<feBlend mode="normal" in="SourceGraphic" in2="BackgroundImageFix" result="shape"/>
<feGaussianBlur stdDeviation="2.04573" result="effect1_foregroundBlur_198_1196"/>
</filter>
<filter id="filter11_f_198_1196" x="-209.08" y="192.39" width="337.486" height="240.928" filterUnits="userSpaceOnUse" color-interpolation-filters="sRGB">
<feFlood flood-opacity="0" result="BackgroundImageFix"/>
<feBlend mode="normal" in="SourceGraphic" in2="BackgroundImageFix" result="shape"/>
<feGaussianBlur stdDeviation="7.16006" result="effect1_foregroundBlur_198_1196"/>
</filter>
<filter id="filter12_f_198_1196" x="-232.074" y="191.513" width="428.766" height="299.342" filterUnits="userSpaceOnUse" color-interpolation-filters="sRGB">
<feFlood flood-opacity="0" result="BackgroundImageFix"/>
<feBlend mode="normal" in="SourceGraphic" in2="BackgroundImageFix" result="shape"/>
<feGaussianBlur stdDeviation="10.2287" result="effect1_foregroundBlur_198_1196"/>
</filter>
<filter id="filter13_f_198_1196" x="-246.077" y="165.55" width="529.385" height="337.744" filterUnits="userSpaceOnUse" color-interpolation-filters="sRGB">
<feFlood flood-opacity="0" result="BackgroundImageFix"/>
<feBlend mode="normal" in="SourceGraphic" in2="BackgroundImageFix" result="shape"/>
<feGaussianBlur stdDeviation="27.6174" result="effect1_foregroundBlur_198_1196"/>
</filter>
<filter id="filter14_f_198_1196" x="-287.319" y="93.8338" width="706.977" height="506.916" filterUnits="userSpaceOnUse" color-interpolation-filters="sRGB">
<feFlood flood-opacity="0" result="BackgroundImageFix"/>
<feBlend mode="normal" in="SourceGraphic" in2="BackgroundImageFix" result="shape"/>
<feGaussianBlur stdDeviation="68.532" result="effect1_foregroundBlur_198_1196"/>
</filter>
<filter id="filter15_f_198_1196" x="-277.281" y="176.702" width="507.277" height="350.873" filterUnits="userSpaceOnUse" color-interpolation-filters="sRGB">
<feFlood flood-opacity="0" result="BackgroundImageFix"/>
<feBlend mode="normal" in="SourceGraphic" in2="BackgroundImageFix" result="shape"/>
<feGaussianBlur stdDeviation="31.7088" result="effect1_foregroundBlur_198_1196"/>
</filter>
<radialGradient id="paint0_radial_198_1196" cx="0" cy="0" r="1" gradientUnits="userSpaceOnUse" gradientTransform="translate(650.602 221.177) rotate(103.875) scale(187.908 302.399)">
<stop offset="0.120131" stop-color="#C4C4C4"/>
<stop offset="0.692585" stop-color="#C4C4C4" stop-opacity="0"/>
</radialGradient>
<linearGradient id="paint1_linear_198_1196" x1="-81.4454" y1="229.024" x2="-22.9807" y2="510.903" gradientUnits="userSpaceOnUse">
<stop stop-color="#C4C4C4"/>
<stop offset="1" stop-color="#C4C4C4" stop-opacity="0"/>
</linearGradient>
</defs>
</svg>
