<svg width="584" height="584" viewBox="0 0 584 584" fill="none" xmlns="http://www.w3.org/2000/svg">
<g opacity="0.5" clip-path="url(#clip0_198_1284)">
<rect width="2000" height="1792.94" transform="matrix(-1 0 0 -1 1292 1189)" fill="#07142C"/>
<mask id="mask0_198_1284" style="mask-type:alpha" maskUnits="userSpaceOnUse" x="570" y="170" width="75" height="76">
<path d="M644.697 245.344H570.019V170.667H644.697V245.344Z" fill="#D9D9D9"/>
</mask>
<g mask="url(#mask0_198_1284)">
<path d="M701.702 114.968L613.763 231.386H584.699L577.68 202.282L599.724 173.177L643.813 114.968C643.813 114.968 644.937 113.669 647.729 107.62C650.011 98.112 649.495 96.065 647.705 91.5686C646.785 89.2545 645.662 87.0089 644.183 85.0047C641.784 81.7534 639.996 80.154 635.231 76.398C635.057 76.2612 635.152 75.9809 635.373 75.9809H687.743H692.861C692.861 75.9809 706.82 84.8213 706.82 99.7104C706.82 105.149 705.067 110.442 701.822 114.806L701.702 114.968Z" fill="#091A39"/>
<path d="M701.702 114.968L613.763 231.386H584.699L577.68 202.282L599.724 173.177L643.813 114.968C643.813 114.968 644.937 113.669 647.729 107.62C650.011 98.112 649.495 96.065 647.705 91.5686C646.785 89.2545 645.662 87.0089 644.183 85.0047C641.784 81.7534 639.996 80.154 635.231 76.398C635.057 76.2612 635.152 75.9809 635.373 75.9809H687.743H692.861C692.861 75.9809 706.82 84.8213 706.82 99.7104C706.82 105.149 705.067 110.442 701.822 114.806L701.702 114.968Z" fill="#091A39"/>
<path d="M570.023 182.997L632.371 245.345L570.023 245.345L570.023 182.997Z" fill="#091A39"/>
</g>
<mask id="mask1_198_1284" style="mask-type:alpha" maskUnits="userSpaceOnUse" x="528" y="283" width="76" height="76">
<path d="M603.282 358.378H528.604V283.701H603.282V358.378Z" fill="#D9D9D9"/>
</mask>
<g mask="url(#mask1_198_1284)">
<path d="M660.288 228.006L572.349 344.424H543.285L536.266 315.32L558.31 286.215L602.399 228.006C602.399 228.006 603.523 226.707 606.315 220.658C608.597 211.15 608.081 209.103 606.291 204.607C605.371 202.293 604.248 200.047 602.769 198.043C600.37 194.791 598.582 193.192 593.817 189.436C593.643 189.299 593.738 189.019 593.959 189.019H646.329H651.447C651.447 189.019 665.406 197.859 665.406 212.748C665.406 218.187 663.653 223.48 660.408 227.844L660.288 228.006Z" fill="#091A39"/>
<path d="M660.288 228.006L572.349 344.424H543.285L536.266 315.32L558.31 286.215L602.399 228.006C602.399 228.006 603.523 226.707 606.315 220.658C608.597 211.15 608.081 209.103 606.291 204.607C605.371 202.293 604.248 200.047 602.769 198.043C600.37 194.791 598.582 193.192 593.817 189.436C593.643 189.299 593.738 189.019 593.959 189.019H646.329H651.447C651.447 189.019 665.406 197.859 665.406 212.748C665.406 218.187 663.653 223.48 660.408 227.844L660.288 228.006Z" fill="#091A39"/>
<path d="M528.609 296.035L590.957 358.383L528.609 358.383L528.609 296.035Z" fill="#091A39"/>
</g>
<mask id="mask2_198_1284" style="mask-type:alpha" maskUnits="userSpaceOnUse" x="561" y="341" width="76" height="76">
<path d="M561.868 341.748H636.546V416.426H561.868V341.748Z" fill="#D9D9D9"/>
</mask>
<g mask="url(#mask2_198_1284)">
<path d="M504.865 472.117L592.804 355.699H621.868L628.887 384.804L606.843 413.908L562.754 472.117C562.754 472.117 561.63 473.416 558.838 479.465C556.556 488.973 557.072 491.02 558.861 495.517C559.782 497.831 560.905 500.076 562.384 502.08C564.783 505.332 566.571 506.931 571.336 510.687C571.51 510.824 571.414 511.104 571.194 511.104H518.824H513.706C513.706 511.104 499.747 502.264 499.747 487.375C499.747 481.937 501.5 476.643 504.745 472.279L504.865 472.117Z" fill="#0B2047"/>
<path d="M504.865 472.117L592.804 355.699H621.868L628.887 384.804L606.843 413.908L562.754 472.117C562.754 472.117 561.63 473.416 558.838 479.465C556.556 488.973 557.072 491.02 558.861 495.517C559.782 497.831 560.905 500.076 562.384 502.08C564.783 505.332 566.571 506.931 571.336 510.687C571.51 510.824 571.414 511.104 571.194 511.104H518.824H513.706C513.706 511.104 499.747 502.264 499.747 487.375C499.747 481.937 501.5 476.643 504.745 472.279L504.865 472.117Z" fill="#0B2047"/>
<path d="M636.544 404.092L574.196 341.744L636.544 341.744L636.544 404.092Z" fill="#0B2047"/>
</g>
<mask id="mask3_198_1284" style="mask-type:alpha" maskUnits="userSpaceOnUse" x="462" y="125" width="75" height="75">
<path d="M536.75 199.86H462.072V125.183H536.75V199.86Z" fill="#D9D9D9"/>
</mask>
<g mask="url(#mask3_198_1284)">
<path d="M593.752 69.4849L505.813 185.903H476.75L469.731 156.798L491.775 127.694L535.863 69.4849C535.863 69.4849 536.988 68.1858 539.779 62.1371C542.061 52.6289 541.545 50.5819 539.756 46.0854C538.835 43.7713 537.712 41.5257 536.234 39.5216C533.835 36.2702 532.046 34.6708 527.281 30.9148C527.108 30.778 527.203 30.4977 527.424 30.4977H579.794H584.912C584.912 30.4977 598.87 39.3381 598.87 54.2272C598.87 59.6655 597.118 64.959 593.873 69.3229L593.752 69.4849Z" fill="#091A39"/>
<path d="M593.752 69.4849L505.813 185.903H476.75L469.731 156.798L491.775 127.694L535.863 69.4849C535.863 69.4849 536.988 68.1858 539.779 62.1371C542.061 52.6289 541.545 50.5819 539.756 46.0854C538.835 43.7713 537.712 41.5257 536.234 39.5216C533.835 36.2702 532.046 34.6708 527.281 30.9148C527.108 30.7781 527.203 30.4977 527.424 30.4977H579.794H584.912C584.912 30.4977 598.87 39.3381 598.87 54.2272C598.87 59.6655 597.118 64.959 593.873 69.3229L593.752 69.4849Z" fill="#091A39"/>
<path d="M462.073 137.51L524.422 199.858L462.073 199.858L462.073 137.51Z" fill="#091A39"/>
</g>
<mask id="mask4_198_1284" style="mask-type:alpha" maskUnits="userSpaceOnUse" x="495" y="183" width="76" height="75">
<path d="M495.34 183.227H570.017V257.904H495.34V183.227Z" fill="#D9D9D9"/>
</mask>
<g mask="url(#mask4_198_1284)">
<path d="M438.333 313.596L526.272 197.178H555.335L562.355 226.283L540.31 255.387L496.222 313.596C496.222 313.596 495.098 314.896 492.306 320.944C490.024 330.452 490.54 332.499 492.329 336.996C493.25 339.31 494.373 341.556 495.852 343.56C498.25 346.811 500.039 348.41 504.804 352.166C504.977 352.303 504.882 352.584 504.661 352.584H452.292H447.173C447.173 352.584 433.215 343.743 433.215 328.854C433.215 323.416 434.967 318.122 438.213 313.758L438.333 313.596Z" fill="#0B2047"/>
<path d="M438.184 313.619L526.123 197.201H555.186L562.206 226.305L540.161 255.41L496.073 313.619C496.073 313.619 494.949 314.918 492.157 320.967C489.875 330.475 490.391 332.522 492.18 337.018C493.101 339.332 494.224 341.578 495.703 343.582C498.102 346.834 499.89 348.433 504.655 352.189C504.828 352.326 504.733 352.606 504.512 352.606H452.143H447.024C447.024 352.606 433.066 343.766 433.066 328.877C433.066 323.438 434.818 318.145 438.064 313.781L438.184 313.619Z" fill="#0B2047"/>
<path d="M570.012 245.571L507.664 183.223L570.012 183.223L570.012 245.571Z" fill="#0B2047"/>
</g>
<mask id="mask5_198_1284" style="mask-type:alpha" maskUnits="userSpaceOnUse" x="354" y="79" width="75" height="76">
<path d="M428.803 154.034H354.125V79.3569H428.803V154.034Z" fill="#D9D9D9"/>
</mask>
<g mask="url(#mask5_198_1284)">
<path d="M485.801 23.659L397.862 140.077H368.798L361.779 110.972L383.823 81.868L427.912 23.659C427.912 23.659 429.036 22.3598 431.828 16.3111C434.11 6.80293 433.594 4.75595 431.805 0.259506C430.884 -2.05461 429.761 -4.3002 428.282 -6.30434C425.883 -9.55568 424.095 -11.1551 419.33 -14.9111C419.156 -15.0479 419.252 -15.3282 419.472 -15.3282H471.842H476.96C476.96 -15.3282 490.919 -6.48781 490.919 8.40131C490.919 13.8396 489.166 19.1331 485.921 23.497L485.801 23.659Z" fill="#091A39"/>
<path d="M485.801 23.659L397.862 140.077H368.798L361.779 110.972L383.823 81.868L427.912 23.659C427.912 23.659 429.036 22.3599 431.828 16.3112C434.11 6.80295 433.594 4.75595 431.805 0.259506C430.884 -2.05461 429.761 -4.3002 428.282 -6.30434C425.883 -9.55568 424.095 -11.1551 419.33 -14.9111C419.156 -15.0479 419.252 -15.3282 419.472 -15.3282H471.842H476.96C476.96 -15.3282 490.919 -6.48781 490.919 8.40131C490.919 13.8396 489.166 19.1331 485.921 23.497L485.801 23.659Z" fill="#091A39"/>
<path d="M354.122 91.688L416.47 154.036L354.122 154.036L354.122 91.688Z" fill="#091A39"/>
</g>
<mask id="mask6_198_1284" style="mask-type:alpha" maskUnits="userSpaceOnUse" x="387" y="137" width="76" height="76">
<path d="M387.393 137.406H462.071V212.084H387.393V137.406Z" fill="#D9D9D9"/>
</mask>
<g mask="url(#mask6_198_1284)">
<path d="M330.391 267.783L418.33 151.365H447.394L454.413 180.469L432.369 209.574L388.28 267.783C388.28 267.783 387.156 269.082 384.364 275.131C382.082 284.639 382.598 286.686 384.388 291.182C385.308 293.497 386.431 295.742 387.91 297.746C390.309 300.998 392.097 302.597 396.862 306.353C397.036 306.49 396.941 306.77 396.72 306.77H344.35H339.232C339.232 306.77 325.273 297.93 325.273 283.041C325.273 277.602 327.026 272.309 330.271 267.945L330.391 267.783Z" fill="#0B2047"/>
<path d="M330.391 267.783L418.33 151.365H447.394L454.413 180.469L432.369 209.574L388.28 267.783C388.28 267.783 387.156 269.082 384.364 275.131C382.082 284.639 382.598 286.686 384.388 291.182C385.308 293.497 386.431 295.742 387.91 297.746C390.309 300.998 392.097 302.597 396.862 306.353C397.036 306.49 396.941 306.77 396.72 306.77H344.35H339.232C339.232 306.77 325.273 297.93 325.273 283.041C325.273 277.602 327.026 272.309 330.271 267.945L330.391 267.783Z" fill="#0B2047"/>
<path d="M462.07 199.754L399.722 137.406L462.07 137.406L462.07 199.754Z" fill="#0B2047"/>
</g>
<mask id="mask7_198_1284" style="mask-type:alpha" maskUnits="userSpaceOnUse" x="312" y="192" width="76" height="76">
<path d="M387.393 267.064H312.716V192.387H387.393V267.064Z" fill="#D9D9D9"/>
</mask>
<g mask="url(#mask7_198_1284)">
<path d="M444.392 136.695L356.453 253.113H327.389L320.37 224.009L342.414 194.904L386.503 136.695C386.503 136.695 387.627 135.396 390.419 129.347C392.701 119.839 392.185 117.792 390.395 113.296C389.475 110.982 388.352 108.736 386.873 106.732C384.474 103.48 382.686 101.881 377.921 98.125C377.747 97.9883 377.842 97.7079 378.063 97.7079H430.433H435.551C435.551 97.7079 449.51 106.548 449.51 121.437C449.51 126.876 447.757 132.169 444.512 136.533L444.392 136.695Z" fill="#091A39"/>
<path d="M444.392 136.695L356.453 253.113H327.389L320.37 224.009L342.414 194.904L386.503 136.695C386.503 136.695 387.627 135.396 390.419 129.347C392.701 119.839 392.185 117.792 390.395 113.296C389.475 110.982 388.352 108.736 386.873 106.732C384.474 103.48 382.686 101.881 377.921 98.125C377.747 97.9883 377.842 97.7079 378.063 97.7079H430.433H435.551C435.551 97.7079 449.51 106.548 449.51 121.437C449.51 126.876 447.757 132.169 444.512 136.533L444.392 136.695Z" fill="#091A39"/>
<path d="M312.713 204.72L375.061 267.068L312.713 267.068L312.713 204.72Z" fill="#091A39"/>
</g>
<mask id="mask8_198_1284" style="mask-type:alpha" maskUnits="userSpaceOnUse" x="345" y="250" width="76" height="76">
<path d="M345.98 250.434H420.658V325.112H345.98V250.434Z" fill="#D9D9D9"/>
</mask>
<g mask="url(#mask8_198_1284)">
<path d="M288.975 380.806L376.914 264.388H405.977L412.997 293.493L390.952 322.597L346.864 380.806C346.864 380.806 345.74 382.105 342.948 388.154C340.666 397.662 341.182 399.709 342.971 404.206C343.892 406.52 345.015 408.766 346.493 410.77C348.892 414.021 350.681 415.62 355.446 419.376C355.619 419.513 355.524 419.794 355.303 419.794H302.933H297.815C297.815 419.794 283.857 410.953 283.857 396.064C283.857 390.626 285.609 385.332 288.854 380.968L288.975 380.806Z" fill="#0B2047"/>
<path d="M288.975 380.806L376.914 264.388H405.977L412.997 293.493L390.952 322.597L346.864 380.806C346.864 380.806 345.74 382.105 342.948 388.154C340.666 397.662 341.182 399.709 342.971 404.206C343.892 406.52 345.015 408.766 346.493 410.77C348.892 414.021 350.681 415.62 355.446 419.376C355.619 419.513 355.524 419.794 355.303 419.794H302.933H297.815C297.815 419.794 283.857 410.953 283.857 396.064C283.857 390.626 285.609 385.332 288.854 380.968L288.975 380.806Z" fill="#0B2047"/>
<path d="M420.654 312.778L358.305 250.429L420.654 250.429L420.654 312.778Z" fill="#0B2047"/>
</g>
<mask id="mask9_198_1284" style="mask-type:alpha" maskUnits="userSpaceOnUse" x="420" y="237" width="76" height="76">
<path d="M495.335 312.561H420.657V237.883H495.335V312.561Z" fill="#D9D9D9"/>
</mask>
<g mask="url(#mask9_198_1284)">
<path d="M552.334 182.185L464.395 298.603H435.332L428.313 269.499L450.357 240.394L494.445 182.185C494.445 182.185 495.57 180.886 498.361 174.837C500.643 165.329 500.127 163.282 498.338 158.786C497.417 156.472 496.294 154.226 494.816 152.222C492.417 148.97 490.629 147.371 485.863 143.615C485.69 143.478 485.785 143.198 486.006 143.198H538.376H543.494C543.494 143.198 557.452 152.038 557.452 166.927C557.452 172.366 555.7 177.659 552.455 182.023L552.334 182.185Z" fill="#091A39"/>
<path d="M552.334 182.185L464.395 298.603H435.332L428.313 269.499L450.357 240.394L494.445 182.185C494.445 182.185 495.57 180.886 498.361 174.837C500.643 165.329 500.127 163.282 498.338 158.786C497.417 156.472 496.294 154.226 494.816 152.222C492.417 148.97 490.629 147.371 485.863 143.615C485.69 143.478 485.785 143.198 486.006 143.198H538.376H543.494C543.494 143.198 557.452 152.038 557.452 166.927C557.452 172.366 555.7 177.659 552.455 182.023L552.334 182.185Z" fill="#091A39"/>
<path d="M420.656 250.214L483.004 312.562L420.656 312.562L420.656 250.214Z" fill="#091A39"/>
</g>
<mask id="mask10_198_1284" style="mask-type:alpha" maskUnits="userSpaceOnUse" x="453" y="295" width="76" height="76">
<path d="M453.922 295.931H528.599V370.608H453.922V295.931Z" fill="#D9D9D9"/>
</mask>
<g mask="url(#mask10_198_1284)">
<path d="M396.923 426.307L484.862 309.889H513.925L520.945 338.994L498.9 368.098L454.812 426.307C454.812 426.307 453.688 427.606 450.896 433.655C448.614 443.163 449.13 445.21 450.919 449.707C451.84 452.021 452.963 454.266 454.442 456.27C456.841 459.522 458.629 461.121 463.394 464.877C463.568 465.014 463.472 465.294 463.251 465.294H410.882H405.763C405.763 465.294 391.805 456.454 391.805 441.565C391.805 436.126 393.557 430.833 396.803 426.469L396.923 426.307Z" fill="#0B2047"/>
<path d="M396.923 426.307L484.862 309.889H513.925L520.945 338.994L498.9 368.098L454.812 426.307C454.812 426.307 453.688 427.606 450.896 433.655C448.614 443.163 449.13 445.21 450.919 449.707C451.84 452.021 452.963 454.266 454.442 456.27C456.841 459.522 458.629 461.121 463.394 464.877C463.567 465.014 463.472 465.294 463.251 465.294H410.882H405.763C405.763 465.294 391.805 456.454 391.805 441.565C391.805 436.126 393.557 430.833 396.803 426.469L396.923 426.307Z" fill="#0B2047"/>
<path d="M528.602 358.278L466.254 295.93L528.602 295.93L528.602 358.278Z" fill="#0B2047"/>
</g>
<mask id="mask11_198_1284" style="mask-type:alpha" maskUnits="userSpaceOnUse" x="578" y="-43" width="75" height="75">
<path d="M578.165 -42.8416H652.842V31.836H578.165V-42.8416Z" fill="#D9D9D9"/>
</mask>
<g mask="url(#mask11_198_1284)">
<path d="M521.167 87.5302L609.106 -28.8877H638.169L645.188 0.216782L623.144 29.3213L579.056 87.5302C579.056 87.5302 577.931 88.8294 575.14 94.8781C572.858 104.386 573.374 106.433 575.163 110.93C576.084 113.244 577.207 115.489 578.685 117.494C581.084 120.745 582.872 122.344 587.638 126.1C587.811 126.237 587.716 126.517 587.495 126.517H535.125H530.007C530.007 126.517 516.049 117.677 516.049 102.788C516.049 97.3496 517.801 92.0561 521.046 87.6922L521.167 87.5302Z" fill="#0B2047"/>
<path d="M521.167 87.5302L609.106 -28.8877H638.169L645.188 0.216782L623.144 29.3213L579.056 87.5302C579.056 87.5302 577.931 88.8294 575.14 94.8781C572.858 104.386 573.374 106.433 575.163 110.93C576.084 113.244 577.207 115.489 578.685 117.494C581.084 120.745 582.872 122.344 587.638 126.1C587.811 126.237 587.716 126.517 587.495 126.517H535.125H530.007C530.007 126.517 516.049 117.677 516.049 102.788C516.049 97.3496 517.801 92.0561 521.046 87.6922L521.167 87.5302Z" fill="#0B2047"/>
</g>
<mask id="mask12_198_1284" style="mask-type:alpha" maskUnits="userSpaceOnUse" x="503" y="12" width="76" height="75">
<path d="M578.163 86.8254H503.486V12.1479H578.163V86.8254Z" fill="#D9D9D9"/>
</mask>
<g mask="url(#mask12_198_1284)">
<path d="M635.162 -43.5507L547.223 72.8672H518.159L511.14 43.7627L533.184 14.6582L577.273 -43.5507C577.273 -43.5507 578.397 -44.8499 581.189 -50.8986C583.471 -60.4068 582.955 -62.4538 581.165 -66.9502C580.245 -69.2643 579.122 -71.5099 577.643 -73.5141C575.244 -76.7654 573.456 -78.3648 568.691 -82.1208C568.517 -82.2576 568.612 -82.5379 568.833 -82.5379H621.203H626.321C626.321 -82.5379 640.28 -73.6975 640.28 -58.8084C640.28 -53.3701 638.527 -48.0766 635.282 -43.7127L635.162 -43.5507Z" fill="#091A39"/>
<path d="M635.162 -43.5507L547.223 72.8672H518.159L511.14 43.7627L533.184 14.6582L577.273 -43.5507C577.273 -43.5507 578.397 -44.8499 581.189 -50.8986C583.471 -60.4068 582.955 -62.4538 581.165 -66.9502C580.245 -69.2643 579.122 -71.5099 577.643 -73.5141C575.244 -76.7654 573.456 -78.3648 568.691 -82.1208C568.517 -82.2576 568.612 -82.5379 568.833 -82.5379H621.203H626.321C626.321 -82.5379 640.28 -73.6975 640.28 -58.8084C640.28 -53.3701 638.527 -48.0766 635.282 -43.7127L635.162 -43.5507Z" fill="#091A39"/>
<path d="M503.483 24.478L565.831 86.8262L503.483 86.8262L503.483 24.478Z" fill="#091A39"/>
</g>
<mask id="mask13_198_1284" style="mask-type:alpha" maskUnits="userSpaceOnUse" x="536" y="70" width="76" height="75">
<path d="M536.75 70.1953H611.427V144.873H536.75V70.1953Z" fill="#D9D9D9"/>
</mask>
<g mask="url(#mask13_198_1284)">
<path d="M479.75 200.571L567.689 84.1533H596.753L603.772 113.258L581.728 142.362L537.639 200.571C537.639 200.571 536.515 201.87 533.723 207.919C531.442 217.427 531.957 219.474 533.747 223.971C534.668 226.285 535.79 228.53 537.269 230.535C539.668 233.786 541.456 235.385 546.221 239.141C546.395 239.278 546.3 239.558 546.079 239.558H493.709H488.591C488.591 239.558 474.632 230.718 474.632 215.829C474.632 210.391 476.385 205.097 479.63 200.733L479.75 200.571Z" fill="#0B2047"/>
<path d="M479.75 200.571L567.689 84.1533H596.753L603.772 113.258L581.728 142.362L537.639 200.571C537.639 200.571 536.515 201.87 533.723 207.919C531.441 217.427 531.957 219.474 533.747 223.971C534.668 226.285 535.79 228.53 537.269 230.535C539.668 233.786 541.456 235.385 546.221 239.141C546.395 239.278 546.3 239.558 546.079 239.558H493.709H488.591C488.591 239.558 474.632 230.718 474.632 215.829C474.632 210.391 476.385 205.097 479.63 200.733L479.75 200.571Z" fill="#0B2047"/>
<path d="M611.425 132.546L549.077 70.198L611.425 70.198L611.425 132.546Z" fill="#0B2047"/>
</g>
<mask id="mask14_198_1284" style="mask-type:alpha" maskUnits="userSpaceOnUse" x="320" y="-22" width="76" height="76">
<path d="M320.858 -21.1165H395.536V53.5611H320.858V-21.1165Z" fill="#D9D9D9"/>
</mask>
<g mask="url(#mask14_198_1284)">
<path d="M263.855 109.261L351.794 -7.15723H380.857L387.876 21.9473L365.832 51.0517L321.744 109.261C321.744 109.261 320.619 110.56 317.828 116.609C315.546 126.117 316.062 128.164 317.851 132.66C318.772 134.974 319.895 137.22 321.373 139.224C323.772 142.475 325.56 144.075 330.326 147.831C330.499 147.968 330.404 148.248 330.183 148.248H277.813H272.695C272.695 148.248 258.737 139.407 258.737 124.518C258.737 119.08 260.489 113.787 263.734 109.423L263.855 109.261Z" fill="#0B2047"/>
<path d="M263.855 109.261L351.794 -7.15723H380.857L387.876 21.9473L365.832 51.0517L321.744 109.261C321.744 109.261 320.619 110.56 317.828 116.609C315.546 126.117 316.062 128.164 317.851 132.66C318.772 134.974 319.895 137.22 321.373 139.224C323.772 142.475 325.56 144.075 330.326 147.831C330.499 147.968 330.404 148.248 330.183 148.248H277.813H272.695C272.695 148.248 258.737 139.407 258.737 124.518C258.737 119.08 260.489 113.787 263.734 109.423L263.855 109.261Z" fill="#0B2047"/>
<path d="M395.533 41.2356L333.185 -21.1126L395.533 -21.1126L395.533 41.2356Z" fill="#0B2047"/>
</g>
<mask id="mask15_198_1284" style="mask-type:alpha" maskUnits="userSpaceOnUse" x="395" y="-34" width="76" height="76">
<path d="M470.213 41.0042H395.535V-33.6734H470.213V41.0042Z" fill="#D9D9D9"/>
</mask>
<g mask="url(#mask15_198_1284)">
<path d="M527.21 -89.372L439.272 27.0459H410.208L403.189 -2.05858L425.233 -31.1631L469.322 -89.372C469.322 -89.372 470.446 -90.6712 473.237 -96.7199C475.519 -106.228 475.003 -108.275 473.214 -112.771C472.293 -115.086 471.171 -117.331 469.692 -119.335C467.293 -122.587 465.505 -124.186 460.74 -127.942C460.566 -128.079 460.661 -128.359 460.882 -128.359H513.252H518.37C518.37 -128.359 532.329 -119.519 532.329 -104.63C532.329 -99.1914 530.576 -93.8979 527.331 -89.534L527.21 -89.372Z" fill="#091A39"/>
<path d="M527.21 -89.372L439.272 27.0459H410.208L403.189 -2.05858L425.233 -31.1631L469.322 -89.372C469.322 -89.372 470.446 -90.6712 473.237 -96.7198C475.519 -106.228 475.003 -108.275 473.214 -112.771C472.293 -115.086 471.171 -117.331 469.692 -119.335C467.293 -122.587 465.505 -124.186 460.74 -127.942C460.566 -128.079 460.661 -128.359 460.882 -128.359H513.252H518.37C518.37 -128.359 532.329 -119.519 532.329 -104.63C532.329 -99.1914 530.576 -93.8979 527.331 -89.534L527.21 -89.372Z" fill="#091A39"/>
<path d="M395.532 -21.3469L457.88 41.0012L395.532 41.0012L395.532 -21.3469Z" fill="#091A39"/>
</g>
<mask id="mask16_198_1284" style="mask-type:alpha" maskUnits="userSpaceOnUse" x="428" y="24" width="76" height="76">
<path d="M428.8 24.374H503.477V99.0516H428.8V24.374Z" fill="#D9D9D9"/>
</mask>
<g mask="url(#mask16_198_1284)">
<path d="M371.801 154.75L459.74 38.3318H488.804L495.823 67.4363L473.779 96.5407L429.69 154.75C429.69 154.75 428.566 156.049 425.774 162.098C423.492 171.606 424.008 173.653 425.797 178.149C426.718 180.463 427.841 182.709 429.32 184.713C431.719 187.964 433.507 189.564 438.272 193.32C438.446 193.457 438.351 193.737 438.13 193.737H385.76H380.642C380.642 193.737 366.683 184.896 366.683 170.007C366.683 164.569 368.436 159.276 371.681 154.912L371.801 154.75Z" fill="#0B2047"/>
<path d="M371.801 154.75L459.74 38.3318H488.804L495.823 67.4363L473.779 96.5407L429.69 154.75C429.69 154.75 428.566 156.049 425.774 162.098C423.492 171.606 424.008 173.653 425.797 178.149C426.718 180.463 427.841 182.709 429.32 184.713C431.719 187.964 433.507 189.564 438.272 193.32C438.446 193.457 438.351 193.737 438.13 193.737H385.76H380.642C380.642 193.737 366.683 184.896 366.683 170.007C366.683 164.569 368.436 159.276 371.681 154.912L371.801 154.75Z" fill="#0B2047"/>
<path d="M503.48 86.7209L441.132 24.3728L503.48 24.3728L503.48 86.7209Z" fill="#0B2047"/>
</g>
<mask id="mask17_198_1284" style="mask-type:alpha" maskUnits="userSpaceOnUse" x="246" y="34" width="75" height="75">
<path d="M320.86 108.898H246.183V34.2207H320.86V108.898Z" fill="#D9D9D9"/>
</mask>
<g mask="url(#mask17_198_1284)">
<path d="M377.859 -21.478L289.92 94.9399H260.857L253.837 65.8355L275.882 36.731L319.97 -21.478C319.97 -21.478 321.094 -22.7771 323.886 -28.8258C326.168 -38.334 325.652 -40.381 323.863 -44.8775C322.942 -47.1916 321.819 -49.4372 320.34 -51.4413C317.941 -54.6926 316.153 -56.2921 311.388 -60.0481C311.214 -60.1848 311.31 -60.4652 311.531 -60.4652H363.9H369.019C369.019 -60.4652 382.977 -51.6248 382.977 -36.7357C382.977 -31.2974 381.225 -26.0039 377.979 -21.64L377.859 -21.478Z" fill="#091A39"/>
<path d="M377.859 -21.478L289.92 94.9399H260.857L253.837 65.8355L275.882 36.731L319.97 -21.478C319.97 -21.478 321.094 -22.7771 323.886 -28.8258C326.168 -38.334 325.652 -40.381 323.863 -44.8775C322.942 -47.1916 321.819 -49.4372 320.34 -51.4413C317.941 -54.6926 316.153 -56.2921 311.388 -60.0481C311.214 -60.1848 311.31 -60.4652 311.531 -60.4652H363.9H369.019C369.019 -60.4652 382.977 -51.6248 382.977 -36.7357C382.977 -31.2974 381.225 -26.0039 377.979 -21.64L377.859 -21.478Z" fill="#091A39"/>
<path d="M246.18 46.5471L308.528 108.895L246.18 108.895L246.18 46.5471Z" fill="#091A39"/>
</g>
<mask id="mask18_198_1284" style="mask-type:alpha" maskUnits="userSpaceOnUse" x="279" y="92" width="76" height="75">
<path d="M279.454 92.2681H354.132V166.946H279.454V92.2681Z" fill="#D9D9D9"/>
</mask>
<g mask="url(#mask18_198_1284)">
<path d="M222.452 222.644L310.391 106.226H339.455L346.474 135.33L324.43 164.435L280.341 222.644C280.341 222.644 279.217 223.943 276.425 229.992C274.143 239.5 274.659 241.547 276.449 246.043C277.369 248.357 278.492 250.603 279.971 252.607C282.37 255.858 284.158 257.458 288.923 261.214C289.097 261.351 289.002 261.631 288.781 261.631H236.411H231.293C231.293 261.631 217.334 252.791 217.334 237.901C217.334 232.463 219.087 227.17 222.332 222.806L222.452 222.644Z" fill="#0B2047"/>
<path d="M222.304 222.662L310.243 106.244H339.306L346.325 135.349L324.281 164.453L280.193 222.662C280.193 222.662 279.068 223.961 276.277 230.01C273.995 239.518 274.511 241.565 276.3 246.062C277.221 248.376 278.344 250.621 279.822 252.626C282.221 255.877 284.009 257.476 288.775 261.232C288.948 261.369 288.853 261.65 288.632 261.65H236.262H231.144C231.144 261.65 217.186 252.809 217.186 237.92C217.186 232.482 218.938 227.188 222.183 222.824L222.304 222.662Z" fill="#0B2047"/>
<path d="M354.131 154.615L291.783 92.2668L354.131 92.2668L354.131 154.615Z" fill="#0B2047"/>
</g>
<mask id="mask19_198_1284" style="mask-type:alpha" maskUnits="userSpaceOnUse" x="138" y="-12" width="75" height="76">
<path d="M212.92 63.0728H138.243V-11.6048H212.92V63.0728Z" fill="#D9D9D9"/>
</mask>
<g mask="url(#mask19_198_1284)">
<path d="M269.919 -67.3029L181.981 49.115H152.917L145.898 20.0105L167.942 -9.09396L212.031 -67.3029C212.031 -67.3029 213.155 -68.6021 215.946 -74.6508C218.228 -84.159 217.712 -86.206 215.923 -90.7024C215.002 -93.0165 213.88 -95.2621 212.401 -97.2663C210.002 -100.518 208.214 -102.117 203.449 -105.873C203.275 -106.01 203.37 -106.29 203.591 -106.29H255.961H261.079C261.079 -106.29 275.038 -97.4497 275.038 -82.5606C275.038 -77.1223 273.285 -71.8288 270.04 -67.4649L269.919 -67.3029Z" fill="#091A39"/>
<path d="M269.919 -67.3029L181.981 49.115H152.917L145.898 20.0105L167.942 -9.09396L212.031 -67.3029C212.031 -67.3029 213.155 -68.6021 215.946 -74.6508C218.228 -84.159 217.712 -86.206 215.923 -90.7024C215.002 -93.0165 213.88 -95.2621 212.401 -97.2663C210.002 -100.518 208.214 -102.117 203.449 -105.873C203.275 -106.01 203.37 -106.29 203.591 -106.29H255.961H261.079C261.079 -106.29 275.038 -97.4497 275.038 -82.5606C275.038 -77.1223 273.285 -71.8288 270.04 -67.4649L269.919 -67.3029Z" fill="#091A39"/>
<path d="M138.241 0.72583L200.589 63.074L138.241 63.074L138.241 0.72583Z" fill="#091A39"/>
</g>
<mask id="mask20_198_1284" style="mask-type:alpha" maskUnits="userSpaceOnUse" x="171" y="46" width="76" height="76">
<path d="M171.505 46.4429H246.183V121.12H171.505V46.4429Z" fill="#D9D9D9"/>
</mask>
<g mask="url(#mask20_198_1284)">
<path d="M114.503 176.819L202.442 60.4011H231.505L238.525 89.5056L216.48 118.61L172.392 176.819C172.392 176.819 171.268 178.118 168.476 184.167C166.194 193.675 166.71 195.722 168.499 200.219C169.42 202.533 170.543 204.778 172.022 206.782C174.42 210.034 176.209 211.633 180.974 215.389C181.147 215.526 181.052 215.806 180.831 215.806H128.461H123.343C123.343 215.806 109.385 206.966 109.385 192.077C109.385 186.638 111.137 181.345 114.382 176.981L114.503 176.819Z" fill="#0B2047"/>
<path d="M114.503 176.819L202.442 60.4011H231.505L238.525 89.5056L216.48 118.61L172.392 176.819C172.392 176.819 171.268 178.118 168.476 184.167C166.194 193.675 166.71 195.722 168.499 200.219C169.42 202.533 170.543 204.778 172.022 206.782C174.42 210.034 176.209 211.633 180.974 215.389C181.147 215.526 181.052 215.806 180.831 215.806H128.461H123.343C123.343 215.806 109.385 206.966 109.385 192.077C109.385 186.638 111.137 181.345 114.382 176.981L114.503 176.819Z" fill="#0B2047"/>
<path d="M246.182 108.794L183.833 46.4458L246.182 46.4458L246.182 108.794Z" fill="#0B2047"/>
</g>
<mask id="mask21_198_1284" style="mask-type:alpha" maskUnits="userSpaceOnUse" x="96" y="101" width="76" height="76">
<path d="M171.509 176.099H96.8315V101.421H171.509V176.099Z" fill="#D9D9D9"/>
</mask>
<g mask="url(#mask21_198_1284)">
<path d="M228.508 45.7256L140.57 162.144H111.506L104.487 133.039L126.531 103.935L170.619 45.7256C170.619 45.7256 171.744 44.4265 174.535 38.3778C176.817 28.8696 176.301 26.8226 174.512 22.3262C173.591 20.012 172.468 17.7664 170.99 15.7623C168.591 12.511 166.803 10.9116 162.037 7.15555C161.864 7.01877 161.959 6.73843 162.18 6.73843H214.55H219.668C219.668 6.73843 233.626 15.5788 233.626 30.468C233.626 35.9062 231.874 41.1997 228.629 45.5637L228.508 45.7256Z" fill="#091A39"/>
<path d="M228.508 45.7256L140.57 162.144H111.506L104.487 133.039L126.531 103.935L170.619 45.7256C170.619 45.7256 171.744 44.4265 174.535 38.3778C176.817 28.8696 176.301 26.8226 174.512 22.3262C173.591 20.012 172.468 17.7664 170.99 15.7623C168.591 12.511 166.803 10.9116 162.037 7.15555C161.864 7.01878 161.959 6.73843 162.18 6.73843H214.55H219.668C219.668 6.73843 233.626 15.5788 233.626 30.468C233.626 35.9062 231.874 41.1997 228.629 45.5637L228.508 45.7256Z" fill="#091A39"/>
<path d="M96.8296 113.754L159.178 176.103L96.8296 176.103L96.8296 113.754Z" fill="#091A39"/>
</g>
<mask id="mask22_198_1284" style="mask-type:alpha" maskUnits="userSpaceOnUse" x="130" y="159" width="75" height="76">
<path d="M130.099 159.471H204.777V234.148H130.099V159.471Z" fill="#D9D9D9"/>
</mask>
<g mask="url(#mask22_198_1284)">
<path d="M73.1003 289.839L161.039 173.421H190.103L197.122 202.525L175.078 231.63L130.989 289.839C130.989 289.839 129.865 291.138 127.073 297.186C124.791 306.695 125.307 308.742 127.097 313.238C128.017 315.552 129.14 317.798 130.619 319.802C133.018 323.053 134.806 324.653 139.571 328.409C139.745 328.545 139.65 328.826 139.429 328.826H87.0589H81.9407C81.9407 328.826 67.9822 319.985 67.9822 305.096C67.9822 299.658 69.7347 294.364 72.9798 290.001L73.1003 289.839Z" fill="#0B2047"/>
<path d="M73.1003 289.839L161.039 173.421H190.103L197.122 202.525L175.078 231.63L130.989 289.839C130.989 289.839 129.865 291.138 127.073 297.186C124.791 306.695 125.307 308.742 127.097 313.238C128.017 315.552 129.14 317.798 130.619 319.802C133.018 323.053 134.806 324.653 139.571 328.409C139.745 328.545 139.65 328.826 139.429 328.826H87.0589H81.9407C81.9407 328.826 67.9822 319.985 67.9822 305.096C67.9822 299.658 69.7347 294.364 72.9798 290.001L73.1003 289.839Z" fill="#0B2047"/>
<path d="M204.779 221.813L142.431 159.465L204.779 159.465L204.779 221.813Z" fill="#0B2047"/>
</g>
<mask id="mask23_198_1284" style="mask-type:alpha" maskUnits="userSpaceOnUse" x="204" y="146" width="76" height="76">
<path d="M279.449 221.599H204.771V146.921H279.449V221.599Z" fill="#D9D9D9"/>
</mask>
<g mask="url(#mask23_198_1284)">
<path d="M336.448 91.2222L248.509 207.64H219.445L212.426 178.536L234.47 149.431L278.559 91.2222C278.559 91.2222 279.683 89.9231 282.475 83.8744C284.757 74.3662 284.241 72.3192 282.452 67.8227C281.531 65.5086 280.408 63.263 278.929 61.2589C276.53 58.0076 274.742 56.4081 269.977 52.6521C269.803 52.5154 269.898 52.235 270.119 52.235H322.489H327.607C327.607 52.235 341.566 61.0754 341.566 75.9645C341.566 81.4028 339.813 86.6963 336.568 91.0602L336.448 91.2222Z" fill="#091A39"/>
<path d="M336.448 91.2222L248.509 207.64H219.445L212.426 178.536L234.47 149.431L278.559 91.2222C278.559 91.2222 279.683 89.9231 282.475 83.8744C284.757 74.3662 284.241 72.3192 282.452 67.8227C281.531 65.5086 280.408 63.263 278.929 61.2589C276.53 58.0076 274.742 56.4081 269.977 52.6521C269.803 52.5154 269.898 52.235 270.119 52.235H322.489H327.607C327.607 52.235 341.566 61.0754 341.566 75.9645C341.566 81.4028 339.813 86.6963 336.568 91.0602L336.448 91.2222Z" fill="#091A39"/>
<path d="M204.769 159.251L267.117 221.599L204.769 221.599L204.769 159.251Z" fill="#091A39"/>
</g>
<mask id="mask24_198_1284" style="mask-type:alpha" maskUnits="userSpaceOnUse" x="238" y="204" width="75" height="76">
<path d="M238.034 204.965H312.711V279.643H238.034V204.965Z" fill="#D9D9D9"/>
</mask>
<g mask="url(#mask24_198_1284)">
<path d="M181.035 335.341L268.973 218.923H298.037L305.056 248.028L283.012 277.132L238.924 335.341C238.924 335.341 237.799 336.64 235.008 342.689C232.726 352.197 233.242 354.244 235.031 358.74C235.952 361.055 237.075 363.3 238.553 365.304C240.952 368.556 242.74 370.155 247.506 373.911C247.679 374.048 247.584 374.328 247.363 374.328H194.993H189.875C189.875 374.328 175.917 365.488 175.917 350.599C175.917 345.16 177.669 339.867 180.914 335.503L181.035 335.341Z" fill="#0B2047"/>
<path d="M181.035 335.341L268.973 218.923H298.037L305.056 248.028L283.012 277.132L238.924 335.341C238.924 335.341 237.799 336.64 235.008 342.689C232.726 352.197 233.242 354.244 235.031 358.74C235.952 361.055 237.075 363.3 238.553 365.304C240.952 368.556 242.74 370.155 247.506 373.911C247.679 374.048 247.584 374.328 247.363 374.328H194.993H189.875C189.875 374.328 175.917 365.488 175.917 350.599C175.917 345.16 177.669 339.867 180.914 335.503L181.035 335.341Z" fill="#0B2047"/>
<path d="M312.709 267.312L250.361 204.964L312.709 204.964L312.709 267.312Z" fill="#0B2047"/>
</g>
<mask id="mask25_198_1284" style="mask-type:alpha" maskUnits="userSpaceOnUse" x="30" y="-58" width="75" height="76">
<path d="M104.974 17.5859H30.2963V-57.0916H104.974V17.5859Z" fill="#D9D9D9"/>
</mask>
<g mask="url(#mask25_198_1284)">
<path d="M161.972 -112.791L74.0334 3.62695H44.9698L37.9505 -25.4775L59.9948 -54.582L104.083 -112.791C104.083 -112.791 105.207 -114.09 107.999 -120.139C110.281 -129.647 109.765 -131.694 107.976 -136.19C107.055 -138.505 105.932 -140.75 104.454 -142.754C102.055 -146.006 100.266 -147.605 95.5013 -151.361C95.3278 -151.498 95.4229 -151.778 95.6439 -151.778H148.014H153.132C153.132 -151.778 167.09 -142.938 167.09 -128.049C167.09 -122.61 165.338 -117.317 162.093 -112.953L161.972 -112.791Z" fill="#091A39"/>
<path d="M161.972 -112.791L74.0334 3.62695H44.9698L37.9505 -25.4775L59.9948 -54.582L104.083 -112.791C104.083 -112.791 105.207 -114.09 107.999 -120.139C110.281 -129.647 109.765 -131.694 107.976 -136.19C107.055 -138.505 105.932 -140.75 104.454 -142.754C102.055 -146.006 100.266 -147.605 95.5013 -151.361C95.3278 -151.498 95.4229 -151.778 95.6439 -151.778H148.014H153.132C153.132 -151.778 167.09 -142.938 167.09 -128.049C167.09 -122.61 165.338 -117.317 162.093 -112.953L161.972 -112.791Z" fill="#091A39"/>
<path d="M30.2935 -44.7622L92.6416 17.586L30.2935 17.586L30.2935 -44.7622Z" fill="#091A39"/>
</g>
<mask id="mask26_198_1284" style="mask-type:alpha" maskUnits="userSpaceOnUse" x="63" y="0" width="76" height="76">
<path d="M63.5605 0.958008H138.238V75.6355H63.5605V0.958008Z" fill="#D9D9D9"/>
</mask>
<g mask="url(#mask26_198_1284)">
<path d="M6.55856 131.335L94.4974 14.917H123.561L130.58 44.0215L108.536 73.1259L64.4474 131.335C64.4474 131.335 63.3233 132.634 60.5316 138.683C58.2496 148.191 58.7656 150.238 60.5548 154.734C61.4757 157.049 62.5985 159.294 64.0772 161.298C66.476 164.55 68.2643 166.149 73.0295 169.905C73.203 170.042 73.1078 170.322 72.8869 170.322H20.5171H15.399C15.399 170.322 1.44043 161.482 1.44043 146.593C1.44043 141.154 3.19293 135.861 6.4381 131.497L6.55856 131.335Z" fill="#0B2047"/>
<path d="M6.40988 131.357L94.3487 14.9395H123.412L130.432 44.0439L108.387 73.1484L64.2988 131.357C64.2988 131.357 63.1746 132.657 60.3829 138.705C58.1009 148.213 58.6169 150.26 60.4061 154.757C61.327 157.071 62.4498 159.317 63.9285 161.321C66.3274 164.572 68.1156 166.171 72.8808 169.927C73.0543 170.064 72.9592 170.345 72.7382 170.345H20.3684H15.2503C15.2503 170.345 1.29175 161.504 1.29175 146.615C1.29175 141.177 3.04425 135.883 6.28942 131.519L6.40988 131.357Z" fill="#0B2047"/>
<path d="M138.237 63.3062L75.8891 0.957987L138.237 0.957993L138.237 63.3062Z" fill="#0B2047"/>
</g>
<mask id="mask27_198_1284" style="mask-type:alpha" maskUnits="userSpaceOnUse" x="-45" y="-45" width="76" height="75">
<path d="M-44.3796 -44.8694H30.2979V29.8081H-44.3796V-44.8694Z" fill="#D9D9D9"/>
</mask>
<g mask="url(#mask27_198_1284)">
<path d="M-101.379 85.5078L-13.4406 -30.9102H15.623L22.6423 -1.80568L0.597984 27.2988L-43.4905 85.5078C-43.4905 85.5078 -44.6147 86.8069 -47.4064 92.8556C-49.6884 102.364 -49.1724 104.411 -47.3832 108.907C-46.4623 111.221 -45.3395 113.467 -43.8608 115.471C-41.4619 118.722 -39.6737 120.322 -34.9085 124.078C-34.735 124.215 -34.8301 124.495 -35.0511 124.495H-87.4209H-92.539C-92.539 124.495 -106.498 115.655 -106.498 100.765C-106.498 95.3272 -104.745 90.0337 -101.5 85.6697L-101.379 85.5078Z" fill="#0B2047"/>
<path d="M-101.379 85.5078L-13.4406 -30.9102H15.623L22.6423 -1.80568L0.597984 27.2988L-43.4905 85.5078C-43.4905 85.5078 -44.6147 86.8069 -47.4064 92.8556C-49.6884 102.364 -49.1724 104.411 -47.3832 108.907C-46.4623 111.221 -45.3395 113.467 -43.8608 115.471C-41.462 118.722 -39.6737 120.322 -34.9085 124.078C-34.735 124.215 -34.8301 124.495 -35.0511 124.495H-87.4209H-92.539C-92.539 124.495 -106.498 115.655 -106.498 100.765C-106.498 95.3272 -104.745 90.0337 -101.5 85.6697L-101.379 85.5078Z" fill="#0B2047"/>
<path d="M30.2993 17.479L-32.0489 -44.8692L30.2993 -44.8692L30.2993 17.479Z" fill="#0B2047"/>
</g>
<mask id="mask28_198_1284" style="mask-type:alpha" maskUnits="userSpaceOnUse" x="-12" y="55" width="76" height="76">
<path d="M63.5642 130.283H-11.1133V55.6057H63.5642V130.283Z" fill="#D9D9D9"/>
</mask>
<g mask="url(#mask28_198_1284)">
<path d="M120.566 -0.093689L32.6274 116.324H3.56379L-3.45551 87.2197L18.5888 58.1153L62.6773 -0.093689C62.6773 -0.093689 63.8015 -1.39284 66.5932 -7.44154C68.8751 -16.9498 68.3592 -18.9967 66.5699 -23.4932C65.6491 -25.8073 64.5263 -28.0529 63.0476 -30.057C60.6487 -33.3084 58.8605 -34.9078 54.0953 -38.6638C53.9218 -38.8006 54.0169 -39.0809 54.2378 -39.0809H106.608H111.726C111.726 -39.0809 125.684 -30.2405 125.684 -15.3514C125.684 -9.9131 123.932 -4.61959 120.687 -0.255684L120.566 -0.093689Z" fill="#091A39"/>
<path d="M120.566 -0.093689L32.6274 116.324H3.5638L-3.45551 87.2197L18.5888 58.1153L62.6773 -0.093689C62.6773 -0.093689 63.8015 -1.39283 66.5932 -7.44153C68.8752 -16.9497 68.3592 -18.9967 66.5699 -23.4932C65.6491 -25.8073 64.5263 -28.0529 63.0476 -30.057C60.6487 -33.3084 58.8605 -34.9078 54.0953 -38.6638C53.9218 -38.8006 54.0169 -39.0809 54.2378 -39.0809H106.608H111.726C111.726 -39.0809 125.684 -30.2405 125.684 -15.3514C125.684 -9.9131 123.932 -4.61959 120.687 -0.255676L120.566 -0.093689Z" fill="#091A39"/>
<path d="M-11.1125 67.9314L51.2356 130.28L-11.1126 130.28L-11.1125 67.9314Z" fill="#091A39"/>
</g>
<mask id="mask29_198_1284" style="mask-type:alpha" maskUnits="userSpaceOnUse" x="22" y="113" width="75" height="76">
<path d="M22.1541 113.652H96.8316V188.329H22.1541V113.652Z" fill="#D9D9D9"/>
</mask>
<g mask="url(#mask29_198_1284)">
<path d="M-34.844 244.029L53.0948 127.611H82.1584L89.1777 156.715L67.1334 185.82L23.0449 244.029C23.0449 244.029 21.9207 245.328 19.129 251.377C16.847 260.885 17.363 262.932 19.1522 267.428C20.0731 269.742 21.1959 271.988 22.6746 273.992C25.0735 277.243 26.8617 278.843 31.6269 282.599C31.8004 282.736 31.7053 283.016 31.4843 283.016H-20.8855H-26.0036C-26.0036 283.016 -39.9622 274.176 -39.9622 259.286C-39.9622 253.848 -38.2097 248.555 -34.9645 244.191L-34.844 244.029Z" fill="#0B2047"/>
<path d="M-34.844 244.029L53.0948 127.611H82.1584L89.1777 156.715L67.1334 185.82L23.0449 244.029C23.0449 244.029 21.9207 245.328 19.129 251.377C16.847 260.885 17.363 262.932 19.1522 267.428C20.0731 269.742 21.1959 271.988 22.6746 273.992C25.0734 277.243 26.8617 278.843 31.6269 282.599C31.8004 282.736 31.7053 283.016 31.4843 283.016H-20.8855H-26.0036C-26.0036 283.016 -39.9622 274.176 -39.9622 259.286C-39.9622 253.848 -38.2097 248.555 -34.9645 244.191L-34.844 244.029Z" fill="#0B2047"/>
<path d="M96.8347 176.004L34.4865 113.655L96.8347 113.656L96.8347 176.004Z" fill="#0B2047"/>
</g>
<mask id="mask30_198_1284" style="mask-type:alpha" maskUnits="userSpaceOnUse" x="212" y="-67" width="76" height="76">
<path d="M212.924 -66.5947H287.601V8.0828H212.924V-66.5947Z" fill="#D9D9D9"/>
</mask>
<g mask="url(#mask30_198_1284)">
<path d="M155.925 63.7773L243.863 -52.6406H272.927L279.946 -23.5361L257.902 5.56833L213.813 63.7773C213.813 63.7773 212.689 65.0764 209.898 71.1251C207.616 80.6333 208.132 82.6803 209.921 87.1768C210.842 89.4909 211.964 91.7365 213.443 93.7406C215.842 96.992 217.63 98.5914 222.395 102.347C222.569 102.484 222.474 102.764 222.253 102.764H169.883H164.765C164.765 102.764 150.806 93.9241 150.806 79.035C150.806 73.5967 152.559 68.3032 155.804 63.9393L155.925 63.7773Z" fill="#0B2047"/>
<path d="M155.925 63.7773L243.863 -52.6406H272.927L279.946 -23.5361L257.902 5.56833L213.813 63.7773C213.813 63.7773 212.689 65.0764 209.898 71.1251C207.616 80.6333 208.132 82.6803 209.921 87.1768C210.842 89.4909 211.964 91.7365 213.443 93.7406C215.842 96.992 217.63 98.5914 222.395 102.347C222.569 102.484 222.474 102.764 222.253 102.764H169.883H164.765C164.765 102.764 150.806 93.9241 150.806 79.035C150.806 73.5967 152.559 68.3032 155.804 63.9393L155.925 63.7773Z" fill="#0B2047"/>
</g>
<mask id="mask31_198_1284" style="mask-type:alpha" maskUnits="userSpaceOnUse" x="188" y="531" width="76" height="76">
<path d="M263.158 606.176H188.48V531.498H263.158V606.176Z" fill="#D9D9D9"/>
</mask>
<g mask="url(#mask31_198_1284)">
<path d="M320.157 475.799L232.218 592.217H203.154L196.135 563.112L218.179 534.008L262.268 475.799C262.268 475.799 263.392 474.499 266.184 468.451C268.466 458.943 267.95 456.896 266.161 452.399C265.24 450.085 264.117 447.839 262.638 445.835C260.239 442.584 258.451 440.985 253.686 437.229C253.512 437.092 253.607 436.811 253.828 436.811H306.198H311.316C311.316 436.811 325.275 445.652 325.275 460.541C325.275 465.979 323.522 471.273 320.277 475.637L320.157 475.799Z" fill="#091A39"/>
<path d="M320.157 475.799L232.218 592.217H203.154L196.135 563.112L218.179 534.008L262.268 475.799C262.268 475.799 263.392 474.5 266.184 468.451C268.466 458.943 267.95 456.896 266.161 452.399C265.24 450.085 264.117 447.839 262.638 445.835C260.239 442.584 258.451 440.985 253.686 437.229C253.512 437.092 253.607 436.811 253.828 436.811H306.198H311.316C311.316 436.811 325.275 445.652 325.275 460.541C325.275 465.979 323.522 471.273 320.277 475.637L320.157 475.799Z" fill="#091A39"/>
<path d="M188.478 543.824L250.826 606.172L188.478 606.172L188.478 543.824Z" fill="#091A39"/>
</g>
<mask id="mask32_198_1284" style="mask-type:alpha" maskUnits="userSpaceOnUse" x="80" y="485" width="76" height="76">
<path d="M155.208 560.354H80.53V485.676H155.208V560.354Z" fill="#D9D9D9"/>
</mask>
<g mask="url(#mask32_198_1284)">
<path d="M212.206 429.977L124.267 546.395H95.2032L88.1839 517.291L110.228 488.186L154.317 429.977C154.317 429.977 155.441 428.678 158.233 422.629C160.515 413.121 159.999 411.074 158.209 406.578C157.289 404.264 156.166 402.018 154.687 400.014C152.288 396.762 150.5 395.163 145.735 391.407C145.561 391.27 145.656 390.99 145.877 390.99H198.247H203.365C203.365 390.99 217.324 399.83 217.324 414.719C217.324 420.158 215.571 425.451 212.326 429.815L212.206 429.977Z" fill="#091A39"/>
<path d="M212.206 429.977L124.267 546.395H95.2032L88.1839 517.291L110.228 488.186L154.317 429.977C154.317 429.977 155.441 428.678 158.233 422.629C160.515 413.121 159.999 411.074 158.209 406.578C157.289 404.264 156.166 402.018 154.687 400.014C152.288 396.762 150.5 395.163 145.735 391.407C145.561 391.27 145.656 390.99 145.877 390.99H198.247H203.365C203.365 390.99 217.324 399.83 217.324 414.719C217.324 420.158 215.571 425.451 212.326 429.815L212.206 429.977Z" fill="#091A39"/>
<path d="M80.5269 498.006L142.875 560.354L80.5269 560.354L80.5269 498.006Z" fill="#091A39"/>
</g>
<mask id="mask33_198_1284" style="mask-type:alpha" maskUnits="userSpaceOnUse" x="113" y="543" width="76" height="76">
<path d="M113.798 543.72H188.475V618.398H113.798V543.72Z" fill="#D9D9D9"/>
</mask>
<g mask="url(#mask33_198_1284)">
<path d="M56.7995 674.096L144.738 557.678H173.802L180.821 586.782L158.777 615.887L114.688 674.096C114.688 674.096 113.564 675.395 110.773 681.443C108.491 690.952 109.007 692.999 110.796 697.495C111.717 699.809 112.839 702.055 114.318 704.059C116.717 707.31 118.505 708.91 123.27 712.666C123.444 712.803 123.349 713.083 123.128 713.083H70.7581H65.6399C65.6399 713.083 51.6814 704.242 51.6814 689.353C51.6814 683.915 53.4339 678.622 56.6791 674.258L56.7995 674.096Z" fill="#0B2047"/>
<path d="M56.7995 674.096L144.738 557.678H173.802L180.821 586.782L158.777 615.887L114.688 674.096C114.688 674.096 113.564 675.395 110.773 681.443C108.491 690.952 109.007 692.999 110.796 697.495C111.717 699.809 112.839 702.055 114.318 704.059C116.717 707.31 118.505 708.91 123.27 712.666C123.444 712.803 123.349 713.083 123.128 713.083H70.7581H65.6399C65.6399 713.083 51.6814 704.242 51.6814 689.353C51.6814 683.915 53.4339 678.622 56.6791 674.258L56.7995 674.096Z" fill="#0B2047"/>
<path d="M188.478 606.067L126.13 543.719L188.478 543.719L188.478 606.067Z" fill="#0B2047"/>
</g>
<mask id="mask34_198_1284" style="mask-type:alpha" maskUnits="userSpaceOnUse" x="-28" y="440" width="76" height="75">
<path d="M47.2607 514.866H-27.4168V440.188H47.2607V514.866Z" fill="#D9D9D9"/>
</mask>
<g mask="url(#mask34_198_1284)">
<path d="M104.259 384.49L16.3205 500.908H-12.7431L-19.7624 471.803L2.2819 442.699L46.3704 384.49C46.3704 384.49 47.4946 383.191 50.2863 377.142C52.5683 367.634 52.0523 365.587 50.2631 361.091C49.3422 358.776 48.2194 356.531 46.7407 354.527C44.3418 351.275 42.5536 349.676 37.7884 345.92C37.6149 345.783 37.71 345.503 37.931 345.503H90.3008H95.4189C95.4189 345.503 109.377 354.343 109.377 369.232C109.377 374.671 107.625 379.964 104.38 384.328L104.259 384.49Z" fill="#091A39"/>
<path d="M104.259 384.49L16.3205 500.908H-12.7431L-19.7624 471.803L2.2819 442.699L46.3704 384.49C46.3704 384.49 47.4946 383.191 50.2863 377.142C52.5683 367.634 52.0523 365.587 50.2631 361.091C49.3422 358.776 48.2194 356.531 46.7407 354.527C44.3418 351.275 42.5536 349.676 37.7884 345.92C37.6149 345.783 37.71 345.503 37.931 345.503H90.3008H95.4189C95.4189 345.503 109.377 354.343 109.377 369.232C109.377 374.671 107.625 379.964 104.38 384.328L104.259 384.49Z" fill="#091A39"/>
<path d="M-27.4194 452.515L34.9287 514.863L-27.4194 514.863L-27.4194 452.515Z" fill="#091A39"/>
</g>
<mask id="mask35_198_1284" style="mask-type:alpha" maskUnits="userSpaceOnUse" x="5" y="498" width="76" height="75">
<path d="M5.85059 498.239H80.5281V572.916H5.85059V498.239Z" fill="#D9D9D9"/>
</mask>
<g mask="url(#mask35_198_1284)">
<path d="M-51.1526 628.615L36.7862 512.197H65.8498L72.8691 541.302L50.8248 570.406L6.73626 628.615C6.73626 628.615 5.61211 629.914 2.8204 635.963C0.538425 645.471 1.05441 647.518 2.84364 652.015C3.76448 654.329 4.88732 656.574 6.36599 658.579C8.76486 661.83 10.5531 663.429 15.3183 667.185C15.4918 667.322 15.3967 667.602 15.1757 667.602H-37.1941H-42.3122C-42.3122 667.602 -56.2708 658.762 -56.2708 643.873C-56.2708 638.435 -54.5183 633.141 -51.2731 628.777L-51.1526 628.615Z" fill="#0B2047"/>
<path d="M-51.3052 628.634L36.6336 512.216H65.6972L72.7165 541.32L50.6722 570.425L6.58367 628.634C6.58367 628.634 5.45951 629.933 2.6678 635.982C0.385834 645.49 0.901821 647.537 2.69105 652.033C3.61188 654.347 4.73472 656.593 6.2134 658.597C8.61227 661.848 10.4005 663.448 15.1657 667.204C15.3392 667.341 15.2441 667.621 15.0231 667.621H-37.3467H-42.4648C-42.4648 667.621 -56.4233 658.781 -56.4233 643.891C-56.4233 638.453 -54.6708 633.16 -51.4257 628.796L-51.3052 628.634Z" fill="#0B2047"/>
<path d="M80.5261 560.586L18.178 498.238L80.5261 498.238L80.5261 560.586Z" fill="#0B2047"/>
</g>
<mask id="mask36_198_1284" style="mask-type:alpha" maskUnits="userSpaceOnUse" x="-69" y="552" width="75" height="76">
<path d="M5.85449 627.563H-68.823V552.885H5.85449V627.563Z" fill="#D9D9D9"/>
</mask>
<g mask="url(#mask36_198_1284)">
<path d="M62.8531 497.187L-25.0858 613.605H-54.1493L-61.1686 584.501L-39.1244 555.396L4.96418 497.187C4.96418 497.187 6.08833 495.888 8.88004 489.839C11.162 480.331 10.646 478.284 8.8568 473.788C7.93596 471.474 6.81312 469.228 5.33445 467.224C2.93558 463.973 1.14732 462.373 -3.61787 458.617C-3.79138 458.48 -3.69623 458.2 -3.47529 458.2H48.8945H54.0126C54.0126 458.2 67.9712 467.041 67.9712 481.93C67.9712 487.368 66.2187 492.661 62.9735 497.025L62.8531 497.187Z" fill="#091A39"/>
<path d="M62.8531 497.187L-25.0858 613.605H-54.1493L-61.1686 584.501L-39.1244 555.396L4.96418 497.187C4.96418 497.187 6.08834 495.888 8.88005 489.839C11.162 480.331 10.646 478.284 8.85681 473.788C7.93597 471.474 6.81313 469.228 5.33445 467.224C2.93559 463.973 1.14732 462.373 -3.61787 458.617C-3.79137 458.48 -3.69623 458.2 -3.47529 458.2H48.8945H54.0126C54.0126 458.2 67.9712 467.041 67.9712 481.93C67.9712 487.368 66.2187 492.661 62.9735 497.025L62.8531 497.187Z" fill="#091A39"/>
</g>
<mask id="mask37_198_1284" style="mask-type:alpha" maskUnits="userSpaceOnUse" x="163" y="259" width="76" height="76">
<path d="M238.031 334.621H163.353V259.944H238.031V334.621Z" fill="#D9D9D9"/>
</mask>
<g mask="url(#mask37_198_1284)">
<path d="M295.033 204.25L207.095 320.667H178.031L171.012 291.563L193.056 262.459L237.145 204.25C237.145 204.25 238.269 202.95 241.06 196.902C243.342 187.394 242.826 185.347 241.037 180.85C240.116 178.536 238.994 176.29 237.515 174.286C235.116 171.035 233.328 169.435 228.563 165.679C228.389 165.543 228.484 165.262 228.705 165.262H281.075H286.193C286.193 165.262 300.152 174.103 300.152 188.992C300.152 194.43 298.399 199.724 295.154 204.088L295.033 204.25Z" fill="#091A39"/>
<path d="M295.033 204.25L207.095 320.667H178.031L171.012 291.563L193.056 262.459L237.145 204.25C237.145 204.25 238.269 202.95 241.06 196.902C243.342 187.394 242.826 185.347 241.037 180.85C240.116 178.536 238.994 176.29 237.515 174.286C235.116 171.035 233.328 169.435 228.563 165.679C228.389 165.543 228.484 165.262 228.705 165.262H281.075H286.193C286.193 165.262 300.152 174.103 300.152 188.992C300.152 194.43 298.399 199.724 295.154 204.088L295.033 204.25Z" fill="#091A39"/>
<path d="M163.355 272.278L225.703 334.626L163.355 334.626L163.355 272.278Z" fill="#091A39"/>
</g>
<mask id="mask38_198_1284" style="mask-type:alpha" maskUnits="userSpaceOnUse" x="196" y="317" width="76" height="76">
<path d="M196.621 317.993H271.298V392.671H196.621V317.993Z" fill="#D9D9D9"/>
</mask>
<g mask="url(#mask38_198_1284)">
<path d="M139.621 448.363L227.56 331.945H256.624L263.643 361.049L241.599 390.154L197.51 448.363C197.51 448.363 196.386 449.662 193.594 455.711C191.312 465.219 191.828 467.266 193.618 471.762C194.538 474.076 195.661 476.322 197.14 478.326C199.539 481.577 201.327 483.177 206.092 486.933C206.266 487.07 206.171 487.35 205.95 487.35H153.58H148.462C148.462 487.35 134.503 478.51 134.503 463.62C134.503 458.182 136.256 452.889 139.501 448.525L139.621 448.363Z" fill="#0B2047"/>
<path d="M139.473 448.385L227.411 331.967H256.475L263.494 361.072L241.45 390.176L197.362 448.385C197.362 448.385 196.237 449.684 193.446 455.733C191.164 465.241 191.68 467.288 193.469 471.785C194.39 474.099 195.513 476.344 196.991 478.349C199.39 481.6 201.178 483.199 205.944 486.955C206.117 487.092 206.022 487.372 205.801 487.372H153.431H148.313C148.313 487.372 134.354 478.532 134.354 463.643C134.354 458.205 136.107 452.911 139.352 448.547L139.473 448.385Z" fill="#0B2047"/>
<path d="M271.3 380.338L208.952 317.989L271.3 317.989L271.3 380.338Z" fill="#0B2047"/>
</g>
<mask id="mask39_198_1284" style="mask-type:alpha" maskUnits="userSpaceOnUse" x="55" y="214" width="76" height="75">
<path d="M130.086 288.798H55.4082V214.12H130.086V288.798Z" fill="#D9D9D9"/>
</mask>
<g mask="url(#mask39_198_1284)">
<path d="M187.084 158.42L99.1449 274.838H70.0814L63.0621 245.734L85.1064 216.629L129.195 158.42C129.195 158.42 130.319 157.121 133.111 151.073C135.393 141.564 134.877 139.517 133.088 135.021C132.167 132.707 131.044 130.461 129.565 128.457C127.166 125.206 125.378 123.606 120.613 119.85C120.439 119.714 120.534 119.433 120.755 119.433H173.125H178.243C178.243 119.433 192.202 128.274 192.202 143.163C192.202 148.601 190.449 153.895 187.204 158.258L187.084 158.42Z" fill="#091A39"/>
<path d="M187.084 158.42L99.1449 274.838H70.0814L63.0621 245.734L85.1064 216.629L129.195 158.42C129.195 158.42 130.319 157.121 133.111 151.073C135.393 141.564 134.877 139.517 133.088 135.021C132.167 132.707 131.044 130.461 129.565 128.457C127.166 125.206 125.378 123.606 120.613 119.85C120.439 119.714 120.534 119.433 120.755 119.433H173.125H178.243C178.243 119.433 192.202 128.274 192.202 143.163C192.202 148.601 190.449 153.895 187.204 158.258L187.084 158.42Z" fill="#091A39"/>
<path d="M55.405 226.449L117.753 288.797L55.405 288.797L55.405 226.449Z" fill="#091A39"/>
</g>
<mask id="mask40_198_1284" style="mask-type:alpha" maskUnits="userSpaceOnUse" x="88" y="272" width="76" height="75">
<path d="M88.6758 272.161H163.353V346.838H88.6758V272.161Z" fill="#D9D9D9"/>
</mask>
<g mask="url(#mask40_198_1284)">
<path d="M31.6777 402.538L119.617 286.12H148.68L155.699 315.225L133.655 344.329L89.5666 402.538C89.5666 402.538 88.4424 403.837 85.6507 409.886C83.3687 419.394 83.8847 421.441 85.674 425.938C86.5948 428.252 87.7176 430.497 89.1963 432.501C91.5952 435.753 93.3834 437.352 98.1486 441.108C98.3221 441.245 98.227 441.525 98.0061 441.525H45.6363H40.5181C40.5181 441.525 26.5596 432.685 26.5596 417.796C26.5596 412.357 28.3121 407.064 31.5572 402.7L31.6777 402.538Z" fill="#0B2047"/>
<path d="M31.6777 402.538L119.617 286.12H148.68L155.699 315.225L133.655 344.329L89.5666 402.538C89.5666 402.538 88.4424 403.837 85.6507 409.886C83.3687 419.394 83.8847 421.441 85.674 425.938C86.5948 428.252 87.7176 430.497 89.1963 432.501C91.5952 435.753 93.3834 437.352 98.1486 441.108C98.3221 441.245 98.227 441.525 98.0061 441.525H45.6363H40.5181C40.5181 441.525 26.5596 432.685 26.5596 417.796C26.5596 412.357 28.3121 407.064 31.5572 402.7L31.6777 402.538Z" fill="#0B2047"/>
<path d="M163.356 334.509L101.008 272.161L163.356 272.161L163.356 334.509Z" fill="#0B2047"/>
</g>
<mask id="mask41_198_1284" style="mask-type:alpha" maskUnits="userSpaceOnUse" x="13" y="327" width="76" height="75">
<path d="M88.676 401.831H13.9985V327.154H88.676V401.831Z" fill="#D9D9D9"/>
</mask>
<g mask="url(#mask41_198_1284)">
<path d="M145.675 271.462L57.7358 387.88H28.6722L21.6529 358.775L43.6972 329.671L87.7857 271.462C87.7857 271.462 88.9099 270.163 91.7016 264.114C93.9835 254.606 93.4676 252.559 91.6783 248.062C90.7575 245.748 89.6347 243.503 88.156 241.499C85.7571 238.247 83.9689 236.648 79.2037 232.892C79.0302 232.755 79.1253 232.475 79.3462 232.475H131.716H136.834C136.834 232.475 150.793 241.315 150.793 256.204C150.793 261.643 149.04 266.936 145.795 271.3L145.675 271.462Z" fill="#091A39"/>
<path d="M145.675 271.462L57.7358 387.88H28.6722L21.6529 358.775L43.6972 329.671L87.7857 271.462C87.7857 271.462 88.9099 270.163 91.7016 264.114C93.9836 254.606 93.4676 252.559 91.6783 248.062C90.7575 245.748 89.6347 243.503 88.156 241.499C85.7571 238.247 83.9689 236.648 79.2037 232.892C79.0302 232.755 79.1253 232.475 79.3462 232.475H131.716H136.834C136.834 232.475 150.793 241.315 150.793 256.204C150.793 261.643 149.04 266.936 145.795 271.3L145.675 271.462Z" fill="#091A39"/>
<path d="M13.9958 339.487L76.344 401.835L13.9958 401.835L13.9958 339.487Z" fill="#091A39"/>
</g>
<mask id="mask42_198_1284" style="mask-type:alpha" maskUnits="userSpaceOnUse" x="47" y="385" width="75" height="75">
<path d="M47.2629 385.198H121.94V459.875H47.2629V385.198Z" fill="#D9D9D9"/>
</mask>
<g mask="url(#mask42_198_1284)">
<path d="M-9.73514 515.573L78.2037 399.156H107.267L114.287 428.26L92.2423 457.364L48.1537 515.573C48.1537 515.573 47.0296 516.873 44.2379 522.921C41.9559 532.429 42.4719 534.476 44.2611 538.973C45.182 541.287 46.3048 543.533 47.7835 545.537C50.1823 548.788 51.9706 550.388 56.7358 554.144C56.9093 554.28 56.8141 554.561 56.5932 554.561H4.22341H-0.894728C-0.894728 554.561 -14.8533 545.72 -14.8533 530.831C-14.8533 525.393 -13.1008 520.099 -9.8556 515.735L-9.73514 515.573Z" fill="#0B2047"/>
<path d="M-9.73514 515.573L78.2037 399.156H107.267L114.287 428.26L92.2423 457.364L48.1537 515.573C48.1537 515.573 47.0296 516.873 44.2379 522.921C41.9559 532.429 42.4719 534.476 44.2611 538.973C45.1819 541.287 46.3048 543.533 47.7835 545.537C50.1823 548.788 51.9706 550.388 56.7358 554.144C56.9093 554.28 56.8141 554.561 56.5932 554.561H4.22341H-0.894729C-0.894729 554.561 -14.8533 545.72 -14.8533 530.831C-14.8533 525.393 -13.1008 520.099 -9.8556 515.735L-9.73514 515.573Z" fill="#0B2047"/>
<path d="M121.944 447.548L59.5954 385.2L121.944 385.2L121.944 447.548Z" fill="#0B2047"/>
</g>
<mask id="mask43_198_1284" style="mask-type:alpha" maskUnits="userSpaceOnUse" x="121" y="372" width="76" height="76">
<path d="M196.618 447.315H121.94V372.637H196.618V447.315Z" fill="#D9D9D9"/>
</mask>
<g mask="url(#mask43_198_1284)">
<path d="M253.621 316.938L165.682 433.356H136.618L129.599 404.251L151.643 375.147L195.732 316.938C195.732 316.938 196.856 315.639 199.648 309.59C201.93 300.082 201.414 298.035 199.624 293.538C198.704 291.224 197.581 288.979 196.102 286.974C193.703 283.723 191.915 282.124 187.15 278.368C186.976 278.231 187.071 277.951 187.292 277.951H239.662H244.78C244.78 277.951 258.739 286.791 258.739 301.68C258.739 307.118 256.986 312.412 253.741 316.776L253.621 316.938Z" fill="#091A39"/>
<path d="M253.621 316.938L165.682 433.356H136.618L129.599 404.251L151.643 375.147L195.732 316.938C195.732 316.938 196.856 315.639 199.648 309.59C201.93 300.082 201.414 298.035 199.624 293.538C198.704 291.224 197.581 288.979 196.102 286.974C193.703 283.723 191.915 282.124 187.15 278.368C186.976 278.231 187.071 277.951 187.292 277.951H239.662H244.78C244.78 277.951 258.739 286.791 258.739 301.68C258.739 307.118 256.986 312.412 253.741 316.776L253.621 316.938Z" fill="#091A39"/>
<path d="M121.946 384.963L184.294 447.311L121.946 447.311L121.946 384.963Z" fill="#091A39"/>
</g>
<mask id="mask44_198_1284" style="mask-type:alpha" maskUnits="userSpaceOnUse" x="155" y="430" width="75" height="76">
<path d="M155.204 430.687H229.882V505.364H155.204V430.687Z" fill="#D9D9D9"/>
</mask>
<g mask="url(#mask44_198_1284)">
<path d="M98.206 561.063L186.145 444.646H215.208L222.228 473.75L200.183 502.854L156.095 561.063C156.095 561.063 154.971 562.363 152.179 568.411C149.897 577.919 150.413 579.966 152.202 584.463C153.123 586.777 154.246 589.023 155.725 591.027C158.124 594.278 159.912 595.878 164.677 599.634C164.85 599.77 164.755 600.051 164.534 600.051H112.165H107.046C107.046 600.051 93.0879 591.21 93.0879 576.321C93.0879 570.883 94.8404 565.589 98.0856 561.225L98.206 561.063Z" fill="#0B2047"/>
<path d="M98.206 561.063L186.145 444.646H215.208L222.228 473.75L200.183 502.854L156.095 561.063C156.095 561.063 154.971 562.363 152.179 568.411C149.897 577.919 150.413 579.966 152.202 584.463C153.123 586.777 154.246 589.023 155.725 591.027C158.123 594.278 159.912 595.878 164.677 599.634C164.85 599.77 164.755 600.051 164.534 600.051H112.165H107.046C107.046 600.051 93.0879 591.21 93.0879 576.321C93.0879 570.883 94.8404 565.589 98.0856 561.225L98.206 561.063Z" fill="#0B2047"/>
<path d="M229.885 493.035L167.537 430.687L229.885 430.687L229.885 493.035Z" fill="#0B2047"/>
</g>
<mask id="mask45_198_1284" style="mask-type:alpha" maskUnits="userSpaceOnUse" x="-53" y="168" width="76" height="76">
<path d="M22.1553 243.309H-52.5223V168.632H22.1553V243.309Z" fill="#D9D9D9"/>
</mask>
<g mask="url(#mask45_198_1284)">
<path d="M79.1573 112.941L-8.78157 229.359H-37.8451L-44.8644 200.254L-22.8202 171.15L21.2684 112.941C21.2684 112.941 22.3925 111.642 25.1842 105.593C27.4662 96.0847 26.9502 94.0377 25.161 89.5412C24.2402 87.2271 23.1173 84.9815 21.6386 82.9774C19.2398 79.7261 17.4515 78.1266 12.6863 74.3706C12.5128 74.2339 12.608 73.9535 12.8289 73.9535H65.1987H70.3168C70.3168 73.9535 84.2754 82.7939 84.2754 97.683C84.2754 103.121 82.5229 108.415 79.2777 112.779L79.1573 112.941Z" fill="#091A39"/>
<path d="M79.1573 112.941L-8.78157 229.359H-37.8451L-44.8644 200.254L-22.8202 171.15L21.2684 112.941C21.2684 112.941 22.3925 111.642 25.1842 105.593C27.4662 96.0847 26.9502 94.0377 25.161 89.5412C24.2402 87.2271 23.1173 84.9815 21.6386 82.9774C19.2398 79.7261 17.4515 78.1266 12.6863 74.3706C12.5128 74.2339 12.608 73.9535 12.8289 73.9535H65.1987H70.3168C70.3168 73.9535 84.2754 82.7939 84.2754 97.683C84.2754 103.121 82.5229 108.415 79.2777 112.779L79.1573 112.941Z" fill="#091A39"/>
<path d="M-52.5215 180.966L9.82669 243.314L-52.5215 243.314L-52.5215 180.966Z" fill="#091A39"/>
</g>
<mask id="mask46_198_1284" style="mask-type:alpha" maskUnits="userSpaceOnUse" x="-20" y="226" width="76" height="76">
<path d="M-19.2546 226.679H55.4229V301.357H-19.2546V226.679Z" fill="#D9D9D9"/>
</mask>
<g mask="url(#mask46_198_1284)">
<path d="M-76.253 357.052L11.6859 240.634H40.7494L47.7687 269.739L25.7244 298.843L-18.3641 357.052C-18.3641 357.052 -19.4882 358.351 -22.2799 364.4C-24.5619 373.908 -24.0459 375.955 -22.2567 380.451C-21.3359 382.766 -20.213 385.011 -18.7343 387.015C-16.3355 390.267 -14.5472 391.866 -9.78204 395.622C-9.60852 395.759 -9.70367 396.039 -9.92461 396.039H-62.2944H-67.4125C-67.4125 396.039 -81.3711 387.199 -81.3711 372.31C-81.3711 366.871 -79.6186 361.578 -76.3734 357.214L-76.253 357.052Z" fill="#0B2047"/>
<path d="M-76.4053 357.071L11.5335 240.653H40.5971L47.6164 269.757L25.5721 298.862L-18.5164 357.071C-18.5164 357.071 -19.6406 358.37 -22.4323 364.419C-24.7143 373.927 -24.1983 375.974 -22.409 380.47C-21.4882 382.784 -20.3654 385.03 -18.8867 387.034C-16.4878 390.285 -14.6996 391.885 -9.93438 395.641C-9.76086 395.778 -9.85602 396.058 -10.077 396.058H-62.4468H-67.5649C-67.5649 396.058 -81.5234 387.218 -81.5234 372.328C-81.5234 366.89 -79.7709 361.597 -76.5258 357.233L-76.4053 357.071Z" fill="#0B2047"/>
<path d="M55.4258 289.023L-6.92239 226.675L55.4258 226.675L55.4258 289.023Z" fill="#0B2047"/>
</g>
<mask id="mask47_198_1284" style="mask-type:alpha" maskUnits="userSpaceOnUse" x="-61" y="339" width="76" height="76">
<path d="M-60.6726 339.376H14.0049V414.054H-60.6726V339.376Z" fill="#D9D9D9"/>
</mask>
<g mask="url(#mask47_198_1284)">
<path d="M-117.676 469.752L-29.737 353.334H-0.673409L6.34589 382.438L-15.6984 411.543L-59.7869 469.752C-59.7869 469.752 -60.9111 471.051 -63.7028 477.1C-65.9848 486.608 -65.4688 488.655 -63.6796 493.151C-62.7587 495.465 -61.6359 497.711 -60.1572 499.715C-57.7583 502.967 -55.9701 504.566 -51.2049 508.322C-51.0314 508.459 -51.1265 508.739 -51.3475 508.739H-103.717H-108.835C-108.835 508.739 -122.794 499.899 -122.794 485.01C-122.794 479.571 -121.041 474.278 -117.796 469.914L-117.676 469.752Z" fill="#0B2047"/>
<path d="M-117.676 469.752L-29.737 353.334H-0.673416L6.34589 382.438L-15.6984 411.543L-59.7869 469.752C-59.7869 469.752 -60.9111 471.051 -63.7028 477.1C-65.9848 486.608 -65.4688 488.655 -63.6796 493.151C-62.7587 495.465 -61.6359 497.711 -60.1572 499.715C-57.7583 502.967 -55.9701 504.566 -51.2049 508.322C-51.0314 508.459 -51.1265 508.739 -51.3475 508.739H-103.717H-108.835C-108.835 508.739 -122.794 499.899 -122.794 485.01C-122.794 479.571 -121.041 474.278 -117.796 469.914L-117.676 469.752Z" fill="#0B2047"/>
<path d="M13.9993 401.723L-48.3489 339.375L13.9993 339.375L13.9993 401.723Z" fill="#0B2047"/>
</g>
<mask id="mask48_198_1284" style="mask-type:alpha" maskUnits="userSpaceOnUse" x="296" y="576" width="76" height="76">
<path d="M371.09 651.333H296.413V576.655H371.09V651.333Z" fill="#D9D9D9"/>
</mask>
<g mask="url(#mask48_198_1284)">
<path d="M428.089 520.956L340.15 637.374H311.086L304.067 608.269L326.111 579.165L370.2 520.956C370.2 520.956 371.324 519.657 374.116 513.608C376.398 504.1 375.882 502.053 374.093 497.556C373.172 495.242 372.049 492.997 370.57 490.993C368.171 487.741 366.383 486.142 361.618 482.386C361.444 482.249 361.54 481.969 361.761 481.969H414.13H419.248C419.248 481.969 433.207 490.809 433.207 505.698C433.207 511.136 431.455 516.43 428.209 520.794L428.089 520.956Z" fill="#091A39"/>
<path d="M428.089 520.956L340.15 637.374H311.087L304.067 608.269L326.111 579.165L370.2 520.956C370.2 520.956 371.324 519.657 374.116 513.608C376.398 504.1 375.882 502.053 374.093 497.556C373.172 495.242 372.049 492.997 370.57 490.993C368.171 487.741 366.383 486.142 361.618 482.386C361.444 482.249 361.54 481.969 361.761 481.969H414.13H419.248C419.248 481.969 433.207 490.809 433.207 505.698C433.207 511.136 431.455 516.43 428.209 520.794L428.089 520.956Z" fill="#091A39"/>
</g>
<mask id="mask49_198_1284" style="mask-type:alpha" maskUnits="userSpaceOnUse" x="487" y="396" width="75" height="76">
<path d="M561.854 471.088H487.177V396.411H561.854V471.088Z" fill="#D9D9D9"/>
</mask>
<g mask="url(#mask49_198_1284)">
<path d="M618.857 340.712L530.919 457.13H501.855L494.836 428.026L516.88 398.921L560.969 340.712C560.969 340.712 562.093 339.413 564.884 333.365C567.166 323.856 566.65 321.809 564.861 317.313C563.94 314.999 562.818 312.753 561.339 310.749C558.94 307.498 557.152 305.898 552.387 302.142C552.213 302.006 552.308 301.725 552.529 301.725H604.899H610.017C610.017 301.725 623.976 310.566 623.976 325.455C623.976 330.893 622.223 336.187 618.978 340.55L618.857 340.712Z" fill="#091A39"/>
<path d="M618.857 340.712L530.919 457.13H501.855L494.836 428.026L516.88 398.921L560.969 340.712C560.969 340.712 562.093 339.413 564.884 333.365C567.166 323.856 566.65 321.809 564.861 317.313C563.94 314.999 562.818 312.753 561.339 310.749C558.94 307.498 557.152 305.898 552.387 302.142C552.213 302.006 552.308 301.725 552.529 301.725H604.899H610.017C610.017 301.725 623.976 310.566 623.976 325.455C623.976 330.893 622.223 336.187 618.978 340.55L618.857 340.712Z" fill="#091A39"/>
<path d="M487.179 408.738L549.527 471.086L487.179 471.086L487.179 408.738Z" fill="#091A39"/>
</g>
<mask id="mask50_198_1284" style="mask-type:alpha" maskUnits="userSpaceOnUse" x="520" y="454" width="76" height="76">
<path d="M520.445 454.455H595.122V529.132H520.445V454.455Z" fill="#D9D9D9"/>
</mask>
<g mask="url(#mask50_198_1284)">
<path d="M463.446 584.831L551.384 468.413H580.448L587.467 497.517L565.423 526.622L521.334 584.831C521.334 584.831 520.21 586.13 517.419 592.178C515.137 601.687 515.653 603.734 517.442 608.23C518.363 610.544 519.485 612.79 520.964 614.794C523.363 618.045 525.151 619.645 529.916 623.401C530.09 623.537 529.995 623.818 529.774 623.818H477.404H472.286C472.286 623.818 458.327 614.977 458.327 600.088C458.327 594.65 460.08 589.356 463.325 584.993L463.446 584.831Z" fill="#0B2047"/>
<path d="M463.446 584.831L551.384 468.413H580.448L587.467 497.517L565.423 526.622L521.334 584.831C521.334 584.831 520.21 586.13 517.419 592.178C515.137 601.687 515.653 603.734 517.442 608.23C518.363 610.544 519.485 612.79 520.964 614.794C523.363 618.045 525.151 619.645 529.916 623.401C530.09 623.537 529.995 623.818 529.774 623.818H477.404H472.286C472.286 623.818 458.327 614.977 458.327 600.088C458.327 594.65 460.08 589.356 463.325 584.992L463.446 584.831Z" fill="#0B2047"/>
<path d="M595.124 516.805L532.776 454.457L595.124 454.457L595.124 516.805Z" fill="#0B2047"/>
</g>
<mask id="mask51_198_1284" style="mask-type:alpha" maskUnits="userSpaceOnUse" x="445" y="509" width="76" height="76">
<path d="M520.441 584.122H445.764V509.444H520.441V584.122Z" fill="#D9D9D9"/>
</mask>
<g mask="url(#mask51_198_1284)">
<path d="M577.439 453.746L489.501 570.164H460.437L453.418 541.06L475.462 511.955L519.551 453.746C519.551 453.746 520.675 452.447 523.466 446.398C525.748 436.89 525.232 434.843 523.443 430.347C522.522 428.033 521.4 425.787 519.921 423.783C517.522 420.531 515.734 418.932 510.969 415.176C510.795 415.039 510.89 414.759 511.111 414.759H563.481H568.599C568.599 414.759 582.558 423.599 582.558 438.488C582.558 443.927 580.805 449.22 577.56 453.584L577.439 453.746Z" fill="#091A39"/>
<path d="M577.439 453.746L489.501 570.164H460.437L453.418 541.06L475.462 511.955L519.551 453.746C519.551 453.746 520.675 452.447 523.466 446.398C525.748 436.89 525.232 434.843 523.443 430.347C522.522 428.033 521.4 425.787 519.921 423.783C517.522 420.531 515.734 418.932 510.969 415.176C510.795 415.039 510.89 414.759 511.111 414.759H563.481H568.599C568.599 414.759 582.558 423.599 582.558 438.488C582.558 443.927 580.805 449.22 577.56 453.584L577.439 453.746Z" fill="#091A39"/>
<path d="M445.761 521.775L508.109 584.123L445.761 584.123L445.761 521.775Z" fill="#091A39"/>
</g>
<mask id="mask52_198_1284" style="mask-type:alpha" maskUnits="userSpaceOnUse" x="479" y="567" width="75" height="76">
<path d="M479.028 567.495H553.706V642.173H479.028V567.495Z" fill="#D9D9D9"/>
</mask>
<g mask="url(#mask52_198_1284)">
<path d="M422.026 697.872L509.965 581.454H539.029L546.048 610.558L524.004 639.663L479.915 697.872C479.915 697.872 478.791 699.171 475.999 705.219C473.717 714.728 474.233 716.775 476.023 721.271C476.943 723.585 478.066 725.831 479.545 727.835C481.944 731.086 483.732 732.686 488.497 736.442C488.671 736.578 488.576 736.859 488.355 736.859H435.985H430.867C430.867 736.859 416.908 728.018 416.908 713.129C416.908 707.691 418.661 702.397 421.906 698.034L422.026 697.872Z" fill="#0B2047"/>
<path d="M422.026 697.872L509.965 581.454H539.029L546.048 610.558L524.004 639.663L479.915 697.872C479.915 697.872 478.791 699.171 475.999 705.219C473.717 714.728 474.233 716.775 476.023 721.271C476.943 723.585 478.066 725.831 479.545 727.835C481.944 731.086 483.732 732.686 488.497 736.442C488.671 736.578 488.576 736.859 488.355 736.859H435.985H430.867C430.867 736.859 416.908 728.018 416.908 713.129C416.908 707.691 418.661 702.397 421.906 698.034L422.026 697.872Z" fill="#0B2047"/>
<path d="M553.705 629.843L491.357 567.495L553.705 567.495L553.705 629.843Z" fill="#0B2047"/>
</g>
<mask id="mask53_198_1284" style="mask-type:alpha" maskUnits="userSpaceOnUse" x="553" y="554" width="76" height="76">
<path d="M628.379 629.611H553.702V554.933H628.379V629.611Z" fill="#D9D9D9"/>
</mask>
<g mask="url(#mask53_198_1284)">
<path d="M685.379 499.234L597.441 615.652H568.377L561.358 586.548L583.402 557.443L627.491 499.234C627.491 499.234 628.615 497.935 631.406 491.886C633.688 482.378 633.172 480.331 631.383 475.835C630.462 473.521 629.339 471.275 627.861 469.271C625.462 466.02 623.674 464.42 618.909 460.664C618.735 460.527 618.83 460.247 619.051 460.247H671.421H676.539C676.539 460.247 690.498 469.087 690.498 483.977C690.498 489.415 688.745 494.708 685.5 499.072L685.379 499.234Z" fill="#091A39"/>
<path d="M685.379 499.234L597.441 615.652H568.377L561.358 586.548L583.402 557.443L627.491 499.234C627.491 499.234 628.615 497.935 631.406 491.886C633.688 482.378 633.172 480.331 631.383 475.835C630.462 473.521 629.339 471.275 627.861 469.271C625.462 466.02 623.674 464.42 618.909 460.664C618.735 460.527 618.83 460.247 619.051 460.247H671.421H676.539C676.539 460.247 690.498 469.087 690.498 483.977C690.498 489.415 688.745 494.708 685.5 499.072L685.379 499.234Z" fill="#091A39"/>
<path d="M553.7 567.263L616.049 629.611L553.7 629.611L553.7 567.263Z" fill="#091A39"/>
</g>
<mask id="mask54_198_1284" style="mask-type:alpha" maskUnits="userSpaceOnUse" x="379" y="350" width="75" height="76">
<path d="M453.911 425.595H379.234V350.917H453.911V425.595Z" fill="#D9D9D9"/>
</mask>
<g mask="url(#mask54_198_1284)">
<path d="M510.913 295.218L422.975 411.635H393.911L386.892 382.531L408.936 353.427L453.024 295.218C453.024 295.218 454.149 293.918 456.94 287.87C459.222 278.362 458.706 276.315 456.917 271.818C455.996 269.504 454.873 267.258 453.395 265.254C450.996 262.003 449.208 260.404 444.442 256.647C444.269 256.511 444.364 256.23 444.585 256.23H496.955H502.073C502.073 256.23 516.031 265.071 516.031 279.96C516.031 285.398 514.279 290.692 511.034 295.056L510.913 295.218Z" fill="#091A39"/>
<path d="M510.913 295.218L422.975 411.635H393.911L386.892 382.531L408.936 353.427L453.024 295.218C453.024 295.218 454.149 293.918 456.94 287.87C459.222 278.362 458.706 276.315 456.917 271.818C455.996 269.504 454.873 267.258 453.395 265.254C450.996 262.003 449.208 260.404 444.442 256.647C444.269 256.511 444.364 256.23 444.585 256.23H496.955H502.073C502.073 256.23 516.031 265.071 516.031 279.96C516.031 285.398 514.279 290.692 511.034 295.056L510.913 295.218Z" fill="#091A39"/>
<path d="M379.235 363.246L441.583 425.595L379.235 425.594L379.235 363.246Z" fill="#091A39"/>
</g>
<mask id="mask55_198_1284" style="mask-type:alpha" maskUnits="userSpaceOnUse" x="412" y="408" width="76" height="76">
<path d="M412.502 408.97H487.179V483.648H412.502V408.97Z" fill="#D9D9D9"/>
</mask>
<g mask="url(#mask55_198_1284)">
<path d="M355.496 539.347L443.435 422.929H472.499L479.518 452.033L457.474 481.138L413.385 539.347C413.385 539.347 412.261 540.646 409.469 546.695C407.187 556.203 407.703 558.25 409.493 562.746C410.413 565.06 411.536 567.306 413.015 569.31C415.414 572.562 417.202 574.161 421.967 577.917C422.141 578.054 422.046 578.334 421.825 578.334H369.455H364.337C364.337 578.334 350.378 569.494 350.378 554.605C350.378 549.166 352.131 543.873 355.376 539.509L355.496 539.347Z" fill="#0B2047"/>
<path d="M355.348 539.365L443.286 422.948H472.35L479.369 452.052L457.325 481.156L413.237 539.365C413.237 539.365 412.112 540.665 409.321 546.713C407.039 556.221 407.555 558.268 409.344 562.765C410.265 565.079 411.388 567.325 412.866 569.329C415.265 572.58 417.053 574.18 421.819 577.936C421.992 578.072 421.897 578.353 421.676 578.353H369.306H364.188C364.188 578.353 350.229 569.512 350.229 554.623C350.229 549.185 351.982 543.891 355.227 539.527L355.348 539.365Z" fill="#0B2047"/>
<path d="M487.175 471.318L424.827 408.97L487.175 408.97L487.175 471.318Z" fill="#0B2047"/>
</g>
<mask id="mask56_198_1284" style="mask-type:alpha" maskUnits="userSpaceOnUse" x="271" y="305" width="75" height="75">
<path d="M345.965 379.773H271.287V305.095H345.965V379.773Z" fill="#D9D9D9"/>
</mask>
<g mask="url(#mask56_198_1284)">
<path d="M402.964 249.396L315.025 365.814H285.961L278.942 336.709L300.986 307.605L345.075 249.396C345.075 249.396 346.199 248.097 348.991 242.048C351.273 232.54 350.757 230.493 348.968 225.997C348.047 223.682 346.924 221.437 345.445 219.433C343.046 216.181 341.258 214.582 336.493 210.826C336.319 210.689 336.415 210.409 336.636 210.409H389.005H394.123C394.123 210.409 408.082 219.249 408.082 234.138C408.082 239.577 406.33 244.87 403.084 249.234L402.964 249.396Z" fill="#091A39"/>
<path d="M402.964 249.396L315.025 365.814H285.962L278.942 336.709L300.986 307.605L345.075 249.396C345.075 249.396 346.199 248.097 348.991 242.048C351.273 232.54 350.757 230.493 348.968 225.997C348.047 223.682 346.924 221.437 345.445 219.433C343.046 216.181 341.258 214.582 336.493 210.826C336.319 210.689 336.415 210.409 336.636 210.409H389.005H394.123C394.123 210.409 408.082 219.249 408.082 234.138C408.082 239.577 406.33 244.87 403.084 249.234L402.964 249.396Z" fill="#091A39"/>
<path d="M271.285 317.421L333.633 379.769L271.285 379.769L271.285 317.421Z" fill="#091A39"/>
</g>
<mask id="mask57_198_1284" style="mask-type:alpha" maskUnits="userSpaceOnUse" x="304" y="363" width="76" height="75">
<path d="M304.553 363.141H379.231V437.819H304.553V363.141Z" fill="#D9D9D9"/>
</mask>
<g mask="url(#mask57_198_1284)">
<path d="M247.554 493.509L335.493 377.091H364.556L371.575 406.196L349.531 435.3L305.443 493.509C305.443 493.509 304.318 494.808 301.527 500.857C299.245 510.365 299.761 512.412 301.55 516.909C302.471 519.223 303.594 521.468 305.072 523.473C307.471 526.724 309.259 528.323 314.025 532.079C314.198 532.216 314.103 532.496 313.882 532.496H261.512H256.394C256.394 532.496 242.436 523.656 242.436 508.767C242.436 503.329 244.188 498.035 247.433 493.671L247.554 493.509Z" fill="#0B2047"/>
<path d="M247.554 493.509L335.493 377.091H364.556L371.575 406.196L349.531 435.3L305.443 493.509C305.443 493.509 304.318 494.808 301.527 500.857C299.245 510.365 299.761 512.412 301.55 516.909C302.471 519.223 303.594 521.468 305.072 523.473C307.471 526.724 309.259 528.323 314.025 532.079C314.198 532.216 314.103 532.496 313.882 532.496H261.512H256.394C256.394 532.496 242.436 523.656 242.436 508.767C242.436 503.329 244.188 498.035 247.433 493.671L247.554 493.509Z" fill="#0B2047"/>
<path d="M379.232 425.484L316.884 363.136L379.232 363.136L379.232 425.484Z" fill="#0B2047"/>
</g>
<mask id="mask58_198_1284" style="mask-type:alpha" maskUnits="userSpaceOnUse" x="229" y="418" width="76" height="75">
<path d="M304.553 492.806H229.875V418.129H304.553V492.806Z" fill="#D9D9D9"/>
</mask>
<g mask="url(#mask58_198_1284)">
<path d="M361.552 362.43L273.613 478.848H244.55L237.531 449.744L259.575 420.639L303.663 362.43C303.663 362.43 304.788 361.131 307.579 355.082C309.861 345.574 309.345 343.527 307.556 339.031C306.635 336.717 305.512 334.471 304.034 332.467C301.635 329.216 299.847 327.616 295.081 323.86C294.908 323.723 295.003 323.443 295.224 323.443H347.594H352.712C352.712 323.443 366.67 332.283 366.67 347.173C366.67 352.611 364.918 357.904 361.673 362.268L361.552 362.43Z" fill="#091A39"/>
<path d="M361.552 362.43L273.613 478.848H244.55L237.531 449.744L259.575 420.639L303.663 362.43C303.663 362.43 304.788 361.131 307.579 355.082C309.861 345.574 309.345 343.527 307.556 339.031C306.635 336.717 305.512 334.471 304.034 332.467C301.635 329.216 299.847 327.616 295.081 323.86C294.908 323.723 295.003 323.443 295.224 323.443H347.594H352.712C352.712 323.443 366.67 332.283 366.67 347.173C366.67 352.611 364.918 357.904 361.673 362.268L361.552 362.43Z" fill="#091A39"/>
<path d="M229.877 430.459L292.225 492.807L229.877 492.807L229.877 430.459Z" fill="#091A39"/>
</g>
<mask id="mask59_198_1284" style="mask-type:alpha" maskUnits="userSpaceOnUse" x="263" y="476" width="75" height="75">
<path d="M263.147 476.177H337.824V550.854H263.147V476.177Z" fill="#D9D9D9"/>
</mask>
<g mask="url(#mask59_198_1284)">
<path d="M206.147 606.552L294.086 490.134H323.15L330.169 519.239L308.125 548.343L264.036 606.552C264.036 606.552 262.912 607.851 260.12 613.9C257.838 623.408 258.354 625.455 260.144 629.952C261.065 632.266 262.187 634.511 263.666 636.516C266.065 639.767 267.853 641.366 272.618 645.122C272.792 645.259 272.697 645.539 272.476 645.539H220.106H214.988C214.988 645.539 201.029 636.699 201.029 621.81C201.029 616.372 202.782 611.078 206.027 606.714L206.147 606.552Z" fill="#0B2047"/>
<path d="M206.147 606.552L294.086 490.134H323.15L330.169 519.239L308.125 548.343L264.036 606.552C264.036 606.552 262.912 607.851 260.12 613.9C257.838 623.408 258.354 625.455 260.144 629.952C261.065 632.266 262.187 634.511 263.666 636.516C266.065 639.767 267.853 641.366 272.618 645.122C272.792 645.259 272.697 645.539 272.476 645.539H220.106H214.988C214.988 645.539 201.029 636.699 201.029 621.81C201.029 616.372 202.782 611.078 206.027 606.714L206.147 606.552Z" fill="#0B2047"/>
<path d="M337.826 538.523L275.478 476.175L337.826 476.175L337.826 538.523Z" fill="#0B2047"/>
</g>
<mask id="mask60_198_1284" style="mask-type:alpha" maskUnits="userSpaceOnUse" x="337" y="463" width="76" height="76">
<path d="M412.497 538.292H337.819V463.614H412.497V538.292Z" fill="#D9D9D9"/>
</mask>
<g mask="url(#mask60_198_1284)">
<path d="M469.495 407.915L381.556 524.333H352.493L345.473 495.229L367.518 466.124L411.606 407.915C411.606 407.915 412.73 406.616 415.522 400.567C417.804 391.059 417.288 389.012 415.499 384.516C414.578 382.201 413.455 379.956 411.977 377.952C409.578 374.7 407.789 373.101 403.024 369.345C402.851 369.208 402.946 368.928 403.167 368.928H455.537H460.655C460.655 368.928 474.613 377.768 474.613 392.657C474.613 398.096 472.861 403.389 469.616 407.753L469.495 407.915Z" fill="#091A39"/>
<path d="M469.495 407.915L381.556 524.333H352.493L345.473 495.229L367.518 466.124L411.606 407.915C411.606 407.915 412.73 406.616 415.522 400.567C417.804 391.059 417.288 389.012 415.499 384.516C414.578 382.201 413.455 379.956 411.977 377.952C409.578 374.7 407.789 373.101 403.024 369.345C402.851 369.208 402.946 368.928 403.167 368.928H455.537H460.655C460.655 368.928 474.613 377.768 474.613 392.657C474.613 398.096 472.861 403.389 469.616 407.753L469.495 407.915Z" fill="#091A39"/>
<path d="M337.816 475.944L400.165 538.292L337.816 538.292L337.816 475.944Z" fill="#091A39"/>
</g>
<mask id="mask61_198_1284" style="mask-type:alpha" maskUnits="userSpaceOnUse" x="371" y="521" width="75" height="76">
<path d="M371.083 521.661H445.761V596.338H371.083V521.661Z" fill="#D9D9D9"/>
</mask>
<g mask="url(#mask61_198_1284)">
<path d="M314.08 652.038L402.019 535.62H431.083L438.102 564.724L416.058 593.829L371.969 652.038C371.969 652.038 370.845 653.337 368.053 659.385C365.771 668.894 366.287 670.941 368.077 675.437C368.997 677.751 370.12 679.997 371.599 682.001C373.998 685.252 375.786 686.852 380.551 690.608C380.725 690.744 380.63 691.025 380.409 691.025H328.039H322.921C322.921 691.025 308.962 682.184 308.962 667.295C308.962 661.857 310.715 656.563 313.96 652.2L314.08 652.038Z" fill="#0B2047"/>
<path d="M314.08 652.038L402.019 535.62H431.083L438.102 564.724L416.058 593.829L371.969 652.038C371.969 652.038 370.845 653.337 368.053 659.385C365.771 668.894 366.287 670.941 368.077 675.437C368.997 677.751 370.12 679.997 371.599 682.001C373.998 685.252 375.786 686.852 380.551 690.608C380.725 690.744 380.63 691.025 380.409 691.025H328.039H322.921C322.921 691.025 308.962 682.184 308.962 667.295C308.962 661.857 310.715 656.563 313.96 652.2L314.08 652.038Z" fill="#0B2047"/>
<path d="M445.759 584.009L383.411 521.661L445.759 521.661L445.759 584.009Z" fill="#0B2047"/>
</g>
</g>
<defs>
<clipPath id="clip0_198_1284">
<rect width="2000" height="1792.94" fill="white" transform="matrix(-1 0 0 -1 1292 1189)"/>
</clipPath>
</defs>
</svg>
