<svg width="584" height="584" viewBox="0 0 584 584" fill="none" xmlns="http://www.w3.org/2000/svg">
<g clip-path="url(#clip0_198_1223)">
<rect width="1038.22" height="584" transform="translate(-227)" fill="#07142C"/>
<mask id="mask0_198_1223" style="mask-type:alpha" maskUnits="userSpaceOnUse" x="-227" y="-33" width="1039" height="650">
<rect x="-227" y="-32.4443" width="1038.22" height="648.889" fill="#C4C4C4"/>
</mask>
<g mask="url(#mask0_198_1223)">
<mask id="mask1_198_1223" style="mask-type:alpha" maskUnits="userSpaceOnUse" x="-261" y="-64" width="1141" height="750">
<rect x="879.428" y="685.178" width="1140" height="748.557" transform="rotate(179.988 879.428 685.178)" fill="#F5288F"/>
</mask>
<g mask="url(#mask1_198_1223)">
<g filter="url(#filter0_f_198_1223)">
<circle cx="618.447" cy="606.26" r="398.315" transform="rotate(179.988 618.447 606.26)" fill="#021526"/>
</g>
<g filter="url(#filter1_f_198_1223)">
<circle cx="-447.685" cy="311.293" r="398.315" transform="rotate(179.988 -447.685 311.293)" fill="#021526"/>
</g>
<g filter="url(#filter2_f_198_1223)">
<circle cx="-219.27" cy="656.336" r="290.152" transform="rotate(179.988 -219.27 656.336)" fill="#0C224B"/>
</g>
<g filter="url(#filter3_f_198_1223)">
<circle cx="879.305" cy="104.877" r="398.315" transform="rotate(179.988 879.305 104.877)" fill="#07264A"/>
</g>
<g filter="url(#filter4_f_198_1223)">
<circle cx="202.986" cy="719.662" r="333.074" transform="rotate(179.988 202.986 719.662)" fill="#021526"/>
</g>
<path d="M831.335 709.228C433.111 636.003 311.449 358.054 124.513 20.7474L971.968 295.913C1057.83 458.093 1149.91 767.807 831.335 709.228Z" fill="#07264A"/>
<g filter="url(#filter5_f_198_1223)">
<path d="M803.332 713.371C405.109 640.146 381.406 436.959 194.469 99.6524L932.429 271.216C1018.29 433.396 1121.91 771.951 803.332 713.371Z" fill="#07264A"/>
</g>
<g filter="url(#filter6_f_198_1223)">
<path d="M861.223 771.083C461.876 702.612 456.589 501.987 281.292 120.405L1019.89 288.667C1100.12 472.296 1180.7 825.86 861.223 771.083Z" fill="#07264A"/>
</g>
<g filter="url(#filter7_f_198_1223)">
<circle cx="309.263" cy="-63.2554" r="333.074" transform="rotate(179.988 309.263 -63.2554)" fill="#021526"/>
</g>
<path d="M1146.2 360.254C539.875 405.091 257.589 47.5009 -142.064 -371.535L1193.56 -293.587C1379.88 -90.5854 1631.25 324.385 1146.2 360.254Z" fill="#07264A"/>
<g filter="url(#filter8_f_198_1223)">
<path d="M1213.03 439.579C606.705 484.415 522.827 235.754 123.174 -183.282L1260.38 -214.262C1446.7 -11.2609 1698.08 403.709 1213.03 439.579Z" fill="#084E8C"/>
</g>
<g filter="url(#filter9_f_198_1223)">
<path d="M1051.62 340.038C445.299 384.875 361.421 136.213 -38.2316 -282.823L1098.98 -313.803C1285.3 -110.802 1536.68 304.168 1051.62 340.038Z" fill="#084E8C"/>
</g>
<g filter="url(#filter10_f_198_1223)">
<circle cx="827.763" cy="-63.3673" r="398.315" transform="rotate(179.988 827.763 -63.3673)" fill="#021526"/>
</g>
<g filter="url(#filter11_f_198_1223)">
<path d="M717.958 290.332C717.928 153.791 828.593 43.0781 965.135 43.0488C1101.68 43.0194 1212.39 153.684 1212.42 290.226C1212.45 426.767 1101.78 537.48 965.241 537.509C828.7 537.538 717.987 426.874 717.958 290.332Z" fill="#07264A"/>
</g>
<g filter="url(#filter12_f_198_1223)">
<ellipse cx="299.394" cy="75.284" rx="213.052" ry="155.012" transform="rotate(-180 299.394 75.284)" fill="#084882"/>
</g>
</g>
<g filter="url(#filter13_f_198_1223)">
<ellipse cx="-26.2501" cy="401.241" rx="149.661" ry="227.552" transform="rotate(-34.1892 -26.2501 401.241)" fill="#0C224B"/>
</g>
<mask id="mask2_198_1223" style="mask-type:alpha" maskUnits="userSpaceOnUse" x="-588" y="-100" width="1110" height="876">
<path d="M434.027 775.601L521.331 105.623L-97.665 -99.0698L-281.429 -98.6117L-587.535 272.307L-564.635 573.399L-28.4493 701.051L434.027 775.601Z" fill="url(#paint0_linear_198_1223)"/>
</mask>
<g mask="url(#mask2_198_1223)">
<mask id="mask3_198_1223" style="mask-type:alpha" maskUnits="userSpaceOnUse" x="-610" y="-143" width="1158" height="924">
<path d="M-609.688 549.17C-537.181 246.425 -411.117 -126.965 -408.504 -142.28L547.98 89.7131L439.963 780.529L-609.688 549.17Z" fill="url(#paint1_linear_198_1223)"/>
</mask>
<g mask="url(#mask3_198_1223)">
<path d="M-89.828 36.9224C15.0472 61.8905 77.4016 191.343 54.2519 288.58C31.1023 385.816 -41.7312 503.314 -154.253 476.526C-210.013 463.251 -293.191 512.132 -347.911 447.939C-403.614 382.592 -356.706 253.624 -345.028 204.573C-321.879 107.336 -194.703 11.9542 -89.828 36.9224Z" fill="#0C224B"/>
<g filter="url(#filter14_f_198_1223)">
<path d="M-93.0666 44.9514C19.4096 71.7292 79.8588 175.098 61.8862 250.589C43.9136 326.08 -22.1086 415.046 -134.585 388.268C-190.322 374.999 -270.479 411.314 -327.75 357.955C-386.05 303.638 -346.209 204.327 -337.143 166.245C-319.17 90.754 -205.543 18.1736 -93.0666 44.9514Z" fill="#0C224B"/>
</g>
<g filter="url(#filter15_f_198_1223)">
<path d="M-84.6158 69.6902C41.448 99.7029 106.915 225.157 84.7225 318.373C62.5302 411.588 -14.1562 522.593 -140.22 492.581C-202.691 477.708 -296.022 533.07 -359.191 468.98C-423.495 403.739 -374.17 272.811 -362.975 225.788C-340.783 132.572 -210.68 39.6775 -84.6158 69.6902Z" fill="#0C224B"/>
</g>
<g filter="url(#filter16_f_198_1223)">
<path d="M-77.2661 103.612C72.3596 165.943 169.464 330.287 140.752 450.888C112.04 571.49 2.00302 683.059 -149.185 647.065C-224.107 629.228 -351.712 737.741 -426.427 656.492C-502.484 573.784 -441.067 355.653 -426.583 294.816C-397.87 174.215 -250.599 31.4052 -77.2661 103.612Z" fill="#0C224B"/>
</g>
<g filter="url(#filter17_f_198_1223)">
<path d="M-43.7741 143.884C119.016 182.641 233.795 374.157 205.723 492.07C177.651 609.983 62.2438 717.203 -100.547 678.446C-181.217 659.24 -289.88 680.921 -371.744 599.385C-455.079 516.384 -444.447 260.566 -430.286 201.085C-402.214 83.1717 -206.565 105.128 -43.7741 143.884Z" fill="#0C224B"/>
</g>
<g filter="url(#filter18_f_198_1223)">
<path d="M20.0065 208.803C188.235 248.854 295.226 442.26 266.513 562.862C237.801 683.463 118.861 792.913 -49.3683 752.862C-132.734 733.014 -218.365 540.223 -303.113 456.586C-389.382 371.446 -327.296 212.419 -312.812 151.581C-284.1 30.9798 -148.222 168.752 20.0065 208.803Z" fill="#0C224B"/>
</g>
<g filter="url(#filter19_f_198_1223)">
<path d="M-96.1489 160.888C50.2617 199.098 135.051 390.066 103.746 510.02C72.4401 629.975 -37.9038 739.687 -184.314 701.477C-256.868 682.542 -353.289 691.46 -423.899 609.229C-495.778 525.52 -433.128 367.125 -417.336 306.613C-386.03 186.659 -242.56 122.677 -96.1489 160.888Z" fill="#0C224B"/>
</g>
</g>
</g>
<mask id="mask4_198_1223" style="mask-type:alpha" maskUnits="userSpaceOnUse" x="96" y="-626" width="1656" height="1492">
<path d="M96.2358 116.022C297.996 437.983 555.439 848.656 564.214 865.486L1751.11 124.369L1283.13 -625.095L96.2358 116.022Z" fill="url(#paint2_linear_198_1223)"/>
</mask>
<g mask="url(#mask4_198_1223)">
<path d="M1034.72 388.854C1168.59 305.265 1209.07 119.563 1144.45 16.0839C1079.84 -87.3955 940.854 -189.357 797.227 -99.6736C726.053 -55.2312 596.441 -70.4432 544.057 33.8885C490.731 140.095 598.43 269.006 631.025 321.206C695.639 424.685 900.855 472.442 1034.72 388.854Z" fill="#0C224B"/>
<g filter="url(#filter20_f_198_1223)">
<path d="M1027.58 380.993C1171.15 291.347 1211.95 127.975 1156.41 39.0274C1100.87 -49.9201 973.813 -132.825 830.245 -43.1782C759.1 1.24605 634.144 -6.58694 577.276 90.4867C519.386 189.304 614.701 298.401 642.719 343.27C698.259 432.218 884.014 470.64 1027.58 380.993Z" fill="#0C224B"/>
</g>
<g filter="url(#filter21_f_198_1223)">
<path d="M1031.93 378.276C1192.84 277.799 1231.63 83.5722 1163.15 -26.0891C1094.68 -135.75 944.107 -241.752 783.195 -141.276C703.455 -91.4849 552.703 -117.403 492.064 -3.63816C430.336 112.17 551.447 257.318 585.989 312.636C654.464 422.298 871.02 478.752 1031.93 378.276Z" fill="#0C224B"/>
</g>
<g filter="url(#filter22_f_198_1223)">
<path d="M1042.39 353.691C1224.27 202.739 1300.02 -42.2468 1219.88 -170.591C1139.74 -298.935 952.265 -374.719 759.283 -254.218C663.651 -194.504 453.37 -257.621 379.659 -122.763C304.624 14.5178 440.225 173.142 480.652 237.885C560.793 366.229 831.704 528.559 1042.39 353.691Z" fill="#0C224B"/>
</g>
<g filter="url(#filter23_f_198_1223)">
<path d="M1076.9 259.955C1284.69 130.207 1360.32 -146.852 1281.97 -272.335C1203.61 -397.818 1010.33 -465.677 802.543 -335.929C699.572 -271.632 544.644 -241.453 461.324 -102.575C376.508 38.7974 511.691 192.259 551.216 255.559C629.57 381.042 869.104 389.704 1076.9 259.955Z" fill="#0C224B"/>
</g>
<g filter="url(#filter24_f_198_1223)">
<path d="M1126.49 159.368C1341.23 25.2847 1420.48 -259.276 1340.34 -387.62C1260.2 -515.965 1061.36 -584.652 846.632 -450.569C740.221 -384.124 580.434 -352.429 493.917 -209.575C405.847 -64.1537 544.412 92.6193 584.839 157.363C664.979 285.707 911.761 293.451 1126.49 159.368Z" fill="#0C224B"/>
</g>
<g filter="url(#filter25_f_198_1223)">
<path d="M977.729 280.625C1165.62 163.303 1221.77 -106.829 1141.63 -235.173C1061.49 -363.518 876.675 -440.963 688.784 -323.64C595.675 -265.501 461.305 -229.049 390.591 -96.0624C318.607 39.3135 453.514 198.371 493.941 263.114C574.082 391.458 789.838 397.948 977.729 280.625Z" fill="#0C224B"/>
</g>
</g>
<mask id="mask5_198_1223" style="mask-type:alpha" maskUnits="userSpaceOnUse" x="-371" y="267" width="937" height="569">
<path d="M535.114 835.692L565.772 523.064L-357.66 267.968L-370.391 620.942L535.114 835.692Z" fill="url(#paint3_linear_198_1223)"/>
</mask>
<g mask="url(#mask5_198_1223)">
<mask id="mask6_198_1223" style="mask-type:alpha" maskUnits="userSpaceOnUse" x="-344" y="251" width="915" height="625">
<path d="M570.128 443.827L507.081 875.963L-343.573 630.915L-297.176 251.968L570.128 443.827Z" fill="url(#paint4_linear_198_1223)"/>
</mask>
<g mask="url(#mask6_198_1223)">
<path d="M-36.3649 488.914C95.5898 617.291 244.806 624.326 352.178 617.826L440.136 618.597L496.465 630.434L404.178 742.889L241.544 727.596L-123.722 630.217C-123.722 630.217 -407.582 461.523 -325.79 459.941C-255.886 449.983 -173.31 391.16 -36.3649 488.914Z" fill="#0C224B"/>
<g filter="url(#filter26_f_198_1223)">
<path d="M-36.3649 488.914C105.394 600.047 107.191 609.528 296.248 620.39L440.136 618.597L496.465 630.434L404.178 742.889L241.544 727.596L-123.722 630.217C-123.722 630.217 -407.582 461.523 -325.79 459.941C-255.886 449.983 -173.31 391.16 -36.3649 488.914Z" fill="#0C224B"/>
</g>
<g filter="url(#filter27_f_198_1223)">
<path d="M-36.3649 488.914C151.919 663.549 154.225 602.919 343.282 613.781L398.059 612.233L455.176 618.459L496.465 630.434L404.178 742.889L241.544 727.596L-123.722 630.217C-123.722 630.217 -407.582 461.523 -325.79 459.941C-255.886 449.983 -174.097 372.593 -36.3649 488.914Z" fill="#0C224B"/>
</g>
<g filter="url(#filter28_f_198_1223)">
<path d="M-70.569 468.237C117.714 642.872 136.963 696.805 370.527 613.543L425.304 611.995L512.498 617.946L581.033 629.684L403.974 742.658L241.34 727.365L-123.926 629.987C-123.926 629.987 -407.785 461.292 -325.994 459.71C-256.09 449.752 -208.301 351.916 -70.569 468.237Z" fill="#0C224B"/>
</g>
<g filter="url(#filter29_f_198_1223)">
<path d="M-75.4036 458.564C50.2173 628.582 159.811 662.741 332.707 608.755L559.11 545.735L589.031 592.722L581.033 629.684L403.974 742.658L241.34 727.365L-123.926 629.987C-123.926 629.987 -407.785 461.292 -325.994 459.71C-256.09 449.752 -239.636 272.163 -75.4036 458.564Z" fill="#0C224B"/>
</g>
</g>
</g>
</g>
</g>
<defs>
<filter id="filter0_f_198_1223" x="-178.183" y="-190.37" width="1593.26" height="1593.26" filterUnits="userSpaceOnUse" color-interpolation-filters="sRGB">
<feFlood flood-opacity="0" result="BackgroundImageFix"/>
<feBlend mode="normal" in="SourceGraphic" in2="BackgroundImageFix" result="shape"/>
<feGaussianBlur stdDeviation="199.157" result="effect1_foregroundBlur_198_1223"/>
</filter>
<filter id="filter1_f_198_1223" x="-1244.31" y="-485.337" width="1593.26" height="1593.26" filterUnits="userSpaceOnUse" color-interpolation-filters="sRGB">
<feFlood flood-opacity="0" result="BackgroundImageFix"/>
<feBlend mode="normal" in="SourceGraphic" in2="BackgroundImageFix" result="shape"/>
<feGaussianBlur stdDeviation="199.157" result="effect1_foregroundBlur_198_1223"/>
</filter>
<filter id="filter2_f_198_1223" x="-907.737" y="-32.1308" width="1376.93" height="1376.93" filterUnits="userSpaceOnUse" color-interpolation-filters="sRGB">
<feFlood flood-opacity="0" result="BackgroundImageFix"/>
<feBlend mode="normal" in="SourceGraphic" in2="BackgroundImageFix" result="shape"/>
<feGaussianBlur stdDeviation="199.157" result="effect1_foregroundBlur_198_1223"/>
</filter>
<filter id="filter3_f_198_1223" x="82.6749" y="-691.753" width="1593.26" height="1593.26" filterUnits="userSpaceOnUse" color-interpolation-filters="sRGB">
<feFlood flood-opacity="0" result="BackgroundImageFix"/>
<feBlend mode="normal" in="SourceGraphic" in2="BackgroundImageFix" result="shape"/>
<feGaussianBlur stdDeviation="199.157" result="effect1_foregroundBlur_198_1223"/>
</filter>
<filter id="filter4_f_198_1223" x="-528.403" y="-11.7265" width="1462.78" height="1462.78" filterUnits="userSpaceOnUse" color-interpolation-filters="sRGB">
<feFlood flood-opacity="0" result="BackgroundImageFix"/>
<feBlend mode="normal" in="SourceGraphic" in2="BackgroundImageFix" result="shape"/>
<feGaussianBlur stdDeviation="199.157" result="effect1_foregroundBlur_198_1223"/>
</filter>
<filter id="filter5_f_198_1223" x="150.27" y="55.4527" width="913.629" height="708.849" filterUnits="userSpaceOnUse" color-interpolation-filters="sRGB">
<feFlood flood-opacity="0" result="BackgroundImageFix"/>
<feBlend mode="normal" in="SourceGraphic" in2="BackgroundImageFix" result="shape"/>
<feGaussianBlur stdDeviation="22.0998" result="effect1_foregroundBlur_198_1223"/>
</filter>
<filter id="filter6_f_198_1223" x="189.946" y="29.059" width="993.327" height="839.069" filterUnits="userSpaceOnUse" color-interpolation-filters="sRGB">
<feFlood flood-opacity="0" result="BackgroundImageFix"/>
<feBlend mode="normal" in="SourceGraphic" in2="BackgroundImageFix" result="shape"/>
<feGaussianBlur stdDeviation="45.673" result="effect1_foregroundBlur_198_1223"/>
</filter>
<filter id="filter7_f_198_1223" x="-422.126" y="-794.644" width="1462.78" height="1462.78" filterUnits="userSpaceOnUse" color-interpolation-filters="sRGB">
<feFlood flood-opacity="0" result="BackgroundImageFix"/>
<feBlend mode="normal" in="SourceGraphic" in2="BackgroundImageFix" result="shape"/>
<feGaussianBlur stdDeviation="199.157" result="effect1_foregroundBlur_198_1223"/>
</filter>
<filter id="filter8_f_198_1223" x="16.7281" y="-320.708" width="1583.69" height="871.927" filterUnits="userSpaceOnUse" color-interpolation-filters="sRGB">
<feFlood flood-opacity="0" result="BackgroundImageFix"/>
<feBlend mode="normal" in="SourceGraphic" in2="BackgroundImageFix" result="shape"/>
<feGaussianBlur stdDeviation="53.2231" result="effect1_foregroundBlur_198_1223"/>
</filter>
<filter id="filter9_f_198_1223" x="-117.208" y="-392.779" width="1528.75" height="816.987" filterUnits="userSpaceOnUse" color-interpolation-filters="sRGB">
<feFlood flood-opacity="0" result="BackgroundImageFix"/>
<feBlend mode="normal" in="SourceGraphic" in2="BackgroundImageFix" result="shape"/>
<feGaussianBlur stdDeviation="39.4881" result="effect1_foregroundBlur_198_1223"/>
</filter>
<filter id="filter10_f_198_1223" x="31.1329" y="-859.997" width="1593.26" height="1593.26" filterUnits="userSpaceOnUse" color-interpolation-filters="sRGB">
<feFlood flood-opacity="0" result="BackgroundImageFix"/>
<feBlend mode="normal" in="SourceGraphic" in2="BackgroundImageFix" result="shape"/>
<feGaussianBlur stdDeviation="199.157" result="effect1_foregroundBlur_198_1223"/>
</filter>
<filter id="filter11_f_198_1223" x="319.643" y="-355.266" width="1291.09" height="1291.09" filterUnits="userSpaceOnUse" color-interpolation-filters="sRGB">
<feFlood flood-opacity="0" result="BackgroundImageFix"/>
<feBlend mode="normal" in="SourceGraphic" in2="BackgroundImageFix" result="shape"/>
<feGaussianBlur stdDeviation="199.157" result="effect1_foregroundBlur_198_1223"/>
</filter>
<filter id="filter12_f_198_1223" x="-129.954" y="-296.025" width="858.696" height="742.617" filterUnits="userSpaceOnUse" color-interpolation-filters="sRGB">
<feFlood flood-opacity="0" result="BackgroundImageFix"/>
<feBlend mode="normal" in="SourceGraphic" in2="BackgroundImageFix" result="shape"/>
<feGaussianBlur stdDeviation="108.148" result="effect1_foregroundBlur_198_1223"/>
</filter>
<filter id="filter13_f_198_1223" x="-383.419" y="15.8374" width="714.338" height="770.807" filterUnits="userSpaceOnUse" color-interpolation-filters="sRGB">
<feFlood flood-opacity="0" result="BackgroundImageFix"/>
<feBlend mode="normal" in="SourceGraphic" in2="BackgroundImageFix" result="shape"/>
<feGaussianBlur stdDeviation="89.5956" result="effect1_foregroundBlur_198_1223"/>
</filter>
<filter id="filter14_f_198_1223" x="-366.023" y="32.1085" width="438.207" height="368.196" filterUnits="userSpaceOnUse" color-interpolation-filters="sRGB">
<feFlood flood-opacity="0" result="BackgroundImageFix"/>
<feBlend mode="normal" in="SourceGraphic" in2="BackgroundImageFix" result="shape"/>
<feGaussianBlur stdDeviation="3.58382" result="effect1_foregroundBlur_198_1223"/>
</filter>
<filter id="filter15_f_198_1223" x="-416.688" y="38.8605" width="530.767" height="486.938" filterUnits="userSpaceOnUse" color-interpolation-filters="sRGB">
<feFlood flood-opacity="0" result="BackgroundImageFix"/>
<feBlend mode="normal" in="SourceGraphic" in2="BackgroundImageFix" result="shape"/>
<feGaussianBlur stdDeviation="12.5434" result="effect1_foregroundBlur_198_1223"/>
</filter>
<filter id="filter16_f_198_1223" x="-499.57" y="48.2714" width="681.19" height="674.616" filterUnits="userSpaceOnUse" color-interpolation-filters="sRGB">
<feFlood flood-opacity="0" result="BackgroundImageFix"/>
<feBlend mode="normal" in="SourceGraphic" in2="BackgroundImageFix" result="shape"/>
<feGaussianBlur stdDeviation="17.9191" result="effect1_foregroundBlur_198_1223"/>
</filter>
<filter id="filter17_f_198_1223" x="-536.752" y="16.2035" width="843.47" height="767.073" filterUnits="userSpaceOnUse" color-interpolation-filters="sRGB">
<feFlood flood-opacity="0" result="BackgroundImageFix"/>
<feBlend mode="normal" in="SourceGraphic" in2="BackgroundImageFix" result="shape"/>
<feGaussianBlur stdDeviation="48.3816" result="effect1_foregroundBlur_198_1223"/>
</filter>
<filter id="filter18_f_198_1223" x="-588.095" y="-136.958" width="1099.37" height="1138.35" filterUnits="userSpaceOnUse" color-interpolation-filters="sRGB">
<feFlood flood-opacity="0" result="BackgroundImageFix"/>
<feBlend mode="normal" in="SourceGraphic" in2="BackgroundImageFix" result="shape"/>
<feGaussianBlur stdDeviation="120.058" result="effect1_foregroundBlur_198_1223"/>
</filter>
<filter id="filter19_f_198_1223" x="-568.808" y="38.7508" width="790.124" height="781.554" filterUnits="userSpaceOnUse" color-interpolation-filters="sRGB">
<feFlood flood-opacity="0" result="BackgroundImageFix"/>
<feBlend mode="normal" in="SourceGraphic" in2="BackgroundImageFix" result="shape"/>
<feGaussianBlur stdDeviation="55.5493" result="effect1_foregroundBlur_198_1223"/>
</filter>
<filter id="filter20_f_198_1223" x="551.789" y="-88.9421" width="635.649" height="528.17" filterUnits="userSpaceOnUse" color-interpolation-filters="sRGB">
<feFlood flood-opacity="0" result="BackgroundImageFix"/>
<feBlend mode="normal" in="SourceGraphic" in2="BackgroundImageFix" result="shape"/>
<feGaussianBlur stdDeviation="3.58382" result="effect1_foregroundBlur_198_1223"/>
</filter>
<filter id="filter21_f_198_1223" x="449.724" y="-206.654" width="770.834" height="662.361" filterUnits="userSpaceOnUse" color-interpolation-filters="sRGB">
<feFlood flood-opacity="0" result="BackgroundImageFix"/>
<feBlend mode="normal" in="SourceGraphic" in2="BackgroundImageFix" result="shape"/>
<feGaussianBlur stdDeviation="12.5434" result="effect1_foregroundBlur_198_1223"/>
</filter>
<filter id="filter22_f_198_1223" x="321.584" y="-350.613" width="965.931" height="816.62" filterUnits="userSpaceOnUse" color-interpolation-filters="sRGB">
<feFlood flood-opacity="0" result="BackgroundImageFix"/>
<feBlend mode="normal" in="SourceGraphic" in2="BackgroundImageFix" result="shape"/>
<feGaussianBlur stdDeviation="17.9191" result="effect1_foregroundBlur_198_1223"/>
</filter>
<filter id="filter23_f_198_1223" x="337.111" y="-502.683" width="1071.89" height="952.978" filterUnits="userSpaceOnUse" color-interpolation-filters="sRGB">
<feFlood flood-opacity="0" result="BackgroundImageFix"/>
<feBlend mode="normal" in="SourceGraphic" in2="BackgroundImageFix" result="shape"/>
<feGaussianBlur stdDeviation="48.3816" result="effect1_foregroundBlur_198_1223"/>
</filter>
<filter id="filter24_f_198_1223" x="225.043" y="-763.555" width="1386.03" height="1260.48" filterUnits="userSpaceOnUse" color-interpolation-filters="sRGB">
<feFlood flood-opacity="0" result="BackgroundImageFix"/>
<feBlend mode="normal" in="SourceGraphic" in2="BackgroundImageFix" result="shape"/>
<feGaussianBlur stdDeviation="120.058" result="effect1_foregroundBlur_198_1223"/>
</filter>
<filter id="filter25_f_198_1223" x="258.71" y="-492.528" width="1029.48" height="967.842" filterUnits="userSpaceOnUse" color-interpolation-filters="sRGB">
<feFlood flood-opacity="0" result="BackgroundImageFix"/>
<feBlend mode="normal" in="SourceGraphic" in2="BackgroundImageFix" result="shape"/>
<feGaussianBlur stdDeviation="55.5493" result="effect1_foregroundBlur_198_1223"/>
</filter>
<filter id="filter26_f_198_1223" x="-349.2" y="424.708" width="854.274" height="326.789" filterUnits="userSpaceOnUse" color-interpolation-filters="sRGB">
<feFlood flood-opacity="0" result="BackgroundImageFix"/>
<feBlend mode="normal" in="SourceGraphic" in2="BackgroundImageFix" result="shape"/>
<feGaussianBlur stdDeviation="4.30449" result="effect1_foregroundBlur_198_1223"/>
</filter>
<filter id="filter27_f_198_1223" x="-354.12" y="411.985" width="864.113" height="344.432" filterUnits="userSpaceOnUse" color-interpolation-filters="sRGB">
<feFlood flood-opacity="0" result="BackgroundImageFix"/>
<feBlend mode="normal" in="SourceGraphic" in2="BackgroundImageFix" result="shape"/>
<feGaussianBlur stdDeviation="6.7642" result="effect1_foregroundBlur_198_1223"/>
</filter>
<filter id="filter28_f_198_1223" x="-364.162" y="388.404" width="968.562" height="377.621" filterUnits="userSpaceOnUse" color-interpolation-filters="sRGB">
<feFlood flood-opacity="0" result="BackgroundImageFix"/>
<feBlend mode="normal" in="SourceGraphic" in2="BackgroundImageFix" result="shape"/>
<feGaussianBlur stdDeviation="11.6836" result="effect1_foregroundBlur_198_1223"/>
</filter>
<filter id="filter29_f_198_1223" x="-378.921" y="335.646" width="1006.08" height="445.137" filterUnits="userSpaceOnUse" color-interpolation-filters="sRGB">
<feFlood flood-opacity="0" result="BackgroundImageFix"/>
<feBlend mode="normal" in="SourceGraphic" in2="BackgroundImageFix" result="shape"/>
<feGaussianBlur stdDeviation="19.0627" result="effect1_foregroundBlur_198_1223"/>
</filter>
<linearGradient id="paint0_linear_198_1223" x1="47.3872" y1="257.284" x2="-303.027" y2="203.694" gradientUnits="userSpaceOnUse">
<stop stop-color="#C4C4C4"/>
<stop offset="0.943414" stop-color="#C4C4C4" stop-opacity="0"/>
</linearGradient>
<linearGradient id="paint1_linear_198_1223" x1="-87.8504" y1="81.8326" x2="-180.341" y2="484.094" gradientUnits="userSpaceOnUse">
<stop stop-color="#C4C4C4"/>
<stop offset="1" stop-color="#C4C4C4" stop-opacity="0"/>
</linearGradient>
<linearGradient id="paint2_linear_198_1223" x1="986.323" y1="436.895" x2="671.76" y2="-104.507" gradientUnits="userSpaceOnUse">
<stop stop-color="#C4C4C4"/>
<stop offset="1" stop-color="#C4C4C4" stop-opacity="0"/>
</linearGradient>
<linearGradient id="paint3_linear_198_1223" x1="97.5748" y1="572.105" x2="73.8739" y2="678.221" gradientUnits="userSpaceOnUse">
<stop stop-color="#C4C4C4"/>
<stop offset="1" stop-color="#C4C4C4" stop-opacity="0"/>
</linearGradient>
<linearGradient id="paint4_linear_198_1223" x1="-328.834" y1="483.931" x2="505.301" y2="651.554" gradientUnits="userSpaceOnUse">
<stop stop-color="#C4C4C4" stop-opacity="0"/>
<stop offset="0.364583" stop-color="#C4C4C4"/>
<stop offset="0.609375" stop-color="#C4C4C4"/>
<stop offset="1" stop-color="#C4C4C4" stop-opacity="0"/>
</linearGradient>
<clipPath id="clip0_198_1223">
<rect width="1038.22" height="584" fill="white" transform="translate(-227)"/>
</clipPath>
</defs>
</svg>
