<svg width="250" height="115" viewBox="0 0 250 115" fill="none" xmlns="http://www.w3.org/2000/svg">
<g clip-path="url(#clip0_1036_2964)">
<path fill-rule="evenodd" clip-rule="evenodd" d="M96.0547 100.926V96.6289H99.3555C99.3555 97.6445 99.4531 98.582 99.5898 99.6953V100.203L104.297 100.34C104.228 100.542 104.189 100.752 104.18 100.965L96.0547 100.926ZM167.461 101.023C167.461 99.7539 167.344 98.5234 167.285 97.2734H163.809C163.819 97.0544 163.859 96.8377 163.926 96.6289H174.355V97.2344H170.996C170.996 98.4258 170.859 99.6367 170.82 100.887C169.687 100.926 168.574 100.965 167.461 101.023ZM176.133 100.867V96.6094H184.551V97.2148H179.785C179.736 97.2256 179.689 97.2468 179.649 97.2772C179.608 97.3075 179.575 97.3462 179.551 97.3906V98.3281C181.191 98.3281 181.504 98.1523 184.668 97.8789C184.564 98.131 184.486 98.3927 184.434 98.6602C182.852 98.8164 181.25 99.0508 179.648 99.2461V100.164C181.289 100.164 182.949 100.301 184.668 100.379C184.539 100.564 184.44 100.768 184.375 100.984C181.641 100.926 178.828 100.867 176.133 100.867ZM187.031 100.926V96.5703H190.254C190.254 97.7812 190.371 98.9922 190.43 100.242L195.273 100.359C195.142 100.543 195.042 100.748 194.98 100.965C192.324 100.926 189.668 100.926 187.031 100.926ZM197.051 100.926C197.051 99.4805 196.934 98.0547 196.934 96.6289H205.469V97.0586H200.469V98.2695L201.23 98.1523C202.637 98.0156 204.062 97.8789 205.469 97.8008V98.4062C203.887 98.5625 202.285 98.7578 200.762 98.9531C200.762 99.3047 200.645 99.6367 200.586 99.9883L205.352 100.125H205.469V100.711H201.055L197.051 100.926ZM207.812 100.496C207.812 99.3437 207.695 98.1719 207.695 97.0586C208.386 96.778 209.119 96.613 209.863 96.5703H215.957L217.246 96.8242C217.175 97.1054 217.136 97.3937 217.129 97.6836L214.004 97.9375C213.94 97.7013 213.901 97.4591 213.887 97.2148H211.367V100.184H213.887C213.851 99.9834 213.851 99.7784 213.887 99.5781C215 99.4414 216.191 99.3047 217.363 99.2266C217.363 99.6758 217.246 100.105 217.187 100.574C215.527 101.023 209.59 101.434 207.812 100.496ZM105.938 100.457C105.938 99.2852 105.937 98.1328 106.055 97.0195C106.721 96.7109 107.449 96.5574 108.184 96.5703H114.043C115.156 96.707 115.156 96.707 115.566 96.9219V97.7031L112.207 98.0937V97.2344H109.609C109.465 98.2187 109.465 99.2188 109.609 100.203H112.031C112.003 99.9304 112.003 99.6555 112.031 99.3828C111.543 99.3576 111.054 99.3576 110.566 99.3828C110.572 99.1823 110.612 98.9843 110.684 98.7969C114.59 98.4062 114.805 98.25 115.703 98.25C115.703 99.1484 115.586 100.047 115.586 101.004C113.281 100.867 107.949 101.316 105.938 100.457ZM118.789 96.5703H126.797C126.797 96.7852 126.914 97.0195 126.973 97.2148L122.129 97.3516C122.062 97.66 122.023 97.9737 122.012 98.2891C123.477 98.2891 123.73 98.1133 126.973 97.8398C126.892 98.0661 126.846 98.3031 126.836 98.543C125.234 98.6992 123.594 98.9141 122.012 99.1289V100.027C122.042 100.103 122.082 100.175 122.129 100.242H126.973V100.75H118.535C118.535 99.2852 118.418 97.8594 118.418 96.4336L118.789 96.5703ZM148.32 96.5703H156.25L156.426 97.2148L151.602 97.3516C151.528 97.6587 151.488 97.9732 151.484 98.2891C152.949 98.2891 153.184 98.1133 156.426 97.8398C156.354 98.0676 156.315 98.3043 156.309 98.543C154.727 98.6992 153.066 98.9141 151.484 99.1289V100.027C151.509 100.106 151.549 100.179 151.602 100.242H156.426V100.75H147.988C147.988 99.2852 147.871 97.8594 147.871 96.4336L148.32 96.5703ZM129.336 96.5703V100.926C129.16 96.5703 129.16 96.5703 129.336 96.5703ZM141.719 96.5703V100.926C141.54 99.4794 141.54 98.0167 141.719 96.5703ZM141.719 100.926V96.5703H145.078V100.926H141.719ZM145.078 96.5703V100.926C145.256 99.4794 145.256 98.0167 145.078 96.5703ZM232.676 100.867V96.9609C232.852 96.7266 232.852 96.7266 234.219 96.5117H239.512C240.159 96.6141 240.818 96.6141 241.465 96.5117H246.895L248.437 96.8633V100.77H245.117C245 99.5781 244.961 98.3477 244.883 97.1562H242.344C242.344 98.3281 242.227 99.5195 242.227 100.73H238.867V97.1562H236.328C236.211 97.1562 236.211 97.1562 236.094 100.77L232.676 100.867Z" fill="white"/>
<path fill-rule="evenodd" clip-rule="evenodd" d="M99.6094 100.144H99.7852L104.316 100.28L99.6094 100.144Z" fill="white"/>
<path fill-rule="evenodd" clip-rule="evenodd" d="M104.297 100.282L99.7656 100.146C104.414 100.146 104.414 100.146 104.355 100.282H104.297ZM109.609 97.2744V100.243C109.465 99.2589 109.465 98.2587 109.609 97.2744ZM174.355 97.2158V96.6104H163.926L174.531 96.4932C174.531 97.2158 174.531 97.2158 174.355 97.2158ZM83.6719 97.001V100.907H83.4375V97.001H83.6719ZM86.9727 100.907C87.0156 100.401 87.094 99.8986 87.207 99.4033C88.0287 99.2732 88.8658 99.2732 89.6875 99.4033C89.657 99.9498 89.657 100.497 89.6875 101.044H93.3398C93.3398 99.6963 93.2227 98.3682 93.2227 97.1377C92.8125 97.1377 92.4023 96.9619 92.0508 96.9229H85.0977C84.6217 96.9309 84.1565 97.0657 83.75 97.3135V101.22C84.7266 100.868 85.9375 100.868 86.9727 100.868V100.907ZM89.4922 98.3291C89.5416 97.9782 89.62 97.6319 89.7266 97.2939H87.0898V98.583L89.4922 98.3291ZM91.9727 96.7275C91.9727 96.5908 91.9727 96.5908 85.0195 96.7275C87.3437 96.6103 89.6289 96.6689 91.9727 96.708V96.7275ZM129.336 100.927V96.6299H137.578C138.036 96.6395 138.485 96.7601 138.887 96.9814C138.887 97.5479 139.004 98.1533 139.043 98.7393C136.816 98.9541 136.816 98.9541 136.699 99.0908L140.059 100.81C138.848 100.99 137.617 100.99 136.406 100.81C135.307 100.112 134.089 99.6218 132.812 99.3643C132.695 99.833 132.578 100.36 132.461 100.868C131.465 100.868 130.391 100.868 129.336 100.927ZM135.195 98.3486C135.195 97.958 135.293 97.626 135.371 97.2744H132.812V98.5244C133.574 98.4268 134.355 98.3877 135.176 98.3486H135.195ZM222.07 100.868H228.145V101.083H222.07V100.868ZM228.145 100.868C228.718 100.856 229.28 100.708 229.785 100.438V97.001L228.32 96.6104H221.562C221.133 96.6104 220.078 96.7861 220.078 97.2158C220.078 98.3096 220.078 99.3643 220.195 100.478C220.804 100.766 221.475 100.9 222.148 100.868H228.145ZM223.613 97.2549V100.185H226.035C226.035 99.1885 226.035 98.2314 226.152 97.2158L223.613 97.2549ZM228.32 96.6104C221.562 96.4932 221.562 96.4932 221.562 96.6104H228.32Z" fill="white"/>
<path fill-rule="evenodd" clip-rule="evenodd" d="M118.203 81.2197C118.203 82.3721 118.32 83.583 118.438 84.7939C118.554 84.776 118.673 84.776 118.789 84.7939H132.461C130.176 82.5088 125 82.2549 121.68 82.3721C122.559 81.6494 123.438 80.9072 124.316 80.2236C128.329 80.1609 132.274 81.2524 135.684 83.3682L138.164 84.9111H141.699C141.699 84.0518 141.699 83.2314 141.816 82.4111C141.816 80.3018 141.816 78.1924 141.934 76.083C143.125 75.8291 144.297 75.5557 145.469 75.3408V87.5674H118.359C118.242 89.7158 117.656 93.4268 113.242 92.7432C112.484 92.1249 111.79 91.4313 111.172 90.6728C112.422 90.5557 114.004 90.6729 114.59 89.6377V81.708C116.426 81.5127 116.66 81.3369 118.203 81.2197ZM242.578 91.3174C242.578 90.8877 242.578 90.8877 243.398 90.0674L244.512 89.9502C244.563 89.5096 244.641 89.0726 244.746 88.6416C245.762 88.3585 246.82 88.2593 247.871 88.3486C248.281 88.6807 248.711 89.0713 249.121 89.4619C248.359 89.4619 247.598 89.6377 246.816 89.7744C247.871 89.7744 248.926 89.9893 250 90.1064L248.77 91.2197C246.719 91.2393 244.648 91.2783 242.578 91.3174Z" fill="white"/>
<path fill-rule="evenodd" clip-rule="evenodd" d="M125.625 90.8086C125.633 90.156 125.672 89.5042 125.742 88.8555H129.453V90.8086H125.625ZM87.2656 89.6953C87.2656 81.8828 87.2656 81.8828 87.3828 81.8828C87.3438 84.4414 87.2656 87.0586 87.2656 89.6953ZM108.184 75.3008V87.5273C108.184 87.6641 108.184 87.6641 104.629 87.6641C104.629 83.7578 104.746 79.8516 104.805 75.9453C105.938 75.75 107.07 75.5352 108.184 75.3008ZM244.824 87.5664V76.043C246.016 75.7891 247.188 75.5156 248.379 75.3008V87.5664H244.824ZM149.004 79.5586V75.9453L152.48 75.3008V83.6406C152.48 85.2227 152.363 86.2188 152.363 87.5469H148.887L149.004 79.5586ZM159.98 84.8711C159.98 84.9883 172.598 84.9883 172.598 84.8711C172.598 83.9141 172.715 82.918 172.754 82.0781L176.133 81.4336V86.8242C176.061 87.0587 176.022 87.3018 176.016 87.5469H158.047C155.801 86.5508 156.27 85.1445 156.27 83.3281C157.324 83.0742 158.457 82.8008 159.57 82.6055C159.746 83.2695 159.863 84.0508 159.98 84.8711ZM180.254 82.625V76.043C181.426 75.7891 182.617 75.5156 183.77 75.3008V82.0586C185.879 82.9766 185.879 83.1328 187.949 82.0586C187.949 80.1055 188.125 77.9961 188.242 75.9844C189.355 75.7305 190.547 75.5156 191.719 75.3008V82.625C191.016 82.9766 190.352 83.3672 189.766 83.7578C190.374 84.2098 191.029 84.596 191.719 84.9102C191.719 85.7695 191.719 86.6289 191.836 87.5469H180.176V84.9492C180.855 84.6003 181.508 84.2021 182.129 83.7578L180.254 82.625ZM108.184 87.5273V75.3008H108.418V87.5273H108.184Z" fill="white"/>
<path fill-rule="evenodd" clip-rule="evenodd" d="M101.113 81.5127C99.9817 81.5916 98.8583 81.7614 97.7539 82.0205C97.6367 82.9385 97.5586 83.8369 97.5195 84.7354H91.0742C90.9766 83.5244 90.8594 82.3721 90.8008 81.2002C89.6436 81.2837 88.4982 81.4866 87.3828 81.8057C87.3828 84.3838 87.2656 87.0205 87.2656 89.6182C86.2661 90.3585 85.0266 90.6997 83.7891 90.5752L85.7422 92.7627C91.0938 92.333 89.8633 90.8096 91.0937 87.6064H101.113V81.5127ZM195.859 82.9385V76.0635C197.015 75.7388 198.199 75.523 199.395 75.4189V85.0088H204.102V84.794C204.109 84.6 204.149 84.4087 204.219 84.2275C205.117 84.0127 205.996 83.8369 206.934 83.6611C207.003 84.0712 207.101 84.4758 207.227 84.8721H208.633C215.176 81.3369 226.367 76.6885 230.02 84.8721V85.0869H237.5V82.1572C238.613 81.9424 239.746 81.7275 240.918 81.5518C240.918 82.3721 241.035 83.1924 241.094 83.9932C241.094 85.2041 240.977 86.3955 240.977 87.6455H207.5C206.074 86.7861 206.035 86.9033 204.551 87.6455C201.836 87.6455 197.363 88.3682 195.84 86.4932C195.918 85.2041 195.859 84.0518 195.859 82.9385ZM226.387 84.794C225.02 80.79 217.266 83.544 214.355 84.6182C214.33 84.7009 214.33 84.7894 214.355 84.8721C218.359 84.833 222.363 84.7744 226.387 84.7744V84.794ZM162.109 81.7666V79.5596H165.781C165.781 80.3018 165.781 81.0244 165.898 81.7666H162.109ZM166.992 81.7666C166.992 80.9854 166.992 80.2627 167.109 79.54H170.762V81.6494L166.992 81.7666ZM91.9727 80.6924C91.8555 80.5752 91.8555 80.5752 92.793 79.3838H93.9844C93.9844 77.7432 94.8047 77.5283 96.9922 77.4307C97.5195 77.8604 98.0469 78.29 98.6328 78.7197C96.6797 78.9932 96.6797 78.9932 96.3281 79.1494C97.3242 79.1494 98.3789 79.1494 99.4336 79.3252C99.0234 79.7549 98.6719 80.1846 98.3203 80.6338C96.2305 80.6533 94.1211 80.6533 91.9727 80.6924ZM114.375 80.2236V78.0557H118.281V80.2236H114.375ZM231.562 80.0479V77.8994H235.469V80.0674L231.562 80.0479ZM236.328 80.0479V77.8994H240.234V80.0674L236.328 80.0479Z" fill="white"/>
<path fill-rule="evenodd" clip-rule="evenodd" d="M9.60938 96.9805V89.6758H16.8555V97L9.60938 96.9805Z" fill="white"/>
<path fill-rule="evenodd" clip-rule="evenodd" d="M62.5 79.0898C58.93 78.3732 55.4513 77.2595 52.1289 75.7695C37.3438 67.957 25.4883 58.1914 13.6523 48.4258C14.2969 48.582 20.5469 51.7852 25.6055 54.2852C27.0146 55.0072 28.5567 55.4326 30.1367 55.5352C30.1367 53.582 27.9492 51.2578 27.0117 49.4023C26.3086 45.4961 27.4805 44.0898 31.8359 41.707C47.0508 36.4336 65.7812 37.1953 78.5742 28.9727C79.3359 28.3281 80.0976 27.6836 80.9375 27.0195C82.692 25.3013 84.0284 23.2031 84.8437 20.8867C84.9463 20.7144 85.0865 20.5675 85.2539 20.457C96.4232 30.1102 105.117 42.2996 110.605 56.0039C110.543 56.1051 110.503 56.2182 110.488 56.3359C103.551 57.9204 96.8665 60.4575 90.625 63.875C90.4492 64.1094 88.9063 64.9297 83.4961 68.7969C78.7305 72.5859 78.7305 72.5859 73.7305 76.2578C70.3514 78.2965 66.4417 79.2824 62.5 79.0898Z" fill="white"/>
<path fill-rule="evenodd" clip-rule="evenodd" d="M103.711 104.032C100.234 105.185 97.8517 105.614 97.5782 105.771C91.76 106.114 85.9262 105.453 80.3321 103.817L74.0235 101.396C49.2189 89.833 31.6603 72.0986 15.4298 55.7315C12.7215 52.7888 10.0066 49.8591 7.28526 46.9424C6.99229 46.376 6.58213 45.9268 6.99229 45.3994C8.46887 45.729 9.90845 46.2067 11.2892 46.8252C11.2892 46.083 9.64854 45.0479 8.98448 44.4815C8.7501 44.0518 8.51573 43.6807 8.28135 43.3096C10.1985 43.7913 12.1643 44.0534 14.1407 44.0908C14.0708 43.6383 14.0317 43.1815 14.0235 42.7236C10.8009 37.919 5.66417 33.544 0.89854 29.2471C-0.292866 31.9815 0.000102308 35.4971 0.000102308 38.3486C0.11729 40.0869 0.234477 41.8643 0.410259 43.6416C2.08713 53.9307 5.70616 63.8068 11.0743 72.7432C11.3087 73.0752 11.5431 73.4072 11.7774 73.7979C11.844 73.9715 11.9435 74.1307 12.0704 74.2666V74.5596C13.6524 74.5596 15.254 74.5596 16.836 74.7158V81.1611H17.2462C17.584 81.8424 17.9759 82.4956 18.4181 83.1143C18.6611 83.4408 18.9219 83.7538 19.1993 84.0518C31.2501 97.5088 47.8321 111.806 73.3009 114.755H81.836C90.079 114.052 97.8715 110.694 104.043 105.185C104.57 104.481 105.156 103.817 105.742 103.231C105.059 103.427 104.356 103.739 103.711 104.032ZM67.1681 25.9854H61.8751C43.7306 25.2822 26.0548 21.8252 8.08604 20.458H3.41807C7.8126 11.2197 14.5704 4.36427 28.9454 0.848649C52.0509 -2.10057 70.1759 8.42677 83.7501 19.208C83.7306 24.208 73.1251 25.7315 67.1681 25.9854Z" fill="white"/>
<path fill-rule="evenodd" clip-rule="evenodd" d="M9.60938 81.9414V74.5586H12.0898C13.6719 74.5586 15.2734 74.5586 16.8555 74.7148V81.9414H9.60938Z" fill="white"/>
</g>
<defs>
<clipPath id="clip0_1036_2964">
<rect width="250" height="114.414" fill="white" transform="translate(0 0.339844)"/>
</clipPath>
</defs>
</svg>
