<svg width="128" height="128" viewBox="0 0 128 128" fill="none" xmlns="http://www.w3.org/2000/svg">
<g filter="url(#filter0_i_1039_3125)">
<g clip-path="url(#clip0_1039_3125)">
<rect x="0.363525" width="127.273" height="236.727" fill="#07142C"/>
<mask id="mask0_1039_3125" style="mask-type:alpha" maskUnits="userSpaceOnUse" x="-38" y="0" width="204" height="128">
<rect x="-37.7544" width="203.636" height="127.273" fill="#C4C4C4"/>
</mask>
<g mask="url(#mask0_1039_3125)">
<mask id="mask1_1039_3125" style="mask-type:alpha" maskUnits="userSpaceOnUse" x="-45" y="-7" width="225" height="148">
<rect x="179.26" y="140.754" width="223.6" height="146.822" transform="rotate(179.988 179.26 140.754)" fill="#F5288F"/>
</mask>
<g mask="url(#mask1_1039_3125)">
<g filter="url(#filter1_f_1039_3125)">
<circle cx="128.072" cy="125.273" r="78.1253" transform="rotate(179.988 128.072 125.273)" fill="#021526"/>
</g>
<g filter="url(#filter2_f_1039_3125)">
<circle cx="-81.0388" cy="67.4208" r="78.1253" transform="rotate(179.988 -81.0388 67.4208)" fill="#021526"/>
</g>
<g filter="url(#filter3_f_1039_3125)">
<circle cx="-36.2377" cy="135.097" r="56.9103" transform="rotate(179.988 -36.2377 135.097)" fill="#0C224B"/>
</g>
<g filter="url(#filter4_f_1039_3125)">
<circle cx="179.237" cy="26.9335" r="78.1253" transform="rotate(179.988 179.237 26.9335)" fill="#07264A"/>
</g>
<g filter="url(#filter5_f_1039_3125)">
<circle cx="46.5835" cy="147.517" r="65.329" transform="rotate(179.988 46.5835 147.517)" fill="#021526"/>
</g>
<path d="M169.827 145.471C91.7196 131.108 67.857 76.5917 31.1913 10.4326L197.411 64.4033C214.252 96.2132 232.313 156.96 169.827 145.471Z" fill="#07264A"/>
<g filter="url(#filter6_f_1039_3125)">
<path d="M164.334 146.283C86.227 131.92 81.578 92.0673 44.9123 25.9081L189.655 59.5586C206.497 91.3685 226.82 157.772 164.334 146.283Z" fill="#07264A"/>
</g>
<g filter="url(#filter7_f_1039_3125)">
<path d="M175.69 157.602C97.3621 144.172 96.325 104.822 61.9424 29.9785L206.811 62.9813C222.547 98.9982 238.352 168.346 175.69 157.602Z" fill="#07264A"/>
</g>
<g filter="url(#filter8_f_1039_3125)">
<circle cx="67.429" cy="-6.04439" r="65.329" transform="rotate(179.988 67.429 -6.04439)" fill="#021526"/>
</g>
<path d="M231.584 77.0232C112.661 85.8174 57.2934 15.6799 -21.0943 -66.5095L240.873 -51.2208C277.418 -11.4042 326.723 69.9877 231.584 77.0232Z" fill="#07264A"/>
<g filter="url(#filter9_f_1039_3125)">
<path d="M244.692 92.5808C125.769 101.375 109.317 52.6027 30.9295 -29.5867L253.981 -35.6631C290.526 4.15341 339.831 85.5454 244.692 92.5808Z" fill="#084E8C"/>
</g>
<g filter="url(#filter10_f_1039_3125)">
<path d="M213.034 73.0574C94.111 81.8517 77.6592 33.0793 -0.728486 -49.1102L222.323 -55.1866C258.868 -15.37 308.173 66.022 213.034 73.0574Z" fill="#084E8C"/>
</g>
<g filter="url(#filter11_f_1039_3125)">
<circle cx="169.127" cy="-6.06548" r="78.1253" transform="rotate(179.988 169.127 -6.06548)" fill="#021526"/>
</g>
<g filter="url(#filter12_f_1039_3125)">
<path d="M147.59 63.3096C147.584 36.5284 169.29 14.8133 196.071 14.8075C222.852 14.8018 244.567 36.5075 244.573 63.2887C244.579 90.0699 222.873 111.785 196.092 111.791C169.311 111.796 147.596 90.0907 147.59 63.3096Z" fill="#07264A"/>
</g>
<g filter="url(#filter13_f_1039_3125)">
<ellipse cx="65.4934" cy="21.1292" rx="41.7879" ry="30.404" transform="rotate(-180 65.4934 21.1292)" fill="#084882"/>
</g>
</g>
<g filter="url(#filter14_f_1039_3125)">
<ellipse cx="1.62203" cy="85.0606" rx="29.3545" ry="44.6319" transform="rotate(-34.1892 1.62203 85.0606)" fill="#0C224B"/>
</g>
<mask id="mask2_1039_3125" style="mask-type:alpha" maskUnits="userSpaceOnUse" x="-109" y="-14" width="219" height="173">
<path d="M91.9004 158.489L109.024 27.0798L-12.3854 -13.0685L-48.4289 -12.9786L-108.468 59.7731L-103.977 118.829L1.19051 143.867L91.9004 158.489Z" fill="url(#paint0_linear_1039_3125)"/>
</mask>
<g mask="url(#mask2_1039_3125)">
<mask id="mask3_1039_3125" style="mask-type:alpha" maskUnits="userSpaceOnUse" x="-113" y="-22" width="228" height="182">
<path d="M-112.814 114.077C-98.5923 54.697 -73.8663 -18.5396 -73.3537 -21.5434L114.251 23.9596L93.0643 159.456L-112.814 114.077Z" fill="url(#paint1_linear_1039_3125)"/>
</mask>
<g mask="url(#mask3_1039_3125)">
<path d="M-10.8479 13.6044C9.72227 18.5016 21.9524 43.8924 17.4119 62.9643C12.8713 82.0362 -1.4142 105.082 -23.4842 99.828C-34.421 97.2242 -50.7355 106.812 -61.4682 94.2209C-72.3937 81.4038 -63.1933 56.1081 -60.9028 46.4872C-56.3622 27.4153 -31.418 8.70714 -10.8479 13.6044Z" fill="#0C224B"/>
<g filter="url(#filter15_f_1039_3125)">
<path d="M-11.4833 15.1799C10.5777 20.432 22.4342 40.7068 18.909 55.5136C15.3839 70.3204 2.43434 87.77 -19.6267 82.5179C-30.559 79.9151 -46.281 87.038 -57.514 76.5723C-68.9489 65.9186 -61.1346 46.4397 -59.3563 38.9704C-55.8312 24.1636 -33.5443 9.92768 -11.4833 15.1799Z" fill="#0C224B"/>
</g>
<g filter="url(#filter16_f_1039_3125)">
<path d="M-9.8256 20.0316C14.9005 25.9182 27.7411 50.5247 23.3883 68.808C19.0355 87.0912 3.99431 108.864 -20.7318 102.977C-32.9848 100.06 -51.2906 110.919 -63.6806 98.3481C-76.2931 85.5518 -66.6186 59.8715 -64.4229 50.6485C-60.0701 32.3652 -34.5517 14.1449 -9.8256 20.0316Z" fill="#0C224B"/>
</g>
<g filter="url(#filter17_f_1039_3125)">
<path d="M-8.3841 26.6854C20.9634 38.911 40.0095 71.1453 34.3779 94.8C28.7463 118.455 7.16369 140.338 -22.4903 133.278C-37.1854 129.779 -62.2138 151.063 -76.8683 135.127C-91.7861 118.905 -79.7397 76.1207 -76.8989 64.188C-71.2673 40.5333 -42.3815 12.5228 -8.3841 26.6854Z" fill="#0C224B"/>
</g>
<g filter="url(#filter18_f_1039_3125)">
<path d="M-1.81533 34.584C30.1143 42.1857 52.627 79.7496 47.1209 102.877C41.6148 126.004 18.979 147.034 -12.9507 139.433C-28.7734 135.666 -50.0864 139.918 -66.1432 123.926C-82.4884 107.646 -80.4032 57.4699 -77.6256 45.8032C-72.1196 22.6759 -33.745 26.9824 -1.81533 34.584Z" fill="#0C224B"/>
</g>
<g filter="url(#filter19_f_1039_3125)">
<path d="M10.6948 47.3172C43.6911 55.1729 64.6761 93.1074 59.0445 116.762C53.4129 140.417 30.084 161.884 -2.91236 154.029C-19.2637 150.136 -36.0593 112.322 -52.6816 95.9172C-69.6025 79.2179 -57.425 48.0264 -54.5841 36.0938C-48.9525 12.4391 -22.3016 39.4616 10.6948 47.3172Z" fill="#0C224B"/>
</g>
<g filter="url(#filter20_f_1039_3125)">
<path d="M-12.0881 37.9193C16.6288 45.4138 33.2594 82.8702 27.1191 106.398C20.9789 129.926 -0.663941 151.445 -29.3808 143.95C-43.6115 140.236 -62.5234 141.985 -76.3729 125.857C-90.4711 109.438 -78.183 78.3705 -75.0856 66.5019C-68.9453 42.9741 -40.805 30.4248 -12.0881 37.9193Z" fill="#0C224B"/>
</g>
</g>
</g>
<mask id="mask4_1039_3125" style="mask-type:alpha" maskUnits="userSpaceOnUse" x="25" y="-117" width="326" height="294">
<path d="M25.646 29.1191C65.2191 92.2682 115.714 172.818 117.435 176.119L350.232 30.7561L258.443 -116.243L25.646 29.1191Z" fill="url(#paint2_linear_1039_3125)"/>
</mask>
<g mask="url(#mask4_1039_3125)">
<path d="M209.719 82.6299C235.976 66.2349 243.915 29.8114 231.242 9.51507C218.568 -10.7813 191.308 -30.7799 163.137 -13.1895C149.177 -4.47264 123.755 -7.45631 113.48 13.0073C103.021 33.8385 124.145 59.123 130.538 69.3616C143.212 89.6579 183.463 99.0249 209.719 82.6299Z" fill="#0C224B"/>
<g filter="url(#filter21_f_1039_3125)">
<path d="M208.319 81.089C236.479 63.5057 244.481 31.4621 233.587 14.016C222.693 -3.43015 197.773 -19.691 169.614 -2.1078C155.659 6.60555 131.151 5.06918 119.997 24.1092C108.642 43.4912 127.337 64.8893 132.833 73.69C143.726 91.1361 180.16 98.6722 208.319 81.089Z" fill="#0C224B"/>
</g>
<g filter="url(#filter22_f_1039_3125)">
<path d="M209.172 80.5568C240.734 60.8494 248.34 22.7538 234.91 1.24489C221.479 -20.264 191.946 -41.0551 160.385 -21.3478C144.745 -11.5818 115.177 -16.6653 103.283 5.64841C91.1757 28.363 114.93 56.8321 121.705 67.6823C135.136 89.1912 177.611 100.264 209.172 80.5568Z" fill="#0C224B"/>
</g>
<g filter="url(#filter23_f_1039_3125)">
<path d="M211.224 75.7342C246.897 46.1268 261.755 -1.92473 246.036 -27.0981C230.317 -52.2715 193.547 -67.1357 155.695 -43.5007C136.938 -31.7883 95.6937 -44.1682 81.2361 -17.7172C66.5188 9.20905 93.1155 40.3215 101.045 53.0202C116.764 78.1936 169.9 110.033 211.224 75.7342Z" fill="#0C224B"/>
</g>
<g filter="url(#filter24_f_1039_3125)">
<path d="M217.991 57.3485C258.747 31.8997 273.582 -22.4424 258.214 -47.0546C242.845 -71.6668 204.936 -84.9767 164.18 -59.5279C143.983 -46.9168 113.596 -40.9975 97.2535 -13.7581C80.6177 13.9707 107.132 44.0705 114.885 56.4862C130.253 81.0984 177.235 82.7973 217.991 57.3485Z" fill="#0C224B"/>
</g>
<g filter="url(#filter25_f_1039_3125)">
<path d="M227.72 37.6202C269.837 11.3212 285.382 -44.4924 269.664 -69.6658C253.945 -94.8391 214.945 -108.311 172.828 -82.0125C151.956 -68.9801 120.616 -62.7634 103.646 -34.744C86.3722 -6.22119 113.55 24.5282 121.48 37.2269C137.198 62.4003 185.602 63.9192 227.72 37.6202Z" fill="#0C224B"/>
</g>
<g filter="url(#filter26_f_1039_3125)">
<path d="M198.541 61.4039C235.394 38.3923 246.407 -14.5912 230.688 -39.7646C214.969 -64.938 178.721 -80.128 141.868 -57.1164C123.605 -45.713 97.2499 -38.5635 83.3802 -12.4795C69.2613 14.0731 95.7219 45.2705 103.651 57.9692C119.37 83.1426 161.688 84.4155 198.541 61.4039Z" fill="#0C224B"/>
</g>
</g>
<mask id="mask5_1039_3125" style="mask-type:alpha" maskUnits="userSpaceOnUse" x="-66" y="58" width="184" height="113">
<path d="M111.726 170.274L117.739 108.956L-63.3821 58.9214L-65.8792 128.153L111.726 170.274Z" fill="url(#paint3_linear_1039_3125)"/>
</mask>
<g mask="url(#mask5_1039_3125)">
<mask id="mask6_1039_3125" style="mask-type:alpha" maskUnits="userSpaceOnUse" x="-61" y="55" width="180" height="124">
<path d="M118.594 93.4138L106.228 178.173L-60.6189 130.109L-51.5187 55.7828L118.594 93.4138Z" fill="url(#paint4_linear_1039_3125)"/>
</mask>
<g mask="url(#mask6_1039_3125)">
<path d="M-0.363811 102.258C25.5177 127.438 54.7849 128.817 75.8448 127.543L93.0968 127.694L104.145 130.015L86.0441 152.072L54.1452 149.073L-17.4981 129.973C-17.4981 129.973 -73.1741 96.8853 -57.1315 96.575C-43.4206 94.6218 -27.2242 83.0843 -0.363811 102.258Z" fill="#0C224B"/>
<g filter="url(#filter27_f_1039_3125)">
<path d="M-0.363811 102.258C27.4407 124.055 27.7931 125.915 64.8747 128.045L93.0968 127.694L104.145 130.015L86.0441 152.072L54.1452 149.073L-17.4981 129.973C-17.4981 129.973 -73.1741 96.8853 -57.1315 96.575C-43.4206 94.6218 -27.2242 83.0843 -0.363811 102.258Z" fill="#0C224B"/>
</g>
<g filter="url(#filter28_f_1039_3125)">
<path d="M-0.363811 102.258C36.566 136.511 37.0184 124.619 74.1 126.749L84.8438 126.446L96.0467 127.667L104.145 130.015L86.0441 152.072L54.1452 149.073L-17.4981 129.973C-17.4981 129.973 -73.1741 96.8853 -57.1315 96.575C-43.4206 94.6218 -27.3785 79.4427 -0.363811 102.258Z" fill="#0C224B"/>
</g>
<g filter="url(#filter29_f_1039_3125)">
<path d="M-7.07263 98.2024C29.8572 132.455 33.6325 143.034 79.4437 126.703L90.1876 126.399L107.29 127.566L120.732 129.868L86.004 152.027L54.1051 149.028L-17.5381 129.928C-17.5381 129.928 -73.2141 96.8403 -57.1715 96.53C-43.4606 94.5768 -34.0873 75.3874 -7.07263 98.2024Z" fill="#0C224B"/>
</g>
<g filter="url(#filter30_f_1039_3125)">
<path d="M-8.02087 96.3052C16.6183 129.652 38.1141 136.352 72.0257 125.764L116.432 113.403L122.301 122.619L120.732 129.868L86.004 152.027L54.1051 149.028L-17.5381 129.928C-17.5381 129.928 -73.2141 96.8403 -57.1715 96.53C-43.4606 94.5768 -40.2334 59.7445 -8.02087 96.3052Z" fill="#0C224B"/>
</g>
</g>
</g>
</g>
<path d="M51.1493 91.363L51.1204 78.6358H73.4968C79.8845 78.6358 86.2718 84.9994 86.2718 91.363H51.1493Z" fill="#2AA4E7"/>
<path d="M51.1493 91.363L51.1204 78.6357H73.4968C79.8845 78.6357 86.2718 84.9993 86.2718 91.363H51.1493Z" fill="url(#paint5_linear_1039_3125)" fill-opacity="0.7"/>
<path d="M41.7271 36.2139H76.8784V48.9411H54.4543C48.0907 48.9411 41.7271 42.5775 41.7271 36.2139Z" fill="#2AA4E7"/>
<path d="M41.7271 36.2139H76.8784V48.9411H54.4543C48.0907 48.9411 41.7271 42.5775 41.7271 36.2139Z" fill="url(#paint6_linear_1039_3125)" fill-opacity="0.7"/>
<path d="M43.3942 78.667L72.0305 40.7568H81.4947L83.7804 50.2344L76.602 59.7119L62.2451 78.667C62.2451 78.667 61.879 79.0901 60.9699 81.0598C60.2485 84.0655 60.3858 84.7815 60.9274 86.1604C61.2569 86.9991 61.664 87.8126 62.2055 88.533C62.9443 89.516 63.5371 90.042 65.021 91.2122C65.0838 91.2617 65.0489 91.3628 64.9689 91.3628H47.9396H46.273C46.273 91.3628 41.7275 88.484 41.7275 83.6355C41.7275 81.8646 42.2982 80.1408 43.355 78.7198L43.3942 78.667Z" fill="#2AA4E7"/>
<path d="M43.3942 78.667L72.0305 40.7568H81.4947L83.7804 50.2344L76.602 59.7119L62.2451 78.667C62.2451 78.667 61.879 79.0901 60.9699 81.0598C60.2485 84.0655 60.3858 84.7815 60.9274 86.1604C61.2569 86.9991 61.664 87.8126 62.2055 88.533C62.9443 89.516 63.5371 90.042 65.021 91.2122C65.0838 91.2617 65.0489 91.3628 64.9689 91.3628H47.9396H46.273C46.273 91.3628 41.7275 88.484 41.7275 83.6355C41.7275 81.8646 42.2982 80.1408 43.355 78.7198L43.3942 78.667Z" fill="url(#paint7_linear_1039_3125)" fill-opacity="0.5"/>
<path d="M86.2717 56.5146L65.9688 36.2117L86.2717 36.2117L86.2717 56.5146Z" fill="#2AA4E7"/>
</g>
<rect x="2.48474" y="2.12121" width="123.03" height="123.03" rx="61.5152" stroke="url(#paint8_linear_1039_3125)" stroke-width="4.24242"/>
</g>
<defs>
<filter id="filter0_i_1039_3125" x="0.363525" y="0" width="127.273" height="127.272" filterUnits="userSpaceOnUse" color-interpolation-filters="sRGB">
<feFlood flood-opacity="0" result="BackgroundImageFix"/>
<feBlend mode="normal" in="SourceGraphic" in2="BackgroundImageFix" result="shape"/>
<feColorMatrix in="SourceAlpha" type="matrix" values="0 0 0 0 0 0 0 0 0 0 0 0 0 0 0 0 0 0 127 0" result="hardAlpha"/>
<feMorphology radius="4.24242" operator="dilate" in="SourceAlpha" result="effect1_innerShadow_1039_3125"/>
<feOffset/>
<feGaussianBlur stdDeviation="7.63636"/>
<feComposite in2="hardAlpha" operator="arithmetic" k2="-1" k3="1"/>
<feColorMatrix type="matrix" values="0 0 0 0 0.164706 0 0 0 0 0.643137 0 0 0 0 0.905882 0 0 0 1 0"/>
<feBlend mode="normal" in2="shape" result="effect1_innerShadow_1039_3125"/>
</filter>
<filter id="filter1_f_1039_3125" x="-28.1785" y="-30.9768" width="312.501" height="312.501" filterUnits="userSpaceOnUse" color-interpolation-filters="sRGB">
<feFlood flood-opacity="0" result="BackgroundImageFix"/>
<feBlend mode="normal" in="SourceGraphic" in2="BackgroundImageFix" result="shape"/>
<feGaussianBlur stdDeviation="39.0626" result="effect1_foregroundBlur_1039_3125"/>
</filter>
<filter id="filter2_f_1039_3125" x="-237.289" y="-88.8294" width="312.501" height="312.501" filterUnits="userSpaceOnUse" color-interpolation-filters="sRGB">
<feFlood flood-opacity="0" result="BackgroundImageFix"/>
<feBlend mode="normal" in="SourceGraphic" in2="BackgroundImageFix" result="shape"/>
<feGaussianBlur stdDeviation="39.0626" result="effect1_foregroundBlur_1039_3125"/>
</filter>
<filter id="filter3_f_1039_3125" x="-171.273" y="0.0612488" width="270.071" height="270.072" filterUnits="userSpaceOnUse" color-interpolation-filters="sRGB">
<feFlood flood-opacity="0" result="BackgroundImageFix"/>
<feBlend mode="normal" in="SourceGraphic" in2="BackgroundImageFix" result="shape"/>
<feGaussianBlur stdDeviation="39.0626" result="effect1_foregroundBlur_1039_3125"/>
</filter>
<filter id="filter4_f_1039_3125" x="22.9861" y="-129.317" width="312.501" height="312.501" filterUnits="userSpaceOnUse" color-interpolation-filters="sRGB">
<feFlood flood-opacity="0" result="BackgroundImageFix"/>
<feBlend mode="normal" in="SourceGraphic" in2="BackgroundImageFix" result="shape"/>
<feGaussianBlur stdDeviation="39.0626" result="effect1_foregroundBlur_1039_3125"/>
</filter>
<filter id="filter5_f_1039_3125" x="-96.8706" y="4.0632" width="286.908" height="286.908" filterUnits="userSpaceOnUse" color-interpolation-filters="sRGB">
<feFlood flood-opacity="0" result="BackgroundImageFix"/>
<feBlend mode="normal" in="SourceGraphic" in2="BackgroundImageFix" result="shape"/>
<feGaussianBlur stdDeviation="39.0626" result="effect1_foregroundBlur_1039_3125"/>
</filter>
<filter id="filter6_f_1039_3125" x="36.2431" y="17.2389" width="179.198" height="139.033" filterUnits="userSpaceOnUse" color-interpolation-filters="sRGB">
<feFlood flood-opacity="0" result="BackgroundImageFix"/>
<feBlend mode="normal" in="SourceGraphic" in2="BackgroundImageFix" result="shape"/>
<feGaussianBlur stdDeviation="4.33465" result="effect1_foregroundBlur_1039_3125"/>
</filter>
<filter id="filter7_f_1039_3125" x="44.0258" y="12.062" width="194.831" height="164.574" filterUnits="userSpaceOnUse" color-interpolation-filters="sRGB">
<feFlood flood-opacity="0" result="BackgroundImageFix"/>
<feBlend mode="normal" in="SourceGraphic" in2="BackgroundImageFix" result="shape"/>
<feGaussianBlur stdDeviation="8.95828" result="effect1_foregroundBlur_1039_3125"/>
</filter>
<filter id="filter8_f_1039_3125" x="-76.0252" y="-149.498" width="286.908" height="286.908" filterUnits="userSpaceOnUse" color-interpolation-filters="sRGB">
<feFlood flood-opacity="0" result="BackgroundImageFix"/>
<feBlend mode="normal" in="SourceGraphic" in2="BackgroundImageFix" result="shape"/>
<feGaussianBlur stdDeviation="39.0626" result="effect1_foregroundBlur_1039_3125"/>
</filter>
<filter id="filter9_f_1039_3125" x="10.0511" y="-56.5414" width="310.624" height="171.019" filterUnits="userSpaceOnUse" color-interpolation-filters="sRGB">
<feFlood flood-opacity="0" result="BackgroundImageFix"/>
<feBlend mode="normal" in="SourceGraphic" in2="BackgroundImageFix" result="shape"/>
<feGaussianBlur stdDeviation="10.4392" result="effect1_foregroundBlur_1039_3125"/>
</filter>
<filter id="filter10_f_1039_3125" x="-16.2189" y="-70.6769" width="299.848" height="160.243" filterUnits="userSpaceOnUse" color-interpolation-filters="sRGB">
<feFlood flood-opacity="0" result="BackgroundImageFix"/>
<feBlend mode="normal" in="SourceGraphic" in2="BackgroundImageFix" result="shape"/>
<feGaussianBlur stdDeviation="7.74518" result="effect1_foregroundBlur_1039_3125"/>
</filter>
<filter id="filter11_f_1039_3125" x="12.8762" y="-162.316" width="312.501" height="312.501" filterUnits="userSpaceOnUse" color-interpolation-filters="sRGB">
<feFlood flood-opacity="0" result="BackgroundImageFix"/>
<feBlend mode="normal" in="SourceGraphic" in2="BackgroundImageFix" result="shape"/>
<feGaussianBlur stdDeviation="39.0626" result="effect1_foregroundBlur_1039_3125"/>
</filter>
<filter id="filter12_f_1039_3125" x="69.4646" y="-63.3177" width="253.234" height="253.234" filterUnits="userSpaceOnUse" color-interpolation-filters="sRGB">
<feFlood flood-opacity="0" result="BackgroundImageFix"/>
<feBlend mode="normal" in="SourceGraphic" in2="BackgroundImageFix" result="shape"/>
<feGaussianBlur stdDeviation="39.0626" result="effect1_foregroundBlur_1039_3125"/>
</filter>
<filter id="filter13_f_1039_3125" x="-18.7187" y="-51.6987" width="168.424" height="145.656" filterUnits="userSpaceOnUse" color-interpolation-filters="sRGB">
<feFlood flood-opacity="0" result="BackgroundImageFix"/>
<feBlend mode="normal" in="SourceGraphic" in2="BackgroundImageFix" result="shape"/>
<feGaussianBlur stdDeviation="21.2121" result="effect1_foregroundBlur_1039_3125"/>
</filter>
<filter id="filter14_f_1039_3125" x="-68.4328" y="9.46779" width="140.11" height="151.186" filterUnits="userSpaceOnUse" color-interpolation-filters="sRGB">
<feFlood flood-opacity="0" result="BackgroundImageFix"/>
<feBlend mode="normal" in="SourceGraphic" in2="BackgroundImageFix" result="shape"/>
<feGaussianBlur stdDeviation="17.5732" result="effect1_foregroundBlur_1039_3125"/>
</filter>
<filter id="filter15_f_1039_3125" x="-65.0208" y="12.6605" width="85.9497" height="72.218" filterUnits="userSpaceOnUse" color-interpolation-filters="sRGB">
<feFlood flood-opacity="0" result="BackgroundImageFix"/>
<feBlend mode="normal" in="SourceGraphic" in2="BackgroundImageFix" result="shape"/>
<feGaussianBlur stdDeviation="0.702929" result="effect1_foregroundBlur_1039_3125"/>
</filter>
<filter id="filter16_f_1039_3125" x="-74.9581" y="13.9848" width="104.104" height="95.508" filterUnits="userSpaceOnUse" color-interpolation-filters="sRGB">
<feFlood flood-opacity="0" result="BackgroundImageFix"/>
<feBlend mode="normal" in="SourceGraphic" in2="BackgroundImageFix" result="shape"/>
<feGaussianBlur stdDeviation="2.46025" result="effect1_foregroundBlur_1039_3125"/>
</filter>
<filter id="filter17_f_1039_3125" x="-91.2146" y="15.8311" width="133.608" height="132.318" filterUnits="userSpaceOnUse" color-interpolation-filters="sRGB">
<feFlood flood-opacity="0" result="BackgroundImageFix"/>
<feBlend mode="normal" in="SourceGraphic" in2="BackgroundImageFix" result="shape"/>
<feGaussianBlur stdDeviation="3.51465" result="effect1_foregroundBlur_1039_3125"/>
</filter>
<filter id="filter18_f_1039_3125" x="-98.5077" y="9.54044" width="165.438" height="150.453" filterUnits="userSpaceOnUse" color-interpolation-filters="sRGB">
<feFlood flood-opacity="0" result="BackgroundImageFix"/>
<feBlend mode="normal" in="SourceGraphic" in2="BackgroundImageFix" result="shape"/>
<feGaussianBlur stdDeviation="9.48955" result="effect1_foregroundBlur_1039_3125"/>
</filter>
<filter id="filter19_f_1039_3125" x="-108.578" y="-20.5006" width="215.631" height="223.276" filterUnits="userSpaceOnUse" color-interpolation-filters="sRGB">
<feFlood flood-opacity="0" result="BackgroundImageFix"/>
<feBlend mode="normal" in="SourceGraphic" in2="BackgroundImageFix" result="shape"/>
<feGaussianBlur stdDeviation="23.5481" result="effect1_foregroundBlur_1039_3125"/>
</filter>
<filter id="filter20_f_1039_3125" x="-104.795" y="13.9631" width="154.974" height="153.294" filterUnits="userSpaceOnUse" color-interpolation-filters="sRGB">
<feFlood flood-opacity="0" result="BackgroundImageFix"/>
<feBlend mode="normal" in="SourceGraphic" in2="BackgroundImageFix" result="shape"/>
<feGaussianBlur stdDeviation="10.8954" result="effect1_foregroundBlur_1039_3125"/>
</filter>
<filter id="filter21_f_1039_3125" x="114.998" y="-11.0836" width="124.676" height="103.595" filterUnits="userSpaceOnUse" color-interpolation-filters="sRGB">
<feFlood flood-opacity="0" result="BackgroundImageFix"/>
<feBlend mode="normal" in="SourceGraphic" in2="BackgroundImageFix" result="shape"/>
<feGaussianBlur stdDeviation="0.702929" result="effect1_foregroundBlur_1039_3125"/>
</filter>
<filter id="filter22_f_1039_3125" x="94.9784" y="-34.1715" width="151.191" height="129.915" filterUnits="userSpaceOnUse" color-interpolation-filters="sRGB">
<feFlood flood-opacity="0" result="BackgroundImageFix"/>
<feBlend mode="normal" in="SourceGraphic" in2="BackgroundImageFix" result="shape"/>
<feGaussianBlur stdDeviation="2.46025" result="effect1_foregroundBlur_1039_3125"/>
</filter>
<filter id="filter23_f_1039_3125" x="69.8452" y="-62.4072" width="189.457" height="160.171" filterUnits="userSpaceOnUse" color-interpolation-filters="sRGB">
<feFlood flood-opacity="0" result="BackgroundImageFix"/>
<feBlend mode="normal" in="SourceGraphic" in2="BackgroundImageFix" result="shape"/>
<feGaussianBlur stdDeviation="3.51465" result="effect1_foregroundBlur_1039_3125"/>
</filter>
<filter id="filter24_f_1039_3125" x="72.8903" y="-92.235" width="210.24" height="186.916" filterUnits="userSpaceOnUse" color-interpolation-filters="sRGB">
<feFlood flood-opacity="0" result="BackgroundImageFix"/>
<feBlend mode="normal" in="SourceGraphic" in2="BackgroundImageFix" result="shape"/>
<feGaussianBlur stdDeviation="9.48955" result="effect1_foregroundBlur_1039_3125"/>
</filter>
<filter id="filter25_f_1039_3125" x="50.9096" y="-143.401" width="271.854" height="247.23" filterUnits="userSpaceOnUse" color-interpolation-filters="sRGB">
<feFlood flood-opacity="0" result="BackgroundImageFix"/>
<feBlend mode="normal" in="SourceGraphic" in2="BackgroundImageFix" result="shape"/>
<feGaussianBlur stdDeviation="23.5481" result="effect1_foregroundBlur_1039_3125"/>
</filter>
<filter id="filter26_f_1039_3125" x="57.5131" y="-90.242" width="201.921" height="189.832" filterUnits="userSpaceOnUse" color-interpolation-filters="sRGB">
<feFlood flood-opacity="0" result="BackgroundImageFix"/>
<feBlend mode="normal" in="SourceGraphic" in2="BackgroundImageFix" result="shape"/>
<feGaussianBlur stdDeviation="10.8954" result="effect1_foregroundBlur_1039_3125"/>
</filter>
<filter id="filter27_f_1039_3125" x="-61.7232" y="89.665" width="167.557" height="64.0959" filterUnits="userSpaceOnUse" color-interpolation-filters="sRGB">
<feFlood flood-opacity="0" result="BackgroundImageFix"/>
<feBlend mode="normal" in="SourceGraphic" in2="BackgroundImageFix" result="shape"/>
<feGaussianBlur stdDeviation="0.84428" result="effect1_foregroundBlur_1039_3125"/>
</filter>
<filter id="filter28_f_1039_3125" x="-62.6881" y="87.1688" width="169.487" height="67.5569" filterUnits="userSpaceOnUse" color-interpolation-filters="sRGB">
<feFlood flood-opacity="0" result="BackgroundImageFix"/>
<feBlend mode="normal" in="SourceGraphic" in2="BackgroundImageFix" result="shape"/>
<feGaussianBlur stdDeviation="1.32673" result="effect1_foregroundBlur_1039_3125"/>
</filter>
<filter id="filter29_f_1039_3125" x="-64.6579" y="82.5437" width="189.973" height="74.0669" filterUnits="userSpaceOnUse" color-interpolation-filters="sRGB">
<feFlood flood-opacity="0" result="BackgroundImageFix"/>
<feBlend mode="normal" in="SourceGraphic" in2="BackgroundImageFix" result="shape"/>
<feGaussianBlur stdDeviation="2.29162" result="effect1_foregroundBlur_1039_3125"/>
</filter>
<filter id="filter30_f_1039_3125" x="-67.5526" y="72.1959" width="197.332" height="87.3093" filterUnits="userSpaceOnUse" color-interpolation-filters="sRGB">
<feFlood flood-opacity="0" result="BackgroundImageFix"/>
<feBlend mode="normal" in="SourceGraphic" in2="BackgroundImageFix" result="shape"/>
<feGaussianBlur stdDeviation="3.73896" result="effect1_foregroundBlur_1039_3125"/>
</filter>
<linearGradient id="paint0_linear_1039_3125" x1="16.0651" y1="56.8266" x2="-52.665" y2="46.3155" gradientUnits="userSpaceOnUse">
<stop stop-color="#C4C4C4"/>
<stop offset="0.943414" stop-color="#C4C4C4" stop-opacity="0"/>
</linearGradient>
<linearGradient id="paint1_linear_1039_3125" x1="-10.4608" y1="22.4139" x2="-28.6019" y2="101.313" gradientUnits="userSpaceOnUse">
<stop stop-color="#C4C4C4"/>
<stop offset="1" stop-color="#C4C4C4" stop-opacity="0"/>
</linearGradient>
<linearGradient id="paint2_linear_1039_3125" x1="200.227" y1="92.055" x2="138.529" y2="-14.1353" gradientUnits="userSpaceOnUse">
<stop stop-color="#C4C4C4"/>
<stop offset="1" stop-color="#C4C4C4" stop-opacity="0"/>
</linearGradient>
<linearGradient id="paint3_linear_1039_3125" x1="25.9074" y1="118.575" x2="21.2587" y2="139.388" gradientUnits="userSpaceOnUse">
<stop stop-color="#C4C4C4"/>
<stop offset="1" stop-color="#C4C4C4" stop-opacity="0"/>
</linearGradient>
<linearGradient id="paint4_linear_1039_3125" x1="-57.728" y1="101.28" x2="105.879" y2="134.157" gradientUnits="userSpaceOnUse">
<stop stop-color="#C4C4C4" stop-opacity="0"/>
<stop offset="0.364583" stop-color="#C4C4C4"/>
<stop offset="0.609375" stop-color="#C4C4C4"/>
<stop offset="1" stop-color="#C4C4C4" stop-opacity="0"/>
</linearGradient>
<linearGradient id="paint5_linear_1039_3125" x1="86.2718" y1="84.9994" x2="43.2416" y2="84.9994" gradientUnits="userSpaceOnUse">
<stop stop-color="#2AA4E7"/>
<stop offset="1" stop-color="#0A60AD"/>
</linearGradient>
<linearGradient id="paint6_linear_1039_3125" x1="86.8784" y1="42.5775" x2="41.7271" y2="42.5775" gradientUnits="userSpaceOnUse">
<stop stop-color="#0A60AD"/>
<stop offset="1" stop-color="#2AA4E7"/>
</linearGradient>
<linearGradient id="paint7_linear_1039_3125" x1="76.8789" y1="47.272" x2="41.7275" y2="91.3627" gradientUnits="userSpaceOnUse">
<stop offset="0.373376" stop-color="#2AA4E7"/>
<stop offset="1" stop-color="#C3E6F8"/>
</linearGradient>
<linearGradient id="paint8_linear_1039_3125" x1="63.9999" y1="0" x2="63.9999" y2="127.273" gradientUnits="userSpaceOnUse">
<stop stop-color="#2AA4E7" stop-opacity="0"/>
<stop offset="1" stop-color="#A9EFFB"/>
</linearGradient>
<clipPath id="clip0_1039_3125">
<rect x="0.363525" width="127.273" height="127.273" rx="63.6364" fill="white"/>
</clipPath>
</defs>
</svg>
