<svg width="50" height="50" viewBox="0 0 50 50" fill="none" xmlns="http://www.w3.org/2000/svg">
<rect x="0.5" y="0.5" width="49" height="49" rx="24.5" fill="black" fill-opacity="0.01"/>
<rect x="0.5" y="0.5" width="49" height="49" rx="24.5" stroke="url(#paint0_linear_1039_3195)"/>
<circle cx="25" cy="25" r="20" fill="#FFFEFC"/>
<path d="M14.7476 14.3396L27.7552 13.3861C29.353 13.2499 29.7636 13.3417 30.7681 14.0666L34.9204 16.97C35.6052 17.4693 35.8333 17.6054 35.8333 18.1491V34.0724C35.8333 35.0702 35.4681 35.6606 34.1901 35.7508L19.0848 36.6584C18.1257 36.7036 17.6689 36.5674 17.1666 35.932L14.109 31.9856C13.5605 31.2592 13.3333 30.7155 13.3333 30.0801V15.9262C13.3333 15.1104 13.6984 14.4298 14.7476 14.3396Z" fill="white"/>
<path fill-rule="evenodd" clip-rule="evenodd" d="M27.7552 13.387L14.7476 14.3406C13.6984 14.4308 13.3333 15.1113 13.3333 15.9272V30.0811C13.3333 30.7165 13.5605 31.2602 14.109 31.9866L17.1666 35.933C17.6689 36.5684 18.1257 36.7045 19.0848 36.6594L34.1901 35.7518C35.4673 35.6615 35.8333 35.0712 35.8333 34.0733V18.1501C35.8333 17.6344 35.628 17.4859 35.0238 17.0457C34.989 17.0208 34.9543 16.9959 34.9196 16.971L30.7681 14.0676C29.7636 13.3427 29.353 13.2509 27.7552 13.387ZM19.4265 17.8892C18.1931 17.9717 17.9133 17.9904 17.2128 17.4249L15.4317 16.0187C15.2507 15.8367 15.3416 15.6096 15.7976 15.5645L28.3022 14.6576C29.3522 14.5666 29.8991 14.9298 30.3097 15.2472L32.4544 16.7895C32.5461 16.8354 32.7741 17.1068 32.4999 17.1068L19.5863 17.8784L19.4265 17.8892ZM17.9886 33.9369V20.4193C17.9886 19.829 18.1711 19.5567 18.7181 19.5109L33.5499 18.6491C34.0529 18.604 34.2802 18.9213 34.2802 19.5109V32.9383C34.2802 33.5286 34.1885 34.0279 33.3673 34.073L19.1741 34.8897C18.3529 34.9348 17.9886 34.6633 17.9886 33.9369ZM31.9991 21.1449C32.09 21.5532 31.9991 21.9615 31.5878 22.0082L30.9037 22.1427V32.1231C30.3097 32.4404 29.7628 32.6216 29.3059 32.6216C28.5756 32.6216 28.3931 32.3945 27.8461 31.7147L23.3726 24.7288V31.4876L24.7878 31.8057C24.7878 31.8057 24.7878 32.6224 23.6461 32.6224L20.4984 32.8036C20.4067 32.6216 20.4984 32.1682 20.8173 32.078L21.6393 31.8516V22.9151L20.4984 22.8233C20.4067 22.415 20.6347 21.8254 21.2742 21.7795L24.6514 21.554L29.3059 28.6301V22.3698L28.1196 22.2345C28.0279 21.7344 28.3931 21.3712 28.8491 21.3269L31.9991 21.1449Z" fill="black"/>
<defs>
<linearGradient id="paint0_linear_1039_3195" x1="25" y1="1" x2="25" y2="49" gradientUnits="userSpaceOnUse">
<stop stop-color="#A1A1A1"/>
<stop offset="1" stop-color="#E1E1E1"/>
</linearGradient>
</defs>
</svg>
