<svg width="68" height="68" viewBox="0 0 68 68" fill="none" xmlns="http://www.w3.org/2000/svg">
<rect x="1.33333" y="1.33333" width="65.3333" height="65.3333" rx="32.6667" fill="black" fill-opacity="0.01"/>
<rect x="1.33333" y="1.33333" width="65.3333" height="65.3333" rx="32.6667" stroke="url(#paint0_linear_1039_3216)" stroke-width="1.33333"/>
<circle cx="33.9999" cy="33.9997" r="26.6667" fill="#2C2C2C"/>
<path d="M28.4445 50.6668C31.5111 50.6668 34 48.1779 34 45.1112V39.5557H28.4445C25.3778 39.5557 22.8889 42.0446 22.8889 45.1112C22.8889 48.1779 25.3778 50.6668 28.4445 50.6668Z" fill="#0ACF83"/>
<path d="M22.8889 33.9999C22.8889 30.9332 25.3778 28.4443 28.4445 28.4443H34V39.5554H28.4445C25.3778 39.5554 22.8889 37.0666 22.8889 33.9999Z" fill="#A259FF"/>
<path d="M22.8889 22.8886C22.8889 19.8219 25.3778 17.333 28.4445 17.333H34V28.4441H28.4445C25.3778 28.4441 22.8889 25.9552 22.8889 22.8886Z" fill="#F24E1E"/>
<path d="M34 17.333H39.5556C42.6222 17.333 45.1111 19.8219 45.1111 22.8886C45.1111 25.9552 42.6222 28.4441 39.5556 28.4441H34V17.333Z" fill="#FF7262"/>
<path d="M45.1111 33.9999C45.1111 37.0666 42.6222 39.5554 39.5556 39.5554C36.4889 39.5554 34 37.0666 34 33.9999C34 30.9332 36.4889 28.4443 39.5556 28.4443C42.6222 28.4443 45.1111 30.9332 45.1111 33.9999Z" fill="#1ABCFE"/>
<defs>
<linearGradient id="paint0_linear_1039_3216" x1="34" y1="2" x2="34" y2="66" gradientUnits="userSpaceOnUse">
<stop stop-color="#A1A1A1"/>
<stop offset="1" stop-color="#E1E1E1"/>
</linearGradient>
</defs>
</svg>
