<svg width="50" height="50" viewBox="0 0 50 50" fill="none" xmlns="http://www.w3.org/2000/svg">
<rect x="0.5" y="0.5" width="49" height="49" rx="24.5" fill="black" fill-opacity="0.01"/>
<rect x="0.5" y="0.5" width="49" height="49" rx="24.5" stroke="url(#paint0_linear_1039_3274)"/>
<circle cx="25" cy="25" r="20" fill="url(#paint1_linear_1039_3274)"/>
<path fill-rule="evenodd" clip-rule="evenodd" d="M13.5504 31.4855L11.6667 38.3327L18.7056 36.4955C20.6523 37.5509 22.8336 38.104 25.0503 38.1041H25.056C32.3735 38.1041 38.3303 32.1753 38.3334 24.8899C38.3348 21.3832 36.9366 18.0197 34.4464 15.5396C31.9562 13.0594 28.5782 11.666 25.0558 11.666C17.7369 11.666 11.7811 17.5935 11.7782 24.8793C11.7754 27.1981 12.3866 29.4768 13.5504 31.4855ZM19.4348 34.3414L19.0317 34.1034L14.8549 35.1937L15.9699 31.1409L15.7072 30.7254C14.602 28.9746 14.0171 26.9482 14.0202 24.8805C14.0226 18.8248 18.9729 13.8983 25.0602 13.8983C31.155 13.9007 36.0939 18.8215 36.0915 24.8892C36.089 30.9453 31.1385 35.8725 25.056 35.8725H25.0517C23.0754 35.8727 21.1354 35.3438 19.4348 34.3414Z" fill="url(#paint2_linear_1039_3274)"/>
<path fill-rule="evenodd" clip-rule="evenodd" d="M21.7376 19.3555C21.4893 18.8055 21.2274 18.7945 20.9911 18.7851C20.7977 18.7768 20.5763 18.7773 20.3553 18.7773C20.0153 18.7862 19.6945 18.936 19.4704 19.1906C19.1663 19.5211 18.3091 20.32 18.3091 21.9449C18.3091 23.5699 19.498 25.1402 19.6638 25.361C19.8296 25.5817 21.9589 29.0223 25.3309 30.3462C28.1334 31.4464 28.7036 31.2276 29.312 31.1725C29.9203 31.1175 31.2747 30.374 31.5513 29.6025C31.8278 28.831 31.8277 28.1702 31.7448 28.0323C31.6618 27.8944 31.4406 27.8121 31.1088 27.6469C30.777 27.4818 29.1461 26.6826 28.8419 26.5725C28.5377 26.4623 28.3166 26.4073 28.0954 26.738C27.8741 27.0687 27.2387 27.8121 27.0449 28.0323C26.8512 28.2524 26.6578 28.2805 26.326 28.1154C25.9942 27.9502 24.9255 27.6013 23.6582 26.4762C22.672 25.6008 22.0061 24.5197 21.8126 24.1891C21.6191 23.8584 21.7918 23.6798 21.9583 23.5152C22.1072 23.3673 22.2901 23.1297 22.456 22.9368C22.6219 22.7439 22.6768 22.6063 22.7874 22.386C22.8981 22.1658 22.8427 21.9726 22.7597 21.8075C22.6768 21.6423 22.0325 20.0086 21.7376 19.3555Z" fill="white"/>
<defs>
<linearGradient id="paint0_linear_1039_3274" x1="25" y1="1" x2="25" y2="49" gradientUnits="userSpaceOnUse">
<stop stop-color="#A1A1A1"/>
<stop offset="1" stop-color="#E1E1E1"/>
</linearGradient>
<linearGradient id="paint1_linear_1039_3274" x1="45" y1="45" x2="45" y2="5" gradientUnits="userSpaceOnUse">
<stop stop-color="#20B038"/>
<stop offset="1" stop-color="#60D66A"/>
</linearGradient>
<linearGradient id="paint2_linear_1039_3274" x1="38.3334" y1="38.3327" x2="38.3334" y2="11.666" gradientUnits="userSpaceOnUse">
<stop stop-color="#F9F9F9"/>
<stop offset="1" stop-color="white"/>
</linearGradient>
</defs>
</svg>
