<svg width="56" height="68" viewBox="0 0 56 68" fill="none" xmlns="http://www.w3.org/2000/svg">
<rect x="-10.6667" y="1.33333" width="65.3333" height="65.3333" rx="32.6667" fill="black" fill-opacity="0.01"/>
<rect x="-10.6667" y="1.33333" width="65.3333" height="65.3333" rx="32.6667" stroke="url(#paint0_linear_1039_3254)" stroke-width="1.33333"/>
<circle cx="21.9999" cy="33.9997" r="26.6667" fill="#00005B"/>
<path fill-rule="evenodd" clip-rule="evenodd" d="M10.375 39.4993H18.1123L19.8205 44.4606C19.8573 44.6117 20.0007 44.712 20.1554 44.6948H24.5098C24.7107 44.695 24.7776 44.5835 24.7107 44.3602L17.1074 23.0581C17.0847 22.9465 16.9954 22.8907 16.8395 22.8907H11.5138C11.4492 22.8816 11.3841 22.9033 11.338 22.9494C11.2919 22.9954 11.2701 23.0605 11.2793 23.125C11.2779 23.5799 11.2331 24.0337 11.1453 24.4801C11.0833 24.7181 11.0211 24.9041 10.959 25.09C10.9542 25.1046 10.9493 25.1191 10.9444 25.1337L4.24545 44.3268C4.17828 44.5721 4.25644 44.6948 4.47992 44.6948H8.39877C8.58776 44.7039 8.75653 44.5775 8.80073 44.3937L10.375 39.4993ZM16.873 35.3718H11.5808C11.8932 34.4799 12.2114 33.5096 12.5354 32.4608C12.8588 31.4125 13.177 30.3864 13.4899 29.3826C13.7701 28.5029 14.0048 27.6095 14.1933 26.7058H14.2268C14.3609 27.1969 14.5116 27.7379 14.679 28.3286C14.8465 28.9197 15.0308 29.5332 15.2317 30.1689L15.8346 32.0761C16.0352 32.7121 16.225 33.3088 16.404 33.8661C16.5826 34.424 16.739 34.9259 16.873 35.3718Z" fill="#9999FF"/>
<path fill-rule="evenodd" clip-rule="evenodd" d="M30.4386 37.5931H37.037C37.2937 37.5931 37.544 37.6119 37.7878 37.6301C38.053 37.65 38.3107 37.6693 38.561 37.6633C39.0409 37.6521 39.4428 37.6298 39.7668 37.5964C40.0905 37.5629 40.3194 37.5462 40.4534 37.5462C40.6073 37.5462 40.7369 37.4312 40.7549 37.2785C40.7773 37.1 40.8052 36.81 40.8386 36.4085C40.8721 36.0072 40.8889 35.5611 40.8889 35.0702C40.8864 34.2069 40.7508 33.3492 40.4869 32.5272C40.2159 31.6742 39.7964 30.8757 39.2476 30.1683C38.6626 29.4459 37.9093 28.8776 37.0537 28.5131C36.0362 28.0664 34.9326 27.8494 33.8215 27.8774C32.4817 27.8774 31.3204 28.0494 30.3381 28.5288C29.3682 28.9984 28.5112 29.6718 27.826 30.5029C27.1312 31.3439 26.6027 32.309 26.2685 33.347C25.9215 34.4111 25.7462 35.5236 25.7493 36.6427C25.749 37.6677 25.8956 38.6874 26.1847 39.6708C26.4766 40.6672 26.9665 41.5946 27.625 42.3978C28.33 43.2502 29.2246 43.9262 30.2375 44.3719C31.309 44.8626 32.6376 45.108 34.2234 45.108C35.2119 45.1234 36.1994 45.0394 37.171 44.8571C37.8861 44.7402 38.5835 44.5327 39.2461 44.2395C39.307 44.2013 39.3585 44.1498 39.3968 44.089C39.4353 44.0112 39.4526 43.9246 39.4471 43.838V40.6594C39.4471 40.4586 39.391 40.4032 39.2796 40.4921C38.6823 40.7275 38.0586 40.8899 37.4222 40.9758C36.7106 41.1195 35.9876 41.1988 35.2618 41.2127C34.347 41.2322 33.4387 41.0543 32.5989 40.6913C31.9793 40.4306 31.4496 39.9944 31.075 39.4366C30.7362 38.8733 30.5194 38.2453 30.4386 37.5931ZM34.8263 34.5454H30.4385C30.5086 34.0302 30.6612 33.5296 30.8907 33.0629C31.4182 32.0377 32.5023 31.4208 33.654 31.4903C34.8851 31.4435 35.9956 32.2242 36.3671 33.3975C36.4492 33.6461 36.4943 33.9054 36.5011 34.1671V34.3679C36.353 34.4566 36.1871 34.5115 36.0153 34.5287C35.7586 34.5398 35.3622 34.5454 34.8263 34.5454Z" fill="#9999FF"/>
<defs>
<linearGradient id="paint0_linear_1039_3254" x1="22" y1="2" x2="22" y2="66" gradientUnits="userSpaceOnUse">
<stop stop-color="#A1A1A1"/>
<stop offset="1" stop-color="#E1E1E1"/>
</linearGradient>
</defs>
</svg>
