<svg width="68" height="68" viewBox="0 0 68 68" fill="none" xmlns="http://www.w3.org/2000/svg">
<rect x="1.33333" y="1.33333" width="65.3333" height="65.3333" rx="32.6667" fill="black" fill-opacity="0.01"/>
<rect x="1.33333" y="1.33333" width="65.3333" height="65.3333" rx="32.6667" stroke="url(#paint0_linear_1039_3206)" stroke-width="1.33333"/>
<circle cx="33.9999" cy="33.9997" r="26.6667" fill="#20232A"/>
<ellipse cx="33.9999" cy="33.9992" rx="3.16908" ry="3.10954" fill="#61DAFB"/>
<path d="M33.9995 26.8701C35.9224 26.8701 37.7762 26.9853 39.5132 27.2021L40.4497 27.3301L41.3599 27.4785L42.2446 27.6455C47.9036 28.7922 51.7778 31.1181 51.7778 33.999C51.7778 35.9934 49.9211 37.7222 46.9009 38.9775L46.2104 39.248C43.0215 40.4322 38.7198 41.1279 33.9995 41.1279C29.2794 41.1279 24.9785 40.4321 21.7896 39.248L21.0991 38.9775C18.0788 37.7222 16.2222 35.9934 16.2222 33.999C16.2222 31.1181 20.0964 28.7922 25.7554 27.6455L26.6401 27.4785L27.5503 27.3301L28.4858 27.2021C30.2228 26.9852 32.0766 26.8701 33.9995 26.8701ZM33.9995 28.3867C32.9816 28.3867 31.986 28.4215 31.021 28.4873L30.0669 28.5635C29.9096 28.5778 29.7526 28.5934 29.5972 28.6094L28.6763 28.7148C28.5249 28.734 28.3744 28.7537 28.2251 28.7744L27.3413 28.9082C21.6876 29.833 17.7681 31.8649 17.7681 33.999C17.7681 35.5313 19.7889 37.0114 23.021 38.0664L23.731 38.2852C24.7027 38.5687 25.7694 38.8154 26.9106 39.0166L27.7798 39.1592L28.6763 39.2832C30.3425 39.4943 32.1332 39.6113 33.9995 39.6113C35.866 39.6113 37.6574 39.4943 39.3237 39.2832L40.2202 39.1592L41.0894 39.0166C42.2305 38.8154 43.2964 38.5687 44.2681 38.2852L44.979 38.0664C48.2111 37.0114 50.2319 35.5313 50.2319 33.999C50.2319 31.8649 46.3116 29.8329 40.6577 28.9082L39.7749 28.7744C39.6256 28.7537 39.4751 28.734 39.3237 28.7148L38.4028 28.6094C38.2474 28.5934 38.0904 28.5778 37.9331 28.5635L36.979 28.4873C36.0139 28.4215 35.0176 28.3867 33.9995 28.3867Z" fill="#61DAFB"/>
<path d="M25.1111 18.8926C27.6538 17.4521 31.6435 19.581 35.4851 23.8164L36.075 24.4844L36.6609 25.1846L37.2419 25.915C38.3019 27.2827 39.3302 28.8004 40.2917 30.4346C41.2533 32.0687 42.0785 33.7016 42.7556 35.2861L43.1101 36.1455L43.4353 36.9932L43.7302 37.8281C45.5476 43.2102 45.4311 47.665 42.8884 49.1055C41.1281 50.1026 38.6745 49.3891 36.0564 47.4502L35.4714 47C32.8319 44.8822 30.0679 41.5745 27.7078 37.5635C25.3477 33.5525 23.8109 29.5499 23.2615 26.248L23.156 25.5254C22.7539 22.3313 23.3509 19.8898 25.1111 18.8926ZM35.1638 25.7949C31.5208 21.4531 27.7671 19.139 25.8835 20.2061C24.5316 20.9725 24.2359 23.4287 24.9207 26.7021L25.0828 27.416C25.3184 28.3835 25.6331 29.413 26.0261 30.4834L26.3357 31.293L26.6736 32.1172C27.3204 33.6387 28.1134 35.2187 29.0466 36.8047C29.9799 38.3907 30.9783 39.8546 31.9978 41.165L32.5554 41.8643L33.116 42.5322C33.8642 43.4014 34.6152 44.1842 35.3513 44.8682L35.9001 45.3623C38.4473 47.5812 40.7636 48.5581 42.116 47.792C43.9995 46.7248 43.8328 42.3781 41.822 37.1113L41.4988 36.2939L41.3259 35.8799L40.9587 35.0449C40.8951 34.9048 40.8304 34.7639 40.7644 34.623L40.3542 33.7744C39.9298 32.9214 39.4629 32.0575 38.9539 31.1924C38.4448 30.3273 37.9155 29.4991 37.3748 28.7119L36.8308 27.9385L36.5554 27.5625L36.0017 26.833L35.7234 26.4795L35.1638 25.7949Z" fill="#61DAFB"/>
<path d="M36.0564 20.5479C38.6745 18.609 41.1281 17.8954 42.8884 18.8926C45.4311 20.333 45.5476 24.7878 43.7302 30.1699L43.4353 31.0049L43.1101 31.8525L42.7556 32.7119C42.0785 34.2965 41.2533 35.9293 40.2917 37.5635C39.3302 39.1976 38.3019 40.7154 37.2419 42.083L36.6609 42.8135L36.075 43.5137L35.4851 44.1816C31.6435 48.417 27.6538 50.5459 25.1111 49.1055C23.3508 48.1082 22.7538 45.666 23.156 42.4717L23.2615 41.75C23.8109 38.4481 25.3477 34.4455 27.7078 30.4346C30.0678 26.4236 32.8319 23.1158 35.4714 20.998L36.0564 20.5479ZM42.116 20.2051C40.7636 19.4391 38.4473 20.4168 35.9001 22.6357L35.3513 23.1299C34.6153 23.8138 33.8641 24.5958 33.116 25.4648L32.5554 26.1328L31.9978 26.833C30.9784 28.1433 29.9798 29.6065 29.0466 31.1924C28.1134 32.7783 27.3204 34.3584 26.6736 35.8799L26.3357 36.7041L26.0261 37.5146C25.6332 38.5848 25.3183 39.6137 25.0828 40.5811L24.9207 41.2949C24.2358 44.5687 24.5314 47.0257 25.8835 47.792C27.7671 48.8591 31.5207 46.5441 35.1638 42.2021L35.7234 41.5186L36.0017 41.165L36.5554 40.4346L36.8308 40.0586L37.3748 39.2861C37.9155 38.4989 38.4448 37.6698 38.9539 36.8047C39.4628 35.9397 39.9299 35.0765 40.3542 34.2236L40.7644 33.374L40.9587 32.9521L41.3259 32.1172L41.4988 31.7041L41.822 30.8867C43.8328 25.6199 43.9996 21.2722 42.116 20.2051Z" fill="#61DAFB"/>
<defs>
<linearGradient id="paint0_linear_1039_3206" x1="34" y1="2" x2="34" y2="66" gradientUnits="userSpaceOnUse">
<stop stop-color="#A1A1A1"/>
<stop offset="1" stop-color="#E1E1E1"/>
</linearGradient>
</defs>
</svg>
