<svg width="68" height="68" viewBox="0 0 68 68" fill="none" xmlns="http://www.w3.org/2000/svg">
<rect x="1.33333" y="1.33333" width="65.3333" height="65.3333" rx="32.6667" fill="black" fill-opacity="0.01"/>
<rect x="1.33333" y="1.33333" width="65.3333" height="65.3333" rx="32.6667" stroke="url(#paint0_linear_1039_3196)" stroke-width="1.33333"/>
<circle cx="33.9999" cy="33.9997" r="26.6667" fill="#330000"/>
<path fill-rule="evenodd" clip-rule="evenodd" d="M25.4803 40.2172H32.9494L34.5958 44.877C34.6359 45.0141 34.7765 45.112 34.917 45.0924H39.1133C39.3141 45.0924 39.3743 44.9945 39.3141 44.7791L31.9856 24.6127C31.9655 24.5148 31.8852 24.4561 31.7246 24.4561H26.5846H26.5244C26.424 24.4756 26.3437 24.5735 26.3638 24.6714C26.3638 25.1022 26.3236 25.5329 26.2433 25.9441C26.1864 26.1105 26.1396 26.2672 26.0957 26.414C26.0776 26.4744 26.0601 26.5331 26.0425 26.5902L19.5774 44.74C19.5172 44.9749 19.5774 45.0924 19.7983 45.0924H23.5729C23.7536 45.112 23.9143 44.9945 23.9544 44.8183L25.4803 40.2172ZM31.7447 36.2425H26.6449C26.946 35.4202 27.2472 34.4999 27.5283 33.5014C27.7272 32.8953 27.9184 32.2893 28.1066 31.6925C28.2224 31.3253 28.3372 30.9617 28.4519 30.6037C28.733 29.7618 28.9538 28.9199 29.1345 28.078H29.1747C29.253 28.3399 29.3314 28.614 29.4132 28.9003C29.4782 29.1276 29.5453 29.3626 29.6164 29.6052C29.777 30.173 29.9577 30.7408 30.1585 31.3477C30.2589 31.6512 30.3543 31.9498 30.4496 32.2484C30.545 32.5469 30.6404 32.8455 30.7408 33.149C30.9215 33.7364 31.1022 34.3042 31.2829 34.8328C31.4636 35.3418 31.6242 35.8313 31.7447 36.2425Z" fill="#FF9A00"/>
<path fill-rule="evenodd" clip-rule="evenodd" d="M41.904 27.1177C42.3859 27.5681 43.0284 27.8226 43.691 27.803C44.3736 27.8422 45.0563 27.5876 45.5181 27.1177C45.9999 26.6283 46.2409 25.9822 46.2208 25.3165C46.2409 24.6704 45.9999 24.0438 45.5582 23.5739C45.1165 23.1236 44.5142 22.8887 43.7311 22.8887C43.0686 22.8887 42.4261 23.1236 41.9442 23.5739C41.4623 24.0243 41.2013 24.6508 41.2214 25.3165C41.2013 25.9822 41.4422 26.6283 41.904 27.1177ZM41.4422 29.7219V44.7978C41.4422 44.9936 41.5426 45.111 41.7434 45.111H45.6787C45.8594 45.111 45.9397 45.0132 45.9397 44.7978V29.7219C45.9397 29.5457 45.8594 29.4478 45.6787 29.4478H41.7032C41.5225 29.4478 41.4422 29.5261 41.4422 29.7219Z" fill="#FF9A00"/>
<defs>
<linearGradient id="paint0_linear_1039_3196" x1="34" y1="2" x2="34" y2="66" gradientUnits="userSpaceOnUse">
<stop stop-color="#A1A1A1"/>
<stop offset="1" stop-color="#E1E1E1"/>
</linearGradient>
</defs>
</svg>
