<svg width="50" height="50" viewBox="0 0 50 50" fill="none" xmlns="http://www.w3.org/2000/svg">
<rect x="0.5" y="0.5" width="49" height="49" rx="24.5" fill="black" fill-opacity="0.01"/>
<rect x="0.5" y="0.5" width="49" height="49" rx="24.5" stroke="url(#paint0_linear_1039_3247)"/>
<circle cx="25" cy="25" r="20" fill="#001E36"/>
<path fill-rule="evenodd" clip-rule="evenodd" d="M14.1667 16.9284V32.808C14.1667 32.9469 14.2268 33.0086 14.3468 33.0086H17.1975H17.2575C17.3625 32.9932 17.4376 32.9006 17.4226 32.7926V27.8389H17.4226C17.7077 27.8389 17.9177 27.8389 18.0677 27.8543C18.2178 27.8697 18.4578 27.8697 18.8179 27.8697C20.0482 27.8697 21.1735 27.7308 22.1938 27.345C23.169 26.9747 24.0092 26.3265 24.6094 25.4623C25.2095 24.5981 25.5096 23.5024 25.5096 22.1753C25.5096 21.4808 25.3896 20.8172 25.1645 20.1691C24.9244 19.5055 24.5493 18.9037 24.0692 18.4098C23.4991 17.8389 22.8089 17.4068 22.0587 17.1444C21.2185 16.8203 20.1983 16.666 18.9679 16.666C18.5178 16.666 18.0677 16.666 17.6026 16.6814C17.3781 16.6889 17.1605 16.6928 16.9499 16.6965C16.7244 16.7005 16.5068 16.7043 16.2973 16.7123C16.1008 16.7198 15.9114 16.7237 15.7273 16.7274C15.5319 16.7314 15.3424 16.7352 15.157 16.7432C14.8119 16.7586 14.5718 16.7586 14.3168 16.7586C14.2118 16.7586 14.1667 16.8203 14.1667 16.9284ZM17.4376 24.9224V19.7373C17.5426 19.7218 17.7526 19.7064 18.0527 19.7218C18.3378 19.7064 18.6829 19.7064 19.073 19.7064C19.6881 19.691 20.2883 19.7836 20.8434 20.015C21.2785 20.1848 21.6386 20.4934 21.8937 20.8947C22.1337 21.3113 22.2538 21.7897 22.2388 22.2681C22.2388 22.9471 22.0887 23.4718 21.7736 23.8576C21.4436 24.2434 21.0235 24.5366 20.5433 24.6755C19.9882 24.8607 19.4031 24.9533 18.8179 24.9533H18.0227C17.8556 24.9533 17.6755 24.94 17.4826 24.9258C17.4677 24.9247 17.4526 24.9236 17.4376 24.9224Z" fill="#31A8FF"/>
<path d="M34.8719 23.9818C34.4218 23.7349 33.9417 23.5651 33.4315 23.4571C32.8764 23.3336 32.3212 23.2565 31.7511 23.2565C31.451 23.2411 31.136 23.2874 30.8509 23.3645C30.6558 23.4108 30.4908 23.5188 30.3858 23.6732C30.3107 23.7966 30.2657 23.9509 30.2657 24.0898C30.2657 24.2287 30.3258 24.3676 30.4158 24.4911C30.5508 24.6608 30.7309 24.7997 30.9259 24.9077C31.271 25.0929 31.6311 25.2627 31.9912 25.417C32.8014 25.6948 33.5816 26.0806 34.3017 26.5435C34.7969 26.8676 35.202 27.2997 35.487 27.8244C35.7271 28.3182 35.8471 28.8583 35.8321 29.4139C35.8471 30.1392 35.6371 30.8645 35.247 31.4664C34.8269 32.0836 34.2417 32.562 33.5666 32.8398C32.8314 33.1639 31.9312 33.3336 30.8509 33.3336C30.1607 33.3336 29.4855 33.2719 28.8104 33.133C28.2852 33.0404 27.7601 32.8707 27.28 32.6392C27.175 32.5775 27.0999 32.4694 27.1149 32.346V29.6608C27.1149 29.6145 27.13 29.5528 27.175 29.5219C27.22 29.4911 27.265 29.5065 27.31 29.5373C27.8951 29.8923 28.5103 30.1392 29.1705 30.2935C29.7406 30.4478 30.3408 30.525 30.9409 30.525C31.511 30.525 31.9161 30.4478 32.1862 30.309C32.4263 30.2009 32.5913 29.9386 32.5913 29.6608C32.5913 29.4448 32.4713 29.2441 32.2312 29.0435C31.9912 28.8429 31.496 28.6114 30.7609 28.3182C29.9957 28.0404 29.2905 27.6701 28.6303 27.2071C28.1652 26.8676 27.7751 26.4201 27.49 25.8954C27.25 25.4015 27.13 24.8614 27.145 24.3213C27.145 23.6577 27.325 23.025 27.6551 22.454C28.0302 21.8367 28.5853 21.3429 29.2305 21.0343C29.9357 20.6639 30.8209 20.4941 31.8861 20.4941C32.5013 20.4941 33.1315 20.5404 33.7466 20.633C34.1967 20.6948 34.6318 20.8182 35.0369 20.988C35.0969 21.0034 35.157 21.0651 35.187 21.1269C35.202 21.1886 35.217 21.2503 35.217 21.312V23.8275C35.217 23.8892 35.187 23.9509 35.142 23.9818C35.0069 24.0127 34.9319 24.0127 34.8719 23.9818Z" fill="#31A8FF"/>
<defs>
<linearGradient id="paint0_linear_1039_3247" x1="25" y1="1" x2="25" y2="49" gradientUnits="userSpaceOnUse">
<stop stop-color="#A1A1A1"/>
<stop offset="1" stop-color="#E1E1E1"/>
</linearGradient>
</defs>
</svg>
