<svg width="44" height="50" viewBox="0 0 44 50" fill="none" xmlns="http://www.w3.org/2000/svg">
<rect x="0.5" y="0.5" width="49" height="49" rx="24.5" fill="black" fill-opacity="0.01"/>
<rect x="0.5" y="0.5" width="49" height="49" rx="24.5" stroke="url(#paint0_linear_1039_3291)"/>
<circle cx="25" cy="25" r="20" fill="black"/>
<path d="M25 11.667C17.6333 11.667 11.6666 17.5934 11.6666 24.9104C11.6666 30.7706 15.4833 35.7203 20.7833 37.475C21.45 37.5909 21.7 37.1936 21.7 36.846C21.7 36.5314 21.6833 35.4885 21.6833 34.3794C18.3333 34.9919 17.4666 33.5682 17.2 32.8233C17.05 32.4425 16.4 31.2672 15.8333 30.9527C15.3666 30.7043 14.7 30.0918 15.8166 30.0753C16.8666 30.0587 17.6166 31.0354 17.8666 31.4327C19.0666 33.4358 20.9833 32.873 21.75 32.5253C21.8666 31.6645 22.2166 31.0851 22.6 30.754C19.6333 30.4229 16.5333 29.2807 16.5333 24.2151C16.5333 22.7749 17.05 21.583 17.9 20.6559C17.7666 20.3249 17.3 18.9674 18.0333 17.1464C18.0333 17.1464 19.15 16.7988 21.7 18.5039C22.7666 18.2059 23.9 18.0569 25.0333 18.0569C26.1666 18.0569 27.3 18.2059 28.3666 18.5039C30.9166 16.7822 32.0333 17.1464 32.0333 17.1464C32.7666 18.9674 32.3 20.3249 32.1666 20.6559C33.0166 21.583 33.5333 22.7583 33.5333 24.2151C33.5333 29.2972 30.4166 30.4229 27.45 30.754C27.9333 31.1679 28.35 31.9625 28.35 33.204C28.35 34.9753 28.3333 36.399 28.3333 36.846C28.3333 37.1936 28.5833 37.6075 29.25 37.475C34.6774 35.6551 38.3318 30.6001 38.3333 24.9104C38.3333 17.5934 32.3666 11.667 25 11.667Z" fill="white"/>
<defs>
<linearGradient id="paint0_linear_1039_3291" x1="25" y1="1" x2="25" y2="49" gradientUnits="userSpaceOnUse">
<stop stop-color="#A1A1A1"/>
<stop offset="1" stop-color="#E1E1E1"/>
</linearGradient>
</defs>
</svg>
