<svg width="1394" height="1726" viewBox="0 0 1394 1726" fill="none" xmlns="http://www.w3.org/2000/svg">
<path d="M295.156 1725.54L294.25 1327.38H994.285C1194.12 1327.38 1393.94 1526.46 1393.94 1725.54H295.156Z" fill="#2AA4E7"/>
<path d="M295.156 1725.54L294.25 1327.38H994.285C1194.12 1327.38 1393.94 1526.46 1393.94 1725.54H295.156Z" fill="url(#paint0_linear_209_5)" fill-opacity="0.7"/>
<path d="M0.1875 0.190521H1099.88V398.354H398.352C199.271 398.354 0.1875 199.272 0.1875 0.190521Z" fill="#2AA4E7"/>
<path d="M0.1875 0.190521H1099.88V398.354H398.352C199.271 398.354 0.1875 199.272 0.1875 0.190521Z" fill="url(#paint1_linear_209_5)" fill-opacity="0.7"/>
<path d="M52.328 1328.38L948.197 142.378H1244.28L1315.79 438.877L1091.21 735.377L642.066 1328.38C642.066 1328.38 630.614 1341.61 602.173 1403.23C578.926 1500.09 584.182 1520.95 602.41 1566.76C611.791 1590.33 623.23 1613.21 638.294 1633.62C662.732 1666.75 680.95 1683.04 729.495 1721.3C731.262 1722.7 730.293 1725.55 728.042 1725.55H194.53H142.389C142.389 1725.55 0.1875 1635.49 0.1875 1483.81C0.1875 1428.41 18.0409 1374.48 51.1008 1330.03L52.328 1328.38Z" fill="#2AA4E7"/>
<path d="M52.328 1328.38L948.197 142.378H1244.28L1315.79 438.877L1091.21 735.377L642.066 1328.38C642.066 1328.38 630.614 1341.61 602.173 1403.23C578.926 1500.09 584.182 1520.95 602.41 1566.76C611.791 1590.33 623.23 1613.21 638.294 1633.62C662.732 1666.75 680.95 1683.04 729.495 1721.3C731.262 1722.7 730.293 1725.55 728.042 1725.55H194.53H142.389C142.389 1725.55 0.1875 1635.49 0.1875 1483.81C0.1875 1428.41 18.0409 1374.48 51.1008 1330.03L52.328 1328.38Z" fill="url(#paint2_linear_209_5)" fill-opacity="0.5"/>
<path d="M1393.78 635.347L758.615 0.180303L1393.78 0.180359L1393.78 635.347Z" fill="#2AA4E7"/>
<defs>
<linearGradient id="paint0_linear_209_5" x1="1393.94" y1="1526.46" x2="47.7675" y2="1526.46" gradientUnits="userSpaceOnUse">
<stop stop-color="#2AA4E7"/>
<stop offset="1" stop-color="#0A60AD"/>
</linearGradient>
<linearGradient id="paint1_linear_209_5" x1="1412.72" y1="199.273" x2="0.1875" y2="199.273" gradientUnits="userSpaceOnUse">
<stop stop-color="#0A60AD"/>
<stop offset="1" stop-color="#2AA4E7"/>
</linearGradient>
<linearGradient id="paint2_linear_209_5" x1="1099.88" y1="346.2" x2="0.187583" y2="1725.55" gradientUnits="userSpaceOnUse">
<stop offset="0.373376" stop-color="#2AA4E7"/>
<stop offset="1" stop-color="#C3E6F8"/>
</linearGradient>
</defs>
</svg>
