<svg width="809" height="300" viewBox="0 0 809 300" fill="none" xmlns="http://www.w3.org/2000/svg">
<path d="M531.211 3.7221C474.788 0.557344 443.093 0.874307 411.397 1.19127C279.467 7.06936 226.18 12.1794 152.848 16.8281C79.516 21.4768 58.8483 24.3281 20.8482 38.3281C7.42772 43.2725 -6.65216 55.3281 5.84784 63.3281C15.4019 69.4427 21.8475 85.8281 142.847 85.8281C282.264 85.8281 519.932 89.2881 655.995 86.7693C733.848 85.3281 741.421 79.9981 760.348 78.3281C777.348 76.8281 806.955 63.687 807.348 54.8281C807.912 42.1227 788.801 30.3651 763.848 25.8281C747.348 22.8281 746.848 22.2978 718.801 19.1905C667.824 13.5429 587.634 6.88685 531.211 3.7221Z" fill="url(#paint0_linear_1140_3431)"/>
<path d="M804.001 60.3281C759.001 87.8281 762.501 82.4138 743.501 100.328C724.501 118.242 731.156 109.219 713.501 132.828C705.134 144.016 697.589 158.438 693.001 168.328C689.55 176.749 684.826 189.721 683.999 194.828M1.4991 59.8281C39.9991 88.8281 41.4995 82.4138 60.4995 100.328C79.4995 118.242 72.8442 109.219 90.4995 132.828C98.8657 144.016 106.411 158.438 110.999 168.328C114.45 176.749 119.174 189.721 120.001 194.828H684.999M411.397 1.19127C443.093 0.874307 474.788 0.557344 531.211 3.7221C587.634 6.88685 667.824 13.5429 718.801 19.1905C746.848 22.2978 747.348 22.8281 763.848 25.8281C788.801 30.3651 807.912 42.1227 807.348 54.8281C806.955 63.687 777.348 76.8281 760.348 78.3281C741.421 79.9981 733.848 85.3281 655.995 86.7693C519.932 89.2881 282.264 85.8281 142.847 85.8281C21.8475 85.8281 15.4019 69.4427 5.84784 63.3281C-6.65216 55.3281 7.42772 43.2725 20.8482 38.3281C58.8483 24.3281 79.516 21.4768 152.848 16.8281C226.18 12.1794 279.467 7.06936 411.397 1.19127Z" stroke="black" stroke-width="2" stroke-linecap="round"/>
<path d="M807.348 54.8281C806.955 63.687 777.348 76.8281 760.348 78.3281C748.564 79.3678 741.182 81.8262 718.5 83.8816C708.807 84.7599 696.319 85.5647 679.5 86.1537M20.8482 38.3281C7.42772 43.2725 -6.65216 55.3281 5.84784 63.3281C15.4019 69.4427 21.8475 85.8281 142.847 85.8281C251.845 85.8281 420.898 87.943 554.5 87.6622L580.25 87.3515M804.001 60.3281C796 66.2248 773.082 78.5443 766 82.7271M745 98.5C738.493 104.635 733.496 109.439 731 111.648C727.007 115.181 720.579 123.096 713.5 132.5M683.999 194.828C684.826 189.721 689.55 176.749 693.001 168.328C695.439 163.072 698.712 156.537 702.5 149.887M1.4991 59.8281C39.9991 88.8281 41.4995 82.4138 60.4995 100.328M90.4995 132.828C94.7799 138.552 98.8456 145.123 102.41 151.5M684.999 194.828H120.001C119.523 191.878 113.082 173.305 111 167.5M58.5 26.92C67.6024 24.9104 77.2529 23.3489 88.7256 22C105.132 20.071 125.264 18.5767 152.848 16.8281C226.18 12.1794 279.467 7.06936 411.397 1.19127C443.093 0.874307 474.788 0.557344 531.211 3.7221C587.634 6.88685 667.824 13.5429 718.801 19.1905C746.848 22.2978 747.348 22.8281 763.848 25.8281C771.394 27.2001 778.405 29.2324 784.5 31.7515" stroke="black" stroke-width="2" stroke-linecap="round"/>
<path d="M92.5 85L441.5 88H616.5L712.5 84.5L735 82.5L757 79L778 75.2907L793.5 67L772 78.5L754 90.5L737.5 105.5L720.5 123L704.5 154.5L694.5 185L698.5 276.5L105.75 299.5L109.5 189L105.75 163L97 140.5L76.5 114.5L58.5 98L44 87L19.5 72.5L49.5 81L92.5 85Z" fill="#D9D9D9"/>
<path d="M92.5 85L441.5 88H616.5L712.5 84.5L735 82.5L757 79L778 75.2907L793.5 67L772 78.5L754 90.5L737.5 105.5L720.5 123L704.5 154.5L694.5 185L698.5 276.5L105.75 299.5L109.5 189L105.75 163L97 140.5L76.5 114.5L58.5 98L44 87L19.5 72.5L49.5 81L92.5 85Z" fill="url(#paint1_linear_1140_3431)"/>
<path fill-rule="evenodd" clip-rule="evenodd" d="M16.8324 70.9116C12.8287 68.1606 8.25668 64.8886 2.96374 60.9286C3.69724 61.7594 4.65063 62.5628 5.84784 63.329C6.87025 63.9834 7.85705 64.7553 8.95245 65.6122C10.9369 67.1646 13.2778 68.9958 16.8324 70.9116Z" fill="url(#paint2_linear_1140_3431)"/>
<path d="M718.801 19.1914C746.848 22.2987 747.348 22.829 763.848 25.829M277 85.5C283.964 85.3711 293.275 85.466 304.5 85.6898M20.8482 38.329C8.71309 42.7998 -3.96115 53.0849 2.96374 60.9286M804.001 60.329C796.747 64.762 790.753 68.3396 785.722 71.2976M693.001 168.329C689.55 176.75 684.826 189.722 683.999 194.829H120.001H684.999M1.45004 58.5C1.94432 58.8723 2.48155 60.5678 2.96374 60.9286M90.4995 132.829C72.8442 109.219 79.4995 118.243 60.4995 100.329C44.4209 85.1693 40.8742 87.4317 16.8324 70.9116M785.722 71.2976C777.133 74.9346 767.595 77.6896 760.348 78.329C756.488 78.6696 736.678 81.9481 707 84.3921M785.722 71.2976C765.974 82.909 761.063 84.9716 753 91.7353M16.8324 70.9116C12.8287 68.1606 8.25668 64.8886 2.96374 60.9286M16.8324 70.9116C13.2778 68.9958 10.9369 67.1646 8.95245 65.6122C7.85705 64.7553 6.87025 63.9834 5.84784 63.329C4.65063 62.5628 3.69724 61.7594 2.96374 60.9286M632 87L556 87.8702M632 87C625.091 87 618.088 87.0261 611 87.0723L583.5 87.4713L556 87.8702M632 87C645.908 87.2016 659.156 86.9931 671.5 86.5271M401 88.0101C387.716 87.7579 374.986 87.4602 363 87.1586L346.75 86.7344M401 88.0101C409.14 88.1646 417.488 88.302 426 88.4128M401 88.0101L426 88.4128M426 88.4128C433.224 88.5068 440.566 88.5817 448 88.6315M448 88.6315C457.372 88.6943 466.89 88.7174 476.5 88.689L448 88.6315ZM525.5 88.2195L556 87.8702M671.5 86.5271C684.418 86.0394 696.345 85.2695 707 84.3921M671.5 86.5271L707 84.3921" stroke="black" stroke-width="2" stroke-linecap="round"/>
<path d="M763.849 25.8281C773.783 27.6343 782.791 30.5848 790 34.284M807.349 54.8281C806.956 63.687 777.349 76.8281 760.349 78.3281C741.422 79.9981 737.852 85.5588 660 87M142.848 85.8281C21.8484 85.8281 15.4029 69.4427 5.84882 63.3281C-6.65118 55.3281 7.42869 43.2725 20.8491 38.3281" stroke="black" stroke-width="2" stroke-linecap="round"/>
<defs>
<linearGradient id="paint0_linear_1140_3431" x1="404.18" y1="1" x2="404" y2="152" gradientUnits="userSpaceOnUse">
<stop stop-color="#19489F"/>
<stop offset="1" stop-color="#091A39"/>
</linearGradient>
<linearGradient id="paint1_linear_1140_3431" x1="406.5" y1="67" x2="406.408" y2="172.95" gradientUnits="userSpaceOnUse">
<stop stop-color="#19489F"/>
<stop offset="1" stop-color="#091A39"/>
</linearGradient>
<linearGradient id="paint2_linear_1140_3431" x1="404.18" y1="1" x2="404" y2="152" gradientUnits="userSpaceOnUse">
<stop stop-color="#19489F"/>
<stop offset="1" stop-color="#091A39"/>
</linearGradient>
</defs>
</svg>
