<svg width="1127" height="990" viewBox="0 0 1127 990" fill="none" xmlns="http://www.w3.org/2000/svg">
<g clip-path="url(#clip0_953_1103)">
<rect width="1777.78" height="1000" transform="matrix(-1 0 0 1 1777.78 0)" fill="#194393"/>
<path d="M81.9112 941.37V920.807H79.1556V941.37H81.9112ZM86.1186 923.296V920.807H79.4519V923.296H86.1186ZM72.8195 941.37L65.1158 922.437L62.3603 922.526L69.8862 941.37H72.8195ZM76.0491 923.296V920.807H62.3603V922.526L63.5751 923.296H76.0491Z" fill="#2AA4E7"/>
<mask id="mask0_953_1103" style="mask-type:alpha" maskUnits="userSpaceOnUse" x="0" y="-56" width="1778" height="1112">
<rect width="1777.78" height="1111.11" transform="matrix(-1 0 0 1 1777.78 -55.5557)" fill="#C4C4C4"/>
</mask>
<g mask="url(#mask0_953_1103)">
<mask id="mask1_953_1103" style="mask-type:alpha" maskUnits="userSpaceOnUse" x="-117" y="-109" width="1953" height="1283">
<rect width="1952.06" height="1281.78" transform="matrix(1 0.00021522 0.00021522 -1 -116.792 1173.25)" fill="#F5288F"/>
</mask>
<g mask="url(#mask1_953_1103)">
<g filter="url(#filter0_f_953_1103)">
<circle cx="682.046" cy="682.046" r="682.046" transform="matrix(1 0.00021522 0.00021522 -1 -352.1 1720.02)" fill="#021526"/>
</g>
<g filter="url(#filter1_f_953_1103)">
<circle cx="682.046" cy="682.046" r="682.046" transform="matrix(1 0.00021522 0.00021522 -1 1473.47 1214.94)" fill="#021526"/>
</g>
<g filter="url(#filter2_f_953_1103)">
<circle cx="496.836" cy="496.836" r="496.836" transform="matrix(1 0.00021522 0.00021522 -1 1267.6 1620.59)" fill="#0C224B"/>
</g>
<g filter="url(#filter3_f_953_1103)">
<circle cx="682.046" cy="682.046" r="682.046" transform="matrix(1 0.00021522 0.00021522 -1 -798.774 861.483)" fill="#07264A"/>
</g>
<g filter="url(#filter4_f_953_1103)">
<circle cx="570.332" cy="570.332" r="570.332" transform="matrix(1 0.00021522 0.00021522 -1 471.044 1802.51)" fill="#021526"/>
</g>
<path d="M-34.439 1214.43C647.45 1089.04 855.775 613.101 1175.87 35.5212L-275.249 506.695C-422.276 784.4 -579.95 1314.73 -34.439 1214.43Z" fill="#07264A"/>
<g filter="url(#filter5_f_953_1103)">
<path d="M13.5114 1221.52C695.401 1096.14 735.987 748.213 1056.08 170.633L-207.546 464.407C-354.572 742.112 -532 1321.83 13.5114 1221.52Z" fill="#07264A"/>
</g>
<g filter="url(#filter6_f_953_1103)">
<path d="M-85.6193 1320.34C598.194 1203.1 607.248 859.562 907.413 206.168L-357.314 494.288C-494.687 808.721 -632.67 1414.14 -85.6193 1320.34Z" fill="#07264A"/>
</g>
<g filter="url(#filter7_f_953_1103)">
<circle cx="570.332" cy="570.332" r="570.332" transform="matrix(1 0.00021522 0.00021522 -1 289.062 461.895)" fill="#021526"/>
</g>
<path d="M-573.585 616.873C464.634 693.648 948 81.3366 1632.34 -636.19L-654.681 -502.717C-973.722 -155.112 -1404.16 555.452 -573.585 616.873Z" fill="#07264A"/>
<g filter="url(#filter8_f_953_1103)">
<path d="M-688.02 752.703C350.199 829.479 493.826 403.688 1178.16 -313.839L-769.116 -366.887C-1088.16 -19.2821 -1518.6 691.283 -688.02 752.703Z" fill="#084E8C"/>
</g>
<g filter="url(#filter9_f_953_1103)">
<path d="M-411.64 582.256C626.58 659.031 770.206 233.241 1454.54 -484.286L-492.735 -537.334C-811.777 -189.729 -1242.22 520.836 -411.64 582.256Z" fill="#084E8C"/>
</g>
<g filter="url(#filter10_f_953_1103)">
<circle cx="682.046" cy="682.046" r="682.046" transform="matrix(1 0.00021522 0.00021522 -1 -710.516 573.395)" fill="#021526"/>
</g>
<g filter="url(#filter11_f_953_1103)">
<path d="M159.698 497.144C159.749 263.34 -29.7459 73.7637 -263.55 73.7134C-497.354 73.663 -686.93 263.158 -686.98 496.962C-687.03 730.765 -497.536 920.342 -263.732 920.392C-29.9282 920.442 159.648 730.948 159.698 497.144Z" fill="#07264A"/>
</g>
<g filter="url(#filter12_f_953_1103)">
<ellipse cx="364.815" cy="265.432" rx="364.815" ry="265.432" transform="matrix(1 -1.50595e-08 -1.50595e-08 -1 511.602 394.344)" fill="#084882"/>
</g>
</g>
<g filter="url(#filter13_f_953_1103)">
<ellipse cx="256.269" cy="389.644" rx="256.269" ry="389.644" transform="matrix(-0.827187 -0.561927 -0.561927 0.827187 1864.96 508.752)" fill="#0C224B"/>
</g>
<mask id="mask2_953_1103" style="mask-type:alpha" maskUnits="userSpaceOnUse" x="496" y="-170" width="1900" height="1499">
<path d="M645.88 1328.09L496.387 180.863L1556.31 -169.638L1870.98 -168.853L2395.13 466.281L2355.92 981.849L1437.79 1200.43L645.88 1328.09Z" fill="url(#paint0_linear_953_1103)"/>
</mask>
<g mask="url(#mask2_953_1103)">
<mask id="mask3_953_1103" style="mask-type:alpha" maskUnits="userSpaceOnUse" x="450" y="-244" width="1984" height="1581">
<path d="M2433.06 940.362C2308.91 421.963 2093.05 -217.404 2088.57 -243.628L450.755 153.621L635.715 1336.52L2433.06 940.362Z" fill="url(#paint1_linear_953_1103)"/>
</mask>
<g mask="url(#mask3_953_1103)">
<path d="M1533.97 119.335C1318.1 170.727 1206 385.545 1244 545.161C1282 704.777 1413.32 894.854 1629.18 843.462C1736.15 817.995 1895.96 912.793 2004.13 803.051C2114.24 691.337 2029.78 467.144 2010.61 386.626C1972.61 227.01 1749.83 67.9434 1533.97 119.335Z" fill="#0C224B"/>
<g filter="url(#filter15_f_953_1103)">
<path d="M1521.38 177.422C1265.17 284.154 1098.9 565.564 1148.06 772.073C1197.23 978.583 1385.65 1169.63 1644.53 1107.99C1772.82 1077.45 1991.32 1263.26 2119.26 1124.13C2249.49 982.511 2144.33 609 2119.53 504.826C2070.36 298.317 1818.18 53.7802 1521.38 177.422Z" fill="#0C224B"/>
</g>
<g filter="url(#filter16_f_953_1103)">
<path d="M1464.03 246.379C1185.28 312.742 988.742 640.682 1036.81 842.587C1084.88 1044.49 1282.49 1228.09 1561.25 1161.72C1699.38 1128.84 1885.45 1165.96 2025.62 1026.35C2168.32 884.221 2150.12 446.176 2125.87 344.324C2077.8 142.419 1742.78 180.015 1464.03 246.379Z" fill="#0C224B"/>
</g>
<g filter="url(#filter17_f_953_1103)">
<path d="M1354.82 357.542C1066.76 426.123 883.553 757.298 932.718 963.807C981.883 1170.32 1185.55 1357.73 1473.61 1289.15C1616.36 1255.16 1762.99 925.042 1908.11 781.827C2055.83 636.04 1949.52 363.733 1924.71 259.559C1875.55 53.05 1642.88 288.961 1354.82 357.542Z" fill="#0C224B"/>
</g>
<g filter="url(#filter18_f_953_1103)">
<path d="M1553.72 275.496C1303.01 340.924 1157.82 667.925 1211.43 873.326C1265.04 1078.73 1453.98 1266.59 1704.68 1201.16C1828.92 1168.74 1994.02 1184.01 2114.93 1043.2C2238.01 899.867 2130.73 628.641 2103.69 525.026C2050.09 319.625 1804.42 210.067 1553.72 275.496Z" fill="#0C224B"/>
</g>
</g>
</g>
<mask id="mask4_953_1103" style="mask-type:alpha" maskUnits="userSpaceOnUse" x="-1610" y="-1071" width="2835" height="2553">
<path d="M1224.29 198.667C878.81 749.968 437.982 1453.18 422.957 1481.99L-1609.4 212.958L-808.065 -1070.37L1224.29 198.667Z" fill="url(#paint2_linear_953_1103)"/>
</mask>
<g mask="url(#mask4_953_1103)">
<path d="M-382.706 665.845C-611.929 522.714 -681.241 204.731 -570.601 27.5402C-459.96 -149.65 -221.973 -324.242 23.9631 -170.675C145.837 -94.5747 367.775 -120.623 457.474 58.0276C548.784 239.887 364.368 460.625 308.555 550.01C197.914 727.2 -153.483 808.975 -382.706 665.845Z" fill="#0C224B"/>
<g filter="url(#filter19_f_953_1103)">
<path d="M-370.481 652.385C-616.318 498.881 -686.176 219.135 -591.073 66.8273C-495.969 -85.48 -278.411 -227.44 -32.575 -73.9356C89.2488 2.13328 303.213 -11.2794 400.591 154.943C499.717 324.151 336.506 510.96 288.531 587.791C193.428 740.099 -124.645 805.89 -370.481 652.385Z" fill="#0C224B"/>
</g>
<g filter="url(#filter20_f_953_1103)">
<path d="M-377.928 647.732C-653.463 475.683 -719.872 143.103 -602.621 -44.6735C-485.371 -232.45 -227.543 -413.959 47.9915 -241.911C184.532 -156.653 442.669 -201.033 546.503 -6.23014C652.202 192.072 444.82 440.612 385.672 535.336C268.422 723.112 -102.394 819.78 -377.928 647.732Z" fill="#0C224B"/>
</g>
<g filter="url(#filter21_f_953_1103)">
<path d="M-395.841 605.635C-707.266 347.157 -836.977 -72.3397 -699.751 -292.107C-562.524 -511.875 -241.512 -641.642 88.937 -435.304C252.691 -333.054 612.76 -441.132 738.977 -210.21C867.461 24.86 635.268 296.476 566.044 407.338C428.817 627.106 -35.0729 905.067 -395.841 605.635Z" fill="#0C224B"/>
</g>
<g filter="url(#filter22_f_953_1103)">
<path d="M-454.921 445.129C-810.729 222.957 -940.236 -251.458 -806.069 -466.327C-671.901 -681.195 -340.947 -797.393 14.8605 -575.22C191.18 -465.123 456.468 -413.447 599.139 -175.643C744.372 66.434 512.895 329.21 445.214 437.601C311.047 652.469 -99.1144 667.301 -454.921 445.129Z" fill="#0C224B"/>
</g>
<g filter="url(#filter23_f_953_1103)">
<path d="M-539.85 272.89C-907.544 43.2959 -1043.25 -443.965 -906.027 -663.733C-768.8 -883.501 -428.327 -1001.12 -60.6335 -771.522C121.577 -657.747 395.184 -603.474 543.329 -358.86C694.136 -109.852 456.867 158.595 387.643 269.457C250.416 489.225 -172.157 502.484 -539.85 272.89Z" fill="#0C224B"/>
</g>
<g filter="url(#filter24_f_953_1103)">
<path d="M-285.116 480.524C-606.848 279.629 -702.989 -182.926 -565.763 -402.693C-428.536 -622.461 -112.079 -755.072 209.653 -554.177C369.087 -454.624 599.172 -392.207 720.257 -164.49C843.518 67.3182 612.512 339.676 543.288 450.538C406.061 670.306 36.6161 681.419 -285.116 480.524Z" fill="#0C224B"/>
</g>
</g>
<mask id="mask5_953_1103" style="mask-type:alpha" maskUnits="userSpaceOnUse" x="420" y="458" width="1604" height="973">
<path d="M472.787 1430.98L420.29 895.659L2001.51 458.851L2023.31 1063.26L472.787 1430.98Z" fill="url(#paint3_linear_953_1103)"/>
</mask>
<g mask="url(#mask5_953_1103)">
<mask id="mask6_953_1103" style="mask-type:alpha" maskUnits="userSpaceOnUse" x="412" y="431" width="1566" height="1069">
<path d="M412.832 759.979L520.791 1499.94L1977.39 1080.34L1897.94 431.454L412.832 759.979Z" fill="url(#paint4_linear_953_1103)"/>
</mask>
<g mask="url(#mask6_953_1103)">
<path d="M1451.35 837.181C1225.4 1057 969.892 1069.05 786.036 1057.92L635.423 1059.24L538.97 1079.51L696.995 1272.07L975.477 1245.88L1600.93 1079.14C1600.93 1079.14 2086.99 790.279 1946.94 787.57C1827.24 770.519 1685.84 669.794 1451.35 837.181Z" fill="#0C224B"/>
<g filter="url(#filter25_f_953_1103)">
<path d="M1451.35 837.181C1208.61 1027.48 1205.53 1043.71 881.807 1062.31L635.423 1059.24L538.97 1079.51L696.995 1272.07L975.477 1245.88L1600.93 1079.14C1600.93 1079.14 2086.99 790.279 1946.94 787.57C1827.24 770.519 1685.84 669.794 1451.35 837.181Z" fill="#0C224B"/>
</g>
<g filter="url(#filter26_f_953_1103)">
<path d="M1451.35 837.181C1128.95 1136.21 1125 1032.4 801.269 1050.99L707.473 1048.35L609.67 1059L538.97 1079.51L696.995 1272.07L975.477 1245.88L1600.93 1079.14C1600.93 1079.14 2086.99 790.279 1946.94 787.57C1827.24 770.519 1687.19 638.003 1451.35 837.181Z" fill="#0C224B"/>
</g>
<g filter="url(#filter27_f_953_1103)">
<path d="M1509.92 801.776C1187.51 1100.81 1154.55 1193.16 754.616 1050.59L660.82 1047.94L511.514 1058.13L394.161 1078.23L697.343 1271.68L975.826 1245.49L1601.28 1078.75C1601.28 1078.75 2087.34 789.885 1947.29 787.176C1827.59 770.124 1745.76 602.597 1509.92 801.776Z" fill="#0C224B"/>
</g>
<g filter="url(#filter28_f_953_1103)">
<path d="M1518.2 785.213C1303.09 1076.34 1115.43 1134.83 819.376 1042.39L431.7 934.478L380.465 1014.94L394.161 1078.23L697.343 1271.68L975.826 1245.49L1601.28 1078.75C1601.28 1078.75 2087.34 789.885 1947.29 787.176C1827.59 770.124 1799.42 466.033 1518.2 785.213Z" fill="#0C224B"/>
</g>
</g>
</g>
</g>
</g>
<defs>
<filter id="filter0_f_953_1103" x="-1034" y="-325.976" width="2728.18" height="2728.18" filterUnits="userSpaceOnUse" color-interpolation-filters="sRGB">
<feFlood flood-opacity="0" result="BackgroundImageFix"/>
<feBlend mode="normal" in="SourceGraphic" in2="BackgroundImageFix" result="shape"/>
<feGaussianBlur stdDeviation="341.023" result="effect1_foregroundBlur_953_1103"/>
</filter>
<filter id="filter1_f_953_1103" x="791.57" y="-831.056" width="2728.18" height="2728.18" filterUnits="userSpaceOnUse" color-interpolation-filters="sRGB">
<feFlood flood-opacity="0" result="BackgroundImageFix"/>
<feBlend mode="normal" in="SourceGraphic" in2="BackgroundImageFix" result="shape"/>
<feGaussianBlur stdDeviation="341.023" result="effect1_foregroundBlur_953_1103"/>
</filter>
<filter id="filter2_f_953_1103" x="585.658" y="-55.0185" width="2357.76" height="2357.76" filterUnits="userSpaceOnUse" color-interpolation-filters="sRGB">
<feFlood flood-opacity="0" result="BackgroundImageFix"/>
<feBlend mode="normal" in="SourceGraphic" in2="BackgroundImageFix" result="shape"/>
<feGaussianBlur stdDeviation="341.023" result="effect1_foregroundBlur_953_1103"/>
</filter>
<filter id="filter3_f_953_1103" x="-1480.67" y="-1184.51" width="2728.18" height="2728.18" filterUnits="userSpaceOnUse" color-interpolation-filters="sRGB">
<feFlood flood-opacity="0" result="BackgroundImageFix"/>
<feBlend mode="normal" in="SourceGraphic" in2="BackgroundImageFix" result="shape"/>
<feGaussianBlur stdDeviation="341.023" result="effect1_foregroundBlur_953_1103"/>
</filter>
<filter id="filter4_f_953_1103" x="-210.879" y="-20.0795" width="2504.76" height="2504.76" filterUnits="userSpaceOnUse" color-interpolation-filters="sRGB">
<feFlood flood-opacity="0" result="BackgroundImageFix"/>
<feBlend mode="normal" in="SourceGraphic" in2="BackgroundImageFix" result="shape"/>
<feGaussianBlur stdDeviation="341.023" result="effect1_foregroundBlur_953_1103"/>
</filter>
<filter id="filter5_f_953_1103" x="-432.664" y="94.9484" width="1564.43" height="1213.78" filterUnits="userSpaceOnUse" color-interpolation-filters="sRGB">
<feFlood flood-opacity="0" result="BackgroundImageFix"/>
<feBlend mode="normal" in="SourceGraphic" in2="BackgroundImageFix" result="shape"/>
<feGaussianBlur stdDeviation="37.8422" result="effect1_foregroundBlur_953_1103"/>
</filter>
<filter id="filter6_f_953_1103" x="-637.075" y="49.7541" width="1700.9" height="1436.76" filterUnits="userSpaceOnUse" color-interpolation-filters="sRGB">
<feFlood flood-opacity="0" result="BackgroundImageFix"/>
<feBlend mode="normal" in="SourceGraphic" in2="BackgroundImageFix" result="shape"/>
<feGaussianBlur stdDeviation="78.2072" result="effect1_foregroundBlur_953_1103"/>
</filter>
<filter id="filter7_f_953_1103" x="-392.861" y="-1360.69" width="2504.76" height="2504.76" filterUnits="userSpaceOnUse" color-interpolation-filters="sRGB">
<feFlood flood-opacity="0" result="BackgroundImageFix"/>
<feBlend mode="normal" in="SourceGraphic" in2="BackgroundImageFix" result="shape"/>
<feGaussianBlur stdDeviation="341.023" result="effect1_foregroundBlur_953_1103"/>
</filter>
<filter id="filter8_f_953_1103" x="-1351.37" y="-549.158" width="2711.8" height="1493.03" filterUnits="userSpaceOnUse" color-interpolation-filters="sRGB">
<feFlood flood-opacity="0" result="BackgroundImageFix"/>
<feBlend mode="normal" in="SourceGraphic" in2="BackgroundImageFix" result="shape"/>
<feGaussianBlur stdDeviation="91.1354" result="effect1_foregroundBlur_953_1103"/>
</filter>
<filter id="filter9_f_953_1103" x="-1027.95" y="-672.568" width="2617.72" height="1398.95" filterUnits="userSpaceOnUse" color-interpolation-filters="sRGB">
<feFlood flood-opacity="0" result="BackgroundImageFix"/>
<feBlend mode="normal" in="SourceGraphic" in2="BackgroundImageFix" result="shape"/>
<feGaussianBlur stdDeviation="67.6166" result="effect1_foregroundBlur_953_1103"/>
</filter>
<filter id="filter10_f_953_1103" x="-1392.41" y="-1472.6" width="2728.18" height="2728.18" filterUnits="userSpaceOnUse" color-interpolation-filters="sRGB">
<feFlood flood-opacity="0" result="BackgroundImageFix"/>
<feBlend mode="normal" in="SourceGraphic" in2="BackgroundImageFix" result="shape"/>
<feGaussianBlur stdDeviation="341.023" result="effect1_foregroundBlur_953_1103"/>
</filter>
<filter id="filter11_f_953_1103" x="-1369.03" y="-608.332" width="2210.77" height="2210.77" filterUnits="userSpaceOnUse" color-interpolation-filters="sRGB">
<feFlood flood-opacity="0" result="BackgroundImageFix"/>
<feBlend mode="normal" in="SourceGraphic" in2="BackgroundImageFix" result="shape"/>
<feGaussianBlur stdDeviation="341.023" result="effect1_foregroundBlur_953_1103"/>
</filter>
<filter id="filter12_f_953_1103" x="141.232" y="-506.891" width="1470.37" height="1271.6" filterUnits="userSpaceOnUse" color-interpolation-filters="sRGB">
<feFlood flood-opacity="0" result="BackgroundImageFix"/>
<feBlend mode="normal" in="SourceGraphic" in2="BackgroundImageFix" result="shape"/>
<feGaussianBlur stdDeviation="185.185" result="effect1_foregroundBlur_953_1103"/>
</filter>
<filter id="filter13_f_953_1103" x="822.435" y="27.1179" width="1223.18" height="1319.88" filterUnits="userSpaceOnUse" color-interpolation-filters="sRGB">
<feFlood flood-opacity="0" result="BackgroundImageFix"/>
<feBlend mode="normal" in="SourceGraphic" in2="BackgroundImageFix" result="shape"/>
<feGaussianBlur stdDeviation="153.417" result="effect1_foregroundBlur_953_1103"/>
</filter>
<filter id="filter15_f_953_1103" x="1078.08" y="82.6605" width="1166.42" height="1155.16" filterUnits="userSpaceOnUse" color-interpolation-filters="sRGB">
<feFlood flood-opacity="0" result="BackgroundImageFix"/>
<feBlend mode="normal" in="SourceGraphic" in2="BackgroundImageFix" result="shape"/>
<feGaussianBlur stdDeviation="30.6834" result="effect1_foregroundBlur_953_1103"/>
</filter>
<filter id="filter16_f_953_1103" x="863.874" y="27.747" width="1444.3" height="1313.48" filterUnits="userSpaceOnUse" color-interpolation-filters="sRGB">
<feFlood flood-opacity="0" result="BackgroundImageFix"/>
<feBlend mode="normal" in="SourceGraphic" in2="BackgroundImageFix" result="shape"/>
<feGaussianBlur stdDeviation="82.8452" result="effect1_foregroundBlur_953_1103"/>
</filter>
<filter id="filter17_f_953_1103" x="513.6" y="-234.514" width="1882.49" height="1949.23" filterUnits="userSpaceOnUse" color-interpolation-filters="sRGB">
<feFlood flood-opacity="0" result="BackgroundImageFix"/>
<feBlend mode="normal" in="SourceGraphic" in2="BackgroundImageFix" result="shape"/>
<feGaussianBlur stdDeviation="205.579" result="effect1_foregroundBlur_953_1103"/>
</filter>
<filter id="filter18_f_953_1103" x="1010.11" y="66.3574" width="1352.95" height="1338.28" filterUnits="userSpaceOnUse" color-interpolation-filters="sRGB">
<feFlood flood-opacity="0" result="BackgroundImageFix"/>
<feBlend mode="normal" in="SourceGraphic" in2="BackgroundImageFix" result="shape"/>
<feGaussianBlur stdDeviation="95.1186" result="effect1_foregroundBlur_953_1103"/>
</filter>
<filter id="filter19_f_953_1103" x="-644.207" y="-152.298" width="1088.44" height="904.4" filterUnits="userSpaceOnUse" color-interpolation-filters="sRGB">
<feFlood flood-opacity="0" result="BackgroundImageFix"/>
<feBlend mode="normal" in="SourceGraphic" in2="BackgroundImageFix" result="shape"/>
<feGaussianBlur stdDeviation="6.13668" result="effect1_foregroundBlur_953_1103"/>
</filter>
<filter id="filter20_f_953_1103" x="-700.917" y="-353.86" width="1319.92" height="1134.18" filterUnits="userSpaceOnUse" color-interpolation-filters="sRGB">
<feFlood flood-opacity="0" result="BackgroundImageFix"/>
<feBlend mode="normal" in="SourceGraphic" in2="BackgroundImageFix" result="shape"/>
<feGaussianBlur stdDeviation="21.4784" result="effect1_foregroundBlur_953_1103"/>
</filter>
<filter id="filter21_f_953_1103" x="-815.571" y="-600.363" width="1653.99" height="1398.32" filterUnits="userSpaceOnUse" color-interpolation-filters="sRGB">
<feFlood flood-opacity="0" result="BackgroundImageFix"/>
<feBlend mode="normal" in="SourceGraphic" in2="BackgroundImageFix" result="shape"/>
<feGaussianBlur stdDeviation="30.6834" result="effect1_foregroundBlur_953_1103"/>
</filter>
<filter id="filter22_f_953_1103" x="-1023.59" y="-860.759" width="1835.43" height="1631.81" filterUnits="userSpaceOnUse" color-interpolation-filters="sRGB">
<feFlood flood-opacity="0" result="BackgroundImageFix"/>
<feBlend mode="normal" in="SourceGraphic" in2="BackgroundImageFix" result="shape"/>
<feGaussianBlur stdDeviation="82.8452" result="effect1_foregroundBlur_953_1103"/>
</filter>
<filter id="filter23_f_953_1103" x="-1369.6" y="-1307.46" width="2373.33" height="2158.36" filterUnits="userSpaceOnUse" color-interpolation-filters="sRGB">
<feFlood flood-opacity="0" result="BackgroundImageFix"/>
<feBlend mode="normal" in="SourceGraphic" in2="BackgroundImageFix" result="shape"/>
<feGaussianBlur stdDeviation="205.579" result="effect1_foregroundBlur_953_1103"/>
</filter>
<filter id="filter24_f_953_1103" x="-816.719" y="-843.37" width="1762.8" height="1657.26" filterUnits="userSpaceOnUse" color-interpolation-filters="sRGB">
<feFlood flood-opacity="0" result="BackgroundImageFix"/>
<feBlend mode="normal" in="SourceGraphic" in2="BackgroundImageFix" result="shape"/>
<feGaussianBlur stdDeviation="95.1186" result="effect1_foregroundBlur_953_1103"/>
</filter>
<filter id="filter25_f_953_1103" x="524.228" y="727.241" width="1462.8" height="559.57" filterUnits="userSpaceOnUse" color-interpolation-filters="sRGB">
<feFlood flood-opacity="0" result="BackgroundImageFix"/>
<feBlend mode="normal" in="SourceGraphic" in2="BackgroundImageFix" result="shape"/>
<feGaussianBlur stdDeviation="7.3707" result="effect1_foregroundBlur_953_1103"/>
</filter>
<filter id="filter26_f_953_1103" x="515.805" y="705.453" width="1479.65" height="589.781" filterUnits="userSpaceOnUse" color-interpolation-filters="sRGB">
<feFlood flood-opacity="0" result="BackgroundImageFix"/>
<feBlend mode="normal" in="SourceGraphic" in2="BackgroundImageFix" result="shape"/>
<feGaussianBlur stdDeviation="11.5825" result="effect1_foregroundBlur_953_1103"/>
</filter>
<filter id="filter27_f_953_1103" x="354.149" y="665.076" width="1658.5" height="646.611" filterUnits="userSpaceOnUse" color-interpolation-filters="sRGB">
<feFlood flood-opacity="0" result="BackgroundImageFix"/>
<feBlend mode="normal" in="SourceGraphic" in2="BackgroundImageFix" result="shape"/>
<feGaussianBlur stdDeviation="20.0062" result="effect1_foregroundBlur_953_1103"/>
</filter>
<filter id="filter28_f_953_1103" x="315.181" y="574.737" width="1722.74" height="762.221" filterUnits="userSpaceOnUse" color-interpolation-filters="sRGB">
<feFlood flood-opacity="0" result="BackgroundImageFix"/>
<feBlend mode="normal" in="SourceGraphic" in2="BackgroundImageFix" result="shape"/>
<feGaussianBlur stdDeviation="32.6417" result="effect1_foregroundBlur_953_1103"/>
</filter>
<linearGradient id="paint0_linear_953_1103" x1="1307.93" y1="440.557" x2="1907.96" y2="348.794" gradientUnits="userSpaceOnUse">
<stop stop-color="#C4C4C4"/>
<stop offset="0.943414" stop-color="#C4C4C4" stop-opacity="0"/>
</linearGradient>
<linearGradient id="paint1_linear_953_1103" x1="1539.51" y1="140.127" x2="1697.88" y2="828.931" gradientUnits="userSpaceOnUse">
<stop stop-color="#C4C4C4"/>
<stop offset="1" stop-color="#C4C4C4" stop-opacity="0"/>
</linearGradient>
<linearGradient id="paint2_linear_953_1103" x1="-299.833" y1="748.107" x2="238.803" y2="-178.952" gradientUnits="userSpaceOnUse">
<stop stop-color="#C4C4C4"/>
<stop offset="1" stop-color="#C4C4C4" stop-opacity="0"/>
</linearGradient>
<linearGradient id="paint3_linear_953_1103" x1="1222" y1="979.632" x2="1262.58" y2="1161.34" gradientUnits="userSpaceOnUse">
<stop stop-color="#C4C4C4"/>
<stop offset="1" stop-color="#C4C4C4" stop-opacity="0"/>
</linearGradient>
<linearGradient id="paint4_linear_953_1103" x1="1952.15" y1="828.651" x2="523.838" y2="1115.68" gradientUnits="userSpaceOnUse">
<stop stop-color="#C4C4C4" stop-opacity="0"/>
<stop offset="0.364583" stop-color="#C4C4C4"/>
<stop offset="0.609375" stop-color="#C4C4C4"/>
<stop offset="1" stop-color="#C4C4C4" stop-opacity="0"/>
</linearGradient>
<clipPath id="clip0_953_1103">
<rect width="1777.78" height="1000" fill="white" transform="matrix(-1 0 0 1 1777.78 0)"/>
</clipPath>
</defs>
</svg>
