<svg width="216" height="216" viewBox="0 0 216 216" fill="none" xmlns="http://www.w3.org/2000/svg">
<g clip-path="url(#clip0_965_963)">
<rect width="216" height="216" rx="18" fill="#0A60AD"/>
<path d="M8.58389 24.4334C8.58389 22.8056 45.6202 5.85044 54.0029 21.5231C61.1232 34.8355 -41.8684 110.358 -12.8245 124.884C11.3687 136.985 158.132 -25.1421 186.556 -11.1419C214.979 2.85827 -12.7555 181.68 74.7023 182.901C124.718 183.598 214.632 79.3578 232.632 93.8578C244.95 103.78 173.132 208.858 155.123 227.358" stroke="#0A6CC2" stroke-width="30" stroke-linecap="round"/>
<path d="M11.656 41.644L32.08 -1.228H49.744L28.768 41.644H11.656ZM11.656 50.66V41.644L16.44 36.952H64.648V50.66H11.656ZM42.292 64V24.716H58.392V64H42.292ZM89.3299 65.012C84.6685 65.012 80.4672 64.0307 76.7259 62.068C73.0459 60.044 70.1019 57.3147 67.8939 53.88C65.7472 50.384 64.6739 46.4893 64.6739 42.196C64.6739 36.86 66.5139 31.4933 70.1939 26.096L88.8699 -1.228H107.27L86.0179 28.12L79.9459 27.568C80.8659 26.096 81.7859 24.8387 82.7059 23.796C83.6872 22.692 84.8832 21.8333 86.2939 21.22C87.7045 20.6067 89.5752 20.3 91.9059 20.3C96.0152 20.3 99.7259 21.2813 103.038 23.244C106.411 25.1453 109.079 27.752 111.042 31.064C113.066 34.3147 114.078 37.9947 114.078 42.104C114.078 46.4587 112.974 50.3533 110.766 53.788C108.619 57.2227 105.675 59.952 101.934 61.976C98.2539 64 94.0525 65.012 89.3299 65.012ZM89.3299 51.12C91.1085 51.12 92.6725 50.7213 94.0219 49.924C95.3712 49.1267 96.4139 48.0227 97.1499 46.612C97.9472 45.14 98.3459 43.5147 98.3459 41.736C98.3459 39.9573 97.9472 38.3627 97.1499 36.952C96.4139 35.48 95.3712 34.3453 94.0219 33.548C92.6725 32.7507 91.1085 32.352 89.3299 32.352C87.6125 32.352 86.0792 32.7813 84.7299 33.64C83.3805 34.4373 82.3072 35.5413 81.5099 36.952C80.7739 38.3627 80.4059 39.9573 80.4059 41.736C80.4059 43.5147 80.7739 45.14 81.5099 46.612C82.3072 48.0227 83.3805 49.1267 84.7299 49.924C86.0792 50.7213 87.6125 51.12 89.3299 51.12ZM113.995 41.644L134.419 -1.228H152.083L131.107 41.644H113.995ZM113.995 50.66V41.644L118.779 36.952H166.987V50.66H113.995ZM144.631 64V24.716H160.731V64H144.631ZM191.301 65.012C186.456 65.012 182.224 64.184 178.605 62.528C175.048 60.872 172.288 58.6027 170.325 55.72C168.362 52.8373 167.381 49.5253 167.381 45.784C167.381 42.656 167.964 39.8347 169.129 37.32C170.356 34.8053 172.042 32.7507 174.189 31.156C176.397 29.5 178.912 28.396 181.733 27.844L181.457 30.88C179.004 30.3893 176.918 29.408 175.201 27.936C173.484 26.4027 172.165 24.5627 171.245 22.416C170.325 20.208 169.865 17.9387 169.865 15.608C169.865 12.112 170.754 9.01467 172.533 6.316C174.373 3.61733 176.888 1.50133 180.077 -0.0320036C183.328 -1.56534 187.069 -2.332 191.301 -2.332C195.533 -2.332 199.244 -1.56534 202.433 -0.0320036C205.622 1.50133 208.106 3.61733 209.885 6.316C211.725 9.01467 212.645 12.112 212.645 15.608C212.645 17.9387 212.185 20.208 211.265 22.416C210.345 24.5627 209.026 26.4027 207.309 27.936C205.592 29.408 203.506 30.3893 201.053 30.88L200.685 27.844C203.568 28.396 206.082 29.5 208.229 31.156C210.437 32.7507 212.124 34.8053 213.289 37.32C214.516 39.8347 215.129 42.656 215.129 45.784C215.129 49.5253 214.148 52.8373 212.185 55.72C210.222 58.6027 207.432 60.872 203.813 62.528C200.256 64.184 196.085 65.012 191.301 65.012ZM191.301 51.304C192.896 51.304 194.306 50.9667 195.533 50.292C196.821 49.6173 197.802 48.6973 198.477 47.532C199.213 46.3053 199.581 44.9253 199.581 43.392C199.581 41.8587 199.213 40.5093 198.477 39.344C197.802 38.1787 196.821 37.2587 195.533 36.584C194.306 35.848 192.896 35.48 191.301 35.48C189.645 35.48 188.204 35.848 186.977 36.584C185.75 37.2587 184.769 38.1787 184.033 39.344C183.297 40.5093 182.929 41.8587 182.929 43.392C182.929 44.9253 183.297 46.3053 184.033 47.532C184.769 48.6973 185.75 49.6173 186.977 50.292C188.204 50.9667 189.645 51.304 191.301 51.304ZM191.301 23.796C193.141 23.796 194.644 23.2133 195.809 22.048C197.036 20.8827 197.649 19.38 197.649 17.54C197.649 15.6387 197.036 14.0747 195.809 12.848C194.644 11.6213 193.141 11.008 191.301 11.008C189.4 11.008 187.836 11.6213 186.609 12.848C185.444 14.0133 184.861 15.516 184.861 17.356C184.861 19.196 185.444 20.7293 186.609 21.956C187.836 23.1827 189.4 23.796 191.301 23.796Z" fill="url(#paint0_linear_965_963)"/>
<path d="M11.656 195.644L32.08 152.772H49.744L28.768 195.644H11.656ZM11.656 204.66V195.644L16.44 190.952H64.648V204.66H11.656ZM42.292 218V178.716H58.392V218H42.292ZM89.3299 219.012C84.6685 219.012 80.4672 218.031 76.7259 216.068C73.0459 214.044 70.1019 211.315 67.8939 207.88C65.7472 204.384 64.6739 200.489 64.6739 196.196C64.6739 190.86 66.5139 185.493 70.1939 180.096L88.8699 152.772H107.27L86.0179 182.12L79.9459 181.568C80.8659 180.096 81.7859 178.839 82.7059 177.796C83.6872 176.692 84.8832 175.833 86.2939 175.22C87.7045 174.607 89.5752 174.3 91.9059 174.3C96.0152 174.3 99.7259 175.281 103.038 177.244C106.411 179.145 109.079 181.752 111.042 185.064C113.066 188.315 114.078 191.995 114.078 196.104C114.078 200.459 112.974 204.353 110.766 207.788C108.619 211.223 105.675 213.952 101.934 215.976C98.2539 218 94.0525 219.012 89.3299 219.012ZM89.3299 205.12C91.1085 205.12 92.6725 204.721 94.0219 203.924C95.3712 203.127 96.4139 202.023 97.1499 200.612C97.9472 199.14 98.3459 197.515 98.3459 195.736C98.3459 193.957 97.9472 192.363 97.1499 190.952C96.4139 189.48 95.3712 188.345 94.0219 187.548C92.6725 186.751 91.1085 186.352 89.3299 186.352C87.6125 186.352 86.0792 186.781 84.7299 187.64C83.3805 188.437 82.3072 189.541 81.5099 190.952C80.7739 192.363 80.4059 193.957 80.4059 195.736C80.4059 197.515 80.7739 199.14 81.5099 200.612C82.3072 202.023 83.3805 203.127 84.7299 203.924C86.0792 204.721 87.6125 205.12 89.3299 205.12ZM113.995 195.644L134.419 152.772H152.083L131.107 195.644H113.995ZM113.995 204.66V195.644L118.779 190.952H166.987V204.66H113.995ZM144.631 218V178.716H160.731V218H144.631ZM191.669 219.012C187.008 219.012 182.806 218.031 179.065 216.068C175.385 214.044 172.441 211.315 170.233 207.88C168.086 204.384 167.013 200.489 167.013 196.196C167.013 190.86 168.853 185.493 172.533 180.096L191.209 152.772H209.609L188.357 182.12L182.285 181.568C183.205 180.096 184.125 178.839 185.045 177.796C186.026 176.692 187.222 175.833 188.633 175.22C190.044 174.607 191.914 174.3 194.245 174.3C198.354 174.3 202.065 175.281 205.377 177.244C208.75 179.145 211.418 181.752 213.381 185.064C215.405 188.315 216.417 191.995 216.417 196.104C216.417 200.459 215.313 204.353 213.105 207.788C210.958 211.223 208.014 213.952 204.273 215.976C200.593 218 196.392 219.012 191.669 219.012ZM191.669 205.12C193.448 205.12 195.012 204.721 196.361 203.924C197.71 203.127 198.753 202.023 199.489 200.612C200.286 199.14 200.685 197.515 200.685 195.736C200.685 193.957 200.286 192.363 199.489 190.952C198.753 189.48 197.71 188.345 196.361 187.548C195.012 186.751 193.448 186.352 191.669 186.352C189.952 186.352 188.418 186.781 187.069 187.64C185.72 188.437 184.646 189.541 183.849 190.952C183.113 192.363 182.745 193.957 182.745 195.736C182.745 197.515 183.113 199.14 183.849 200.612C184.646 202.023 185.72 203.127 187.069 203.924C188.418 204.721 189.952 205.12 191.669 205.12Z" fill="url(#paint1_linear_965_963)"/>
<g filter="url(#filter0_f_965_963)">
<circle cx="203.5" cy="26.5" r="49.5" fill="#0A60AD"/>
</g>
<g filter="url(#filter1_f_965_963)">
<circle cx="32.5" cy="190.5" r="49.5" fill="#0A60AD"/>
</g>
<path d="M11.656 118.644L32.08 75.772H49.744L28.768 118.644H11.656ZM11.656 127.66V118.644L16.44 113.952H64.648V127.66H11.656ZM42.292 141V101.716H58.392V141H42.292ZM89.3299 142.012C84.6685 142.012 80.4672 141.031 76.7259 139.068C73.0459 137.044 70.1019 134.315 67.8939 130.88C65.7472 127.384 64.6739 123.489 64.6739 119.196C64.6739 113.86 66.5139 108.493 70.1939 103.096L88.8699 75.772H107.27L86.0179 105.12L79.9459 104.568C80.8659 103.096 81.7859 101.839 82.7059 100.796C83.6872 99.692 84.8832 98.8333 86.2939 98.22C87.7045 97.6067 89.5752 97.3 91.9059 97.3C96.0152 97.3 99.7259 98.2813 103.038 100.244C106.411 102.145 109.079 104.752 111.042 108.064C113.066 111.315 114.078 114.995 114.078 119.104C114.078 123.459 112.974 127.353 110.766 130.788C108.619 134.223 105.675 136.952 101.934 138.976C98.2539 141 94.0525 142.012 89.3299 142.012ZM89.3299 128.12C91.1085 128.12 92.6725 127.721 94.0219 126.924C95.3712 126.127 96.4139 125.023 97.1499 123.612C97.9472 122.14 98.3459 120.515 98.3459 118.736C98.3459 116.957 97.9472 115.363 97.1499 113.952C96.4139 112.48 95.3712 111.345 94.0219 110.548C92.6725 109.751 91.1085 109.352 89.3299 109.352C87.6125 109.352 86.0792 109.781 84.7299 110.64C83.3805 111.437 82.3072 112.541 81.5099 113.952C80.7739 115.363 80.4059 116.957 80.4059 118.736C80.4059 120.515 80.7739 122.14 81.5099 123.612C82.3072 125.023 83.3805 126.127 84.7299 126.924C86.0792 127.721 87.6125 128.12 89.3299 128.12ZM113.995 118.644L134.419 75.772H152.083L131.107 118.644H113.995ZM113.995 127.66V118.644L118.779 113.952H166.987V127.66H113.995ZM144.631 141V101.716H160.731V141H144.631ZM171.513 141L192.857 84.788H208.773L188.349 141H171.513ZM163.049 89.48V75.772H208.773V84.788L203.805 89.48H163.049Z" fill="url(#paint2_radial_965_963)"/>
<g filter="url(#filter2_f_965_963)">
<circle cx="43.5" cy="20.5" r="49.5" fill="#0A5FAD"/>
</g>
<path d="M17.312 32V20.896H18.816V32H17.312ZM18.336 27.12V25.744H24.128V27.12H18.336ZM18.336 22.272V20.896H24.4V22.272H18.336ZM29.278 32.16C28.5313 32.16 27.8593 31.984 27.262 31.632C26.6647 31.28 26.19 30.8053 25.838 30.208C25.486 29.6 25.31 28.9227 25.31 28.176C25.31 27.44 25.486 26.7787 25.838 26.192C26.19 25.5947 26.6647 25.12 27.262 24.768C27.8593 24.416 28.5313 24.24 29.278 24.24C30.014 24.24 30.6807 24.416 31.278 24.768C31.886 25.1093 32.366 25.5787 32.718 26.176C33.07 26.7733 33.246 27.44 33.246 28.176C33.246 28.9227 33.07 29.6 32.718 30.208C32.366 30.8053 31.886 31.28 31.278 31.632C30.6807 31.984 30.014 32.16 29.278 32.16ZM29.278 30.768C29.758 30.768 30.1847 30.656 30.558 30.432C30.9313 30.208 31.2247 29.904 31.438 29.52C31.6513 29.1253 31.758 28.6773 31.758 28.176C31.758 27.6853 31.646 27.248 31.422 26.864C31.2087 26.48 30.9153 26.1813 30.542 25.968C30.1793 25.744 29.758 25.632 29.278 25.632C28.798 25.632 28.3713 25.744 27.998 25.968C27.6247 26.1813 27.3313 26.48 27.118 26.864C26.9047 27.248 26.798 27.6853 26.798 28.176C26.798 28.6773 26.9047 29.1253 27.118 29.52C27.3313 29.904 27.6247 30.208 27.998 30.432C28.3713 30.656 28.798 30.768 29.278 30.768ZM34.8685 32V20.576H36.3085V32H34.8685ZM38.4154 32V20.576H39.8554V32H38.4154ZM45.4343 32.16C44.6876 32.16 44.0156 31.984 43.4183 31.632C42.8209 31.28 42.3463 30.8053 41.9943 30.208C41.6423 29.6 41.4663 28.9227 41.4663 28.176C41.4663 27.44 41.6423 26.7787 41.9943 26.192C42.3463 25.5947 42.8209 25.12 43.4183 24.768C44.0156 24.416 44.6876 24.24 45.4343 24.24C46.1703 24.24 46.8369 24.416 47.4343 24.768C48.0423 25.1093 48.5223 25.5787 48.8743 26.176C49.2263 26.7733 49.4023 27.44 49.4023 28.176C49.4023 28.9227 49.2263 29.6 48.8743 30.208C48.5223 30.8053 48.0423 31.28 47.4343 31.632C46.8369 31.984 46.1703 32.16 45.4343 32.16ZM45.4343 30.768C45.9143 30.768 46.3409 30.656 46.7143 30.432C47.0876 30.208 47.3809 29.904 47.5943 29.52C47.8076 29.1253 47.9143 28.6773 47.9143 28.176C47.9143 27.6853 47.8023 27.248 47.5783 26.864C47.3649 26.48 47.0716 26.1813 46.6983 25.968C46.3356 25.744 45.9143 25.632 45.4343 25.632C44.9543 25.632 44.5276 25.744 44.1543 25.968C43.7809 26.1813 43.4876 26.48 43.2743 26.864C43.0609 27.248 42.9543 27.6853 42.9543 28.176C42.9543 28.6773 43.0609 29.1253 43.2743 29.52C43.4876 29.904 43.7809 30.208 44.1543 30.432C44.5276 30.656 44.9543 30.768 45.4343 30.768ZM52.982 32L49.974 24.4H51.478L53.654 30.32H53.174L55.334 24.4H56.166L58.326 30.32H57.846L60.022 24.4H61.526L58.534 32H57.686L55.494 26.256H56.022L53.814 32H52.982ZM66.1073 32.16C65.3499 32.16 64.6673 31.9893 64.0593 31.648C63.4513 31.296 62.9713 30.8213 62.6193 30.224C62.2673 29.6267 62.0913 28.9493 62.0913 28.192C62.0913 27.4453 62.2619 26.7733 62.6033 26.176C62.9553 25.5787 63.4246 25.1093 64.0113 24.768C64.6086 24.416 65.2753 24.24 66.0113 24.24C66.7153 24.24 67.3339 24.4 67.8673 24.72C68.4113 25.04 68.8326 25.4827 69.1313 26.048C69.4406 26.6133 69.5953 27.2533 69.5953 27.968C69.5953 28.0747 69.5899 28.192 69.5793 28.32C69.5686 28.4373 69.5473 28.576 69.5153 28.736H63.0993V27.536H68.7473L68.2193 28C68.2193 27.488 68.1286 27.056 67.9473 26.704C67.7659 26.3413 67.5099 26.064 67.1793 25.872C66.8486 25.6693 66.4486 25.568 65.9793 25.568C65.4886 25.568 65.0566 25.6747 64.6833 25.888C64.3099 26.1013 64.0219 26.4 63.8193 26.784C63.6166 27.168 63.5153 27.6213 63.5153 28.144C63.5153 28.6773 63.6219 29.1467 63.8353 29.552C64.0486 29.9467 64.3526 30.256 64.7473 30.48C65.1419 30.6933 65.5953 30.8 66.1073 30.8C66.5339 30.8 66.9233 30.7253 67.2753 30.576C67.6379 30.4267 67.9473 30.2027 68.2033 29.904L69.1313 30.848C68.7686 31.2747 68.3206 31.6 67.7873 31.824C67.2646 32.048 66.7046 32.16 66.1073 32.16ZM71.1654 32V24.4H72.6054V32H71.1654ZM72.6054 27.664L72.0614 27.424C72.0614 26.4533 72.2854 25.68 72.7334 25.104C73.1814 24.528 73.8267 24.24 74.6694 24.24C75.0534 24.24 75.4 24.3093 75.7094 24.448C76.0187 24.576 76.3067 24.7947 76.5734 25.104L75.6294 26.08C75.4694 25.9093 75.2934 25.7867 75.1014 25.712C74.9094 25.6373 74.6854 25.6 74.4294 25.6C73.896 25.6 73.4587 25.7707 73.1174 26.112C72.776 26.4533 72.6054 26.9707 72.6054 27.664ZM79.8314 32.16C79.4047 32.16 78.9994 32.1067 78.6154 32C78.242 31.8827 77.8954 31.7227 77.5754 31.52C77.2554 31.3067 76.978 31.056 76.7434 30.768L77.6714 29.84C77.9487 30.1813 78.2687 30.4373 78.6314 30.608C78.994 30.768 79.3994 30.848 79.8474 30.848C80.2954 30.848 80.642 30.7733 80.8874 30.624C81.1327 30.464 81.2554 30.2453 81.2554 29.968C81.2554 29.6907 81.154 29.4773 80.9514 29.328C80.7594 29.168 80.5087 29.04 80.1994 28.944C79.89 28.8373 79.5594 28.736 79.2074 28.64C78.866 28.5333 78.5407 28.4 78.2314 28.24C77.922 28.08 77.666 27.8613 77.4634 27.584C77.2714 27.3067 77.1754 26.9387 77.1754 26.48C77.1754 26.0213 77.2874 25.6267 77.5114 25.296C77.7354 24.9547 78.0447 24.6933 78.4394 24.512C78.8447 24.3307 79.33 24.24 79.8954 24.24C80.4927 24.24 81.0207 24.3467 81.4794 24.56C81.9487 24.7627 82.3327 25.072 82.6314 25.488L81.7034 26.416C81.49 26.1387 81.2234 25.9253 80.9034 25.776C80.594 25.6267 80.242 25.552 79.8474 25.552C79.4314 25.552 79.1114 25.6267 78.8874 25.776C78.674 25.9147 78.5674 26.112 78.5674 26.368C78.5674 26.624 78.6634 26.8213 78.8554 26.96C79.0474 27.0987 79.298 27.216 79.6074 27.312C79.9274 27.408 80.258 27.5093 80.5994 27.616C80.9407 27.712 81.266 27.8453 81.5754 28.016C81.8847 28.1867 82.1354 28.416 82.3274 28.704C82.53 28.992 82.6314 29.3707 82.6314 29.84C82.6314 30.5547 82.3754 31.12 81.8634 31.536C81.362 31.952 80.6847 32.16 79.8314 32.16ZM91.0436 32.16C90.297 32.16 89.625 31.984 89.0276 31.632C88.4303 31.28 87.9556 30.8053 87.6036 30.208C87.2516 29.6 87.0756 28.9227 87.0756 28.176C87.0756 27.44 87.2516 26.7787 87.6036 26.192C87.9556 25.5947 88.4303 25.12 89.0276 24.768C89.625 24.416 90.297 24.24 91.0436 24.24C91.7796 24.24 92.4463 24.416 93.0436 24.768C93.6516 25.1093 94.1316 25.5787 94.4836 26.176C94.8356 26.7733 95.0116 27.44 95.0116 28.176C95.0116 28.9227 94.8356 29.6 94.4836 30.208C94.1316 30.8053 93.6516 31.28 93.0436 31.632C92.4463 31.984 91.7796 32.16 91.0436 32.16ZM91.0436 30.768C91.5236 30.768 91.9503 30.656 92.3236 30.432C92.697 30.208 92.9903 29.904 93.2036 29.52C93.417 29.1253 93.5236 28.6773 93.5236 28.176C93.5236 27.6853 93.4116 27.248 93.1876 26.864C92.9743 26.48 92.681 26.1813 92.3076 25.968C91.945 25.744 91.5236 25.632 91.0436 25.632C90.5636 25.632 90.137 25.744 89.7636 25.968C89.3903 26.1813 89.097 26.48 88.8836 26.864C88.6703 27.248 88.5636 27.6853 88.5636 28.176C88.5636 28.6773 88.6703 29.1253 88.8836 29.52C89.097 29.904 89.3903 30.208 89.7636 30.432C90.137 30.656 90.5636 30.768 91.0436 30.768ZM102.01 32V27.568C102.01 26.992 101.829 26.5173 101.466 26.144C101.103 25.7707 100.634 25.584 100.058 25.584C99.6741 25.584 99.3328 25.6693 99.0341 25.84C98.7355 26.0107 98.5008 26.2453 98.3301 26.544C98.1595 26.8427 98.0741 27.184 98.0741 27.568L97.4821 27.232C97.4821 26.656 97.6101 26.144 97.8661 25.696C98.1221 25.248 98.4795 24.896 98.9381 24.64C99.3968 24.3733 99.9141 24.24 100.49 24.24C101.066 24.24 101.573 24.384 102.01 24.672C102.458 24.96 102.81 25.3387 103.066 25.808C103.322 26.2667 103.45 26.7573 103.45 27.28V32H102.01ZM96.6341 32V24.4H98.0741V32H96.6341ZM111.144 32.16C110.717 32.16 110.312 32.1067 109.928 32C109.555 31.8827 109.208 31.7227 108.888 31.52C108.568 31.3067 108.291 31.056 108.056 30.768L108.984 29.84C109.261 30.1813 109.581 30.4373 109.944 30.608C110.307 30.768 110.712 30.848 111.16 30.848C111.608 30.848 111.955 30.7733 112.2 30.624C112.445 30.464 112.568 30.2453 112.568 29.968C112.568 29.6907 112.467 29.4773 112.264 29.328C112.072 29.168 111.821 29.04 111.512 28.944C111.203 28.8373 110.872 28.736 110.52 28.64C110.179 28.5333 109.853 28.4 109.544 28.24C109.235 28.08 108.979 27.8613 108.776 27.584C108.584 27.3067 108.488 26.9387 108.488 26.48C108.488 26.0213 108.6 25.6267 108.824 25.296C109.048 24.9547 109.357 24.6933 109.752 24.512C110.157 24.3307 110.643 24.24 111.208 24.24C111.805 24.24 112.333 24.3467 112.792 24.56C113.261 24.7627 113.645 25.072 113.944 25.488L113.016 26.416C112.803 26.1387 112.536 25.9253 112.216 25.776C111.907 25.6267 111.555 25.552 111.16 25.552C110.744 25.552 110.424 25.6267 110.2 25.776C109.987 25.9147 109.88 26.112 109.88 26.368C109.88 26.624 109.976 26.8213 110.168 26.96C110.36 27.0987 110.611 27.216 110.92 27.312C111.24 27.408 111.571 27.5093 111.912 27.616C112.253 27.712 112.579 27.8453 112.888 28.016C113.197 28.1867 113.448 28.416 113.64 28.704C113.843 28.992 113.944 29.3707 113.944 29.84C113.944 30.5547 113.688 31.12 113.176 31.536C112.675 31.952 111.997 32.16 111.144 32.16ZM119.028 32.16C118.281 32.16 117.609 31.984 117.012 31.632C116.415 31.28 115.94 30.8053 115.588 30.208C115.236 29.6 115.06 28.9227 115.06 28.176C115.06 27.44 115.236 26.7787 115.588 26.192C115.94 25.5947 116.415 25.12 117.012 24.768C117.609 24.416 118.281 24.24 119.028 24.24C119.764 24.24 120.431 24.416 121.028 24.768C121.636 25.1093 122.116 25.5787 122.468 26.176C122.82 26.7733 122.996 27.44 122.996 28.176C122.996 28.9227 122.82 29.6 122.468 30.208C122.116 30.8053 121.636 31.28 121.028 31.632C120.431 31.984 119.764 32.16 119.028 32.16ZM119.028 30.768C119.508 30.768 119.935 30.656 120.308 30.432C120.681 30.208 120.975 29.904 121.188 29.52C121.401 29.1253 121.508 28.6773 121.508 28.176C121.508 27.6853 121.396 27.248 121.172 26.864C120.959 26.48 120.665 26.1813 120.292 25.968C119.929 25.744 119.508 25.632 119.028 25.632C118.548 25.632 118.121 25.744 117.748 25.968C117.375 26.1813 117.081 26.48 116.868 26.864C116.655 27.248 116.548 27.6853 116.548 28.176C116.548 28.6773 116.655 29.1253 116.868 29.52C117.081 29.904 117.375 30.208 117.748 30.432C118.121 30.656 118.548 30.768 119.028 30.768ZM128.091 32.16C127.344 32.16 126.667 31.984 126.059 31.632C125.461 31.28 124.987 30.8053 124.635 30.208C124.293 29.6 124.123 28.928 124.123 28.192C124.123 27.4453 124.293 26.7733 124.635 26.176C124.987 25.5787 125.461 25.1093 126.059 24.768C126.667 24.416 127.344 24.24 128.091 24.24C128.677 24.24 129.221 24.352 129.723 24.576C130.224 24.7893 130.656 25.104 131.019 25.52L130.059 26.48C129.824 26.2027 129.536 25.9947 129.195 25.856C128.864 25.7067 128.496 25.632 128.091 25.632C127.611 25.632 127.184 25.744 126.811 25.968C126.437 26.1813 126.144 26.48 125.931 26.864C125.717 27.248 125.611 27.6907 125.611 28.192C125.611 28.6933 125.717 29.136 125.931 29.52C126.144 29.904 126.437 30.208 126.811 30.432C127.184 30.656 127.611 30.768 128.091 30.768C128.496 30.768 128.864 30.6987 129.195 30.56C129.536 30.4107 129.829 30.1973 130.075 29.92L131.019 30.88C130.667 31.2853 130.235 31.6 129.723 31.824C129.221 32.048 128.677 32.16 128.091 32.16ZM132.463 32V24.4H133.903V32H132.463ZM133.183 22.88C132.916 22.88 132.697 22.7947 132.527 22.624C132.356 22.4427 132.271 22.2187 132.271 21.952C132.271 21.696 132.356 21.4827 132.527 21.312C132.697 21.1307 132.916 21.04 133.183 21.04C133.449 21.04 133.668 21.1307 133.839 21.312C134.009 21.4827 134.095 21.696 134.095 21.952C134.095 22.2187 134.009 22.4427 133.839 22.624C133.668 22.7947 133.449 22.88 133.183 22.88ZM139.257 32.16C138.563 32.16 137.934 31.9893 137.369 31.648C136.803 31.296 136.355 30.8213 136.025 30.224C135.705 29.6267 135.545 28.9547 135.545 28.208C135.545 27.4613 135.705 26.7893 136.025 26.192C136.355 25.5947 136.798 25.12 137.353 24.768C137.918 24.416 138.553 24.24 139.257 24.24C139.833 24.24 140.345 24.3627 140.793 24.608C141.251 24.8427 141.619 25.1733 141.897 25.6C142.174 26.016 142.329 26.5013 142.361 27.056V29.344C142.329 29.888 142.174 30.3733 141.897 30.8C141.63 31.2267 141.267 31.5627 140.809 31.808C140.361 32.0427 139.843 32.16 139.257 32.16ZM139.497 30.8C140.211 30.8 140.787 30.56 141.225 30.08C141.662 29.5893 141.881 28.9653 141.881 28.208C141.881 27.6853 141.779 27.232 141.577 26.848C141.385 26.4533 141.107 26.1493 140.745 25.936C140.382 25.712 139.961 25.6 139.481 25.6C139.001 25.6 138.574 25.712 138.201 25.936C137.838 26.16 137.55 26.4693 137.337 26.864C137.134 27.248 137.033 27.6907 137.033 28.192C137.033 28.704 137.134 29.1573 137.337 29.552C137.55 29.936 137.843 30.24 138.217 30.464C138.59 30.688 139.017 30.8 139.497 30.8ZM141.785 32V29.952L142.057 28.096L141.785 26.256V24.4H143.241V32H141.785ZM145.337 32V20.576H146.777V32H145.337ZM152.212 32V24.4H153.652V32H152.212ZM157.348 32V27.408C157.348 26.8427 157.172 26.4 156.82 26.08C156.479 25.7493 156.047 25.584 155.524 25.584C155.172 25.584 154.858 25.6587 154.58 25.808C154.303 25.9573 154.079 26.1653 153.908 26.432C153.738 26.6987 153.652 27.0187 153.652 27.392L153.06 27.104C153.06 26.528 153.183 26.0267 153.428 25.6C153.684 25.1733 154.031 24.8427 154.468 24.608C154.906 24.3627 155.396 24.24 155.94 24.24C156.474 24.24 156.954 24.3573 157.38 24.592C157.818 24.8267 158.159 25.1573 158.404 25.584C158.66 26.0107 158.788 26.5173 158.788 27.104V32H157.348ZM162.484 32V27.408C162.484 26.8427 162.308 26.4 161.956 26.08C161.615 25.7493 161.188 25.584 160.676 25.584C160.324 25.584 160.004 25.6587 159.716 25.808C159.439 25.9573 159.215 26.1653 159.044 26.432C158.874 26.6987 158.788 27.0187 158.788 27.392L157.972 27.104C158.004 26.5173 158.159 26.016 158.436 25.6C158.724 25.1733 159.092 24.8427 159.54 24.608C159.988 24.3627 160.479 24.24 161.012 24.24C161.567 24.24 162.063 24.3573 162.5 24.592C162.938 24.8267 163.284 25.1573 163.54 25.584C163.807 26.0107 163.94 26.5227 163.94 27.12V32H162.484ZM169.42 32.16C168.662 32.16 167.98 31.9893 167.372 31.648C166.764 31.296 166.284 30.8213 165.932 30.224C165.58 29.6267 165.404 28.9493 165.404 28.192C165.404 27.4453 165.574 26.7733 165.916 26.176C166.268 25.5787 166.737 25.1093 167.324 24.768C167.921 24.416 168.588 24.24 169.324 24.24C170.028 24.24 170.646 24.4 171.18 24.72C171.724 25.04 172.145 25.4827 172.444 26.048C172.753 26.6133 172.908 27.2533 172.908 27.968C172.908 28.0747 172.902 28.192 172.892 28.32C172.881 28.4373 172.86 28.576 172.828 28.736H166.412V27.536H172.06L171.532 28C171.532 27.488 171.441 27.056 171.26 26.704C171.078 26.3413 170.822 26.064 170.492 25.872C170.161 25.6693 169.761 25.568 169.292 25.568C168.801 25.568 168.369 25.6747 167.996 25.888C167.622 26.1013 167.334 26.4 167.132 26.784C166.929 27.168 166.828 27.6213 166.828 28.144C166.828 28.6773 166.934 29.1467 167.148 29.552C167.361 29.9467 167.665 30.256 168.06 30.48C168.454 30.6933 168.908 30.8 169.42 30.8C169.846 30.8 170.236 30.7253 170.588 30.576C170.95 30.4267 171.26 30.2027 171.516 29.904L172.444 30.848C172.081 31.2747 171.633 31.6 171.1 31.824C170.577 32.048 170.017 32.16 169.42 32.16ZM177.694 32.16C176.99 32.16 176.361 31.9893 175.806 31.648C175.251 31.296 174.809 30.8213 174.478 30.224C174.158 29.6267 173.998 28.9547 173.998 28.208C173.998 27.4613 174.158 26.7893 174.478 26.192C174.809 25.5947 175.251 25.12 175.806 24.768C176.361 24.416 176.99 24.24 177.694 24.24C178.259 24.24 178.771 24.3627 179.23 24.608C179.689 24.8427 180.057 25.1733 180.334 25.6C180.622 26.016 180.782 26.5013 180.814 27.056V29.344C180.782 29.888 180.627 30.3733 180.35 30.8C180.073 31.2267 179.705 31.5627 179.246 31.808C178.787 32.0427 178.27 32.16 177.694 32.16ZM177.934 30.8C178.414 30.8 178.83 30.688 179.182 30.464C179.545 30.24 179.827 29.936 180.03 29.552C180.233 29.1573 180.334 28.7093 180.334 28.208C180.334 27.6853 180.227 27.232 180.014 26.848C179.811 26.464 179.529 26.16 179.166 25.936C178.814 25.712 178.398 25.6 177.918 25.6C177.438 25.6 177.017 25.712 176.654 25.936C176.291 26.16 176.003 26.4693 175.79 26.864C175.587 27.248 175.486 27.6907 175.486 28.192C175.486 28.704 175.587 29.1573 175.79 29.552C176.003 29.936 176.291 30.24 176.654 30.464C177.027 30.688 177.454 30.8 177.934 30.8ZM181.694 32H180.238V29.952L180.51 28.096L180.238 26.256V20.576H181.694V32ZM183.806 32V24.4H185.246V32H183.806ZM184.526 22.88C184.26 22.88 184.041 22.7947 183.87 22.624C183.7 22.4427 183.614 22.2187 183.614 21.952C183.614 21.696 183.7 21.4827 183.87 21.312C184.041 21.1307 184.26 21.04 184.526 21.04C184.793 21.04 185.012 21.1307 185.182 21.312C185.353 21.4827 185.438 21.696 185.438 21.952C185.438 22.2187 185.353 22.4427 185.182 22.624C185.012 22.7947 184.793 22.88 184.526 22.88ZM190.601 32.16C189.907 32.16 189.278 31.9893 188.713 31.648C188.147 31.296 187.699 30.8213 187.368 30.224C187.049 29.6267 186.889 28.9547 186.889 28.208C186.889 27.4613 187.049 26.7893 187.368 26.192C187.699 25.5947 188.142 25.12 188.697 24.768C189.262 24.416 189.897 24.24 190.601 24.24C191.177 24.24 191.689 24.3627 192.137 24.608C192.595 24.8427 192.963 25.1733 193.241 25.6C193.518 26.016 193.673 26.5013 193.705 27.056V29.344C193.673 29.888 193.518 30.3733 193.241 30.8C192.974 31.2267 192.611 31.5627 192.153 31.808C191.705 32.0427 191.187 32.16 190.601 32.16ZM190.841 30.8C191.555 30.8 192.131 30.56 192.569 30.08C193.006 29.5893 193.225 28.9653 193.225 28.208C193.225 27.6853 193.123 27.232 192.921 26.848C192.729 26.4533 192.451 26.1493 192.089 25.936C191.726 25.712 191.305 25.6 190.825 25.6C190.345 25.6 189.918 25.712 189.545 25.936C189.182 26.16 188.894 26.4693 188.681 26.864C188.478 27.248 188.377 27.6907 188.377 28.192C188.377 28.704 188.478 29.1573 188.681 29.552C188.894 29.936 189.187 30.24 189.561 30.464C189.934 30.688 190.361 30.8 190.841 30.8ZM193.129 32V29.952L193.401 28.096L193.129 26.256V24.4H194.585V32H193.129Z" fill="white"/>
<g filter="url(#filter3_f_965_963)">
<circle cx="229.5" cy="103.5" r="49.5" fill="#0A60AD"/>
</g>
<g filter="url(#filter4_f_965_963)">
<circle cx="-16.5" cy="107.5" r="49.5" fill="#0A5FAD"/>
</g>
</g>
<rect x="0.5" y="0.5" width="215" height="215" rx="17.5" stroke="url(#paint3_linear_965_963)"/>
<defs>
<filter id="filter0_f_965_963" x="104" y="-73" width="199" height="199" filterUnits="userSpaceOnUse" color-interpolation-filters="sRGB">
<feFlood flood-opacity="0" result="BackgroundImageFix"/>
<feBlend mode="normal" in="SourceGraphic" in2="BackgroundImageFix" result="shape"/>
<feGaussianBlur stdDeviation="25" result="effect1_foregroundBlur_965_963"/>
</filter>
<filter id="filter1_f_965_963" x="-67" y="91" width="199" height="199" filterUnits="userSpaceOnUse" color-interpolation-filters="sRGB">
<feFlood flood-opacity="0" result="BackgroundImageFix"/>
<feBlend mode="normal" in="SourceGraphic" in2="BackgroundImageFix" result="shape"/>
<feGaussianBlur stdDeviation="25" result="effect1_foregroundBlur_965_963"/>
</filter>
<filter id="filter2_f_965_963" x="-56" y="-79" width="199" height="199" filterUnits="userSpaceOnUse" color-interpolation-filters="sRGB">
<feFlood flood-opacity="0" result="BackgroundImageFix"/>
<feBlend mode="normal" in="SourceGraphic" in2="BackgroundImageFix" result="shape"/>
<feGaussianBlur stdDeviation="25" result="effect1_foregroundBlur_965_963"/>
</filter>
<filter id="filter3_f_965_963" x="130" y="4" width="199" height="199" filterUnits="userSpaceOnUse" color-interpolation-filters="sRGB">
<feFlood flood-opacity="0" result="BackgroundImageFix"/>
<feBlend mode="normal" in="SourceGraphic" in2="BackgroundImageFix" result="shape"/>
<feGaussianBlur stdDeviation="25" result="effect1_foregroundBlur_965_963"/>
</filter>
<filter id="filter4_f_965_963" x="-116" y="8" width="199" height="199" filterUnits="userSpaceOnUse" color-interpolation-filters="sRGB">
<feFlood flood-opacity="0" result="BackgroundImageFix"/>
<feBlend mode="normal" in="SourceGraphic" in2="BackgroundImageFix" result="shape"/>
<feGaussianBlur stdDeviation="25" result="effect1_foregroundBlur_965_963"/>
</filter>
<linearGradient id="paint0_linear_965_963" x1="114" y1="7" x2="114" y2="64" gradientUnits="userSpaceOnUse">
<stop stop-color="#0A60AD"/>
<stop offset="1" stop-color="#0E86F1"/>
</linearGradient>
<linearGradient id="paint1_linear_965_963" x1="114.5" y1="153" x2="114.033" y2="210.501" gradientUnits="userSpaceOnUse">
<stop stop-color="#0E86F1"/>
<stop offset="1" stop-color="#0A60AD"/>
</linearGradient>
<radialGradient id="paint2_radial_965_963" cx="0" cy="0" r="1" gradientTransform="matrix(126.269 -26.5 -35.2647 110.361 110.5 108.5)" gradientUnits="userSpaceOnUse">
<stop offset="0.573912" stop-color="white"/>
<stop offset="0.911752" stop-color="white" stop-opacity="0.6"/>
</radialGradient>
<linearGradient id="paint3_linear_965_963" x1="216" y1="7.5" x2="6.00001" y2="216" gradientUnits="userSpaceOnUse">
<stop stop-color="#A9EFFB"/>
<stop offset="0.490385" stop-color="#A9EFFB" stop-opacity="0"/>
<stop offset="1" stop-color="#A9EFFB"/>
</linearGradient>
<clipPath id="clip0_965_963">
<rect width="216" height="216" rx="18" fill="white"/>
</clipPath>
</defs>
</svg>
