<svg width="228" height="228" viewBox="0 0 228 228" fill="none" xmlns="http://www.w3.org/2000/svg">
<rect width="228" height="228" rx="24" fill="white" fill-opacity="0.05"/>
<g clip-path="url(#clip0_965_962)">
<rect x="6" y="6" width="216" height="216" rx="18" fill="#0A60AD"/>
<path d="M14.5839 30.4334C14.5839 28.8056 51.6202 11.8504 60.0029 27.5231C67.1232 40.8355 -35.8684 116.358 -6.82452 130.884C17.3687 142.985 164.132 -19.1421 192.556 -5.14194C220.979 8.85827 -6.75555 187.68 80.7023 188.901C130.718 189.598 220.632 85.3578 238.632 99.8578C250.95 109.78 179.132 214.858 161.123 233.358" stroke="#0A6CC2" stroke-width="30" stroke-linecap="round"/>
<path d="M17.656 47.644L38.08 4.772H55.744L34.768 47.644H17.656ZM17.656 56.66V47.644L22.44 42.952H70.648V56.66H17.656ZM48.292 70V30.716H64.392V70H48.292ZM95.3299 71.012C90.6685 71.012 86.4672 70.0307 82.7259 68.068C79.0459 66.044 76.1019 63.3147 73.8939 59.88C71.7472 56.384 70.6739 52.4893 70.6739 48.196C70.6739 42.86 72.5139 37.4933 76.1939 32.096L94.8699 4.772H113.27L92.0179 34.12L85.9459 33.568C86.8659 32.096 87.7859 30.8387 88.7059 29.796C89.6872 28.692 90.8832 27.8333 92.2939 27.22C93.7045 26.6067 95.5752 26.3 97.9059 26.3C102.015 26.3 105.726 27.2813 109.038 29.244C112.411 31.1453 115.079 33.752 117.042 37.064C119.066 40.3147 120.078 43.9947 120.078 48.104C120.078 52.4587 118.974 56.3533 116.766 59.788C114.619 63.2227 111.675 65.952 107.934 67.976C104.254 70 100.053 71.012 95.3299 71.012ZM95.3299 57.12C97.1085 57.12 98.6725 56.7213 100.022 55.924C101.371 55.1267 102.414 54.0227 103.15 52.612C103.947 51.14 104.346 49.5147 104.346 47.736C104.346 45.9573 103.947 44.3627 103.15 42.952C102.414 41.48 101.371 40.3453 100.022 39.548C98.6725 38.7507 97.1085 38.352 95.3299 38.352C93.6125 38.352 92.0792 38.7813 90.7299 39.64C89.3805 40.4373 88.3072 41.5413 87.5099 42.952C86.7739 44.3627 86.4059 45.9573 86.4059 47.736C86.4059 49.5147 86.7739 51.14 87.5099 52.612C88.3072 54.0227 89.3805 55.1267 90.7299 55.924C92.0792 56.7213 93.6125 57.12 95.3299 57.12ZM119.995 47.644L140.419 4.772H158.083L137.107 47.644H119.995ZM119.995 56.66V47.644L124.779 42.952H172.987V56.66H119.995ZM150.631 70V30.716H166.731V70H150.631ZM197.301 71.012C192.456 71.012 188.224 70.184 184.605 68.528C181.048 66.872 178.288 64.6027 176.325 61.72C174.362 58.8373 173.381 55.5253 173.381 51.784C173.381 48.656 173.964 45.8347 175.129 43.32C176.356 40.8053 178.042 38.7507 180.189 37.156C182.397 35.5 184.912 34.396 187.733 33.844L187.457 36.88C185.004 36.3893 182.918 35.408 181.201 33.936C179.484 32.4027 178.165 30.5627 177.245 28.416C176.325 26.208 175.865 23.9387 175.865 21.608C175.865 18.112 176.754 15.0147 178.533 12.316C180.373 9.61733 182.888 7.50133 186.077 5.968C189.328 4.43466 193.069 3.668 197.301 3.668C201.533 3.668 205.244 4.43466 208.433 5.968C211.622 7.50133 214.106 9.61733 215.885 12.316C217.725 15.0147 218.645 18.112 218.645 21.608C218.645 23.9387 218.185 26.208 217.265 28.416C216.345 30.5627 215.026 32.4027 213.309 33.936C211.592 35.408 209.506 36.3893 207.053 36.88L206.685 33.844C209.568 34.396 212.082 35.5 214.229 37.156C216.437 38.7507 218.124 40.8053 219.289 43.32C220.516 45.8347 221.129 48.656 221.129 51.784C221.129 55.5253 220.148 58.8373 218.185 61.72C216.222 64.6027 213.432 66.872 209.813 68.528C206.256 70.184 202.085 71.012 197.301 71.012ZM197.301 57.304C198.896 57.304 200.306 56.9667 201.533 56.292C202.821 55.6173 203.802 54.6973 204.477 53.532C205.213 52.3053 205.581 50.9253 205.581 49.392C205.581 47.8587 205.213 46.5093 204.477 45.344C203.802 44.1787 202.821 43.2587 201.533 42.584C200.306 41.848 198.896 41.48 197.301 41.48C195.645 41.48 194.204 41.848 192.977 42.584C191.75 43.2587 190.769 44.1787 190.033 45.344C189.297 46.5093 188.929 47.8587 188.929 49.392C188.929 50.9253 189.297 52.3053 190.033 53.532C190.769 54.6973 191.75 55.6173 192.977 56.292C194.204 56.9667 195.645 57.304 197.301 57.304ZM197.301 29.796C199.141 29.796 200.644 29.2133 201.809 28.048C203.036 26.8827 203.649 25.38 203.649 23.54C203.649 21.6387 203.036 20.0747 201.809 18.848C200.644 17.6213 199.141 17.008 197.301 17.008C195.4 17.008 193.836 17.6213 192.609 18.848C191.444 20.0133 190.861 21.516 190.861 23.356C190.861 25.196 191.444 26.7293 192.609 27.956C193.836 29.1827 195.4 29.796 197.301 29.796Z" fill="url(#paint0_linear_965_962)"/>
<path d="M17.656 201.644L38.08 158.772H55.744L34.768 201.644H17.656ZM17.656 210.66V201.644L22.44 196.952H70.648V210.66H17.656ZM48.292 224V184.716H64.392V224H48.292ZM95.3299 225.012C90.6685 225.012 86.4672 224.031 82.7259 222.068C79.0459 220.044 76.1019 217.315 73.8939 213.88C71.7472 210.384 70.6739 206.489 70.6739 202.196C70.6739 196.86 72.5139 191.493 76.1939 186.096L94.8699 158.772H113.27L92.0179 188.12L85.9459 187.568C86.8659 186.096 87.7859 184.839 88.7059 183.796C89.6872 182.692 90.8832 181.833 92.2939 181.22C93.7045 180.607 95.5752 180.3 97.9059 180.3C102.015 180.3 105.726 181.281 109.038 183.244C112.411 185.145 115.079 187.752 117.042 191.064C119.066 194.315 120.078 197.995 120.078 202.104C120.078 206.459 118.974 210.353 116.766 213.788C114.619 217.223 111.675 219.952 107.934 221.976C104.254 224 100.053 225.012 95.3299 225.012ZM95.3299 211.12C97.1085 211.12 98.6725 210.721 100.022 209.924C101.371 209.127 102.414 208.023 103.15 206.612C103.947 205.14 104.346 203.515 104.346 201.736C104.346 199.957 103.947 198.363 103.15 196.952C102.414 195.48 101.371 194.345 100.022 193.548C98.6725 192.751 97.1085 192.352 95.3299 192.352C93.6125 192.352 92.0792 192.781 90.7299 193.64C89.3805 194.437 88.3072 195.541 87.5099 196.952C86.7739 198.363 86.4059 199.957 86.4059 201.736C86.4059 203.515 86.7739 205.14 87.5099 206.612C88.3072 208.023 89.3805 209.127 90.7299 209.924C92.0792 210.721 93.6125 211.12 95.3299 211.12ZM119.995 201.644L140.419 158.772H158.083L137.107 201.644H119.995ZM119.995 210.66V201.644L124.779 196.952H172.987V210.66H119.995ZM150.631 224V184.716H166.731V224H150.631ZM197.669 225.012C193.008 225.012 188.806 224.031 185.065 222.068C181.385 220.044 178.441 217.315 176.233 213.88C174.086 210.384 173.013 206.489 173.013 202.196C173.013 196.86 174.853 191.493 178.533 186.096L197.209 158.772H215.609L194.357 188.12L188.285 187.568C189.205 186.096 190.125 184.839 191.045 183.796C192.026 182.692 193.222 181.833 194.633 181.22C196.044 180.607 197.914 180.3 200.245 180.3C204.354 180.3 208.065 181.281 211.377 183.244C214.75 185.145 217.418 187.752 219.381 191.064C221.405 194.315 222.417 197.995 222.417 202.104C222.417 206.459 221.313 210.353 219.105 213.788C216.958 217.223 214.014 219.952 210.273 221.976C206.593 224 202.392 225.012 197.669 225.012ZM197.669 211.12C199.448 211.12 201.012 210.721 202.361 209.924C203.71 209.127 204.753 208.023 205.489 206.612C206.286 205.14 206.685 203.515 206.685 201.736C206.685 199.957 206.286 198.363 205.489 196.952C204.753 195.48 203.71 194.345 202.361 193.548C201.012 192.751 199.448 192.352 197.669 192.352C195.952 192.352 194.418 192.781 193.069 193.64C191.72 194.437 190.646 195.541 189.849 196.952C189.113 198.363 188.745 199.957 188.745 201.736C188.745 203.515 189.113 205.14 189.849 206.612C190.646 208.023 191.72 209.127 193.069 209.924C194.418 210.721 195.952 211.12 197.669 211.12Z" fill="url(#paint1_linear_965_962)"/>
<g filter="url(#filter1_f_965_962)">
<circle cx="209.5" cy="32.5" r="49.5" fill="#0A60AD"/>
</g>
<g filter="url(#filter2_f_965_962)">
<circle cx="38.5" cy="196.5" r="49.5" fill="#0A60AD"/>
</g>
<path d="M17.656 124.644L38.08 81.772H55.744L34.768 124.644H17.656ZM17.656 133.66V124.644L22.44 119.952H70.648V133.66H17.656ZM48.292 147V107.716H64.392V147H48.292ZM95.3299 148.012C90.6685 148.012 86.4672 147.031 82.7259 145.068C79.0459 143.044 76.1019 140.315 73.8939 136.88C71.7472 133.384 70.6739 129.489 70.6739 125.196C70.6739 119.86 72.5139 114.493 76.1939 109.096L94.8699 81.772H113.27L92.0179 111.12L85.9459 110.568C86.8659 109.096 87.7859 107.839 88.7059 106.796C89.6872 105.692 90.8832 104.833 92.2939 104.22C93.7045 103.607 95.5752 103.3 97.9059 103.3C102.015 103.3 105.726 104.281 109.038 106.244C112.411 108.145 115.079 110.752 117.042 114.064C119.066 117.315 120.078 120.995 120.078 125.104C120.078 129.459 118.974 133.353 116.766 136.788C114.619 140.223 111.675 142.952 107.934 144.976C104.254 147 100.053 148.012 95.3299 148.012ZM95.3299 134.12C97.1085 134.12 98.6725 133.721 100.022 132.924C101.371 132.127 102.414 131.023 103.15 129.612C103.947 128.14 104.346 126.515 104.346 124.736C104.346 122.957 103.947 121.363 103.15 119.952C102.414 118.48 101.371 117.345 100.022 116.548C98.6725 115.751 97.1085 115.352 95.3299 115.352C93.6125 115.352 92.0792 115.781 90.7299 116.64C89.3805 117.437 88.3072 118.541 87.5099 119.952C86.7739 121.363 86.4059 122.957 86.4059 124.736C86.4059 126.515 86.7739 128.14 87.5099 129.612C88.3072 131.023 89.3805 132.127 90.7299 132.924C92.0792 133.721 93.6125 134.12 95.3299 134.12ZM119.995 124.644L140.419 81.772H158.083L137.107 124.644H119.995ZM119.995 133.66V124.644L124.779 119.952H172.987V133.66H119.995ZM150.631 147V107.716H166.731V147H150.631ZM177.513 147L198.857 90.788H214.773L194.349 147H177.513ZM169.049 95.48V81.772H214.773V90.788L209.805 95.48H169.049Z" fill="url(#paint2_radial_965_962)"/>
<g filter="url(#filter3_f_965_962)">
<circle cx="49.5" cy="26.5" r="49.5" fill="#0A5FAD"/>
</g>
<path d="M23.312 38V26.896H24.816V38H23.312ZM24.336 33.12V31.744H30.128V33.12H24.336ZM24.336 28.272V26.896H30.4V28.272H24.336ZM35.278 38.16C34.5313 38.16 33.8593 37.984 33.262 37.632C32.6647 37.28 32.19 36.8053 31.838 36.208C31.486 35.6 31.31 34.9227 31.31 34.176C31.31 33.44 31.486 32.7787 31.838 32.192C32.19 31.5947 32.6647 31.12 33.262 30.768C33.8593 30.416 34.5313 30.24 35.278 30.24C36.014 30.24 36.6807 30.416 37.278 30.768C37.886 31.1093 38.366 31.5787 38.718 32.176C39.07 32.7733 39.246 33.44 39.246 34.176C39.246 34.9227 39.07 35.6 38.718 36.208C38.366 36.8053 37.886 37.28 37.278 37.632C36.6807 37.984 36.014 38.16 35.278 38.16ZM35.278 36.768C35.758 36.768 36.1847 36.656 36.558 36.432C36.9313 36.208 37.2247 35.904 37.438 35.52C37.6513 35.1253 37.758 34.6773 37.758 34.176C37.758 33.6853 37.646 33.248 37.422 32.864C37.2087 32.48 36.9153 32.1813 36.542 31.968C36.1793 31.744 35.758 31.632 35.278 31.632C34.798 31.632 34.3713 31.744 33.998 31.968C33.6247 32.1813 33.3313 32.48 33.118 32.864C32.9047 33.248 32.798 33.6853 32.798 34.176C32.798 34.6773 32.9047 35.1253 33.118 35.52C33.3313 35.904 33.6247 36.208 33.998 36.432C34.3713 36.656 34.798 36.768 35.278 36.768ZM40.8685 38V26.576H42.3085V38H40.8685ZM44.4154 38V26.576H45.8554V38H44.4154ZM51.4343 38.16C50.6876 38.16 50.0156 37.984 49.4183 37.632C48.8209 37.28 48.3463 36.8053 47.9943 36.208C47.6423 35.6 47.4663 34.9227 47.4663 34.176C47.4663 33.44 47.6423 32.7787 47.9943 32.192C48.3463 31.5947 48.8209 31.12 49.4183 30.768C50.0156 30.416 50.6876 30.24 51.4343 30.24C52.1703 30.24 52.8369 30.416 53.4343 30.768C54.0423 31.1093 54.5223 31.5787 54.8743 32.176C55.2263 32.7733 55.4023 33.44 55.4023 34.176C55.4023 34.9227 55.2263 35.6 54.8743 36.208C54.5223 36.8053 54.0423 37.28 53.4343 37.632C52.8369 37.984 52.1703 38.16 51.4343 38.16ZM51.4343 36.768C51.9143 36.768 52.3409 36.656 52.7143 36.432C53.0876 36.208 53.3809 35.904 53.5943 35.52C53.8076 35.1253 53.9143 34.6773 53.9143 34.176C53.9143 33.6853 53.8023 33.248 53.5783 32.864C53.3649 32.48 53.0716 32.1813 52.6983 31.968C52.3356 31.744 51.9143 31.632 51.4343 31.632C50.9543 31.632 50.5276 31.744 50.1543 31.968C49.7809 32.1813 49.4876 32.48 49.2743 32.864C49.0609 33.248 48.9543 33.6853 48.9543 34.176C48.9543 34.6773 49.0609 35.1253 49.2743 35.52C49.4876 35.904 49.7809 36.208 50.1543 36.432C50.5276 36.656 50.9543 36.768 51.4343 36.768ZM58.982 38L55.974 30.4H57.478L59.654 36.32H59.174L61.334 30.4H62.166L64.326 36.32H63.846L66.022 30.4H67.526L64.534 38H63.686L61.494 32.256H62.022L59.814 38H58.982ZM72.1073 38.16C71.3499 38.16 70.6673 37.9893 70.0593 37.648C69.4513 37.296 68.9713 36.8213 68.6193 36.224C68.2673 35.6267 68.0913 34.9493 68.0913 34.192C68.0913 33.4453 68.2619 32.7733 68.6033 32.176C68.9553 31.5787 69.4246 31.1093 70.0113 30.768C70.6086 30.416 71.2753 30.24 72.0113 30.24C72.7153 30.24 73.3339 30.4 73.8673 30.72C74.4113 31.04 74.8326 31.4827 75.1313 32.048C75.4406 32.6133 75.5953 33.2533 75.5953 33.968C75.5953 34.0747 75.5899 34.192 75.5793 34.32C75.5686 34.4373 75.5473 34.576 75.5153 34.736H69.0993V33.536H74.7473L74.2193 34C74.2193 33.488 74.1286 33.056 73.9473 32.704C73.7659 32.3413 73.5099 32.064 73.1793 31.872C72.8486 31.6693 72.4486 31.568 71.9793 31.568C71.4886 31.568 71.0566 31.6747 70.6833 31.888C70.3099 32.1013 70.0219 32.4 69.8193 32.784C69.6166 33.168 69.5153 33.6213 69.5153 34.144C69.5153 34.6773 69.6219 35.1467 69.8353 35.552C70.0486 35.9467 70.3526 36.256 70.7473 36.48C71.1419 36.6933 71.5953 36.8 72.1073 36.8C72.5339 36.8 72.9233 36.7253 73.2753 36.576C73.6379 36.4267 73.9473 36.2027 74.2033 35.904L75.1313 36.848C74.7686 37.2747 74.3206 37.6 73.7873 37.824C73.2646 38.048 72.7046 38.16 72.1073 38.16ZM77.1654 38V30.4H78.6054V38H77.1654ZM78.6054 33.664L78.0614 33.424C78.0614 32.4533 78.2854 31.68 78.7334 31.104C79.1814 30.528 79.8267 30.24 80.6694 30.24C81.0534 30.24 81.4 30.3093 81.7094 30.448C82.0187 30.576 82.3067 30.7947 82.5734 31.104L81.6294 32.08C81.4694 31.9093 81.2934 31.7867 81.1014 31.712C80.9094 31.6373 80.6854 31.6 80.4294 31.6C79.896 31.6 79.4587 31.7707 79.1174 32.112C78.776 32.4533 78.6054 32.9707 78.6054 33.664ZM85.8314 38.16C85.4047 38.16 84.9994 38.1067 84.6154 38C84.242 37.8827 83.8954 37.7227 83.5754 37.52C83.2554 37.3067 82.978 37.056 82.7434 36.768L83.6714 35.84C83.9487 36.1813 84.2687 36.4373 84.6314 36.608C84.994 36.768 85.3994 36.848 85.8474 36.848C86.2954 36.848 86.642 36.7733 86.8874 36.624C87.1327 36.464 87.2554 36.2453 87.2554 35.968C87.2554 35.6907 87.154 35.4773 86.9514 35.328C86.7594 35.168 86.5087 35.04 86.1994 34.944C85.89 34.8373 85.5594 34.736 85.2074 34.64C84.866 34.5333 84.5407 34.4 84.2314 34.24C83.922 34.08 83.666 33.8613 83.4634 33.584C83.2714 33.3067 83.1754 32.9387 83.1754 32.48C83.1754 32.0213 83.2874 31.6267 83.5114 31.296C83.7354 30.9547 84.0447 30.6933 84.4394 30.512C84.8447 30.3307 85.33 30.24 85.8954 30.24C86.4927 30.24 87.0207 30.3467 87.4794 30.56C87.9487 30.7627 88.3327 31.072 88.6314 31.488L87.7034 32.416C87.49 32.1387 87.2234 31.9253 86.9034 31.776C86.594 31.6267 86.242 31.552 85.8474 31.552C85.4314 31.552 85.1114 31.6267 84.8874 31.776C84.674 31.9147 84.5674 32.112 84.5674 32.368C84.5674 32.624 84.6634 32.8213 84.8554 32.96C85.0474 33.0987 85.298 33.216 85.6074 33.312C85.9274 33.408 86.258 33.5093 86.5994 33.616C86.9407 33.712 87.266 33.8453 87.5754 34.016C87.8847 34.1867 88.1354 34.416 88.3274 34.704C88.53 34.992 88.6314 35.3707 88.6314 35.84C88.6314 36.5547 88.3754 37.12 87.8634 37.536C87.362 37.952 86.6847 38.16 85.8314 38.16ZM97.0436 38.16C96.297 38.16 95.625 37.984 95.0276 37.632C94.4303 37.28 93.9556 36.8053 93.6036 36.208C93.2516 35.6 93.0756 34.9227 93.0756 34.176C93.0756 33.44 93.2516 32.7787 93.6036 32.192C93.9556 31.5947 94.4303 31.12 95.0276 30.768C95.625 30.416 96.297 30.24 97.0436 30.24C97.7796 30.24 98.4463 30.416 99.0436 30.768C99.6516 31.1093 100.132 31.5787 100.484 32.176C100.836 32.7733 101.012 33.44 101.012 34.176C101.012 34.9227 100.836 35.6 100.484 36.208C100.132 36.8053 99.6516 37.28 99.0436 37.632C98.4463 37.984 97.7796 38.16 97.0436 38.16ZM97.0436 36.768C97.5236 36.768 97.9503 36.656 98.3236 36.432C98.697 36.208 98.9903 35.904 99.2036 35.52C99.417 35.1253 99.5236 34.6773 99.5236 34.176C99.5236 33.6853 99.4116 33.248 99.1876 32.864C98.9743 32.48 98.681 32.1813 98.3076 31.968C97.945 31.744 97.5236 31.632 97.0436 31.632C96.5636 31.632 96.137 31.744 95.7636 31.968C95.3903 32.1813 95.097 32.48 94.8836 32.864C94.6703 33.248 94.5636 33.6853 94.5636 34.176C94.5636 34.6773 94.6703 35.1253 94.8836 35.52C95.097 35.904 95.3903 36.208 95.7636 36.432C96.137 36.656 96.5636 36.768 97.0436 36.768ZM108.01 38V33.568C108.01 32.992 107.829 32.5173 107.466 32.144C107.103 31.7707 106.634 31.584 106.058 31.584C105.674 31.584 105.333 31.6693 105.034 31.84C104.735 32.0107 104.501 32.2453 104.33 32.544C104.159 32.8427 104.074 33.184 104.074 33.568L103.482 33.232C103.482 32.656 103.61 32.144 103.866 31.696C104.122 31.248 104.479 30.896 104.938 30.64C105.397 30.3733 105.914 30.24 106.49 30.24C107.066 30.24 107.573 30.384 108.01 30.672C108.458 30.96 108.81 31.3387 109.066 31.808C109.322 32.2667 109.45 32.7573 109.45 33.28V38H108.01ZM102.634 38V30.4H104.074V38H102.634ZM117.144 38.16C116.717 38.16 116.312 38.1067 115.928 38C115.555 37.8827 115.208 37.7227 114.888 37.52C114.568 37.3067 114.291 37.056 114.056 36.768L114.984 35.84C115.261 36.1813 115.581 36.4373 115.944 36.608C116.307 36.768 116.712 36.848 117.16 36.848C117.608 36.848 117.955 36.7733 118.2 36.624C118.445 36.464 118.568 36.2453 118.568 35.968C118.568 35.6907 118.467 35.4773 118.264 35.328C118.072 35.168 117.821 35.04 117.512 34.944C117.203 34.8373 116.872 34.736 116.52 34.64C116.179 34.5333 115.853 34.4 115.544 34.24C115.235 34.08 114.979 33.8613 114.776 33.584C114.584 33.3067 114.488 32.9387 114.488 32.48C114.488 32.0213 114.6 31.6267 114.824 31.296C115.048 30.9547 115.357 30.6933 115.752 30.512C116.157 30.3307 116.643 30.24 117.208 30.24C117.805 30.24 118.333 30.3467 118.792 30.56C119.261 30.7627 119.645 31.072 119.944 31.488L119.016 32.416C118.803 32.1387 118.536 31.9253 118.216 31.776C117.907 31.6267 117.555 31.552 117.16 31.552C116.744 31.552 116.424 31.6267 116.2 31.776C115.987 31.9147 115.88 32.112 115.88 32.368C115.88 32.624 115.976 32.8213 116.168 32.96C116.36 33.0987 116.611 33.216 116.92 33.312C117.24 33.408 117.571 33.5093 117.912 33.616C118.253 33.712 118.579 33.8453 118.888 34.016C119.197 34.1867 119.448 34.416 119.64 34.704C119.843 34.992 119.944 35.3707 119.944 35.84C119.944 36.5547 119.688 37.12 119.176 37.536C118.675 37.952 117.997 38.16 117.144 38.16ZM125.028 38.16C124.281 38.16 123.609 37.984 123.012 37.632C122.415 37.28 121.94 36.8053 121.588 36.208C121.236 35.6 121.06 34.9227 121.06 34.176C121.06 33.44 121.236 32.7787 121.588 32.192C121.94 31.5947 122.415 31.12 123.012 30.768C123.609 30.416 124.281 30.24 125.028 30.24C125.764 30.24 126.431 30.416 127.028 30.768C127.636 31.1093 128.116 31.5787 128.468 32.176C128.82 32.7733 128.996 33.44 128.996 34.176C128.996 34.9227 128.82 35.6 128.468 36.208C128.116 36.8053 127.636 37.28 127.028 37.632C126.431 37.984 125.764 38.16 125.028 38.16ZM125.028 36.768C125.508 36.768 125.935 36.656 126.308 36.432C126.681 36.208 126.975 35.904 127.188 35.52C127.401 35.1253 127.508 34.6773 127.508 34.176C127.508 33.6853 127.396 33.248 127.172 32.864C126.959 32.48 126.665 32.1813 126.292 31.968C125.929 31.744 125.508 31.632 125.028 31.632C124.548 31.632 124.121 31.744 123.748 31.968C123.375 32.1813 123.081 32.48 122.868 32.864C122.655 33.248 122.548 33.6853 122.548 34.176C122.548 34.6773 122.655 35.1253 122.868 35.52C123.081 35.904 123.375 36.208 123.748 36.432C124.121 36.656 124.548 36.768 125.028 36.768ZM134.091 38.16C133.344 38.16 132.667 37.984 132.059 37.632C131.461 37.28 130.987 36.8053 130.635 36.208C130.293 35.6 130.123 34.928 130.123 34.192C130.123 33.4453 130.293 32.7733 130.635 32.176C130.987 31.5787 131.461 31.1093 132.059 30.768C132.667 30.416 133.344 30.24 134.091 30.24C134.677 30.24 135.221 30.352 135.723 30.576C136.224 30.7893 136.656 31.104 137.019 31.52L136.059 32.48C135.824 32.2027 135.536 31.9947 135.195 31.856C134.864 31.7067 134.496 31.632 134.091 31.632C133.611 31.632 133.184 31.744 132.811 31.968C132.437 32.1813 132.144 32.48 131.931 32.864C131.717 33.248 131.611 33.6907 131.611 34.192C131.611 34.6933 131.717 35.136 131.931 35.52C132.144 35.904 132.437 36.208 132.811 36.432C133.184 36.656 133.611 36.768 134.091 36.768C134.496 36.768 134.864 36.6987 135.195 36.56C135.536 36.4107 135.829 36.1973 136.075 35.92L137.019 36.88C136.667 37.2853 136.235 37.6 135.723 37.824C135.221 38.048 134.677 38.16 134.091 38.16ZM138.463 38V30.4H139.903V38H138.463ZM139.183 28.88C138.916 28.88 138.697 28.7947 138.527 28.624C138.356 28.4427 138.271 28.2187 138.271 27.952C138.271 27.696 138.356 27.4827 138.527 27.312C138.697 27.1307 138.916 27.04 139.183 27.04C139.449 27.04 139.668 27.1307 139.839 27.312C140.009 27.4827 140.095 27.696 140.095 27.952C140.095 28.2187 140.009 28.4427 139.839 28.624C139.668 28.7947 139.449 28.88 139.183 28.88ZM145.257 38.16C144.563 38.16 143.934 37.9893 143.369 37.648C142.803 37.296 142.355 36.8213 142.025 36.224C141.705 35.6267 141.545 34.9547 141.545 34.208C141.545 33.4613 141.705 32.7893 142.025 32.192C142.355 31.5947 142.798 31.12 143.353 30.768C143.918 30.416 144.553 30.24 145.257 30.24C145.833 30.24 146.345 30.3627 146.793 30.608C147.251 30.8427 147.619 31.1733 147.897 31.6C148.174 32.016 148.329 32.5013 148.361 33.056V35.344C148.329 35.888 148.174 36.3733 147.897 36.8C147.63 37.2267 147.267 37.5627 146.809 37.808C146.361 38.0427 145.843 38.16 145.257 38.16ZM145.497 36.8C146.211 36.8 146.787 36.56 147.225 36.08C147.662 35.5893 147.881 34.9653 147.881 34.208C147.881 33.6853 147.779 33.232 147.577 32.848C147.385 32.4533 147.107 32.1493 146.745 31.936C146.382 31.712 145.961 31.6 145.481 31.6C145.001 31.6 144.574 31.712 144.201 31.936C143.838 32.16 143.55 32.4693 143.337 32.864C143.134 33.248 143.033 33.6907 143.033 34.192C143.033 34.704 143.134 35.1573 143.337 35.552C143.55 35.936 143.843 36.24 144.217 36.464C144.59 36.688 145.017 36.8 145.497 36.8ZM147.785 38V35.952L148.057 34.096L147.785 32.256V30.4H149.241V38H147.785ZM151.337 38V26.576H152.777V38H151.337ZM158.212 38V30.4H159.652V38H158.212ZM163.348 38V33.408C163.348 32.8427 163.172 32.4 162.82 32.08C162.479 31.7493 162.047 31.584 161.524 31.584C161.172 31.584 160.858 31.6587 160.58 31.808C160.303 31.9573 160.079 32.1653 159.908 32.432C159.738 32.6987 159.652 33.0187 159.652 33.392L159.06 33.104C159.06 32.528 159.183 32.0267 159.428 31.6C159.684 31.1733 160.031 30.8427 160.468 30.608C160.906 30.3627 161.396 30.24 161.94 30.24C162.474 30.24 162.954 30.3573 163.38 30.592C163.818 30.8267 164.159 31.1573 164.404 31.584C164.66 32.0107 164.788 32.5173 164.788 33.104V38H163.348ZM168.484 38V33.408C168.484 32.8427 168.308 32.4 167.956 32.08C167.615 31.7493 167.188 31.584 166.676 31.584C166.324 31.584 166.004 31.6587 165.716 31.808C165.439 31.9573 165.215 32.1653 165.044 32.432C164.874 32.6987 164.788 33.0187 164.788 33.392L163.972 33.104C164.004 32.5173 164.159 32.016 164.436 31.6C164.724 31.1733 165.092 30.8427 165.54 30.608C165.988 30.3627 166.479 30.24 167.012 30.24C167.567 30.24 168.063 30.3573 168.5 30.592C168.938 30.8267 169.284 31.1573 169.54 31.584C169.807 32.0107 169.94 32.5227 169.94 33.12V38H168.484ZM175.42 38.16C174.662 38.16 173.98 37.9893 173.372 37.648C172.764 37.296 172.284 36.8213 171.932 36.224C171.58 35.6267 171.404 34.9493 171.404 34.192C171.404 33.4453 171.574 32.7733 171.916 32.176C172.268 31.5787 172.737 31.1093 173.324 30.768C173.921 30.416 174.588 30.24 175.324 30.24C176.028 30.24 176.646 30.4 177.18 30.72C177.724 31.04 178.145 31.4827 178.444 32.048C178.753 32.6133 178.908 33.2533 178.908 33.968C178.908 34.0747 178.902 34.192 178.892 34.32C178.881 34.4373 178.86 34.576 178.828 34.736H172.412V33.536H178.06L177.532 34C177.532 33.488 177.441 33.056 177.26 32.704C177.078 32.3413 176.822 32.064 176.492 31.872C176.161 31.6693 175.761 31.568 175.292 31.568C174.801 31.568 174.369 31.6747 173.996 31.888C173.622 32.1013 173.334 32.4 173.132 32.784C172.929 33.168 172.828 33.6213 172.828 34.144C172.828 34.6773 172.934 35.1467 173.148 35.552C173.361 35.9467 173.665 36.256 174.06 36.48C174.454 36.6933 174.908 36.8 175.42 36.8C175.846 36.8 176.236 36.7253 176.588 36.576C176.95 36.4267 177.26 36.2027 177.516 35.904L178.444 36.848C178.081 37.2747 177.633 37.6 177.1 37.824C176.577 38.048 176.017 38.16 175.42 38.16ZM183.694 38.16C182.99 38.16 182.361 37.9893 181.806 37.648C181.251 37.296 180.809 36.8213 180.478 36.224C180.158 35.6267 179.998 34.9547 179.998 34.208C179.998 33.4613 180.158 32.7893 180.478 32.192C180.809 31.5947 181.251 31.12 181.806 30.768C182.361 30.416 182.99 30.24 183.694 30.24C184.259 30.24 184.771 30.3627 185.23 30.608C185.689 30.8427 186.057 31.1733 186.334 31.6C186.622 32.016 186.782 32.5013 186.814 33.056V35.344C186.782 35.888 186.627 36.3733 186.35 36.8C186.073 37.2267 185.705 37.5627 185.246 37.808C184.787 38.0427 184.27 38.16 183.694 38.16ZM183.934 36.8C184.414 36.8 184.83 36.688 185.182 36.464C185.545 36.24 185.827 35.936 186.03 35.552C186.233 35.1573 186.334 34.7093 186.334 34.208C186.334 33.6853 186.227 33.232 186.014 32.848C185.811 32.464 185.529 32.16 185.166 31.936C184.814 31.712 184.398 31.6 183.918 31.6C183.438 31.6 183.017 31.712 182.654 31.936C182.291 32.16 182.003 32.4693 181.79 32.864C181.587 33.248 181.486 33.6907 181.486 34.192C181.486 34.704 181.587 35.1573 181.79 35.552C182.003 35.936 182.291 36.24 182.654 36.464C183.027 36.688 183.454 36.8 183.934 36.8ZM187.694 38H186.238V35.952L186.51 34.096L186.238 32.256V26.576H187.694V38ZM189.806 38V30.4H191.246V38H189.806ZM190.526 28.88C190.26 28.88 190.041 28.7947 189.87 28.624C189.7 28.4427 189.614 28.2187 189.614 27.952C189.614 27.696 189.7 27.4827 189.87 27.312C190.041 27.1307 190.26 27.04 190.526 27.04C190.793 27.04 191.012 27.1307 191.182 27.312C191.353 27.4827 191.438 27.696 191.438 27.952C191.438 28.2187 191.353 28.4427 191.182 28.624C191.012 28.7947 190.793 28.88 190.526 28.88ZM196.601 38.16C195.907 38.16 195.278 37.9893 194.713 37.648C194.147 37.296 193.699 36.8213 193.368 36.224C193.049 35.6267 192.889 34.9547 192.889 34.208C192.889 33.4613 193.049 32.7893 193.368 32.192C193.699 31.5947 194.142 31.12 194.697 30.768C195.262 30.416 195.897 30.24 196.601 30.24C197.177 30.24 197.689 30.3627 198.137 30.608C198.595 30.8427 198.963 31.1733 199.241 31.6C199.518 32.016 199.673 32.5013 199.705 33.056V35.344C199.673 35.888 199.518 36.3733 199.241 36.8C198.974 37.2267 198.611 37.5627 198.153 37.808C197.705 38.0427 197.187 38.16 196.601 38.16ZM196.841 36.8C197.555 36.8 198.131 36.56 198.569 36.08C199.006 35.5893 199.225 34.9653 199.225 34.208C199.225 33.6853 199.123 33.232 198.921 32.848C198.729 32.4533 198.451 32.1493 198.089 31.936C197.726 31.712 197.305 31.6 196.825 31.6C196.345 31.6 195.918 31.712 195.545 31.936C195.182 32.16 194.894 32.4693 194.681 32.864C194.478 33.248 194.377 33.6907 194.377 34.192C194.377 34.704 194.478 35.1573 194.681 35.552C194.894 35.936 195.187 36.24 195.561 36.464C195.934 36.688 196.361 36.8 196.841 36.8ZM199.129 38V35.952L199.401 34.096L199.129 32.256V30.4H200.585V38H199.129Z" fill="white"/>
<g filter="url(#filter4_f_965_962)">
<circle cx="235.5" cy="109.5" r="49.5" fill="#0A60AD"/>
</g>
<g filter="url(#filter5_f_965_962)">
<circle cx="-10.5" cy="113.5" r="49.5" fill="#0A5FAD"/>
</g>
</g>
<rect x="6.5" y="6.5" width="215" height="215" rx="17.5" stroke="url(#paint3_linear_965_962)"/>
<defs>
<filter id="filter1_f_965_962" x="110" y="-67" width="199" height="199" filterUnits="userSpaceOnUse" color-interpolation-filters="sRGB">
<feFlood flood-opacity="0" result="BackgroundImageFix"/>
<feBlend mode="normal" in="SourceGraphic" in2="BackgroundImageFix" result="shape"/>
<feGaussianBlur stdDeviation="25" result="effect1_foregroundBlur_965_962"/>
</filter>
<filter id="filter2_f_965_962" x="-61" y="97" width="199" height="199" filterUnits="userSpaceOnUse" color-interpolation-filters="sRGB">
<feFlood flood-opacity="0" result="BackgroundImageFix"/>
<feBlend mode="normal" in="SourceGraphic" in2="BackgroundImageFix" result="shape"/>
<feGaussianBlur stdDeviation="25" result="effect1_foregroundBlur_965_962"/>
</filter>
<filter id="filter3_f_965_962" x="-50" y="-73" width="199" height="199" filterUnits="userSpaceOnUse" color-interpolation-filters="sRGB">
<feFlood flood-opacity="0" result="BackgroundImageFix"/>
<feBlend mode="normal" in="SourceGraphic" in2="BackgroundImageFix" result="shape"/>
<feGaussianBlur stdDeviation="25" result="effect1_foregroundBlur_965_962"/>
</filter>
<filter id="filter4_f_965_962" x="136" y="10" width="199" height="199" filterUnits="userSpaceOnUse" color-interpolation-filters="sRGB">
<feFlood flood-opacity="0" result="BackgroundImageFix"/>
<feBlend mode="normal" in="SourceGraphic" in2="BackgroundImageFix" result="shape"/>
<feGaussianBlur stdDeviation="25" result="effect1_foregroundBlur_965_962"/>
</filter>
<filter id="filter5_f_965_962" x="-110" y="14" width="199" height="199" filterUnits="userSpaceOnUse" color-interpolation-filters="sRGB">
<feFlood flood-opacity="0" result="BackgroundImageFix"/>
<feBlend mode="normal" in="SourceGraphic" in2="BackgroundImageFix" result="shape"/>
<feGaussianBlur stdDeviation="25" result="effect1_foregroundBlur_965_962"/>
</filter>
<linearGradient id="paint0_linear_965_962" x1="120" y1="13" x2="120" y2="70" gradientUnits="userSpaceOnUse">
<stop stop-color="#0A60AD"/>
<stop offset="1" stop-color="#0E86F1"/>
</linearGradient>
<linearGradient id="paint1_linear_965_962" x1="120.5" y1="159" x2="120.033" y2="216.501" gradientUnits="userSpaceOnUse">
<stop stop-color="#0E86F1"/>
<stop offset="1" stop-color="#0A60AD"/>
</linearGradient>
<radialGradient id="paint2_radial_965_962" cx="0" cy="0" r="1" gradientTransform="matrix(126.269 -26.5 -35.2647 110.361 116.5 114.5)" gradientUnits="userSpaceOnUse">
<stop offset="0.573912" stop-color="white"/>
<stop offset="0.911752" stop-color="white" stop-opacity="0.6"/>
</radialGradient>
<linearGradient id="paint3_linear_965_962" x1="222" y1="13.5" x2="12" y2="222" gradientUnits="userSpaceOnUse">
<stop stop-color="#A9EFFB"/>
<stop offset="0.490385" stop-color="#A9EFFB" stop-opacity="0"/>
<stop offset="1" stop-color="#A9EFFB"/>
</linearGradient>
<clipPath id="clip0_965_962">
<rect x="6" y="6" width="216" height="216" rx="18" fill="white"/>
</clipPath>
</defs>
</svg>
