<svg width="228" height="228" viewBox="0 0 228 228" fill="none" xmlns="http://www.w3.org/2000/svg">
<rect width="228" height="228" rx="24" fill="white" fill-opacity="0.05"/>
<g clip-path="url(#clip0_965_962)">
<rect x="6" y="6" width="216" height="216" rx="18" fill="#0A60AD"/>
<path d="M14.5839 30.4334C14.5839 28.8056 51.6202 11.8504 60.0029 27.5231C67.1232 40.8355 -35.8684 116.358 -6.82452 130.884C17.3687 142.985 164.132 -19.1421 192.556 -5.14194C220.979 8.85827 -6.75555 187.68 80.7023 188.901C130.718 189.598 220.632 85.3578 238.632 99.8578C250.95 109.78 179.132 214.858 161.123 233.358" stroke="#0A6CC2" stroke-width="30" stroke-linecap="round"/>
<path d="M29.892 70V4.772H46.176V70H29.892ZM17.472 18.48V4.772H45.256V18.48H17.472ZM50.1917 61.076L75.7677 35.04C76.9943 33.6907 78.0063 32.4947 78.8037 31.452C79.601 30.348 80.153 29.336 80.4597 28.416C80.8277 27.4347 81.0117 26.4227 81.0117 25.38C81.0117 23.0493 80.245 21.2093 78.7117 19.86C77.2397 18.5107 75.277 17.836 72.8237 17.836C70.493 17.836 68.377 18.5107 66.4757 19.86C64.5743 21.148 62.6117 23.3253 60.5877 26.392L49.8237 16.824C52.461 12.5307 55.8343 9.28 59.9437 7.072C64.053 4.80267 68.7757 3.668 74.1117 3.668C78.8343 3.668 82.913 4.52667 86.3477 6.244C89.7823 7.96133 92.4197 10.4147 94.2597 13.604C96.161 16.732 97.1117 20.4427 97.1117 24.736C97.1117 27.312 96.7743 29.704 96.0997 31.912C95.425 34.0587 94.3517 36.2053 92.8797 38.352C91.4077 40.4373 89.445 42.6453 86.9917 44.976L70.0637 61.444L50.1917 61.076ZM50.1917 70V61.076L63.8997 56.292H98.4917V70H50.1917ZM128.499 71.012C123.041 71.012 118.165 69.6013 113.871 66.78C109.578 63.8973 106.174 59.9107 103.659 54.82C101.206 49.7293 99.9795 43.872 99.9795 37.248C99.9795 30.6853 101.206 24.8893 103.659 19.86C106.113 14.7693 109.455 10.8133 113.687 7.992C117.981 5.10933 122.826 3.668 128.223 3.668C133.743 3.668 138.65 5.10933 142.943 7.992C147.237 10.8133 150.61 14.7693 153.063 19.86C155.517 24.8893 156.743 30.7467 156.743 37.432C156.743 44.056 155.517 49.9133 153.063 55.004C150.61 60.0333 147.237 63.9587 142.943 66.78C138.711 69.6013 133.897 71.012 128.499 71.012ZM128.315 56.844C130.83 56.844 132.977 56.108 134.755 54.636C136.534 53.1027 137.883 50.8947 138.803 48.012C139.785 45.1293 140.275 41.572 140.275 37.34C140.275 33.1693 139.785 29.6427 138.803 26.76C137.883 23.8773 136.534 21.7 134.755 20.228C132.977 18.6947 130.799 17.928 128.223 17.928C125.831 17.928 123.746 18.664 121.967 20.136C120.189 21.608 118.809 23.7853 117.827 26.668C116.907 29.5507 116.447 33.0773 116.447 37.248C116.447 41.48 116.907 45.068 117.827 48.012C118.809 50.8947 120.189 53.1027 121.967 54.636C123.746 56.108 125.862 56.844 128.315 56.844ZM157.562 61.076L183.138 35.04C184.365 33.6907 185.377 32.4947 186.174 31.452C186.971 30.348 187.523 29.336 187.83 28.416C188.198 27.4347 188.382 26.4227 188.382 25.38C188.382 23.0493 187.615 21.2093 186.082 19.86C184.61 18.5107 182.647 17.836 180.194 17.836C177.863 17.836 175.747 18.5107 173.846 19.86C171.945 21.148 169.982 23.3253 167.958 26.392L157.194 16.824C159.831 12.5307 163.205 9.28 167.314 7.072C171.423 4.80267 176.146 3.668 181.482 3.668C186.205 3.668 190.283 4.52667 193.718 6.244C197.153 7.96133 199.79 10.4147 201.63 13.604C203.531 16.732 204.482 20.4427 204.482 24.736C204.482 27.312 204.145 29.704 203.47 31.912C202.795 34.0587 201.722 36.2053 200.25 38.352C198.778 40.4373 196.815 42.6453 194.362 44.976L177.434 61.444L157.562 61.076ZM157.562 70V61.076L171.27 56.292H205.862V70H157.562Z" fill="url(#paint0_linear_965_962)"/>
<path d="M29.892 224V158.772H46.176V224H29.892ZM17.472 172.48V158.772H45.256V172.48H17.472ZM50.1917 215.076L75.7677 189.04C76.9943 187.691 78.0063 186.495 78.8037 185.452C79.601 184.348 80.153 183.336 80.4597 182.416C80.8277 181.435 81.0117 180.423 81.0117 179.38C81.0117 177.049 80.245 175.209 78.7117 173.86C77.2397 172.511 75.277 171.836 72.8237 171.836C70.493 171.836 68.377 172.511 66.4757 173.86C64.5743 175.148 62.6117 177.325 60.5877 180.392L49.8237 170.824C52.461 166.531 55.8343 163.28 59.9437 161.072C64.053 158.803 68.7757 157.668 74.1117 157.668C78.8343 157.668 82.913 158.527 86.3477 160.244C89.7823 161.961 92.4197 164.415 94.2597 167.604C96.161 170.732 97.1117 174.443 97.1117 178.736C97.1117 181.312 96.7743 183.704 96.0997 185.912C95.425 188.059 94.3517 190.205 92.8797 192.352C91.4077 194.437 89.445 196.645 86.9917 198.976L70.0637 215.444L50.1917 215.076ZM50.1917 224V215.076L63.8997 210.292H98.4917V224H50.1917ZM128.499 225.012C123.041 225.012 118.165 223.601 113.871 220.78C109.578 217.897 106.174 213.911 103.659 208.82C101.206 203.729 99.9795 197.872 99.9795 191.248C99.9795 184.685 101.206 178.889 103.659 173.86C106.113 168.769 109.455 164.813 113.687 161.992C117.981 159.109 122.826 157.668 128.223 157.668C133.743 157.668 138.65 159.109 142.943 161.992C147.237 164.813 150.61 168.769 153.063 173.86C155.517 178.889 156.743 184.747 156.743 191.432C156.743 198.056 155.517 203.913 153.063 209.004C150.61 214.033 147.237 217.959 142.943 220.78C138.711 223.601 133.897 225.012 128.499 225.012ZM128.315 210.844C130.83 210.844 132.977 210.108 134.755 208.636C136.534 207.103 137.883 204.895 138.803 202.012C139.785 199.129 140.275 195.572 140.275 191.34C140.275 187.169 139.785 183.643 138.803 180.76C137.883 177.877 136.534 175.7 134.755 174.228C132.977 172.695 130.799 171.928 128.223 171.928C125.831 171.928 123.746 172.664 121.967 174.136C120.189 175.608 118.809 177.785 117.827 180.668C116.907 183.551 116.447 187.077 116.447 191.248C116.447 195.48 116.907 199.068 117.827 202.012C118.809 204.895 120.189 207.103 121.967 208.636C123.746 210.108 125.862 210.844 128.315 210.844ZM157.194 201.644L177.618 158.772H195.282L174.306 201.644H157.194ZM157.194 210.66V201.644L161.978 196.952H210.186V210.66H157.194ZM187.83 224V184.716H203.93V224H187.83Z" fill="url(#paint1_linear_965_962)"/>
<g filter="url(#filter1_f_965_962)">
<circle cx="209.5" cy="32.5" r="49.5" fill="#0A60AD"/>
</g>
<g filter="url(#filter2_f_965_962)">
<circle cx="38.5" cy="196.5" r="49.5" fill="#0A60AD"/>
</g>
<path d="M29.892 147V81.772H46.176V147H29.892ZM17.472 95.48V81.772H45.256V95.48H17.472ZM50.1917 138.076L75.7677 112.04C76.9943 110.691 78.0063 109.495 78.8037 108.452C79.601 107.348 80.153 106.336 80.4597 105.416C80.8277 104.435 81.0117 103.423 81.0117 102.38C81.0117 100.049 80.245 98.2093 78.7117 96.86C77.2397 95.5107 75.277 94.836 72.8237 94.836C70.493 94.836 68.377 95.5107 66.4757 96.86C64.5743 98.148 62.6117 100.325 60.5877 103.392L49.8237 93.824C52.461 89.5307 55.8343 86.28 59.9437 84.072C64.053 81.8027 68.7757 80.668 74.1117 80.668C78.8343 80.668 82.913 81.5267 86.3477 83.244C89.7823 84.9613 92.4197 87.4147 94.2597 90.604C96.161 93.732 97.1117 97.4427 97.1117 101.736C97.1117 104.312 96.7743 106.704 96.0997 108.912C95.425 111.059 94.3517 113.205 92.8797 115.352C91.4077 117.437 89.445 119.645 86.9917 121.976L70.0637 138.444L50.1917 138.076ZM50.1917 147V138.076L63.8997 133.292H98.4917V147H50.1917ZM128.499 148.012C123.041 148.012 118.165 146.601 113.871 143.78C109.578 140.897 106.174 136.911 103.659 131.82C101.206 126.729 99.9795 120.872 99.9795 114.248C99.9795 107.685 101.206 101.889 103.659 96.86C106.113 91.7693 109.455 87.8133 113.687 84.992C117.981 82.1093 122.826 80.668 128.223 80.668C133.743 80.668 138.65 82.1093 142.943 84.992C147.237 87.8133 150.61 91.7693 153.063 96.86C155.517 101.889 156.743 107.747 156.743 114.432C156.743 121.056 155.517 126.913 153.063 132.004C150.61 137.033 147.237 140.959 142.943 143.78C138.711 146.601 133.897 148.012 128.499 148.012ZM128.315 133.844C130.83 133.844 132.977 133.108 134.755 131.636C136.534 130.103 137.883 127.895 138.803 125.012C139.785 122.129 140.275 118.572 140.275 114.34C140.275 110.169 139.785 106.643 138.803 103.76C137.883 100.877 136.534 98.7 134.755 97.228C132.977 95.6947 130.799 94.928 128.223 94.928C125.831 94.928 123.746 95.664 121.967 97.136C120.189 98.608 118.809 100.785 117.827 103.668C116.907 106.551 116.447 110.077 116.447 114.248C116.447 118.48 116.907 122.068 117.827 125.012C118.809 127.895 120.189 130.103 121.967 131.636C123.746 133.108 125.862 133.844 128.315 133.844ZM179.09 148.012C174.49 148.012 170.258 147.245 166.394 145.712C162.53 144.117 159.249 141.879 156.55 138.996L167.038 128.692C168.142 130.287 169.767 131.605 171.914 132.648C174.122 133.629 176.422 134.12 178.814 134.12C180.838 134.12 182.617 133.783 184.15 133.108C185.745 132.372 186.971 131.36 187.83 130.072C188.75 128.723 189.21 127.128 189.21 125.288C189.21 123.448 188.75 121.884 187.83 120.596C186.91 119.247 185.591 118.235 183.874 117.56C182.218 116.885 180.225 116.548 177.894 116.548C176.667 116.548 175.379 116.64 174.03 116.824C172.742 116.947 171.699 117.161 170.902 117.468L178.078 108.452C180.041 107.961 181.819 107.563 183.414 107.256C185.07 106.888 186.542 106.704 187.83 106.704C191.142 106.704 194.117 107.501 196.754 109.096C199.391 110.629 201.477 112.837 203.01 115.72C204.543 118.541 205.31 121.884 205.31 125.748C205.31 130.164 204.237 134.059 202.09 137.432C199.943 140.744 196.877 143.351 192.89 145.252C188.965 147.092 184.365 148.012 179.09 148.012ZM170.902 117.468V108.452L186.082 90.696H203.93L188.29 108.452L170.902 117.468ZM161.058 95.48V81.772H203.93V90.696L191.51 95.48H161.058Z" fill="url(#paint2_radial_965_962)"/>
<g filter="url(#filter3_f_965_962)">
<circle cx="49.5" cy="26.5" r="49.5" fill="#0A5FAD"/>
</g>
<path d="M26.944 38L22.496 26.896H24.128L27.792 36.288H27.2L30.896 26.896H32.512L28.032 38H26.944ZM34.0876 38V30.4H35.5276V38H34.0876ZM34.8076 28.88C34.541 28.88 34.3223 28.7947 34.1516 28.624C33.981 28.4427 33.8956 28.2187 33.8956 27.952C33.8956 27.696 33.981 27.4827 34.1516 27.312C34.3223 27.1307 34.541 27.04 34.8076 27.04C35.0743 27.04 35.293 27.1307 35.4636 27.312C35.6343 27.4827 35.7196 27.696 35.7196 27.952C35.7196 28.2187 35.6343 28.4427 35.4636 28.624C35.293 28.7947 35.0743 28.88 34.8076 28.88ZM40.0658 38.16C39.6391 38.16 39.2338 38.1067 38.8498 38C38.4764 37.8827 38.1298 37.7227 37.8098 37.52C37.4898 37.3067 37.2124 37.056 36.9778 36.768L37.9058 35.84C38.1831 36.1813 38.5031 36.4373 38.8658 36.608C39.2284 36.768 39.6338 36.848 40.0818 36.848C40.5298 36.848 40.8764 36.7733 41.1218 36.624C41.3671 36.464 41.4898 36.2453 41.4898 35.968C41.4898 35.6907 41.3884 35.4773 41.1858 35.328C40.9938 35.168 40.7431 35.04 40.4338 34.944C40.1244 34.8373 39.7938 34.736 39.4418 34.64C39.1004 34.5333 38.7751 34.4 38.4658 34.24C38.1564 34.08 37.9004 33.8613 37.6978 33.584C37.5058 33.3067 37.4098 32.9387 37.4098 32.48C37.4098 32.0213 37.5218 31.6267 37.7458 31.296C37.9698 30.9547 38.2791 30.6933 38.6738 30.512C39.0791 30.3307 39.5644 30.24 40.1298 30.24C40.7271 30.24 41.2551 30.3467 41.7138 30.56C42.1831 30.7627 42.5671 31.072 42.8658 31.488L41.9378 32.416C41.7244 32.1387 41.4578 31.9253 41.1378 31.776C40.8284 31.6267 40.4764 31.552 40.0818 31.552C39.6658 31.552 39.3458 31.6267 39.1218 31.776C38.9084 31.9147 38.8018 32.112 38.8018 32.368C38.8018 32.624 38.8978 32.8213 39.0898 32.96C39.2818 33.0987 39.5324 33.216 39.8418 33.312C40.1618 33.408 40.4924 33.5093 40.8338 33.616C41.1751 33.712 41.5004 33.8453 41.8098 34.016C42.1191 34.1867 42.3698 34.416 42.5618 34.704C42.7644 34.992 42.8658 35.3707 42.8658 35.84C42.8658 36.5547 42.6098 37.12 42.0978 37.536C41.5964 37.952 40.9191 38.16 40.0658 38.16ZM44.4939 38V30.4H45.9339V38H44.4939ZM45.2139 28.88C44.9472 28.88 44.7285 28.7947 44.5579 28.624C44.3872 28.4427 44.3019 28.2187 44.3019 27.952C44.3019 27.696 44.3872 27.4827 44.5579 27.312C44.7285 27.1307 44.9472 27.04 45.2139 27.04C45.4805 27.04 45.6992 27.1307 45.8699 27.312C46.0405 27.4827 46.1259 27.696 46.1259 27.952C46.1259 28.2187 46.0405 28.4427 45.8699 28.624C45.6992 28.7947 45.4805 28.88 45.2139 28.88ZM49.224 38V27.216H50.664V38H49.224ZM47.352 31.712V30.4H52.536V31.712H47.352ZM57.1843 38.16C56.4376 38.16 55.7656 37.984 55.1683 37.632C54.5709 37.28 54.0963 36.8053 53.7443 36.208C53.3923 35.6 53.2163 34.9227 53.2163 34.176C53.2163 33.44 53.3923 32.7787 53.7443 32.192C54.0963 31.5947 54.5709 31.12 55.1683 30.768C55.7656 30.416 56.4376 30.24 57.1843 30.24C57.9203 30.24 58.5869 30.416 59.1843 30.768C59.7923 31.1093 60.2723 31.5787 60.6243 32.176C60.9763 32.7733 61.1523 33.44 61.1523 34.176C61.1523 34.9227 60.9763 35.6 60.6243 36.208C60.2723 36.8053 59.7923 37.28 59.1843 37.632C58.5869 37.984 57.9203 38.16 57.1843 38.16ZM57.1843 36.768C57.6643 36.768 58.0909 36.656 58.4643 36.432C58.8376 36.208 59.1309 35.904 59.3443 35.52C59.5576 35.1253 59.6643 34.6773 59.6643 34.176C59.6643 33.6853 59.5523 33.248 59.3283 32.864C59.1149 32.48 58.8216 32.1813 58.4483 31.968C58.0856 31.744 57.6643 31.632 57.1843 31.632C56.7043 31.632 56.2776 31.744 55.9043 31.968C55.5309 32.1813 55.2376 32.48 55.0243 32.864C54.8109 33.248 54.7043 33.6853 54.7043 34.176C54.7043 34.6773 54.8109 35.1253 55.0243 35.52C55.2376 35.904 55.5309 36.208 55.9043 36.432C56.2776 36.656 56.7043 36.768 57.1843 36.768ZM62.7747 38V30.4H64.2148V38H62.7747ZM64.2148 33.664L63.6708 33.424C63.6708 32.4533 63.8948 31.68 64.3428 31.104C64.7908 30.528 65.4361 30.24 66.2788 30.24C66.6628 30.24 67.0094 30.3093 67.3188 30.448C67.6281 30.576 67.9161 30.7947 68.1828 31.104L67.2388 32.08C67.0788 31.9093 66.9028 31.7867 66.7108 31.712C66.5188 31.6373 66.2948 31.6 66.0388 31.6C65.5054 31.6 65.0681 31.7707 64.7268 32.112C64.3854 32.4533 64.2148 32.9707 64.2148 33.664ZM71.4408 38.16C71.0141 38.16 70.6088 38.1067 70.2248 38C69.8514 37.8827 69.5048 37.7227 69.1848 37.52C68.8648 37.3067 68.5874 37.056 68.3528 36.768L69.2808 35.84C69.5581 36.1813 69.8781 36.4373 70.2408 36.608C70.6034 36.768 71.0088 36.848 71.4568 36.848C71.9048 36.848 72.2514 36.7733 72.4968 36.624C72.7421 36.464 72.8648 36.2453 72.8648 35.968C72.8648 35.6907 72.7634 35.4773 72.5608 35.328C72.3688 35.168 72.1181 35.04 71.8088 34.944C71.4994 34.8373 71.1688 34.736 70.8168 34.64C70.4754 34.5333 70.1501 34.4 69.8408 34.24C69.5314 34.08 69.2754 33.8613 69.0728 33.584C68.8808 33.3067 68.7848 32.9387 68.7848 32.48C68.7848 32.0213 68.8968 31.6267 69.1208 31.296C69.3448 30.9547 69.6541 30.6933 70.0488 30.512C70.4541 30.3307 70.9394 30.24 71.5048 30.24C72.1021 30.24 72.6301 30.3467 73.0888 30.56C73.5581 30.7627 73.9421 31.072 74.2408 31.488L73.3128 32.416C73.0994 32.1387 72.8328 31.9253 72.5128 31.776C72.2034 31.6267 71.8514 31.552 71.4568 31.552C71.0408 31.552 70.7208 31.6267 70.4968 31.776C70.2834 31.9147 70.1768 32.112 70.1768 32.368C70.1768 32.624 70.2728 32.8213 70.4648 32.96C70.6568 33.0987 70.9074 33.216 71.2168 33.312C71.5368 33.408 71.8674 33.5093 72.2088 33.616C72.5501 33.712 72.8754 33.8453 73.1848 34.016C73.4941 34.1867 73.7448 34.416 73.9368 34.704C74.1394 34.992 74.2408 35.3707 74.2408 35.84C74.2408 36.5547 73.9848 37.12 73.4728 37.536C72.9714 37.952 72.2941 38.16 71.4408 38.16ZM79.181 38V26.576H80.621V38H79.181ZM85.9599 38.16C85.2665 38.16 84.6372 37.9893 84.0719 37.648C83.5065 37.296 83.0585 36.8213 82.7279 36.224C82.4079 35.6267 82.2479 34.9547 82.2479 34.208C82.2479 33.4613 82.4079 32.7893 82.7279 32.192C83.0585 31.5947 83.5012 31.12 84.0559 30.768C84.6212 30.416 85.2559 30.24 85.9599 30.24C86.5359 30.24 87.0479 30.3627 87.4959 30.608C87.9545 30.8427 88.3225 31.1733 88.5999 31.6C88.8772 32.016 89.0319 32.5013 89.0639 33.056V35.344C89.0319 35.888 88.8772 36.3733 88.5999 36.8C88.3332 37.2267 87.9705 37.5627 87.5119 37.808C87.0639 38.0427 86.5465 38.16 85.9599 38.16ZM86.1999 36.8C86.9145 36.8 87.4905 36.56 87.9279 36.08C88.3652 35.5893 88.5839 34.9653 88.5839 34.208C88.5839 33.6853 88.4825 33.232 88.2799 32.848C88.0879 32.4533 87.8105 32.1493 87.4479 31.936C87.0852 31.712 86.6639 31.6 86.1839 31.6C85.7039 31.6 85.2772 31.712 84.9039 31.936C84.5412 32.16 84.2532 32.4693 84.0399 32.864C83.8372 33.248 83.7359 33.6907 83.7359 34.192C83.7359 34.704 83.8372 35.1573 84.0399 35.552C84.2532 35.936 84.5465 36.24 84.9199 36.464C85.2932 36.688 85.7199 36.8 86.1999 36.8ZM88.4879 38V35.952L88.7599 34.096L88.4879 32.256V30.4H89.9439V38H88.4879ZM94.4564 38.16C94.0297 38.16 93.6244 38.1067 93.2404 38C92.867 37.8827 92.5204 37.7227 92.2004 37.52C91.8804 37.3067 91.603 37.056 91.3684 36.768L92.2964 35.84C92.5737 36.1813 92.8937 36.4373 93.2564 36.608C93.619 36.768 94.0244 36.848 94.4724 36.848C94.9204 36.848 95.267 36.7733 95.5124 36.624C95.7577 36.464 95.8804 36.2453 95.8804 35.968C95.8804 35.6907 95.779 35.4773 95.5764 35.328C95.3844 35.168 95.1337 35.04 94.8244 34.944C94.515 34.8373 94.1844 34.736 93.8324 34.64C93.491 34.5333 93.1657 34.4 92.8564 34.24C92.547 34.08 92.291 33.8613 92.0884 33.584C91.8964 33.3067 91.8004 32.9387 91.8004 32.48C91.8004 32.0213 91.9124 31.6267 92.1364 31.296C92.3604 30.9547 92.6697 30.6933 93.0644 30.512C93.4697 30.3307 93.955 30.24 94.5204 30.24C95.1177 30.24 95.6457 30.3467 96.1044 30.56C96.5737 30.7627 96.9577 31.072 97.2564 31.488L96.3284 32.416C96.115 32.1387 95.8484 31.9253 95.5284 31.776C95.219 31.6267 94.867 31.552 94.4724 31.552C94.0564 31.552 93.7364 31.6267 93.5124 31.776C93.299 31.9147 93.1924 32.112 93.1924 32.368C93.1924 32.624 93.2884 32.8213 93.4804 32.96C93.6724 33.0987 93.923 33.216 94.2324 33.312C94.5524 33.408 94.883 33.5093 95.2244 33.616C95.5657 33.712 95.891 33.8453 96.2004 34.016C96.5097 34.1867 96.7604 34.416 96.9524 34.704C97.155 34.992 97.2564 35.3707 97.2564 35.84C97.2564 36.5547 97.0004 37.12 96.4884 37.536C95.987 37.952 95.3097 38.16 94.4564 38.16ZM100.037 38V27.216H101.477V38H100.037ZM98.1645 31.712V30.4H103.349V31.712H98.1645ZM110.263 38L107.255 30.4H108.759L110.935 36.32H110.455L112.615 30.4H113.447L115.607 36.32H115.127L117.303 30.4H118.807L115.815 38H114.967L112.775 32.256H113.303L111.095 38H110.263ZM123.389 38.16C122.631 38.16 121.949 37.9893 121.341 37.648C120.733 37.296 120.253 36.8213 119.901 36.224C119.549 35.6267 119.373 34.9493 119.373 34.192C119.373 33.4453 119.543 32.7733 119.885 32.176C120.237 31.5787 120.706 31.1093 121.293 30.768C121.89 30.416 122.557 30.24 123.293 30.24C123.997 30.24 124.615 30.4 125.149 30.72C125.693 31.04 126.114 31.4827 126.413 32.048C126.722 32.6133 126.877 33.2533 126.877 33.968C126.877 34.0747 126.871 34.192 126.861 34.32C126.85 34.4373 126.829 34.576 126.797 34.736H120.381V33.536H126.029L125.501 34C125.501 33.488 125.41 33.056 125.229 32.704C125.047 32.3413 124.791 32.064 124.461 31.872C124.13 31.6693 123.73 31.568 123.261 31.568C122.77 31.568 122.338 31.6747 121.965 31.888C121.591 32.1013 121.303 32.4 121.101 32.784C120.898 33.168 120.797 33.6213 120.797 34.144C120.797 34.6773 120.903 35.1467 121.117 35.552C121.33 35.9467 121.634 36.256 122.029 36.48C122.423 36.6933 122.877 36.8 123.389 36.8C123.815 36.8 124.205 36.7253 124.557 36.576C124.919 36.4267 125.229 36.2027 125.485 35.904L126.413 36.848C126.05 37.2747 125.602 37.6 125.069 37.824C124.546 38.048 123.986 38.16 123.389 38.16ZM131.967 38.16C131.209 38.16 130.527 37.9893 129.919 37.648C129.311 37.296 128.831 36.8213 128.479 36.224C128.127 35.6267 127.951 34.9493 127.951 34.192C127.951 33.4453 128.121 32.7733 128.463 32.176C128.815 31.5787 129.284 31.1093 129.871 30.768C130.468 30.416 131.135 30.24 131.871 30.24C132.575 30.24 133.193 30.4 133.727 30.72C134.271 31.04 134.692 31.4827 134.991 32.048C135.3 32.6133 135.455 33.2533 135.455 33.968C135.455 34.0747 135.449 34.192 135.439 34.32C135.428 34.4373 135.407 34.576 135.375 34.736H128.959V33.536H134.607L134.079 34C134.079 33.488 133.988 33.056 133.807 32.704C133.625 32.3413 133.369 32.064 133.039 31.872C132.708 31.6693 132.308 31.568 131.839 31.568C131.348 31.568 130.916 31.6747 130.543 31.888C130.169 32.1013 129.881 32.4 129.679 32.784C129.476 33.168 129.375 33.6213 129.375 34.144C129.375 34.6773 129.481 35.1467 129.695 35.552C129.908 35.9467 130.212 36.256 130.607 36.48C131.001 36.6933 131.455 36.8 131.967 36.8C132.393 36.8 132.783 36.7253 133.135 36.576C133.497 36.4267 133.807 36.2027 134.063 35.904L134.991 36.848C134.628 37.2747 134.18 37.6 133.647 37.824C133.124 38.048 132.564 38.16 131.967 38.16ZM141.889 38L138.337 34.112L141.857 30.4H143.601L139.681 34.496L139.745 33.664L143.745 38H141.889ZM137.025 38V26.576H138.465V38H137.025Z" fill="white"/>
<g filter="url(#filter4_f_965_962)">
<circle cx="235.5" cy="109.5" r="49.5" fill="#0A60AD"/>
</g>
<g filter="url(#filter5_f_965_962)">
<circle cx="-10.5" cy="113.5" r="49.5" fill="#0A5FAD"/>
</g>
</g>
<rect x="6.5" y="6.5" width="215" height="215" rx="17.5" stroke="url(#paint3_linear_965_962)"/>
<defs>
<filter id="filter1_f_965_962" x="110" y="-67" width="199" height="199" filterUnits="userSpaceOnUse" color-interpolation-filters="sRGB">
<feFlood flood-opacity="0" result="BackgroundImageFix"/>
<feBlend mode="normal" in="SourceGraphic" in2="BackgroundImageFix" result="shape"/>
<feGaussianBlur stdDeviation="25" result="effect1_foregroundBlur_965_962"/>
</filter>
<filter id="filter2_f_965_962" x="-61" y="97" width="199" height="199" filterUnits="userSpaceOnUse" color-interpolation-filters="sRGB">
<feFlood flood-opacity="0" result="BackgroundImageFix"/>
<feBlend mode="normal" in="SourceGraphic" in2="BackgroundImageFix" result="shape"/>
<feGaussianBlur stdDeviation="25" result="effect1_foregroundBlur_965_962"/>
</filter>
<filter id="filter3_f_965_962" x="-50" y="-73" width="199" height="199" filterUnits="userSpaceOnUse" color-interpolation-filters="sRGB">
<feFlood flood-opacity="0" result="BackgroundImageFix"/>
<feBlend mode="normal" in="SourceGraphic" in2="BackgroundImageFix" result="shape"/>
<feGaussianBlur stdDeviation="25" result="effect1_foregroundBlur_965_962"/>
</filter>
<filter id="filter4_f_965_962" x="136" y="10" width="199" height="199" filterUnits="userSpaceOnUse" color-interpolation-filters="sRGB">
<feFlood flood-opacity="0" result="BackgroundImageFix"/>
<feBlend mode="normal" in="SourceGraphic" in2="BackgroundImageFix" result="shape"/>
<feGaussianBlur stdDeviation="25" result="effect1_foregroundBlur_965_962"/>
</filter>
<filter id="filter5_f_965_962" x="-110" y="14" width="199" height="199" filterUnits="userSpaceOnUse" color-interpolation-filters="sRGB">
<feFlood flood-opacity="0" result="BackgroundImageFix"/>
<feBlend mode="normal" in="SourceGraphic" in2="BackgroundImageFix" result="shape"/>
<feGaussianBlur stdDeviation="25" result="effect1_foregroundBlur_965_962"/>
</filter>
<linearGradient id="paint0_linear_965_962" x1="113.5" y1="13" x2="113.5" y2="70" gradientUnits="userSpaceOnUse">
<stop stop-color="#0A60AD"/>
<stop offset="1" stop-color="#0E86F1"/>
</linearGradient>
<linearGradient id="paint1_linear_965_962" x1="114" y1="159" x2="113.503" y2="216.5" gradientUnits="userSpaceOnUse">
<stop stop-color="#0E86F1"/>
<stop offset="1" stop-color="#0A60AD"/>
</linearGradient>
<radialGradient id="paint2_radial_965_962" cx="0" cy="0" r="1" gradientTransform="matrix(122.5 -26.5 -34.212 110.361 113.5 114.5)" gradientUnits="userSpaceOnUse">
<stop offset="0.573912" stop-color="white"/>
<stop offset="0.911752" stop-color="white" stop-opacity="0.6"/>
</radialGradient>
<linearGradient id="paint3_linear_965_962" x1="222" y1="13.5" x2="12" y2="222" gradientUnits="userSpaceOnUse">
<stop stop-color="#A9EFFB"/>
<stop offset="0.490385" stop-color="#A9EFFB" stop-opacity="0"/>
<stop offset="1" stop-color="#A9EFFB"/>
</linearGradient>
<clipPath id="clip0_965_962">
<rect x="6" y="6" width="216" height="216" rx="18" fill="white"/>
</clipPath>
</defs>
</svg>
